<svg xmlns="http://www.w3.org/2000/svg" xmlns:xlink="http://www.w3.org/1999/xlink" xmlns:inkscape="http://www.inkscape.org/namespaces/inkscape" version="1.1" width="960" height="540" viewBox="0 0 960 540">
<defs>
<clipPath id="clip_1">
<path transform="matrix(.24,0,0,.24,0,0)" d="M0 0H4000V2250H0Z" clip-rule="evenodd"/>
</clipPath>
<clipPath id="clip_2">
<path transform="matrix(.24,0,0,.24,0,0)" d="M0 0H4000V2250H0Z" clip-rule="evenodd"/>
</clipPath>
<clipPath id="clip_3">
<path transform="matrix(.24,0,0,.24,0,0)" d="M0 0H4000V2250H0Z" clip-rule="evenodd"/>
</clipPath>
<g id="font_4_163">
<path transform="matrix(.001,0,0,-.001,0,0)" d="M230-767H167C119-767 99-768 71-772V-674C90-677 105-678 128-678 142-644 148-624 155-589H147C93-589 72-590 49-594V-495C74-499 93-500 142-500H408C442-500 460-499 480-497V-593C457-590 439-589 406-589H400C412-612 425-647 435-678 441-677 441-677 448-677 457-677 457-677 466-676 468-676 471-676 475-675V-771C452-768 435-767 402-767H334V-781C334-810 335-826 339-843H225C228-822 230-806 230-781V-767ZM247-589C237-629 231-650 222-678H341C333-642 325-618 311-589H247ZM297-235V-82C269-73 240-66 229-65L249 42C264 35 264 35 280 29 319 14 330 10 358-3 426-33 465-53 507-79L504-170C458-146 432-133 393-116V-235C431-235 431-235 461-233 459-249 458-261 458-300V-400C458-434 459-446 462-464 435-462 421-461 380-461H176C130-461 115-461 88-464 91-444 92-428 92-398V-299C92-270 91-251 88-232 116-234 116-234 154-235 148-127 107-49 27 9 55 35 73 55 98 90 148 49 179 10 205-46 233-105 245-153 252-235H297ZM195-381H358V-317H195V-381ZM659-767H582C549-767 532-768 509-771V-675C528-677 532-677 557-678 568-650 578-619 584-589H578C545-589 527-590 504-593V-497C523-499 543-500 576-500H858C899-500 932-498 951-495V-594C928-590 907-589 853-589H838C853-620 859-637 873-678 896-678 912-677 929-674V-772C901-768 879-767 833-767H763V-781C763-809 765-826 768-843H654C658-822 659-806 659-781V-767ZM675-589C667-625 660-650 650-678H777C765-633 760-619 746-589H675ZM722-235V-7C722 46 749 65 827 65 890 65 926 55 943 33 961 8 969-29 974-128 939-136 930-140 888-157 888-102 885-65 880-48 876-35 867-31 843-31 824-31 818-36 818-51V-235H826C861-235 887-234 911-232 908-250 907-269 907-299V-398C907-430 908-442 911-464 884-462 866-461 822-461H602C564-461 544-462 519-464 522-446 523-432 523-400V-300C523-262 522-250 520-233 545-234 545-234 583-235 578-158 564-116 528-73 501-39 467-14 412 12 445 38 460 54 486 90 560 49 603 9 633-46 661-99 672-141 682-235H722ZM803-381V-317H624V-381H803Z"/>
</g>
<g id="font_5_214">
<path transform="matrix(.001,0,0,-.001,0,0)" d="M237-727C169-727 145-728 109-734V-604C142-609 161-610 235-610H711C647-344 466-158 189-72 234-28 251-5 277 47 593-85 770-289 851-616 858-615 864-614 870-614 934-614 986-666 986-730 986-793 934-845 870-845 806-845 756-794 755-729 738-728 726-727 696-727H237ZM870-795C907-795 936-766 936-730 936-694 907-664 870-664 834-664 805-694 805-730 805-766 834-795 870-795Z"/>
</g>
<g id="font_5_236">
<path transform="matrix(.001,0,0,-.001,0,0)" d="M741-58V11H870C867-12 866-39 866-76V-648C866-685 867-705 869-731 846-729 828-728 785-728H217C177-728 156-729 132-731 135-704 136-685 136-647V-74C136-36 135-12 132 12H261V-58H741ZM741-172H261V-615H741V-172Z"/>
</g>
<path id="font_6_43" d="M.22599793 .13183594V.58203127H.33799745C.3766632 .58203127 .40916444 .5765279 .4355011 .56552127 .46183778 .5545146 .4830068 .53867086 .49900819 .5179901 .5150096 .49731956 .5265096 .47247825 .5335083 .4434662 .540507 .41445414 .54400637 .38194276 .54400637 .345932 .54400637 .3065745 .53900656 .27322389 .52900698 .24588013 .5190074 .21853638 .5056712 .19636028 .4889984 .1793518 .47233583 .16234334 .45333863 .15017192 .43200685 .14283753 .41067506 .13550313 .38867188 .13183594 .3659973 .13183594H.22599793M.069000247 .7138672V0H.3769989C.43166606 0 .47916667 .009165446 .51950076 .027496338 .5598348 .04582723 .5935008 .070988979 .62049868 .10298157 .6475067 .13497417 .66767379 .17296346 .68099978 .21694947 .69433596 .26094566 .701004 .3089396 .701004 .3609314 .701004 .42025758 .6928355 .47191368 .6764984 .51589968 .6601715 .5598958 .63750717 .5965576 .60850527 .625885 .57950338 .6552124 .545166 .6772054 .50549319 .691864 .46583048 .7065328 .42299906 .7138672 .3769989 .7138672H.069000247Z"/>
<path id="font_6_55" d="M.22599793 .3779297V.5917969H.34799195C.3659973 .5917969 .3833313 .5904643 .3999939 .5877991 .4166565 .58513388 .4313202 .5799713 .443985 .5723114 .45665995 .5646515 .4668274 .5538228 .4744873 .53982546 .48215739 .5258382 .48599244 .5075175 .48599244 .48486329 .48599244 .46220909 .48215739 .44388328 .4744873 .42988587 .4668274 .41589866 .45665995 .40507508 .443985 .39741517 .4313202 .38975526 .4166565 .38459269 .3999939 .3819275 .3833313 .3792623 .3659973 .3779297 .34799195 .3779297H.22599793M.069000247 .7138672V0H.22599793V.25585938H.39100648C.43566386 .25585938 .47365824 .26235963 .5049896 .2753601 .5363312 .2883606 .5618337 .30552674 .5814972 .32685853 .60117086 .3481903 .61550399 .37269084 .62449648 .4003601 .63349917 .4280294 .6380005 .4561971 .6380005 .48486329 .6380005 .51420089 .63349917 .54253646 .62449648 .56987 .61550399 .59720358 .60117086 .62153628 .5814972 .64286807 .5618337 .6641998 .53633627 .68136599 .5050049 .69436648 .4736735 .70736697 .43567405 .7138672 .39100648 .7138672H.069000247Z"/>
<g id="font_7_80">
<path transform="matrix(.001,0,0,-.001,0,0)" d="M328-338C328-327 328-320 327-307H184C135-307 110-308 79-313V-206C112-211 138-212 184-212H312C297-164 276-132 241-101 197-61 149-38 56-12 88 20 108 49 127 86 250 38 310-2 360-68 390-108 409-152 422-212H551V-18C551 52 583 69 719 69 911 69 929 54 951-115 911-121 882-131 843-150 840-95 834-62 825-50 814-36 790-31 735-31 701-31 684-32 671-36 656-40 655-42 655-63V-212H814C859-212 888-210 919-206V-313C889-308 863-307 814-307H655V-415C703-415 721-414 751-411V-454C805-418 834-402 916-364 943-422 949-433 972-463 899-491 866-507 812-539 847-570 876-599 902-631 922-653 924-656 930-662L838-714C814-675 777-632 734-593 713-609 702-618 675-641 700-664 731-695 749-716 772-743 785-758 788-762L696-813C693-808 693-808 688-800 684-792 681-789 667-771 647-745 640-739 608-707 570-753 556-776 546-816 523-813 507-812 460-812H275C240-812 211-814 192-817V-713C176-726 176-726 160-739L78-678C128-643 162-612 218-547 151-503 104-479 27-450 54-418 69-394 86-358 166-394 203-415 262-455V-411C287-413 298-414 329-415L328-338ZM435-415H551V-307H434C434-317 434-321 434-330L435-415ZM399-717C369-676 343-648 301-610 268-647 245-669 192-713 213-716 235-717 253-717H399ZM361-509C350-509 345-509 334-509 405-567 447-612 503-690 558-613 602-567 673-509 665-509 665-509 652-509H361Z"/>
</g>
<g id="font_8_231">
<path transform="matrix(.001,0,0,-.001,0,0)" d="M392-624C419-624 446-623 472-620V-726C445-723 424-722 390-722H330V-758C330-800 330-813 335-838H222C226-816 228-794 228-761V-722H149C104-722 80-723 57-726V-620C80-623 107-624 147-624H198C179-582 159-550 132-516 92-466 69-444 26-413 52-381 69-354 86-320 154-386 193-439 232-514 230-480 230-480 230-469 229-448 229-448 228-409V-356C228-316 226-291 222-269H334C331-294 330-313 330-356V-411C330-437 328-478 325-519 361-465 388-436 443-391 457-429 471-455 494-487 427-523 391-556 348-624H392ZM428-243C485-185 504-162 551-89L635-153C589-212 557-248 523-279 548-280 565-280 589-280H817C878-278 909-277 909-277 906-306 905-336 905-374V-716C905-755 906-784 909-809 880-806 852-805 813-805H595C556-805 528-806 499-809 501-785 503-755 503-716V-375C503-343 502-317 500-290L428-243ZM605-714H802V-657H605V-714ZM605-572H802V-514H605V-572ZM605-429H802V-370H605V-429ZM133 47C197-58 207-82 241-204L146-246C120-139 101-98 41-19L133 47ZM399-150C399-201 400-222 404-245H285C289-213 291-195 291-150V-33C291 18 303 39 342 52 376 63 411 66 500 66 740 66 750 59 765-119 718-125 697-131 658-148 657-92 652-62 641-51 627-37 597-34 491-34 454-34 434-36 419-40 403-44 399-51 399-70V-150ZM966-24C917-117 886-165 821-251L727-205C786-127 819-70 867 37L966-24Z"/>
</g>
<g id="font_5_171">
<path transform="matrix(.001,0,0,-.001,0,0)" d="M816-634 867-654C839-720 817-760 778-812L705-785C738-740 762-697 783-647L788-637 791-629C779-627 769-627 736-627L514-626C517-661 517-662 518-689L521-743 522-762C522-769 523-774 523-780 524-796 525-798 527-812L393-815C396-796 396-788 396-776V-751C396-722 394-663 391-626L216-625C156-625 138-627 105-632L106-510C137-514 151-515 214-515H380C359-307 255-157 64-58 104-23 121-4 154 47 373-91 480-264 504-516H737C737-402 727-265 715-196 699-109 684-87 641-87 608-87 568-94 509-111 526-67 531-43 532 17 584 26 618 29 656 29 776 29 811-12 837-185 847-251 858-406 861-519 862-552 864-569 872-585L816-634ZM992-706C968-765 945-805 904-858L833-830C866-785 895-734 919-675L992-706Z"/>
</g>
<g id="font_5_163">
<path transform="matrix(.001,0,0,-.001,0,0)" d="M764-812C735-763 667-694 578-625 419-502 251-419 53-365 88-320 99-303 120-251 304-317 360-343 477-413V-61C477-2 476 18 471 47H611C607 20 606-9 606-64V-491C692-554 767-619 842-697 857-713 862-717 879-732L764-812Z"/>
</g>
<g id="font_5_200">
<path transform="matrix(.001,0,0,-.001,0,0)" d="M385 45C382 16 381-12 381-66V-330C381-353 380-370 377-398 385-393 388-392 411-381 553-317 695-240 765-190L835-308C677-397 497-481 381-519V-705C381-764 382-783 385-810H248C252-786 253-766 254-708V-67C254-10 252 17 248 45H385ZM590-723C634-675 662-635 695-574L765-611C731-673 704-711 660-758L590-723ZM884-676C853-733 825-771 780-817L713-782C752-739 785-692 815-637L884-676Z"/>
</g>
<g id="font_5_117">
<path transform="matrix(.001,0,0,-.001,0,0)" d="M289-791C294-776 294-775 305-725 330-601 349-527 372-454 307-422 275-401 236-369 179-320 147-256 147-190 147-117 179-56 234-23 298 15 385 32 524 32 594 32 650 28 758 17 811 12 818 11 839 10L828-126C753-101 630-86 505-86 344-86 276-117 276-190 276-262 349-325 495-379 607-421 738-458 825-475L782-601C764-592 764-592 711-575 585-535 547-522 485-498 458-579 419-763 419-811L289-791ZM681-776C725-728 753-688 786-627L856-664C822-726 795-764 751-811L681-776ZM975-729C944-786 916-824 871-870L804-835C843-792 876-745 906-690L975-729Z"/>
</g>
<g id="font_5_82">
<path transform="matrix(.001,0,0,-.001,0,0)" d="M251-699C398-662 536-644 718-636L735-759C723-759 712-759 707-759 549-759 401-780 290-817L251-699ZM163-365C246-399 446-434 559-434 663-434 716-396 716-321 716-252 673-189 594-145 517-102 409-74 293-69 324-22 335 3 345 56 508 30 578 9 660-38 781-107 850-211 850-325 850-404 815-471 753-508 707-536 645-549 564-549 479-549 392-540 250-515 160-499 160-499 134-498L163-365Z"/>
</g>
<g id="font_5_80">
<path transform="matrix(.001,0,0,-.001,0,0)" d="M107-735C110-713 110-706 111-671 115-394 133-249 174-149 214-53 268-4 335-4 420-4 478-85 530-280 481-316 465-331 430-371 419-304 401-244 377-190 365-162 351-147 336-147 304-147 272-211 255-315 244-376 236-496 236-583 236-649 239-698 244-735H107ZM612-640C672-566 720-485 754-394 789-303 812-199 818-105L942-152C913-372 843-539 717-690L612-640Z"/>
</g>
<g id="font_5_116">
<path transform="matrix(.001,0,0,-.001,0,0)" d="M298-801C303-786 304-784 314-736 339-613 356-546 381-465 316-432 284-412 245-379 188-331 156-267 156-200 156-128 188-66 243-33 307 5 394 22 533 22 603 22 659 18 767 7 821 1 826 0 848 0L837-137C762-111 639-96 514-96 353-96 285-127 285-200 285-272 358-336 504-390 616-431 747-469 834-486L791-612C776-605 771-603 753-597 559-533 559-533 494-509 462-611 432-755 428-822L298-801Z"/>
</g>
<g id="font_5_89">
<path transform="matrix(.001,0,0,-.001,0,0)" d="M139-576C160-577 165-578 207-578 323-579 395-583 475-592 483-574 486-568 496-547 504-528 508-522 514-510 419-497 336-491 231-491 163-491 157-491 128-495L132-386C149-388 156-388 173-389 390-396 454-400 560-416 602-347 621-319 637-304 583-318 525-325 464-325 363-325 283-308 231-275 177-240 147-190 147-136 147-80 176-29 224 1 280 35 353 50 468 50 556 50 639 39 724 16 770 4 770 4 789 1L771-122C708-87 567-57 463-57 405-57 352-65 320-79 294-90 277-113 277-137 277-161 292-182 320-198 354-216 412-226 488-226 586-226 646-215 718-185L806-248C740-324 724-345 672-431 684-434 684-434 709-439 733-444 766-451 807-461 830-467 851-471 870-474L860-583C834-572 822-568 765-554 759-553 713-543 627-525 610-557 604-570 588-607 619-611 730-633 797-649 821-654 821-654 831-656L821-762C752-739 636-713 551-702 524-768 514-798 510-823L385-806C386-804 400-773 425-715 433-697 433-697 436-689 360-681 306-678 230-678 186-678 163-679 134-682L139-576Z"/>
</g>
<g id="font_5_119">
<path transform="matrix(.001,0,0,-.001,0,0)" d="M264 24C263 11 263 3 263-3 263-74 297-190 352-306L272-342C233-252 231-245 220-210 221-235 222-243 222-265 223-352 227-411 237-486 253-614 276-726 300-785L168-799C166-772 164-762 153-706 124-558 112-444 112-315 112-214 119-137 138-16 141 7 142 13 143 31L264 24ZM402-575C508-564 509-564 582-564 656-564 732-568 796-576 844-582 859-584 867-585L861-706C795-688 700-679 589-679 502-679 449-683 404-695L402-575ZM471-410C409-336 379-269 379-204 379-168 390-131 409-106 453-47 533-19 657-19 723-19 784-25 864-38 887-42 891-43 905-44L895-171C832-147 745-133 657-133 553-133 498-163 498-220 498-263 519-306 569-364L471-410Z"/>
</g>
<g id="font_5_158">
<path transform="matrix(.001,0,0,-.001,0,0)" d="M110-605C117-606 123-606 126-606 135-606 135-606 154-605 176-605 264-603 280-603 280-603 293-604 297-604 293-599 293-599 289-591 269-553 208-466 169-420 134-379 105-351 79-331L170-241C192-272 215-297 257-332 334-400 404-435 462-435 498-435 518-418 523-381 410-334 353-296 308-240 276-202 264-170 264-129 264-74 291-26 337 0 388 30 454 42 560 42 648 42 744 35 816 24 840 21 845 20 862 20L852-109C781-82 678-67 558-67 437-67 389-88 389-140 389-169 406-196 441-222 462-237 488-251 537-274 537-264 537-264 537-250 537-203 535-152 531-134L647-137C645-154 644-168 644-190 644-197 644-206 645-223 645-236 645-253 645-263 645-277 645-277 644-303V-314C730-344 780-361 794-365 847-380 877-388 905-392L858-507C842-497 838-496 784-477 759-469 708-451 631-423 615-492 566-529 488-529 437-529 384-512 347-484 334-474 334-474 327-469L326-471C361-507 389-547 418-604 519-607 646-615 719-624 770-630 770-630 798-632L791-746C736-730 645-719 529-712 474-709 474-709 466-708 468-712 470-715 475-726 509-806 509-806 515-816L384-830C380-796 371-766 344-706 217-706 153-710 112-719L110-605Z"/>
</g>
<g id="font_9_158">
<path transform="matrix(.001,0,0,-.001,0,0)" d="M816-276C861-276 884-275 913-272 911-296 910-315 910-363V-492C910-529 911-554 913-579 885-577 864-576 819-576H672V-618C672-624 672-634 672-648H859C899-648 929-647 959-643V-751C925-747 892-745 846-745H672C672-818 672-818 675-846H560C564-815 565-797 566-745H413C373-745 335-747 305-751V-643C335-647 361-648 401-648H566L567-576H412C364-576 349-577 319-579 322-555 323-538 323-495V-356C323-320 322-301 319-272 344-275 368-276 400-276H547C539-239 530-215 512-182 478-213 458-238 446-262L359-216C369-205 377-196 390-179 413-149 426-134 452-110 400-67 341-39 249-14 272 13 293 44 311 80 413 44 476 8 534-48 644 22 759 58 928 76 937 39 953 1 971-35 804-42 702-65 596-123 625-171 641-213 652-276H816ZM566-480C564-424 564-416 560-371H427V-480H566ZM805-480V-371H663C667-409 668-428 670-480H805ZM132-33C132 16 130 46 126 84H243C239 44 238 11 238-32V-601C274-681 280-699 320-823L206-850C188-717 111-552 19-452 40-410 51-381 65-333 97-375 113-399 135-438 132-374 132-358 132-327V-33Z"/>
</g>
<g id="font_5_122">
<path transform="matrix(.001,0,0,-.001,0,0)" d="M578-641C622-637 648-629 679-611 759-563 802-485 802-389 802-282 750-187 663-139 616-112 556-96 464-84 496-42 508-20 525 33 595 21 634 11 682-9 835-71 925-209 925-382 925-607 769-753 529-753 387-753 269-705 185-613 114-535 75-432 75-322 75-161 157-45 271-45 353-45 417-104 474-233 524-346 559-484 578-641ZM456-640C444-527 411-392 373-302 337-216 303-174 270-174 226-174 191-239 191-321 191-428 243-531 327-591 368-620 404-634 456-640Z"/>
</g>
<g id="font_5_87">
<path transform="matrix(.001,0,0,-.001,0,0)" d="M303-821C303-813 303-806 303-802 303-769 295-708 277-600 222-592 101-580 64-580L76-462C109-471 204-488 255-494 215-351 201-309 158-211 124-135 84-63 54-23L170 41C175 31 175 30 178 24 188 4 188 4 193-6 251-123 278-187 313-287 335-352 344-382 374-504 397-506 412-507 432-507 511-507 534-480 534-388 534-303 524-212 508-160 493-111 477-92 448-92 413-92 356-107 302-131 310-92 312-72 312-46 312-36 311-22 310-2 377 19 418 27 464 27 517 27 547 15 575-18 623-73 652-210 652-382 652-473 639-521 605-559 572-594 523-612 457-612 438-612 424-611 395-609 398-622 398-624 402-646 416-721 416-721 419-742 422-758 423-763 425-776 427-787 430-798 433-807L303-821ZM661-629C708-578 740-532 776-458 814-383 837-317 856-231L970-289C927-443 864-562 764-679L661-629Z"/>
</g>
<path id="font_10_57" d="M.07800293 .7138672V0H.17300415V.3046875H.40499879C.42833457 .3046875 .44700114 .30118815 .46099855 .29418946 .4750061 .28720094 .4863383 .2778778 .49499513 .2662201 .5036621 .25457255 .5099945 .24092102 .5139923 .2252655 .5180003 .20962017 .52133688 .19314067 .5240021 .17582703 .5273387 .15850322 .5293376 .1408488 .5299988 .12286377 .53067019 .104888919 .5313365 .08807373 .5319977 .07241821 .53266909 .05677287 .5341695 .042622884 .536499 .029968262 .53882858 .017313639 .5433299 .0073242189 .55000308 0H.65600588C.6460063 .011993408 .638504 .025817872 .63349917 .04147339 .62850448 .057128908 .6246694 .07361349 .621994 .090927127 .6193288 .10825094 .6176605 .12590535 .61698916 .14389038 .61632797 .16187541 .615331 .17952983 .6139984 .19685364 .61199447 .21416728 .6091614 .2308197 .60549929 .24681092 .60183718 .26280213 .5961711 .27729289 .588501 .2902832 .5808309 .30327354 .5704956 .3144277 .5574951 .32374574 .5444946 .33307395 .5276642 .33973695 .5070038 .34373475V.34573365C.55033877 .3577372 .58183798 .38007609 .60150149 .41275025 .621165 .44543458 .6309967 .4834493 .6309967 .52679446 .6309967 .58481857 .6118266 .63050338 .5734863 .6638489 .53515627 .6971944 .48199464 .7138672 .41400147 .7138672H.07800293M.3710022 .38476563H.17300415V.63378909H.40899659C.45366416 .63378909 .48599754 .6224518 .5059967 .5997772 .5259959 .57711288 .5359955 .54778036 .5359955 .5117798 .5359955 .4857788 .53149417 .46460978 .52249148 .4482727 .51349899 .43193565 .5015004 .41893006 .48649598 .40925599 .47150169 .39959208 .45399986 .39309184 .43399049 .38975526 .4139913 .38642884 .3929952 .38476563 .3710022 .38476563Z"/>
<path id="font_10_76" d="M.42300416 .3076172H.12600708C.12733968 .3276876 .13167317 .34658305 .13900757 .3643036 .14634197 .3820343 .15634156 .3975881 .16900635 .41096498 .18167115 .42434184 .19683838 .4348755 .21450806 .44256593 .23217774 .45025636 .25200907 .45410157 .27400209 .45410157 .29533387 .45410157 .3148346 .45025636 .33250428 .44256593 .35017396 .4348755 .36550904 .4245046 .37850953 .41145326 .39151 .39841209 .4018402 .38286338 .40950013 .36480714 .4171702 .3467509 .42167155 .3276876 .42300416 .3076172M.5050049 .1640625H.42100526C.41367088 .13019817 .39850364 .10496521 .37550355 .08836365 .35250346 .071772258 .32300315 .06347656 .28700257 .06347656 .25900779 .06347656 .2346751 .068115238 .21400452 .07739258 .19334412 .08666992 .17634583 .099090579 .16300965 .11465454 .14967346 .13022869 .14000447 .14811707 .13400269 .1683197 .1280009 .18853252 .1253357 .2098999 .12600708 .23242188H.5130005C.51433309 .26384483 .51150009 .29694114 .50450137 .33171083 .49750266 .3664805 .48483277 .39857484 .4664917 .42799378 .4481608 .45741273 .42382813 .48164878 .39349366 .5007019 .36315919 .5197652 .32499186 .5292969 .2789917 .5292969 .24366252 .5292969 .2111613 .5226288 .18148804 .5092926 .15182495 .49595643 .12615967 .47728477 .10449219 .4532776 .08282471 .4292806 .065989177 .40094505 .053985597 .36827088 .041992189 .3356069 .035995485 .29961143 .035995485 .26028443 .037328084 .22094727 .04316203 .18461101 .053497316 .15127564 .0638326 .11794027 .079330448 .089269008 .099990848 .06526184 .120661418 .04126485 .14616394 .022598267 .17649842 .009262085 .20683289-.0040740969 .2426656-.0107421879 .28399659-.0107421879 .34267173-.0107421879 .39134217 .00390625 .43000794 .033203126 .4686737 .06251017 .4936727 .10612997 .5050049 .1640625Z"/>
<path id="font_10_86" d="M.12600708 .25828553C.12600708 .28959657 .13017273 .31740318 .13850403 .34170533 .14683533 .36601768 .15833538 .38650004 .17300415 .40315248 .18767293 .4198049 .20483907 .4324595 .22450257 .44111634 .24416606 .44977317 .2649994 .45410157 .28700257 .45410157 .30900575 .45410157 .32983909 .44977317 .34950257 .44111634 .36916606 .4324595 .38633219 .4198049 .40100099 .40315248 .41566978 .38650004 .4271698 .36601768 .4355011 .34170533 .4438324 .31740318 .44799806 .28959657 .44799806 .25828553 .44799806 .22698467 .4438324 .19917806 .4355011 .17486573 .4271698 .15055339 .41566978 .13023885 .40100099 .11392212 .38633219 .097605388 .36916606 .085118617 .34950257 .07646179 .32983909 .06780497 .30900575 .06347656 .28700257 .06347656 .2649994 .06347656 .24416606 .06780497 .22450257 .07646179 .20483907 .085118617 .18767293 .097605388 .17300415 .11392212 .15833538 .13023885 .14683533 .15055339 .13850403 .17486573 .13017273 .19917806 .12600708 .22698467 .12600708 .25828553M.035995485 .25827027C.035995485 .22027588 .041325887 .1849416 .051986696 .15226746 .06265768 .11960348 .07865906 .09110006 .099990848 .0667572 .12132263 .04242452 .14765422 .023422242 .1789856 .009750366 .21032715-.0039113366 .24633281-.0107421879 .28700257-.0107421879 .32833354-.0107421879 .36449687-.0039113366 .39549256 .009750366 .4264984 .023422242 .45266725 .04242452 .47399903 .0667572 .4953308 .09110006 .5113271 .11960348 .5219879 .15226746 .5326589 .1849416 .5379944 .22027588 .5379944 .25827027 .5379944 .2962748 .5326589 .33177696 .5219879 .3647766 .5113271 .39778648 .4953308 .42645774 .47399903 .4507904 .45266725 .47512309 .4264984 .49428813 .39549256 .5082855 .36449687 .5222931 .32833354 .5292969 .28700257 .5292969 .24633281 .5292969 .21032715 .5222931 .1789856 .5082855 .14765422 .49428813 .12132263 .47512309 .099990848 .4507904 .07865906 .42645774 .06265768 .39778648 .051986696 .3647766 .041325887 .33177696 .035995485 .2962748 .035995485 .25827027Z"/>
<path id="font_10_3" d=""/>
<path id="font_10_50" d="M.07800293 .7138672V0H.17300415V.25L.29200746 .36099244 .55000308 0H.66999819L.35699464 .42591859 .65800479 .7138672H.53500369L.17300415 .35794068V.7138672H.07800293Z"/>
<path id="font_10_72" d="M.5220032 .0022583008C.5073344-.0064086916 .4869995-.0107421879 .46099855-.0107421879 .43900553-.0107421879 .4215088-.0045776369 .4085083 .007751465 .3955078 .020090739 .38900758 .04026286 .38900758 .06826782 .36567179 .04026286 .33850099 .020090739 .30749513 .007751465 .27649943-.0045776369 .2430013-.0107421879 .20700073-.0107421879 .18366497-.0107421879 .16149394-.008076985 .14048767-.002746582 .11949158 .0025838216 .10132853 .01091512 .085998538 .022247315 .07066854 .03357951 .058502199 .048405965 .04949951 .066726688 .040496828 .08505758 .035995485 .10721842 .035995485 .13320923 .035995485 .16253662 .04099528 .18652852 .050994874 .20518494 .060994466 .22384136 .074157718 .23899842 .09048462 .25065614 .10682169 .262324 .12548828 .27115885 .14648438 .27716065 .16749065 .28316245 .18899536 .28816224 .21099854 .29216004 .2343343 .29681907 .25650025 .30031333 .27749635 .30264283 .29849244 .3049825 .31699119 .3083191 .33299256 .3126526 .34899394 .31698609 .36165873 .3233134 .37098695 .33163453 .38032533 .33996583 .3849945 .35213218 .3849945 .36813355 .3849945 .38678996 .38149516 .40178428 .37449647 .41311646 .36749778 .42444865 .3584951 .43311057 .3474884 .43910218 .3364919 .44510398 .3241577 .44910179 .31048585 .45109559 .29682414 .45309959 .2833303 .45410157 .27000428 .45410157 .23400371 .45410157 .20400493 .44729106 .18000794 .43367005 .15601094 .42004905 .14301045 .39430747 .14100647 .3564453H.055999757C.057332357 .38841758 .06399536 .4153951 .07598877 .43737794 .08799235 .45936076 .103993739 .47717796 .12399292 .49082948 .14399211 .504481 .16682434 .51430258 .19248963 .5202942 .21816509 .52629598 .2456665 .5292969 .2749939 .5292969 .29832969 .5292969 .3214976 .5276286 .34449769 .524292 .36749778 .5209656 .3883311 .5141347 .40699769 .50379946 .42566429 .49347434 .44066368 .47897849 .45199586 .4603119 .46332804 .4416555 .46899415 .41733299 .46899415 .38734437V.12145996C.46899415 .10146078 .4701589 .08679708 .4724884 .07746887 .4748281 .06814066 .48266603 .06347656 .4960022 .06347656 .5033366 .06347656 .5120036 .06507365 .5220032 .06826782V.0022583008M.3840027 .26727296C.3733317 .25927735 .35932923 .2534485 .34199525 .24978638 .32467143 .24612427 .3065084 .24312847 .2875061 .24079895 .26850382 .23846944 .2493337 .23580425 .22999573 .23280335 .21066793 .22981262 .19333904 .22498577 .17800904 .21832276 .16267903 .21165975 .150177 .20216878 .14050293 .18984986 .13083904 .17753093 .12600708 .16071575 .12600708 .1394043 .12600708 .12541707 .12884014 .113591518 .13450623 .10392761 .14017232 .09427389 .14750672 .08645121 .1565094 .080459598 .16551209 .07446798 .17601013 .070139568 .18800354 .067474368 .20000713 .064809169 .21267192 .06347656 .22599793 .06347656 .2540029 .06347656 .27800498 .06730652 .29800416 .07496643 .31800334 .08262634 .33433534 .09228007 .34700013 .10392761 .35966493 .11558533 .3689982 .12823995 .375 .14189148 .3810018 .15555318 .3840027 .16837566 .3840027 .18035889V.26727296Z"/>
<path id="font_10_84" d="M.06399536 .5172882V0H.14900208V.32206727C.14900208 .33207704 .15149944 .34457908 .15649414 .35957337 .16149903 .37457786 .16949971 .38907878 .18049622 .40307618 .19150289 .41708375 .20583599 .4290873 .22349549 .4390869 .24116516 .44909669 .2623342 .45410157 .28700257 .45410157 .30634056 .45410157 .32217408 .45126853 .33450318 .44560243 .34683229 .4399363 .35666404 .43193565 .3639984 .42160035 .3713328 .41126506 .37650047 .39909364 .37950135 .38508607 .38250224 .3710785 .3840027 .3557434 .3840027 .3390808V0H.46899415V.32206727C.46899415 .3620758 .48099265 .39408366 .5049896 .41809083 .52899679 .442098 .56199648 .45410157 .60398867 .45410157 .62465927 .45410157 .64149478 .45110069 .65449526 .44509889 .6674957 .43909709 .67766317 .43092857 .68499758 .42059327 .69233199 .41025798 .6973317 .39808656 .69999697 .38407899 .70266219 .37008158 .70399478 .35508219 .70399478 .3390808V0H.78900149V.37921144C.78900149 .40589396 .7848358 .42874146 .7765045 .4477539 .7681732 .46676637 .7565053 .48227439 .74150088 .49427796 .7264964 .50628158 .7084961 .5151164 .6875 .5207825 .6665039 .52645877 .6430054 .5292969 .6170044 .5292969 .5829976 .5292969 .55182906 .5216268 .52349856 .5062866 .49516807 .49095664 .47233583 .46928916 .45500184 .44128419 .44433085 .47328697 .42599488 .49595643 .3999939 .5092926 .37400309 .5226288 .34500633 .5292969 .31300355 .5292969 .24033101 .5292969 .18466187 .49994914 .1459961 .44125367H.14399719V.5172882H.06399536Z"/>
<path id="font_10_73" d="M.06700134 .7138672V.0002593994H.1519928V.06921387H.15400696C.16334534 .053894044 .17484539 .041066488 .18850708 .030731202 .20216878 .020406088 .21666463 .012242635 .23199463 .0062408449 .2473348 .0002492269 .26283775-.004079183 .27850343-.0067443849 .2941691-.009409587 .30833946-.0107421879 .3210144-.0107421879 .3603414-.0107421879 .39483644-.0037434896 .4244995 .010253906 .45417277 .024261475 .47884117 .0434316 .49850465 .06776428 .51816818 .09209696 .53283187 .1205953 .5424957 .15325928 .5521698 .18593343 .55700686 .22060649 .55700686 .25727845 .55700686 .2939504 .552007 .32861839 .54200747 .36128236 .5320079 .3939565 .5171712 .42279054 .49749757 .44778443 .47783409 .47278849 .45317079 .4926249 .4235077 .5072937 .3938446 .52196249 .3590088 .5292969 .31900025 .5292969 .28299967 .5292969 .25 .52279666 .22000122 .50979617 .19000244 .49679566 .16800435 .4759623 .15400696 .44729615H.1519928V.7138672H.06700134M.46699525 .2632904C.46699525 .23798116 .46432496 .21333821 .45898438 .18936157 .45365397 .16538494 .44498698 .1440684 .4329834 .12541199 .42099 .10676575 .40516154 .091781619 .38549806 .080459598 .36583457 .06913757 .34133403 .06347656 .31199647 .06347656 .28266908 .06347656 .25767008 .06896973 .23699951 .079956058 .21632894 .09095255 .19949341 .10543823 .18649292 .123413089 .17350261 .14139812 .16400655 .1622111 .15800476 .18585205 .15200298 .20950318 .14900208 .23398336 .14900208 .2592926 .14900208 .28326927 .15183513 .3069102 .15750122 .33021546 .16316732 .35353089 .17233277 .37434388 .18499756 .39265443 .19766236 .41097514 .21399434 .4257965 .23399353 .43711854 .2539927 .44844056 .2783254 .45410157 .30699159 .45410157 .33432517 .45410157 .3581594 .44877116 .37849427 .43811036 .39882914 .42745973 .41549684 .41314189 .4284973 .39515687 .4414978 .37717185 .4511617 .35668946 .457489 .33370973 .4638265 .31074015 .46699525 .28726707 .46699525 .2632904Z"/>
<path id="font_10_96" d="M.2669983-.069107059C.2569987-.094426479 .24716695-.115748088 .23750305-.1330719 .22783916-.1503957 .21717327-.16455078 .20550537-.17553711 .19383748-.18653362 .18083699-.19452922 .1665039-.19952393 .15217082-.20452881 .13567098-.20703125 .117004398-.20703125 .1070048-.20703125 .09700521-.20636495 .087005618-.20503235 .07700602-.20369976 .067337039-.20136516 .057998659-.19802857V-.12007141C.065333049-.12333679 .07383219-.12611389 .083496097-.12840271 .093170169-.13069153 .10133871-.13183594 .10800171-.13183594 .1253357-.13183594 .13983663-.12767029 .15150452-.11933899 .16317241-.11101786 .17200215-.09919739 .17799378-.08387756L.21299744 .0030517579 .0079956059 .51660159H.104003909L.25500489 .093811038H.25700379L.4019928 .51660159H.4920044L.2669983-.069107059Z"/>
<path id="font_10_90" d="M.115997318 .16308594H.03100586C.03233846 .1311137 .039001466 .10397339 .050994874 .08166504 .06299845 .05935669 .07899984 .041371664 .09899902 .027709961 .11899821 .014058431 .14199829 .004236857 .16799927-.0017547608 .19400025-.0077463786 .22133382-.0107421879 .25-.0107421879 .27600099-.0107421879 .3021647-.008239746 .3284912-.0032348633 .35482789 .001759847 .37849427 .010584514 .39949037 .023239136 .4204966 .03590393 .4375 .05256653 .4505005 .07322693 .46350099 .09388733 .47000123 .119878139 .47000123 .15119934 .47000123 .17585755 .46516419 .19651795 .4554901 .21318054 .4458262 .22984314 .4331614 .24367269 .41749574 .2546692 .40183006 .26566569 .38382975 .27449546 .36349488 .28115846 .34317018 .28782145 .32234193 .29348756 .30101014 .29815675 .28100077 .30281578 .2609965 .307312 .24099732 .3116455 .22099813 .315979 .20299785 .32130943 .18699646 .32763673 .17100525 .3339742 .157842 .34197489 .14750672 .3516388 .13717143 .3613027 .13200379 .37346397 .13200379 .38812257 .13200379 .40144859 .13533528 .41227723 .14199829 .42060853 .14867147 .42893983 .15733846 .4356028 .16799927 .44059754 .17867024 .44560243 .19050598 .44910179 .20350647 .45109559 .21650696 .45309959 .2293396 .45410157 .2420044 .45410157 .2560018 .45410157 .26983134 .4526011 .28349305 .44960023 .29716493 .4466095 .30966697 .44178263 .32099916 .43511964 .33233134 .42845664 .34166465 .41963197 .34899903 .40864564 .3563334 .3976593 .3606669 .38383994 .3619995 .3671875H.44700624C.44500224 .39853923 .43833415 .4247233 .42700196 .44573976 .41566978 .4667562 .40050254 .48343406 .38150025 .49577333 .36250816 .5081126 .3406779 .51678469 .31600953 .52178958 .29134117 .52679446 .26433818 .5292969 .23500061 .5292969 .21233623 .5292969 .18950399 .5264638 .1665039 .5207977 .14350383 .51513168 .12283834 .50646468 .10450745 .49479676 .08617655 .48313905 .07117716 .46798197 .059509279 .44932557 .04784139 .43066917 .042007448 .40834556 .042007448 .38235475 .042007448 .34902955 .050338746 .32303874 .06700134 .30438233 .08367411 .28572593 .10450745 .27123008 .12950135 .26089479 .15450542 .25056968 .18167115 .24257405 .21099854 .23690796 .2403361 .23124187 .26750184 .22490947 .29249574 .21791077 .3174998 .21092224 .33833314 .20176189 .35499574 .19042969 .3716685 .17909749 .38000489 .16243489 .38000489 .1404419 .38000489 .12445068 .37600199 .11128744 .36799623 .10095215 .3600006 .09062704 .34983317 .08279928 .3374939 .07746887 .3251648 .072138469 .31166587 .068471278 .29699708 .066467288 .28233848 .06447347 .26834107 .06347656 .25500489 .06347656 .2376709 .06347656 .22083538 .06513468 .20449829 .06845093 .18816121 .071777347 .17349243 .07725525 .16049195 .08488464 .14749146 .09252421 .13699341 .10281881 .1289978 .11576843 .1210022 .12871807 .1166687 .14449056 .115997318 .16308594Z"/>
<path id="font_10_79" d="M.06399536 .7138672V0H.14900208V.29206849C.14900208 .31540428 .15216573 .33690898 .15849304 .35658265 .16483052 .37625633 .17433167 .39342753 .18699646 .4080963 .19966126 .4227651 .2154948 .4340973 .23449707 .4420929 .25349937 .45009867 .27600099 .45410157 .30200196 .45410157 .33466593 .45410157 .3603312 .44476319 .3789978 .42608644 .3976644 .40741984 .40699769 .38208518 .40699769 .3500824V0H.4920044V.3401947C.4920044 .36820985 .48917137 .39372254 .48350526 .4167328 .47783915 .43974305 .46800233 .45958457 .45399476 .47625733 .43999736 .49294029 .42166648 .5059509 .39900209 .5152893 .37633769 .5246277 .3480021 .5292969 .31399537 .5292969 .29866538 .5292969 .28283183 .5276235 .26649476 .52427676 .25016786 .52093 .23450215 .515742 .21949768 .50871279 .20450337 .50168356 .19100444 .49264527 .17900086 .4815979 .16699727 .47055055 .15766399 .45699058 .15100098 .44091798H.14900208V.7138672H.06399536Z"/>
<path id="font_10_80" d="M.15400696 .609375V.7138672H.069000247V.609375H.15400696M.069000247 .5169983V0H.15400696V.5169983H.069000247Z"/>
<path id="font_10_183" d="M.13000489 .31835938V.23828125H.8699951V.31835938H.13000489Z"/>
<path id="font_10_25" d="M.044006349 .45777894H.1289978C.1283366 .47912089 .13050334 .5002899 .13549805 .521286 .14050293 .5422821 .14867147 .56111147 .16000366 .57777407 .17133586 .59444686 .18583171 .60795089 .20349121 .61828616 .22116089 .6286214 .24232991 .63378909 .2669983 .63378909 .2856649 .63378909 .30332948 .63078817 .31999208 .6247864 .33666484 .61879476 .35116578 .6101329 .36349488 .59880068 .37583415 .58746847 .385671 .57396957 .39300538 .55830386 .40033976 .5426483 .40400697 .5251567 .40400697 .50582888 .40400697 .48117066 .4001719 .45950828 .39250184 .44084168 .38483177 .42218528 .37349449 .40486146 .35849 .38887025 .3434957 .37287904 .32466636 .35705058 .30200196 .3413849 .27933757 .32572938 .25300599 .30856834 .2230072 .28990174 .19833882 .27524314 .17466736 .25958253 .1519928 .24291992 .12932842 .22625733 .10899353 .20692952 .09098816 .18493653 .07299296 .16294353 .05816142 .13711548 .04649353 .10745239 .034835817 .07779948 .027338664 .041982015 .024002076 0H.4869995V.07519531H.1230011C.1269989 .09718832 .13549805 .11667887 .14849854 .13366699 .16149903 .15066529 .17716472 .16649373 .1954956 .18115235 .21383667 .19582112 .23400371 .20965068 .2559967 .22264099 .27799989 .23564148 .30000306 .24880474 .32200624 .26213075 .34399925 .27612815 .36533103 .29079185 .3860016 .30612184 .40667216 .3214518 .42500306 .33861289 .44099427 .35760499 .45699565 .37659709 .46982829 .39808656 .4794922 .42207337 .48916627 .44607035 .4940033 .47372947 .4940033 .50505068 .4940033 .53837588 .48816935 .5676982 .47650147 .5930176 .4648336 .61834719 .44900004 .63950607 .42900086 .65649417 .40900169 .67349246 .38550315 .68648788 .35850526 .69548037 .33150736 .70448306 .30267335 .7089844 .27200318 .7089844 .23467 .7089844 .20133464 .70263168 .17199707 .68992617 .14266968 .67723086 .11816915 .6596985 .09849548 .6373291 .07883199 .6149699 .064331058 .5884552 .054992677 .55778506 .04566447 .52711489 .04200236 .4937795 .044006349 .45777894Z"/>
<path id="font_10_23" d="M.13200379 .34913636C.13200379 .36644999 .13217163 .3855896 .13250733 .40655519 .13284302 .4275309 .13450623 .44850669 .13749695 .46948243 .14049785 .49045817 .14483135 .5109355 .15049744 .5309143 .15616353 .5508931 .16449483 .56836959 .17549134 .5833435 .186498 .59832766 .20033264 .6104787 .21699524 .61979678 .23366802 .62912496 .2540029 .63378909 .27799989 .63378909 .30199687 .63378909 .32232667 .62912496 .33898927 .61979678 .35566203 .6104787 .36949668 .59832766 .38049317 .5833435 .39149986 .56836959 .3998362 .5508931 .40550233 .5309143 .41116844 .5109355 .41549684 .49045817 .41848756 .46948243 .42148844 .44850669 .42315675 .4275309 .42349244 .40655519 .42382813 .3855896 .42399598 .36644999 .42399598 .34913636 .42399598 .3224945 .42316184 .2926941 .42149354 .2597351 .41982524 .22677613 .41448976 .19581096 .40548707 .1668396 .39649455 .13787842 .3819987 .11340841 .3619995 .093429569 .34200035 .0734609 .31400047 .06347656 .27799989 .06347656 .24199932 .06347656 .21399944 .0734609 .19400025 .093429569 .17400106 .11340841 .15950012 .13787842 .15049744 .1668396 .14150493 .19581096 .13617452 .22677613 .13450623 .2597351 .13283794 .2926941 .13200379 .3224945 .13200379 .34913636M.042007448 .348114C.042007448 .3221334 .042673749 .29514567 .044006349 .26715089 .045338949 .23916626 .048670453 .21184285 .054000856 .18518067 .05934143 .15852864 .06701151 .133372 .07701111 .10971069 .087010707 .0860494 .10067749 .06522115 .118011478 .047225954 .13534546 .029240927 .1571757 .01508077 .1835022 .0047454836 .20983887-.0055796306 .24133809-.0107421879 .27799989-.0107421879 .31534324-.0107421879 .34701029-.0055796306 .3730011 .0047454836 .39900209 .01508077 .42066957 .029240927 .43800355 .047225954 .45533753 .06522115 .4690043 .0860494 .4790039 .10971069 .4890035 .133372 .4966685 .15852864 .5019989 .18518067 .5073395 .21184285 .5106761 .23916626 .51200869 .26715089 .51334127 .29514567 .51400759 .3221334 .51400759 .348114 .51400759 .37410484 .51334127 .40109254 .51200869 .42907716 .5106761 .45707194 .5073395 .48439536 .5019989 .51104739 .4966685 .53770956 .4890035 .56303408 .4790039 .5870209 .4690043 .6110179 .45533753 .632014 .43800355 .65000918 .42066957 .66800436 .39883424 .68233236 .37249757 .69299319 .34617106 .703654 .31467185 .7089844 .27799989 .7089844 .24133809 .7089844 .20983887 .703654 .1835022 .69299319 .1571757 .68233236 .13534546 .66800436 .118011478 .65000918 .10067749 .632014 .087010707 .6110179 .07701111 .5870209 .06701151 .56303408 .05934143 .53770956 .054000856 .51104739 .048670453 .48439536 .045338949 .45707194 .044006349 .42907716 .042673749 .40109254 .042007448 .37410484 .042007448 .348114Z"/>
<path id="font_10_29" d="M.41400147 .5283203H.49899293C.4936625 .58687338 .47366334 .6316223 .43899537 .66256716 .4043274 .69351199 .35766093 .7089844 .29899598 .7089844 .24833679 .7089844 .20633953 .6983185 .17300415 .6769867 .13966878 .6556651 .1130015 .6273448 .09300232 .59202578 .073003139 .5567067 .058832807 .5162201 .050491334 .4705658 .042160036 .42492167 .037994386 .3777771 .037994386 .32913209 .037994386 .29180909 .040827436 .25315348 .04649353 .21316529 .052159627 .17318726 .06365967 .13653565 .08099365 .10321045 .09832764 .069895427 .12299601 .04257202 .15499878 .021240235 .18700154-.00008138021 .22933452-.0107421879 .28199769-.0107421879 .32666526-.0107421879 .36416627-.003245036 .39450074 .011749268 .4248352 .02674357 .44916789 .045735677 .46749879 .068725589 .48582969 .09171549 .49899293 .11720276 .5069885 .14518738 .5149943 .173172 .5189972 .20015972 .5189972 .22615052 .5189972 .25880433 .5139974 .28912355 .5039978 .31710816 .4939982 .34510295 .47982789 .36942546 .46148683 .39007569 .4431559 .41073609 .42049156 .42689515 .39349366 .43855287 .36649577 .45022074 .33599855 .4560547 .30200196 .4560547 .26333619 .4560547 .22916667 .4487203 .19949341 .4340515 .16983032 .4193929 .14499919 .3957316 .125 .36306764L.1230011 .36506654C.123662319 .39240013 .12632752 .42171733 .1309967 .4530182 .1356659 .48432923 .14416504 .5134633 .15649414 .54042056 .16883342 .5673879 .18599956 .58969119 .20799256 .6073303 .22999573 .6249695 .2589976 .63378909 .29499818 .63378909 .32899476 .63378909 .35632835 .62417098 .3769989 .6049347 .39766947 .5856984 .41000367 .56016036 .41400147 .5283203M.28601075 .38085938C.31000773 .38085938 .33100382 .37653099 .34899903 .36787416 .3670044 .3592275 .38200379 .3477529 .3939972 .33345033 .40600077 .31914775 .4148356 .30217997 .4205017 .282547 .42616783 .2629242 .42900086 .24213155 .42900086 .22016907 .42900086 .19954936 .42583213 .17975362 .41949464 .16078186 .41316734 .14182027 .40400187 .12502034 .3919983 .11038208 .38000489 .09574381 .36517335 .08426412 .34750367 .07594299 .32983399 .06763204 .30933634 .06347656 .28601075 .06347656 .26267497 .06347656 .24183655 .06763204 .22349549 .07594299 .2051646 .08426412 .1898346 .09540812 .1775055 .109375 .16517639 .12335205 .15567525 .13998921 .14900208 .1592865 .14233907 .17858379 .13900757 .19921367 .13900757 .22117615 .13900757 .24312847 .14217122 .26391603 .14849854 .28353883 .15483602 .30317179 .16433716 .32013957 .17700196 .33444215 .18966675 .34875489 .20499675 .36006675 .22299195 .3683777 .24099732 .37669883 .26200358 .38085938 .28601075 .38085938Z"/>
<path id="font_10_20" d="M.05000305 .31835938V.23828125H.33900453V.31835938H.05000305Z"/>
<path id="font_10_27" d="M.33900453 .24121094H.100997928L.33700563 .5879822H.33900453V.24121094M.41900636 .24121094V.7089844H.35099793L.027999878 .24801636V.16601563H.33900453V0H.41900636V.16601563H.5149994V.24121094H.41900636Z"/>
<path id="font_10_24" d="M.3560028 0V.7089844H.29100038C.28633119 .6823527 .27766419 .66038009 .2649994 .6430664 .2523346 .62576296 .23683167 .6121165 .2184906 .6021271 .20015972 .5921478 .17966207 .58532717 .15699768 .58166506 .1343333 .5780029 .1110026 .5761719 .087005618 .5761719V.5078125H.2709961V0H.3560028Z"/>
<path id="font_10_31" d="M.15499878 .5249634C.15499878 .54292806 .15833028 .5585683 .16499329 .57188418 .17166646 .5852 .1805013 .5965169 .1914978 .60583499 .20249431 .615153 .21565755 .62214156 .23098755 .62680056 .24632772 .63145956 .2623291 .63378909 .2789917 .63378909 .31365968 .63378909 .342158 .6246338 .3644867 .60632327 .38682557 .5880229 .397995 .5609029 .397995 .5249634 .397995 .48901368 .3869934 .46105448 .36499024 .44108583 .34299723 .42111717 .31499736 .4111328 .2809906 .4111328 .26365663 .4111328 .24732463 .4134623 .23199463 .41812135 .21666463 .42278037 .20333354 .4297689 .19200135 .4390869 .18066915 .44840495 .17166646 .46022035 .16499329 .47453309 .15833028 .48884584 .15499878 .50565597 .15499878 .5249634M.06500244 .5280304C.06500244 .4960378 .07400004 .46654258 .09199524 .43954469 .11000061 .41254679 .13400269 .39305116 .16400147 .38105775 .12400309 .36706034 .093332927 .34456889 .07199097 .31358338 .05065918 .28260804 .039993287 .24612935 .039993287 .20414734 .039993287 .16816712 .046157838 .13668315 .05848694 .109695438 .07082621 .082707729 .08782959 .060216268 .10949707 .04222107 .13116455 .024236044 .15666199 .010910034 .18598938 .002243042 .21532695-.006413778 .2469991-.0107421879 .28100587-.0107421879 .31366984-.0107421879 .34433494-.0060780846 .3730011 .003250122 .40166728 .012578328 .4264984 .026402792 .4474945 .04472351 .46850077 .063054408 .48516847 .08554586 .49749757 .112197879 .50983688 .1388499 .51600649 .16949971 .51600649 .20414734 .51600649 .24812317 .5056712 .28526817 .4850006 .31558229 .4643402 .3459066 .43267314 .36773173 .3899994 .38105775 .41999818 .39438377 .4438324 .41421 .46150209 .4405365 .47917176 .46687318 .4880066 .4960378 .4880066 .5280304 .4880066 .55068466 .4840037 .5728404 .47599793 .5944977 .46800233 .61616519 .45550538 .63549807 .43850709 .65249636 .4215088 .6694946 .39934287 .6831563 .37200929 .69348147 .3446757 .7038167 .31167604 .7089844 .27301026 .7089844 .24567668 .7089844 .21950786 .7049815 .19450379 .6969757 .16949971 .6889801 .14732869 .6773173 .12799073 .6619873 .108662929 .6466675 .093332927 .6278432 .08200073 .6055145 .07066854 .58318588 .06500244 .5573578 .06500244 .5280304M.13000489 .20021057C.13000489 .22083028 .13383484 .23945618 .14149475 .25608827 .14916484 .2727305 .15983074 .28703819 .17349243 .29901124 .1871643 .31098429 .2031657 .3201294 .22149658 .32644654 .23983765 .33277384 .25933839 .3359375 .27999879 .3359375 .29999797 .3359375 .3188273 .33244325 .33648683 .3254547 .3541565 .3184662 .36965943 .30898539 .3829956 .29701234 .3963318 .28503929 .40682984 .27089945 .41448976 .2545929 .42215983 .23829651 .42599488 .22049968 .42599488 .2012024 .42599488 .1812439 .4224955 .16294861 .41549684 .14631653 .40849815 .12968445 .39849855 .11521403 .38549806 .10290527 .37249757 .09059652 .35716249 .080947879 .3394928 .07395935 .32183329 .066970828 .30233766 .06347656 .28100587 .06347656 .23699951 .06347656 .2008311 .07561747 .17250061 .09989929 .14417012 .124191287 .13000489 .15762837 .13000489 .20021057Z"/>
</defs>
<path transform="matrix(.75,0,0,.75,0,0)" d="M0 0H1280V720H0Z" fill="#ffffff"/>
<g clip-path="url(#clip_1)">
<path transform="matrix(.75,0,0,.75,0,0)" d="M0 0H1280V720H0Z" fill="#ffffff"/>
</g>
<g clip-path="url(#clip_2)">
<path transform="matrix(.75,0,0,.75,0,0)" d="M0 0H1280V720H0Z" fill="#1e3a8a"/>
</g>
<g clip-path="url(#clip_3)">
<path transform="matrix(.75,0,0,.75,0,0)" d="M60 325H1220V327H60Z" fill="#ffffff" fill-opacity=".251"/>
<use data-text="&#x7af6;" xlink:href="#font_4_163" transform="matrix(34.199998,0,0,-34.199998,319.11329,224.25)" fill="#ffffff"/>
<use data-text="&#x30d7;" xlink:href="#font_5_214" transform="matrix(34.199998,0,0,-34.199998,353.31327,224.25)" fill="#ffffff"/>
<use data-text="&#x30ed;" xlink:href="#font_5_236" transform="matrix(34.199998,0,0,-34.199998,387.51325,224.25)" fill="#ffffff"/>
<use data-text="D" xlink:href="#font_6_43" transform="matrix(34.199998,0,0,-34.199998,421.71327,224.25)" fill="#ffffff"/>
<use data-text="P" xlink:href="#font_6_55" transform="matrix(34.199998,0,0,-34.199998,447.05549,224.25)" fill="#ffffff"/>
<use data-text="&#x767a;" xlink:href="#font_7_80" transform="matrix(34.199998,0,0,-34.199998,469.86686,224.25)" fill="#ffffff"/>
<use data-text="&#x60f3;" xlink:href="#font_8_231" transform="matrix(34.199998,0,0,-34.199998,504.06684,224.25)" fill="#ffffff"/>
<use data-text="&#x30ac;" xlink:href="#font_5_171" transform="matrix(34.199998,0,0,-34.199998,538.26687,224.25)" fill="#ffffff"/>
<use data-text="&#x30a4;" xlink:href="#font_5_163" transform="matrix(34.199998,0,0,-34.199998,572.4668,224.25)" fill="#ffffff"/>
<use data-text="&#x30c9;" xlink:href="#font_5_200" transform="matrix(34.199998,0,0,-34.199998,606.66677,224.25)" fill="#ffffff"/>
<path transform="matrix(.75,0,0,.75,0,0)" d="M60 412H1220V414H60Z" fill="#ffffff" fill-opacity=".251"/>
<use data-text="&#x3069;" xlink:href="#font_5_117" transform="matrix(34.199998,0,0,-34.199998,250.72266,289.5)" fill="#ffffff"/>
<use data-text="&#x3046;" xlink:href="#font_5_82" transform="matrix(34.199998,0,0,-34.199998,284.92265,289.5)" fill="#ffffff"/>
<use data-text="&#x3044;" xlink:href="#font_5_80" transform="matrix(34.199998,0,0,-34.199998,319.12263,289.5)" fill="#ffffff"/>
<use data-text="&#x3046;" xlink:href="#font_5_82" transform="matrix(34.199998,0,0,-34.199998,353.3226,289.5)" fill="#ffffff"/>
<use data-text="&#x3068;" xlink:href="#font_5_116" transform="matrix(34.199998,0,0,-34.199998,387.52259,289.5)" fill="#ffffff"/>
<use data-text="&#x304d;" xlink:href="#font_5_89" transform="matrix(34.199998,0,0,-34.199998,421.72257,289.5)" fill="#ffffff"/>
<use data-text="&#x306b;" xlink:href="#font_5_119" transform="matrix(34.199998,0,0,-34.199998,455.92256,289.5)" fill="#ffffff"/>
<use data-text="D" xlink:href="#font_6_43" transform="matrix(34.199998,0,0,-34.199998,490.12263,289.5)" fill="#ffffff"/>
<use data-text="P" xlink:href="#font_6_55" transform="matrix(34.199998,0,0,-34.199998,515.46487,289.5)" fill="#ffffff"/>
<use data-text="&#x3092;" xlink:href="#font_5_158" transform="matrix(34.199998,0,0,-34.199998,538.2762,289.5)" fill="#ffffff"/>
<use data-text="&#x4f7f;" xlink:href="#font_9_158" transform="matrix(34.199998,0,0,-34.199998,572.4762,289.5)" fill="#ffffff"/>
<use data-text="&#x3046;" xlink:href="#font_5_82" transform="matrix(34.199998,0,0,-34.199998,606.67617,289.5)" fill="#ffffff"/>
<use data-text="&#x306e;" xlink:href="#font_5_122" transform="matrix(34.199998,0,0,-34.199998,640.87619,289.5)" fill="#ffffff"/>
<use data-text="&#x304b;" xlink:href="#font_5_87" transform="matrix(34.199998,0,0,-34.199998,675.0762,289.5)" fill="#ffffff"/>
<use data-text="R" xlink:href="#font_10_57" transform="matrix(18,0,0,-18,350.77735,339)" fill="#ffffff" fill-opacity=".851"/>
<use data-text="e" xlink:href="#font_10_76" transform="matrix(18,0,0,-18,363.10737,339)" fill="#ffffff" fill-opacity=".851"/>
<use data-text="o" xlink:href="#font_10_86" transform="matrix(18,0,0,-18,372.77336,339)" fill="#ffffff" fill-opacity=".851"/>
<use data-text=" " xlink:href="#font_10_3" transform="matrix(18,0,0,-18,383.10536,339)" fill="#ffffff" fill-opacity=".851"/>
<use data-text="K" xlink:href="#font_10_50" transform="matrix(18,0,0,-18,388.10935,339)" fill="#ffffff" fill-opacity=".851"/>
<use data-text="a" xlink:href="#font_10_72" transform="matrix(18,0,0,-18,400.11537,339)" fill="#ffffff" fill-opacity=".851"/>
<use data-text="m" xlink:href="#font_10_84" transform="matrix(18,0,0,-18,409.78135,339)" fill="#ffffff" fill-opacity=".851"/>
<use data-text="b" xlink:href="#font_10_73" transform="matrix(18,0,0,-18,425.1353,339)" fill="#ffffff" fill-opacity=".851"/>
<use data-text="a" xlink:href="#font_10_72" transform="matrix(18,0,0,-18,435.80934,339)" fill="#ffffff" fill-opacity=".851"/>
<use data-text="y" xlink:href="#font_10_96" transform="matrix(18,0,0,-18,445.47535,339)" fill="#ffffff" fill-opacity=".851"/>
<use data-text="a" xlink:href="#font_10_72" transform="matrix(18,0,0,-18,454.47535,339)" fill="#ffffff" fill-opacity=".851"/>
<use data-text="s" xlink:href="#font_10_90" transform="matrix(18,0,0,-18,464.14134,339)" fill="#ffffff" fill-opacity=".851"/>
<use data-text="h" xlink:href="#font_10_79" transform="matrix(18,0,0,-18,473.14134,339)" fill="#ffffff" fill-opacity=".851"/>
<use data-text="i" xlink:href="#font_10_80" transform="matrix(18,0,0,-18,483.14933,339)" fill="#ffffff" fill-opacity=".851"/>
<use data-text=" " xlink:href="#font_10_3" transform="matrix(18,0,0,-18,487.14533,339)" fill="#ffffff" fill-opacity=".851"/>
<use data-text="&#x2014;" xlink:href="#font_10_183" transform="matrix(18,0,0,-18,492.14933,339)" fill="#ffffff" fill-opacity=".851"/>
<use data-text=" " xlink:href="#font_10_3" transform="matrix(18,0,0,-18,510.14933,339)" fill="#ffffff" fill-opacity=".851"/>
<use data-text="2" xlink:href="#font_10_25" transform="matrix(18,0,0,-18,515.1533,339)" fill="#ffffff" fill-opacity=".851"/>
<use data-text="0" xlink:href="#font_10_23" transform="matrix(18,0,0,-18,525.1613,339)" fill="#ffffff" fill-opacity=".851"/>
<use data-text="2" xlink:href="#font_10_25" transform="matrix(18,0,0,-18,535.1693,339)" fill="#ffffff" fill-opacity=".851"/>
<use data-text="6" xlink:href="#font_10_29" transform="matrix(18,0,0,-18,545.1773,339)" fill="#ffffff" fill-opacity=".851"/>
<use data-text="-" xlink:href="#font_10_20" transform="matrix(18,0,0,-18,555.1853,339)" fill="#ffffff" fill-opacity=".851"/>
<use data-text="0" xlink:href="#font_10_23" transform="matrix(18,0,0,-18,562.1873,339)" fill="#ffffff" fill-opacity=".851"/>
<use data-text="4" xlink:href="#font_10_27" transform="matrix(18,0,0,-18,572.1953,339)" fill="#ffffff" fill-opacity=".851"/>
<use data-text="-" xlink:href="#font_10_20" transform="matrix(18,0,0,-18,582.2033,339)" fill="#ffffff" fill-opacity=".851"/>
<use data-text="1" xlink:href="#font_10_24" transform="matrix(18,0,0,-18,589.2053,339)" fill="#ffffff" fill-opacity=".851"/>
<use data-text="8" xlink:href="#font_10_31" transform="matrix(18,0,0,-18,599.21328,339)" fill="#ffffff" fill-opacity=".851"/>
<use data-text="1" xlink:href="#font_10_24" transform="matrix(18,0,0,-18,927.48049,515.25)" fill="#777777"/>
</g>
</svg>
