<svg xmlns="http://www.w3.org/2000/svg" xmlns:xlink="http://www.w3.org/1999/xlink" xmlns:inkscape="http://www.inkscape.org/namespaces/inkscape" version="1.1" width="960" height="540" viewBox="0 0 960 540">
<defs>
<clipPath id="clip_1">
<path transform="matrix(.24,0,0,.24,0,0)" d="M0 0H4000V2250H0Z" clip-rule="evenodd"/>
</clipPath>
<clipPath id="clip_2">
<path transform="matrix(.24,0,0,.24,0,0)" d="M0 0H4000V2250H0Z" clip-rule="evenodd"/>
</clipPath>
<clipPath id="clip_3">
<path transform="matrix(.24,0,0,.24,0,0)" d="M0 0H4000V2250H0Z" clip-rule="evenodd"/>
</clipPath>
<g id="font_4_192">
<path transform="matrix(.001,0,0,-.001,0,0)" d="M438-406V-293H291C241-293 211-294 180-298V-186C207-189 241-191 291-191H438V-56H190C134-56 91-58 62-62V55C95 50 136 48 187 48H811C862 48 904 50 937 55V-62C906-58 863-56 810-56H550V-191H712C761-191 795-189 822-186V-298C796-295 764-293 712-293H550V-406H691C737-406 768-404 797-401V-474C842-448 871-432 916-411 932-452 944-474 980-526 884-560 818-594 735-653 661-706 613-754 557-830H430C408-795 397-781 376-758 345-722 299-679 266-653 200-602 119-558 24-521 60-471 60-471 90-415 133-434 151-444 199-472V-401C226-404 260-406 308-406H438ZM300-507C285-507 276-507 256-508 367-581 439-649 497-735 570-639 633-581 743-508 724-507 717-507 696-507H300Z"/>
</g>
<g id="font_5_126">
<path transform="matrix(.001,0,0,-.001,0,0)" d="M328-256C357-260 385-261 429-261H513C459-179 368-106 267-60 296-30 309-12 332 31 440-32 511-98 572-192 571-175 570-136 570-114V-1C570 30 568 54 564 84H680C676 57 674 35 674 1V-106C674-132 674-137 673-161 673-168 672-179 672-193 745-90 817-26 924 31 945-20 956-42 977-73 922-96 881-119 840-151 798-183 757-224 729-261H850C886-261 915-260 950-256V-365C919-361 889-359 848-359H674V-401C674-425 675-442 678-457 701-446 727-442 787-442 928-442 947-457 957-580 921-585 907-589 873-602 870-535 868-533 802-533 757-533 750-536 750-554V-705H835V-618H941C938-638 937-655 937-686V-738C937-770 938-785 940-805 915-802 890-801 842-801H426C380-801 355-802 330-805 332-784 333-764 333-736V-654C320-653 308-652 289-652H257V-735C257-781 258-805 263-836H145C150-805 151-781 151-734V-652H114C84-652 64-654 40-658V-551C64-554 86-555 112-555H151V-375C83-355 61-349 31-346L53-235C68-241 80-246 95-251 120-259 122-260 151-270V-51C151-27 145-21 119-21 96-21 76-23 45-27 59 15 63 34 68 78 94 80 105 80 119 80 153 80 187 75 209 68 244 56 257 33 257-18V-308C292-321 292-321 328-336V-256ZM343-441C301-424 290-420 257-408V-555H290C312-555 327-554 345-552V-606H430V-705H507C505-644 495-606 470-573 442-535 397-506 331-486 360-458 374-440 395-405 503-453 564-517 588-604 595-633 597-647 600-705H655V-511C655-487 658-475 669-464H564C568-441 570-420 570-385V-359H434C396-359 371-360 346-362L343-441Z"/>
</g>
<g id="font_6_111">
<path transform="matrix(.001,0,0,-.001,0,0)" d="M86-168C112-172 130-173 190-174 233-174 234-174 435-183V-19C435 29 434 53 429 82H557C552 52 550 28 550-19V-188C639-192 639-192 812-206 828-184 838-170 865-131L951-198C897-269 835-336 762-405L680-351C711-321 722-310 742-289 624-282 606-281 528-279 580-318 632-365 687-423 701-437 709-445 719-454L606-502C579-455 540-410 474-349 443-372 436-376 412-392 454-436 483-469 519-518H819V-402H934C931-423 930-444 930-473V-549C930-584 931-594 933-615 903-612 873-611 826-611H547V-676H822C874-676 914-674 943-671V-778C915-774 875-772 820-772H547V-778C547-801 549-821 554-843H430C434-821 436-800 436-778V-772H179C125-772 85-774 57-778V-671C89-675 120-676 178-676H436V-611H173C132-611 104-612 67-615 69-593 70-580 70-544V-472C70-447 69-427 66-403H180V-518H393C373-490 359-473 331-444 310-457 296-465 262-483L199-404C270-367 314-340 396-284 391-280 391-280 386-276 271-274 271-274 247-274 159-274 103-276 72-281L86-168ZM286-166C256-131 237-115 195-89 146-59 110-43 51-25 84 1 104 22 133 64 241 14 305-31 377-108L286-166ZM605-110C721-19 782 19 876 61 900 19 916-1 950-37 848-70 782-106 684-180L605-110Z"/>
</g>
<g id="font_7_87">
<path transform="matrix(.001,0,0,-.001,0,0)" d="M303-821C303-813 303-806 303-802 303-769 295-708 277-600 222-592 101-580 64-580L76-462C109-471 204-488 255-494 215-351 201-309 158-211 124-135 84-63 54-23L170 41C175 31 175 30 178 24 188 4 188 4 193-6 251-123 278-187 313-287 335-352 344-382 374-504 397-506 412-507 432-507 511-507 534-480 534-388 534-303 524-212 508-160 493-111 477-92 448-92 413-92 356-107 302-131 310-92 312-72 312-46 312-36 311-22 310-2 377 19 418 27 464 27 517 27 547 15 575-18 623-73 652-210 652-382 652-473 639-521 605-559 572-594 523-612 457-612 438-612 424-611 395-609 398-622 398-624 402-646 416-721 416-721 419-742 422-758 423-763 425-776 427-787 430-798 433-807L303-821ZM661-629C708-578 740-532 776-458 814-383 837-317 856-231L970-289C927-443 864-562 764-679L661-629Z"/>
</g>
<g id="font_7_149">
<path transform="matrix(.001,0,0,-.001,0,0)" d="M287-715C401-662 506-629 677-590L718-705C605-721 414-778 345-816L287-715ZM207-627C206-605 205-593 201-569 183-451 167-340 159-278 154-240 154-236 151-218L277-214C298-238 304-244 322-257 389-303 482-330 571-330 677-330 740-290 740-223 740-138 642-79 501-79 416-79 330-95 232-129 244-82 246-62 247 0 361 28 416 35 502 35 618 35 701 14 766-33 830-79 869-153 869-226 869-354 757-438 587-438 466-438 342-399 284-343L282-345C285-360 285-360 287-374 300-472 317-565 332-620L207-627Z"/>
</g>
<path id="font_8_43" d="M.22599793 .13183594V.58203127H.33799745C.3766632 .58203127 .40916444 .5765279 .4355011 .56552127 .46183778 .5545146 .4830068 .53867086 .49900819 .5179901 .5150096 .49731956 .5265096 .47247825 .5335083 .4434662 .540507 .41445414 .54400637 .38194276 .54400637 .345932 .54400637 .3065745 .53900656 .27322389 .52900698 .24588013 .5190074 .21853638 .5056712 .19636028 .4889984 .1793518 .47233583 .16234334 .45333863 .15017192 .43200685 .14283753 .41067506 .13550313 .38867188 .13183594 .3659973 .13183594H.22599793M.069000247 .7138672V0H.3769989C.43166606 0 .47916667 .009165446 .51950076 .027496338 .5598348 .04582723 .5935008 .070988979 .62049868 .10298157 .6475067 .13497417 .66767379 .17296346 .68099978 .21694947 .69433596 .26094566 .701004 .3089396 .701004 .3609314 .701004 .42025758 .6928355 .47191368 .6764984 .51589968 .6601715 .5598958 .63750717 .5965576 .60850527 .625885 .57950338 .6552124 .545166 .6772054 .50549319 .691864 .46583048 .7065328 .42299906 .7138672 .3769989 .7138672H.069000247Z"/>
<path id="font_8_55" d="M.22599793 .3779297V.5917969H.34799195C.3659973 .5917969 .3833313 .5904643 .3999939 .5877991 .4166565 .58513388 .4313202 .5799713 .443985 .5723114 .45665995 .5646515 .4668274 .5538228 .4744873 .53982546 .48215739 .5258382 .48599244 .5075175 .48599244 .48486329 .48599244 .46220909 .48215739 .44388328 .4744873 .42988587 .4668274 .41589866 .45665995 .40507508 .443985 .39741517 .4313202 .38975526 .4166565 .38459269 .3999939 .3819275 .3833313 .3792623 .3659973 .3779297 .34799195 .3779297H.22599793M.069000247 .7138672V0H.22599793V.25585938H.39100648C.43566386 .25585938 .47365824 .26235963 .5049896 .2753601 .5363312 .2883606 .5618337 .30552674 .5814972 .32685853 .60117086 .3481903 .61550399 .37269084 .62449648 .4003601 .63349917 .4280294 .6380005 .4561971 .6380005 .48486329 .6380005 .51420089 .63349917 .54253646 .62449648 .56987 .61550399 .59720358 .60117086 .62153628 .5814972 .64286807 .5618337 .6641998 .53633627 .68136599 .5050049 .69436648 .4736735 .70736697 .43567405 .7138672 .39100648 .7138672H.069000247Z"/>
<g id="font_7_132">
<path transform="matrix(.001,0,0,-.001,0,0)" d="M122-211C130-223 132-226 143-238 203-303 258-370 340-480 374-525 384-534 400-534 419-534 425-529 487-458 594-336 596-333 672-255 745-182 824-107 876-61 891-48 895-44 905-32L966-174C933-193 908-213 857-258 746-358 649-457 558-564 527-601 505-624 491-636 461-661 431-674 401-674 376-674 348-664 321-644 302-631 285-613 259-581 127-415 84-366 41-336L122-211Z"/>
</g>
<path id="font_9_43" d="M.17300415 .080078128V.63378909H.3330078C.377004 .63378909 .41400147 .6276245 .44400025 .6152954 .47399903 .6029663 .49849955 .5849762 .51750186 .5613251 .5365041 .53767397 .5501709 .509023 .5585022 .4753723 .5668335 .4417216 .57099917 .40357463 .57099917 .3609314 .57099917 .31695558 .5664978 .27947489 .5574951 .24848938 .5485026 .21750386 .53700259 .19168091 .522995 .17102051 .5089976 .15037029 .49316407 .13404846 .47549439 .12205505 .45783488 .110061649 .44000245 .10090128 .42199708 .094573978 .40400187 .088246669 .38700358 .08424886 .3710022 .08258057 .35500083 .08091227 .3416697 .080078128 .3310089 .080078128H.17300415M.07800293 .7138672V0H.32299806C.38233439 0 .43367005 .008331299 .477005 .024993897 .52033999 .041656496 .5560048 .065816249 .58399966 .097473148 .6120046 .12914022 .6326701 .1681366 .6459961 .21446228 .6593323 .26078797 .66600039 .3139445 .66600039 .37393189 .66600039 .48857627 .6363322 .57389327 .57699587 .6298828 .5176697 .6858724 .43300376 .7138672 .32299806 .7138672H.07800293Z"/>
<path id="font_9_55" d="M.17300415 .3720703V.63378909H.3590088C.41300456 .63378909 .4524994 .6226349 .4774933 .60032656 .5024974 .5780182 .5149994 .54555258 .5149994 .5029297 .5149994 .4603068 .5024974 .42767335 .4774933 .4050293 .4524994 .38239543 .41300456 .3714091 .3590088 .3720703H.17300415M.07800293 .7138672V0H.17300415V.2919922H.39100648C.4630076 .2913208 .5175069 .3096466 .5545044 .3469696 .5915019 .3842926 .6100006 .4362793 .6100006 .5029297 .6100006 .5695801 .5915019 .6213989 .5545044 .65838626 .5175069 .69537356 .4630076 .7138672 .39100648 .7138672H.07800293Z"/>
<g id="font_10_123">
<path transform="matrix(.001,0,0,-.001,0,0)" d="M367-516C369-516 370-516 371-516 373-516 376-516 381-515 383-515 389-515 398-514 402-514 413-514 430-512 465-510 502-509 543-509 581-509 612-510 657-512 660-366 664-272 667-251 644-263 597-271 556-271 445-271 366-212 366-129 366-42 439 13 555 13 637 13 698-18 722-71 730-89 734-113 734-139 734-148 734-150 732-165 737-162 737-162 741-159 747-155 747-155 751-153 822-112 862-84 893-49L924-119C913-126 911-128 899-136 833-185 805-201 732-234 724-367 722-418 721-517 773-523 801-527 827-533 895-547 895-547 897-547L894-615C856-599 798-587 721-578 720-600 720-616 720-627 720-710 722-757 727-784H652C654-774 655-760 655-743 655-667 655-667 656-573 615-571 588-570 549-570 461-570 418-574 369-586L367-516ZM668-190C668-190 669-167 669-160 669-121 663-97 650-82 631-60 592-47 548-47 478-47 432-79 432-128 432-178 483-211 561-211 601-211 627-206 668-190ZM190-785C189-772 188-766 179-722 140-549 127-444 127-311 127-210 137-107 155-14 159 9 160 14 161 23L232 16C230 2 230 1 230-4 230-63 269-190 316-288L267-311C265-304 263-300 259-291 225-209 218-190 200-115L196-116C196-126 196-126 196-135 195-153 195-155 195-163 193-209 191-268 191-303 191-467 225-672 268-772L190-785Z"/>
</g>
<g id="font_11_176">
<path transform="matrix(.001,0,0,-.001,0,0)" d="M756-320V-779H953V-841H688V-320H756Z"/>
</g>
<g id="font_12_104">
<path transform="matrix(.001,0,0,-.001,0,0)" d="M341-566H392C434-566 452-565 480-563 478-581 477-593 477-616V-653C477-672 478-688 480-702 460-699 448-699 398-699H341V-753H411C448-753 474-752 497-749V-802C472-798 446-797 404-797H193C145-797 120-798 95-801 98-776 99-753 99-705V-554C99-522 98-492 96-463 127-465 149-466 184-466H410C441-466 458-465 497-462V-513C477-510 454-509 410-509H341V-566ZM288-566V-509H155V-566H288ZM155-606V-659H424V-606H155ZM155-699V-753H287V-699H155ZM882-798C866-795 850-794 807-794H615C575-794 554-795 526-798V-741C544-743 550-744 565-744 602-669 624-636 675-585 617-549 582-532 514-510 532-491 537-483 548-463 617-491 660-514 713-550 773-498 833-464 932-422 942-442 954-461 967-475 878-503 814-535 756-581 810-623 855-671 889-722 904-745 907-750 916-760L882-798ZM837-745C807-695 776-660 718-615 671-659 647-692 622-745H837ZM179-172C179-121 178-92 175-70 205-73 235-74 287-74H711C763-74 793-73 823-70 820-91 819-119 819-174V-331C819-377 820-403 822-428 792-425 772-424 719-424H280C227-424 208-425 176-427 178-396 179-371 179-330V-172ZM240-377H758V-322H240V-377ZM240-277H758V-223H240V-277ZM240-178H758V-120H240V-178ZM340-64C262-19 174 7 55 22 77 49 81 56 91 80 222 53 301 25 390-26L340-64ZM601-27C701 30 775 56 909 80 920 55 929 41 946 20 821 7 733-18 651-63L601-27Z"/>
</g>
<g id="font_10_80">
<path transform="matrix(.001,0,0,-.001,0,0)" d="M136-709C138-691 138-688 139-650 144-404 158-276 193-181 227-85 279-29 335-29 406-29 452-96 501-271 473-293 464-302 442-328 429-260 413-207 390-157 375-124 358-107 340-107 302-107 261-176 239-278 224-342 213-479 213-589 213-644 215-677 220-708L136-709ZM642-624C759-488 832-317 850-131L921-160C903-272 884-343 846-427 809-512 768-578 703-655L642-624Z"/>
</g>
<g id="font_13_192">
<path transform="matrix(.001,0,0,-.001,0,0)" d="M459-416V-264H292C249-264 224-265 199-269V-201C225-205 250-206 292-206H459V-27H175C127-27 92-29 63-33V40C96 35 134 33 174 33H827C866 33 903 35 936 40V-33C907-29 872-27 826-27H524V-206H710C752-206 776-205 802-201V-269C776-265 753-264 710-264H524V-416H686C727-416 752-415 778-411V-479C751-475 730-474 688-474H304C262-474 242-475 214-479V-411C241-415 265-416 307-416H459ZM454-818C410-746 356-685 285-625 214-566 120-509 34-472 57-448 66-437 78-412 175-461 257-515 335-582 405-643 446-689 495-762 552-683 599-633 678-570 756-508 841-454 932-409 945-436 956-453 975-475 893-506 808-555 728-615 643-679 587-737 533-818H454Z"/>
</g>
<g id="font_14_126">
<path transform="matrix(.001,0,0,-.001,0,0)" d="M554-295C485-194 389-114 269-58 291-39 298-30 313-5 440-79 517-150 589-259 587-229 586-207 586-177V-18C586 24 584 47 579 75H652C647 47 646 26 646-17V-175C646-210 645-230 641-260 709-151 799-70 931 0 945-27 953-39 971-59 903-88 854-118 792-167 745-205 714-238 670-295H855C887-295 913-294 944-290V-356C916-352 891-350 853-350H646V-390C646-428 647-448 651-471H579C584-445 586-425 586-384V-350H424C381-350 356-352 329-356V-290C357-294 382-295 420-295H554ZM172-627H123C94-627 72-629 48-633V-567C71-570 94-571 122-571H172V-356C100-327 78-320 40-312L60-244C73-252 88-259 119-271 157-287 157-287 172-293V-11C172 6 162 12 137 12 111 12 93 11 67 7 76 33 79 43 82 70 101 71 110 71 119 71 209 71 234 55 234-2V-320C281-342 293-348 335-370L330-427C285-404 268-396 234-382V-571H253C282-571 298-570 321-567V-632C300-628 285-627 252-627H234V-725C234-767 235-795 240-825H165C170-793 172-766 172-723V-627ZM521-725C516-586 468-520 342-478 360-462 370-450 384-427 454-458 500-494 531-542 561-590 573-636 579-725H667V-530C667-479 689-469 798-469 926-469 939-479 949-590 928-593 916-597 895-608 894-527 891-524 805-524 736-524 725-527 725-546V-725H863V-631H926C923-649 923-661 923-687V-721C923-751 923-764 926-783 902-781 878-780 836-780H428C386-780 363-781 340-783 342-763 343-748 343-720V-676C343-651 342-636 340-614H401V-725H521Z"/>
</g>
<g id="font_15_111">
<path transform="matrix(.001,0,0,-.001,0,0)" d="M95-193C118-196 133-197 165-197 233-198 328-201 460-207V-18C460 27 459 47 454 73H532C527 47 525 24 525-18V-210C644-215 644-215 810-228 839-195 849-184 880-146L927-188C863-262 806-317 725-383L680-350C721-316 735-303 765-275 593-264 593-264 455-260 549-328 598-369 661-433 675-448 685-457 695-466L630-498C605-455 553-402 474-337 432-371 430-372 388-403 445-457 473-487 515-540H847V-406H914C911-425 910-443 910-471V-539C910-567 911-576 914-599 883-596 859-595 814-595H521V-691H816C864-691 899-689 926-686V-753C899-749 868-747 816-747H521V-764C521-788 523-810 528-834H452C457-812 459-787 459-764V-747H190C138-747 106-749 79-753V-686C108-690 138-691 189-691H459V-595H189C147-595 120-596 89-599 92-576 93-564 93-535V-470C93-445 92-427 89-407H156V-540H439C413-503 391-478 343-435 315-454 303-461 266-484L225-441C316-386 356-358 428-301 410-287 410-287 390-273 385-270 379-265 369-258 297-256 282-256 219-256 147-256 112-258 83-262L95-193ZM317-169C281-127 259-107 213-77 170-49 138-33 80-13 101 3 114 17 129 40 239-13 297-55 371-136L317-169ZM616-140C714-51 770-13 876 37 888 16 902-2 920-19 809-63 748-101 664-178L616-140Z"/>
</g>
<g id="font_11_177">
<path transform="matrix(.001,0,0,-.001,0,0)" d="M244-440V19H47V81H312V-440H244Z"/>
</g>
<g id="font_10_119">
<path transform="matrix(.001,0,0,-.001,0,0)" d="M194-780C192-757 190-747 180-700 147-552 135-446 135-304 135-199 142-127 161-21 164-2 165 3 167 19L239 13C239 6 239 1 239-2 239-58 275-178 320-277L272-300C240-227 221-172 207-105 203-158 201-217 201-295 201-415 210-503 231-608 246-676 258-725 273-768L194-780ZM400-591C465-584 504-581 560-581 637-581 717-586 775-594 819-600 842-603 844-603L839-674C772-656 682-647 571-647 493-647 444-651 401-662L400-591ZM473-396C411-325 386-271 386-210 386-173 396-143 416-118 459-66 531-42 645-42 713-42 780-48 850-62 870-65 872-66 885-67L875-144C821-122 736-109 645-109 516-109 453-145 453-219 453-263 478-311 528-366L473-396Z"/>
</g>
<g id="font_10_101">
<path transform="matrix(.001,0,0,-.001,0,0)" d="M553-666C485-664 407-662 311-658 150-652 150-652 121-652 106-652 99-652 81-653L84-580C151-591 353-601 554-605 554-567 554-567 554-553 554-541 555-531 555-527 555-490 555-486 556-472 530-501 488-517 440-517 338-517 263-447 263-352 263-260 331-194 427-194 480-194 523-212 553-248 565-262 571-273 580-297 576-206 541-141 468-86 428-56 384-36 306-11 327 11 333 20 350 52 423 24 467 1 508-29 594-94 642-186 642-290 642-334 635-366 618-408V-606C699-608 710-608 725-608 844-608 879-607 916-603V-674C883-670 806-668 617-667V-678C617-756 618-771 622-803H547C550-782 551-771 551-745L553-666ZM550-374C550-304 502-256 433-256 372-256 330-297 330-355 330-415 378-460 441-460 468-460 489-455 508-444 537-428 550-407 550-374Z"/>
</g>
<g id="font_10_90">
<path transform="matrix(.001,0,0,-.001,0,0)" d="M145-579C162-581 166-581 207-581 319-583 405-589 477-599 501-548 509-532 534-485 452-470 323-460 219-460 179-460 161-461 139-464L141-397C159-399 162-399 211-401 383-406 467-413 562-430 594-374 640-307 669-276 603-298 550-306 467-306 370-306 295-290 241-259 190-229 161-184 161-134 161-81 189-35 237-8 287 21 351 34 443 34 532 34 617 22 699-3 720-10 733-14 736-15 745-17 748-18 759-20L745-99C685-61 553-31 449-31 311-31 235-68 235-134 235-203 328-248 472-248 518-248 569-244 604-238 653-230 676-222 714-200L773-242C702-324 680-353 626-441 657-447 706-458 783-477 815-486 820-487 837-490L829-558C798-541 719-519 600-495 589-515 555-583 543-609 579-614 641-626 734-647L725-709C686-694 614-678 522-663 499-712 474-778 469-804L394-792C403-777 404-775 454-655 362-644 301-640 217-640 183-640 166-641 142-643L145-579ZM728-788C758-757 806-682 830-629L881-659C851-718 823-760 778-814L728-788ZM842-841C881-796 922-732 944-684L994-713C961-776 936-813 891-869L842-841Z"/>
</g>
<g id="font_10_118">
<path transform="matrix(.001,0,0,-.001,0,0)" d="M330-811C328-765 312-680 296-623 277-623 244-622 224-622 169-622 139-624 105-630L104-561C110-561 115-561 117-561 120-561 128-561 139-560 154-560 188-559 205-559 220-559 254-560 279-561 250-466 221-394 175-303 138-231 111-187 79-147L147-107C152-115 158-127 167-141 205-207 214-224 238-272 282-364 318-457 349-564 410-568 472-576 513-585 537-589 537-589 548-591L545-660C499-645 436-633 366-627 380-678 386-702 393-736 401-777 402-781 409-800L330-811ZM919-535C838-587 771-621 655-667L618-611C723-573 799-533 883-475L919-535ZM921-92C914-97 914-97 903-108 849-156 787-194 707-229 701-267 696-336 696-381 696-416 699-437 709-474L641-481C633-444 631-420 631-384 631-359 633-312 638-247 599-258 574-262 537-262 492-262 454-255 419-240 363-217 326-167 326-113 326-24 401 32 521 32 643 32 711-25 711-128 711-138 711-144 709-160 782-122 845-72 884-24L921-92ZM643-183C643-183 645-152 645-140 645-65 606-31 520-31 441-31 393-62 393-113 393-168 447-203 532-203 572-203 601-198 643-183Z"/>
</g>
<path id="font_9_26" d="M.21800232 .4052887V.3330078C.23400371 .33496095 .25100199 .3359375 .2689972 .3359375 .29032899 .3359375 .3101603 .33310954 .3284912 .3274536 .34683229 .3217977 .3626658 .31314598 .37599183 .3014984 .389328 .28986106 .3999939 .27555848 .4079895 .2585907 .41599528 .24162293 .41999818 .22216289 .41999818 .20021057 .41999818 .17891948 .41583253 .15979004 .40750123 .14282227 .39916993 .12585449 .3880005 .11154684 .37399293 .09989929 .3599955 .088261928 .34366355 .07927958 .32499696 .07295227 .30633036 .06663513 .28666688 .06347656 .26600648 .06347656 .21734111 .06347656 .18033855 .07797241 .15499878 .10696411 .12966919 .13596599 .1163381 .173467 .11500549 .21946717H.02999878C.029337565 .18280538 .034505208 .1501414 .04550171 .12147522 .05649821 .092809047 .07232666 .068618778 .09298706 .04890442 .11365763 .029200236 .13865662 .014333089 .16798401 .0043029787 .19732158-.0057271325 .22999065-.0107421879 .2659912-.0107421879 .29932658-.0107421879 .3308258-.006245931 .3604889 .002746582 .39016215 .011749268 .41599528 .025248209 .43798829 .04324341 .45999146 .061238607 .4774933 .083730068 .49049378 .11071777 .50349429 .13771566 .5099945 .1688792 .5099945 .20420838 .5099945 .24686177 .49949647 .2838491 .47850038 .3151703 .45750428 .34650169 .42533876 .36683146 .38200379 .37615968V.37815858C.40999858 .39082337 .43332926 .40947978 .45199586 .4341278 .47066245 .458786 .47999574 .48710633 .47999574 .51908877 .47999574 .55173239 .4744924 .5800476 .46348573 .6040344 .45248924 .62802127 .437322 .64767459 .417984 .6629944 .39865623 .6783244 .37582398 .68981936 .3494873 .69747927 .3231608 .70514938 .29466249 .7089844 .2639923 .7089844 .22866313 .7089844 .19749959 .70330306 .17050171 .6919403 .14350383 .6805776 .1210022 .6648763 .102996829 .6448364 .085001628 .6248067 .07116699 .60078939 .06149292 .5727844 .05182902 .5447896 .04633077 .5137889 .04499817 .4797821H.13000489C.13000489 .5004527 .13267009 .5201213 .13800049 .53878787 .14334107 .5574544 .1515096 .57378646 .1625061 .5877838 .17350261 .6017812 .1875 .61294558 .20449829 .62127688 .22149658 .62961837 .24133301 .63378909 .26400758 .63378909 .30000816 .63378909 .33000694 .6243083 .3540039 .6053467 .3780009 .58639529 .3899994 .55795797 .3899994 .5200348 .3899994 .5014089 .38633219 .48477683 .3789978 .47013856 .37166343 .45551048 .36182658 .44337464 .3494873 .43373109 .3371582 .42408753 .3228251 .4167684 .30648805 .41177369 .29016114 .40678916 .2730001 .40429688 .25500489 .40429688H.23699951C.23366292 .40429688 .23033142 .40429688 .227005 .40429688 .2243398 .40429688 .22133892 .40462748 .21800232 .4052887Z"/>
</defs>
<path transform="matrix(.75,0,0,.75,0,0)" d="M0 0H1280V720H0Z" fill="#ffffff"/>
<g clip-path="url(#clip_1)">
<path transform="matrix(.75,0,0,.75,0,-1080)" d="M0 1440H1280V2160H0Z" fill="#ffffff"/>
</g>
<g clip-path="url(#clip_2)">
<path transform="matrix(.75,0,0,.75,0,0)" d="M0 0H1280V720H0Z" fill="#eff6ff"/>
</g>
<g clip-path="url(#clip_3)">
<use data-text="&#x5168;" xlink:href="#font_4_192" transform="matrix(39.6,0,0,-39.6,333.3164,261.75)" fill="#1e40af"/>
<use data-text="&#x63a2;" xlink:href="#font_5_126" transform="matrix(39.6,0,0,-39.6,372.91639,261.75)" fill="#1e40af"/>
<use data-text="&#x7d22;" xlink:href="#font_6_111" transform="matrix(39.6,0,0,-39.6,412.5164,261.75)" fill="#1e40af"/>
<use data-text="&#x304b;" xlink:href="#font_7_87" transform="matrix(39.6,0,0,-39.6,452.1164,261.75)" fill="#1e40af"/>
<use data-text="&#x3089;" xlink:href="#font_7_149" transform="matrix(39.6,0,0,-39.6,491.71638,261.75)" fill="#1e40af"/>
<use data-text="D" xlink:href="#font_8_43" transform="matrix(39.6,0,0,-39.6,531.31637,261.75)" fill="#1e40af"/>
<use data-text="P" xlink:href="#font_8_55" transform="matrix(39.6,0,0,-39.6,560.66,261.75)" fill="#1e40af"/>
<use data-text="&#x3078;" xlink:href="#font_7_132" transform="matrix(39.6,0,0,-39.6,587.0731,261.75)" fill="#1e40af"/>
<use data-text="D" xlink:href="#font_9_43" transform="matrix(18,0,0,-18,350.82423,306.75)" fill="#64748b"/>
<use data-text="P" xlink:href="#font_9_55" transform="matrix(18,0,0,-18,363.49623,306.75)" fill="#64748b"/>
<use data-text="&#x306f;" xlink:href="#font_10_123" transform="matrix(18,0,0,-18,375.16023,306.75)" fill="#64748b"/>
<use data-text="&#x300c;" xlink:href="#font_11_176" transform="matrix(18,0,0,-18,393.16023,306.75)" fill="#64748b"/>
<use data-text="&#x8ce2;" xlink:href="#font_12_104" transform="matrix(18,0,0,-18,411.16023,306.75)" fill="#64748b"/>
<use data-text="&#x3044;" xlink:href="#font_10_80" transform="matrix(18,0,0,-18,429.16023,306.75)" fill="#64748b"/>
<use data-text="&#x5168;" xlink:href="#font_13_192" transform="matrix(18,0,0,-18,447.16023,306.75)" fill="#64748b"/>
<use data-text="&#x63a2;" xlink:href="#font_14_126" transform="matrix(18,0,0,-18,465.16023,306.75)" fill="#64748b"/>
<use data-text="&#x7d22;" xlink:href="#font_15_111" transform="matrix(18,0,0,-18,483.16023,306.75)" fill="#64748b"/>
<use data-text="&#x300d;" xlink:href="#font_11_177" transform="matrix(18,0,0,-18,501.16023,306.75)" fill="#64748b"/>
<use data-text="&#x306b;" xlink:href="#font_10_119" transform="matrix(18,0,0,-18,519.1602,306.75)" fill="#64748b"/>
<use data-text="&#x3059;" xlink:href="#font_10_101" transform="matrix(18,0,0,-18,537.1602,306.75)" fill="#64748b"/>
<use data-text="&#x304e;" xlink:href="#font_10_90" transform="matrix(18,0,0,-18,555.1602,306.75)" fill="#64748b"/>
<use data-text="&#x306a;" xlink:href="#font_10_118" transform="matrix(18,0,0,-18,573.1602,306.75)" fill="#64748b"/>
<use data-text="&#x3044;" xlink:href="#font_10_80" transform="matrix(18,0,0,-18,591.1602,306.75)" fill="#64748b"/>
<use data-text="3" xlink:href="#font_9_26" transform="matrix(18,0,0,-18,927.48049,515.25)" fill="#777777"/>
</g>
</svg>
