<svg xmlns="http://www.w3.org/2000/svg" xmlns:xlink="http://www.w3.org/1999/xlink" xmlns:inkscape="http://www.inkscape.org/namespaces/inkscape" version="1.1" width="960" height="540" viewBox="0 0 960 540">
<defs>
<clipPath id="clip_1">
<path transform="matrix(.24,0,0,.24,0,0)" d="M0 0H4000V2250H0Z" clip-rule="evenodd"/>
</clipPath>
<clipPath id="clip_2">
<path transform="matrix(.24,0,0,.24,0,0)" d="M0 0H4000V2250H0Z" clip-rule="evenodd"/>
</clipPath>
<clipPath id="clip_3">
<path transform="matrix(.24,0,0,.24,0,0)" d="M0 0H4000V2250H0Z" clip-rule="evenodd"/>
</clipPath>
<g id="font_4_208">
<path transform="matrix(.001,0,0,-.001,0,0)" d="M276-749C276-743 276-738 276-735 276-713 273-679 267-638 251-512 216-388 173-295 131-203 90-142 30-82 78-56 97-41 144 4 278-150 356-347 398-634L401-658 406-687 408-704C409-712 410-713 413-724L276-749ZM573-725C578-710 581-694 587-653 626-384 719-154 852 5 890-38 911-55 962-87 858-199 788-334 739-519 716-605 698-703 697-749L573-725ZM865-805C802-805 750-753 750-690 750-626 802-574 865-574 929-574 981-626 981-690 981-753 929-805 865-805ZM865-755C902-755 931-726 931-690 931-654 902-624 865-624 829-624 800-654 800-690 800-726 829-755 865-755Z"/>
</g>
<g id="font_4_190">
<path transform="matrix(.001,0,0,-.001,0,0)" d="M811-718C785-709 764-707 723-706 479-704 479-704 463-702 468-711 475-723 487-750 506-788 506-788 517-806L387-835C378-798 358-749 329-696 268-584 188-493 78-411 130-381 145-368 178-331 279-416 350-497 412-600L723-603C692-509 658-439 611-367 536-426 494-454 410-501L334-412C409-371 469-329 539-269 488-212 446-176 375-130 315-90 265-65 180-30 218 2 231 19 263 73 476-25 617-143 719-309 760-376 815-493 847-584 863-630 865-634 878-651L811-718Z"/>
</g>
<g id="font_5_150">
<path transform="matrix(.001,0,0,-.001,0,0)" d="M71-314C111-319 122-319 234-319H765C877-319 888-319 928-314V-453C884-447 865-446 766-446H233C134-446 115-447 71-453V-314Z"/>
</g>
<g id="font_4_242">
<path transform="matrix(.001,0,0,-.001,0,0)" d="M122-642C215-590 297-524 377-439L463-548C386-621 324-667 205-741L122-642ZM157 18C180 10 183 9 223 1 378-32 502-81 604-149 741-240 836-358 921-541 870-577 854-592 815-639 785-558 757-503 713-439 634-325 541-248 416-194 325-154 206-125 120-120L157 18Z"/>
</g>
<g id="font_6_205">
<path transform="matrix(.001,0,0,-.001,0,0)" d="M514-646C471-646 453-647 428-651V-543C453-547 478-548 524-548H618V-448H542C500-448 477-449 451-453V-349C477-353 497-354 542-354H618V-242H526C478-242 450-243 421-247V-138C450-142 479-143 525-143H618V-37C618 9 616 49 612 82H733C729 45 727 9 727-38V-143H859C901-143 930-141 961-137V-247C929-243 898-242 857-242H727V-354H826C871-354 897-353 920-349V-453C898-449 872-448 825-448H727V-548H846C894-548 921-547 945-543V-651C920-647 900-646 855-646H811C837-689 848-708 895-802L787-841C764-771 734-705 700-646H514ZM78-714C103-717 125-718 162-718H303C340-718 363-717 387-714V-814C360-810 344-809 303-809H162C121-809 105-810 78-814V-714ZM46-569C71-572 90-573 126-573H331C374-573 386-572 407-570V-672C386-669 367-668 327-668H126C89-668 70-669 46-673V-569ZM82-427C105-430 115-430 148-430H324C356-430 365-430 388-427V-518C367-515 358-515 324-515H148C115-515 103-516 82-518V-427ZM82-288C104-291 115-291 147-291H322C354-291 367-290 388-288V-379C368-376 357-376 324-376H148C115-376 103-377 82-379V-288ZM177 86V39H292V73H391C388 48 387 25 387-5V-166C387-202 388-218 390-238 372-235 361-235 322-235H150C121-235 98-236 73-239 77-211 78-191 78-160V-11C78 23 76 56 72 86H177ZM174-149H292V-49H174V-149ZM637-692C607-761 592-789 558-840L466-797C498-748 518-708 541-648L637-692Z"/>
</g>
<g id="font_7_119">
<path transform="matrix(.001,0,0,-.001,0,0)" d="M403-783C390-780 380-779 351-779H261C277-822 277-822 282-833L176-853C170-818 160-788 139-745 107-676 73-630 26-590 63-559 77-544 92-522 92-510 92-491 92-467 92-177 81-88 32-1 65 22 76 33 115 77 152-2 163-46 175-168H380V-46C380-30 371-25 338-25 322-25 296-27 254-32 268 4 273 29 277 68 311 69 328 69 339 69 441 69 469 50 469-21V-524C469-532 469-532 469-550 501-518 518-495 532-467L543-474C544-473 544-471 544-471 544-461 538-428 533-405 521-354 510-325 480-273 507-264 526-254 569-227 586-263 592-277 601-304H682V-214H583C542-214 521-215 492-219V-112C521-116 542-117 582-117H682V-17C682 26 680 50 676 81H792C787 51 786 27 786-17V-117H865C911-117 933-116 959-113V-219C930-215 906-214 863-214H786V-304H848C887-304 914-303 937-300V-405C917-401 893-399 848-399H786V-407C786-433 787-455 789-480H676C680-457 682-436 682-407V-399H628C631-414 631-414 640-455L547-475C594-502 628-531 657-571 688-613 699-642 714-712H820C816-666 811-632 805-612 800-597 790-592 764-592 747-592 722-595 687-602 702-566 706-550 710-503 767-501 767-501 783-501 845-501 868-509 885-534 902-559 915-620 922-702 926-759 928-788 931-810 906-807 880-806 842-806H596C548-806 521-807 491-812V-707C513-710 539-712 580-712H608C599-668 588-645 565-621 540-594 517-578 469-555 470-583 470-589 472-606 445-603 423-602 377-602 392-626 409-657 419-675 437-711 440-717 449-731L403-783ZM194-602C179-602 179-602 171-602 191-632 207-658 223-690H321C307-658 294-634 275-602H194ZM181-255C181-271 181-277 182-306 182-314 182-328 182-345H241V-255H181ZM380-255H322V-345H380V-255ZM380-428H322V-513H380V-428ZM241-513V-428H184V-513H241Z"/>
</g>
<g id="font_8_169">
<path transform="matrix(.001,0,0,-.001,0,0)" d="M226-14C226 16 224 43 220 75H289V15H720V75H789C785 45 783 18 783-14V-220C783-249 784-269 787-292 825-276 853-266 922-243 929-268 939-288 953-309 840-339 779-361 690-404 641-428 610-446 558-480 631-542 679-593 736-666 750-684 756-691 765-702L730-747C704-743 677-742 636-742H402L459-826 390-845C379-816 360-785 329-744 255-644 182-580 74-517 93-502 103-490 117-468 198-518 254-565 315-633 362-568 399-528 458-480 339-394 215-336 50-288 68-265 72-257 82-227 147-250 167-258 223-283 225-258 226-243 226-220V-14ZM673-688C610-608 573-570 507-517 444-566 404-607 352-676 357-682 357-682 361-688H673ZM293-297C280-297 273-297 257-298 375-351 423-379 509-441 583-388 657-348 771-299 753-297 739-297 716-297H293ZM289-242H720V-41H289V-242Z"/>
</g>
<g id="font_9_208">
<path transform="matrix(.001,0,0,-.001,0,0)" d="M305-727C306-720 306-714 306-711 306-693 302-657 296-617 277-486 242-369 193-270 151-186 110-130 48-72 76-56 87-47 112-20 253-167 334-359 376-644 384-695 385-701 389-712L305-727ZM592-712C596-699 600-681 605-646 644-390 744-159 877-18 900-46 912-57 939-74 842-163 760-311 712-487 688-569 666-684 666-727L592-712ZM861-804C798-804 747-753 747-691 747-629 798-578 861-578 923-578 974-629 974-691 974-754 924-804 861-804ZM861-762C900-762 932-730 932-691 932-652 900-620 861-620 821-620 789-652 789-691 789-730 821-762 861-762Z"/>
</g>
<g id="font_9_190">
<path transform="matrix(.001,0,0,-.001,0,0)" d="M424-826C416-790 397-747 365-689 300-574 218-482 110-404 136-389 145-382 168-356 267-435 338-513 406-622L756-627C721-521 676-426 617-337 536-404 481-443 396-492L350-441C429-396 502-344 574-279 525-216 479-175 401-121 333-74 279-45 194-12 218 9 227 20 243 50 376-11 475-76 559-156 663-256 751-400 820-586 837-633 838-636 849-652L804-697C789-691 771-688 746-687 451-684 451-684 437-682 449-701 459-718 468-737 490-784 490-784 503-803L424-826Z"/>
</g>
<g id="font_10_150">
<path transform="matrix(.001,0,0,-.001,0,0)" d="M87-343C117-346 138-347 211-347H791C858-347 881-346 913-343V-424C882-420 866-419 792-419H211C143-419 116-420 87-425V-343Z"/>
</g>
<g id="font_9_242">
<path transform="matrix(.001,0,0,-.001,0,0)" d="M156-653C243-600 322-535 394-457L446-519C374-590 312-639 205-707L156-653ZM163-3C188-11 196-13 223-19 390-57 493-98 596-168 728-259 821-376 901-550 873-569 863-578 840-609 759-397 625-250 432-164 339-121 219-90 141-87L163-3Z"/>
</g>
<g id="font_9_122">
<path transform="matrix(.001,0,0,-.001,0,0)" d="M554-663C604-661 633-654 670-638 771-593 829-501 829-387 829-264 762-157 652-107 605-85 558-72 485-60 504-36 510-26 520 7 589-8 627-20 672-39 817-101 901-229 901-384 901-480 867-567 804-628 739-692 641-727 529-727 395-727 286-682 206-594 139-519 101-420 101-318 101-178 172-74 267-74 339-74 398-134 456-266 501-371 539-524 554-663ZM482-662C469-534 432-386 391-292 348-194 308-147 266-147 212-147 170-221 170-317 170-441 232-554 333-615 379-643 422-657 482-662Z"/>
</g>
<g id="font_11_230">
<path transform="matrix(.001,0,0,-.001,0,0)" d="M850-495C890-495 919-493 946-489V-558C918-554 891-552 848-552H637C641-604 642-636 644-708 646-785 647-795 651-821H574C578-803 580-771 580-746 580-642 579-620 576-552H433C392-552 361-554 334-558V-489C362-493 394-495 434-495H571C557-352 527-252 468-155 426-87 383-42 313 6 330 20 343 35 358 61 438 0 489-61 535-147 578-229 608-324 620-420 641-317 656-273 691-201 746-87 806-13 906 66 921 39 931 26 953 4 861-58 798-128 745-230 706-304 679-383 653-495H850ZM230-343C163-299 79-255 38-242L67-178C80-186 104-200 138-219 165-235 199-256 230-277V-20C230 17 228 46 224 73H299C294 45 293 23 293-16V-738C293-775 294-798 299-826H224C228-798 230-773 230-738V-343ZM54-670C91-590 107-540 124-453L182-477C160-568 145-612 109-691L54-670ZM890-632C837-704 815-729 751-791L704-759C768-697 796-663 840-594L890-632Z"/>
</g>
<g id="font_12_65">
<path transform="matrix(.001,0,0,-.001,0,0)" d="M61-623C84-626 100-628 113-628 275-637 298-639 436-656 449-637 454-629 470-604L519-635C472-702 434-749 386-799L340-772C370-742 381-730 405-698 319-690 292-688 203-685 231-726 248-755 286-822L220-840C203-787 184-751 139-683 118-682 114-682 104-682 82-682 70-683 54-684L61-623ZM176-328H401V-276C401-254 396-250 366-250 343-250 315-253 280-258 289-239 292-224 293-204 317-203 339-202 354-202 387-202 416-206 431-213 448-220 457-241 457-275V-492C457-542 458-569 461-592 439-589 415-588 373-588H205C164-588 138-589 116-591 118-569 119-552 119-509V-293C119-244 118-218 114-191H180C177-214 176-238 176-287V-328ZM176-374V-434H401V-374H176ZM176-480V-540H401V-480H176ZM604-757C604-790 605-806 610-829H539C544-806 545-788 545-755V-602C545-545 577-532 716-532 832-532 866-536 888-553 912-570 921-596 928-670 901-678 898-680 871-695 866-584 864-583 746-583 681-583 633-586 621-590 607-595 604-600 604-615V-663C680-679 709-686 775-706 811-718 879-743 909-756L861-805C814-772 722-738 604-713V-757ZM601-427C601-460 602-478 607-499H536C541-476 542-458 542-425V-278C542-222 575-209 720-209 831-209 873-215 896-234 916-252 923-273 931-348 905-355 899-358 874-373 871-309 866-285 854-275 841-265 813-262 724-262 619-262 601-267 601-293V-350C711-373 784-393 854-422 879-432 882-433 894-437L849-486C805-454 709-421 601-400V-427ZM113 56C167-11 186-44 221-133L165-159C136-79 115-46 58 18L113 56ZM292-165C297-141 298-121 298-92V-4C298 56 321 63 514 63 634 63 680 58 702 42 726 24 738-10 745-83 720-89 705-94 683-107 682-58 676-29 666-15 654 3 620 7 487 7 378 7 358 3 358-19V-97C358-127 359-142 364-165H292ZM941 14C903-53 870-97 810-165L760-139C812-81 847-28 886 48L941 14ZM608-92C558-136 527-159 473-188L431-153C483-125 518-97 564-51L608-92Z"/>
</g>
<g id="font_13_141">
<path transform="matrix(.001,0,0,-.001,0,0)" d="M856-405C841-402 823-401 781-401H502C473-401 451-402 431-406V-341C452-344 464-345 491-346 542-230 570-187 639-118 567-60 493-20 390 15 408 33 417 45 429 70 536 28 615-18 683-77 757-15 823 21 942 68 953 43 962 28 978 5 868-30 798-65 727-120 788-183 838-254 874-331 887-358 887-358 893-368L856-405ZM814-346C775-264 741-216 683-158 616-222 586-265 550-346H814ZM96-737C118-740 141-741 172-741H307C339-741 358-740 383-737V-800C359-796 341-795 307-795H172C137-795 120-796 96-800V-737ZM62-595C88-598 108-599 142-599H340C376-599 393-598 413-595V-662C390-658 374-657 333-657H142C104-657 85-658 62-662V-595ZM97-457C120-460 136-461 169-461H310C341-461 357-460 381-457V-518C360-515 346-514 310-514H169C134-514 116-515 97-518V-457ZM97-319C120-322 135-323 169-323H310C344-323 353-322 381-319V-380C363-377 344-376 310-376H169C134-376 117-377 97-380V-319ZM160 75V21H321V62H383C379 36 378 11 378-20V-161C378-199 379-217 381-240 363-237 351-237 308-237H177C148-237 123-238 97-241 101-215 102-192 102-157V-22C102 18 100 46 96 75H160ZM160-185H321V-31H160V-185ZM739-739V-528C739-483 757-473 838-473 895-473 920-478 935-491 954-508 964-545 970-626 948-633 939-637 915-653 913-594 908-558 899-541 894-530 882-527 841-527 808-527 799-531 799-548V-704C799-744 800-770 803-798 780-795 754-794 718-794H596C570-794 545-795 518-798 522-772 523-762 523-738 523-672 516-627 500-586 480-533 454-502 402-467 420-457 435-444 453-425 494-457 514-480 535-518 568-578 580-631 583-739H739Z"/>
</g>
<g id="font_14_52">
<path transform="matrix(.001,0,0,-.001,0,0)" d="M678-512H590C540-512 506-514 475-518V-446C509-450 546-452 590-452H678V-70C678 1 676 33 671 73H751C745 35 743-6 743-70V-452H838C888-452 921-450 958-446V-518C925-514 892-512 838-512H743V-714C743-757 745-794 750-825H671C676-789 678-761 678-714V-512ZM108-728C130-731 155-732 189-732H352C386-732 405-731 431-728V-791C407-787 387-786 352-786H189C153-786 132-787 108-791V-728ZM61-589C89-593 114-594 147-594H389C425-594 452-593 476-589V-655C453-651 428-649 389-649H148C112-649 88-651 61-655V-589ZM109-453C132-456 148-457 181-457H359C391-457 404-456 430-453V-514C408-511 393-510 359-510H181C146-510 130-511 109-514V-453ZM109-315C132-318 147-319 181-319H359C393-319 406-318 430-315V-376C408-373 393-372 359-372H181C145-372 129-373 109-376V-315ZM180 22H370V61H437C433 36 431 10 431-24V-156C431-194 432-213 435-236 415-234 396-233 367-233H184C152-233 136-234 114-237 118-211 119-188 119-155V-22C119 16 117 45 113 74H180V22ZM179-179H371V-31H179V-179Z"/>
</g>
<g id="font_10_128">
<path transform="matrix(.001,0,0,-.001,0,0)" d="M500-462C455-462 418-425 418-380 418-335 455-298 500-298 545-298 582-335 582-380 582-425 545-462 500-462Z"/>
</g>
<g id="font_13_183">
<path transform="matrix(.001,0,0,-.001,0,0)" d="M495-749V-688H399C364-688 341-689 322-692 325-674 326-656 326-633V-574C326-543 325-527 323-514 360-516 374-516 400-516H556C538-485 534-479 520-460H398C352-460 318-462 293-466V-406C318-409 352-411 397-411H475C414-355 364-325 264-287 280-269 290-255 298-236 387-284 422-306 470-344V-302C493-305 518-306 549-306H707V-244H462C433-244 413-245 393-247 394-236 395-216 395-188V-142C395-108 402-91 421-83 450-70 499-66 619-66 857-66 863-69 878-190 856-195 841-201 819-214 818-157 813-138 796-128 780-119 722-115 604-115 519-115 495-116 474-122 457-127 453-132 453-149V-199H692C726-199 745-198 765-196 763-210 763-217 763-255V-321C816-287 852-270 942-238 955-270 958-276 971-294 887-312 841-329 782-363 757-378 745-387 719-411H836C878-411 911-409 938-405V-466C911-462 878-460 835-460H580C591-476 595-482 615-516H826C852-516 867-516 901-514 898-531 897-547 897-573V-633C897-659 898-673 901-692 881-689 857-688 823-688H715V-749H836C877-749 911-747 937-743V-804C909-800 875-798 832-798H393C349-798 314-800 285-804V-743C311-747 347-749 388-749H495ZM548-749H662V-688H548V-749ZM495-643V-560H380V-643H495ZM548-643H662V-560H548V-643ZM715-643H841V-560H715V-643ZM655-411C688-378 697-370 721-351 696-351 693-351 678-351H549C518-351 504-352 482-354 508-376 520-388 542-411H655ZM65-770C129-710 165-667 219-589L270-633C210-710 176-748 111-810L65-770ZM53-370C77-374 94-375 126-375H185V-134C125-75 72-33 29-14L63 52C69 47 69 47 86 32 119 5 119 5 142-15 174-43 182-52 214-83 254-22 296 10 359 27 411 42 469 47 583 47 700 47 840 44 951 39 956 9 961-4 974-30 864-16 741-10 569-10 450-10 390-18 339-39 294-58 272-80 247-132V-338C247-386 248-408 251-436 227-432 207-431 175-431H130C92-431 76-432 53-436V-370Z"/>
</g>
<g id="font_15_164">
<path transform="matrix(.001,0,0,-.001,0,0)" d="M890-334C842-257 805-216 729-153 684-193 664-208 606-245L561-210C623-171 642-156 682-117 585-51 490-13 348 16 365 36 373 48 382 73 442 59 472 50 508 37 582 10 658-29 724-76 818-141 893-222 944-311 958-337 963-344 967-351L928-390C908-387 890-386 860-386H712C723-399 748-431 764-451L702-472C690-448 676-428 656-404 586-325 496-266 375-219 394-202 403-191 415-169 520-216 590-262 664-334H890ZM865-760C846-757 828-756 798-756H642C647-763 661-784 683-817L619-837C591-755 496-661 383-601 400-587 410-576 421-557 497-602 552-647 602-704H823C779-636 744-597 676-542 643-573 616-593 567-624L522-590C584-549 601-536 630-506 546-446 478-413 374-382 329-424 304-461 276-522H316C344-522 363-521 384-518V-581C365-578 347-577 316-577H274V-735C315-748 336-756 376-774 386-779 390-781 399-784L359-838C341-824 320-813 286-801 212-774 150-760 64-749 79-727 85-716 93-694 153-705 176-710 214-719V-577H132C93-577 74-578 53-582V-517C76-521 96-522 132-522H204C194-483 174-434 150-383 114-308 74-248 30-203 48-182 57-169 67-145 137-226 183-313 219-439 217-396 214-306 214-283V-43C214 13 212 44 208 73H280C276 43 274 9 274-43V-302C274-305 273-330 272-374 271-412 271-417 269-450 294-392 312-363 348-322 359-344 368-357 380-373 393-359 399-348 409-329 515-365 590-405 677-470 762-533 829-604 878-683 890-701 890-701 903-720L865-760Z"/>
</g>
<g id="font_16_228">
<path transform="matrix(.001,0,0,-.001,0,0)" d="M656-637C654-682 654-702 654-723 654-763 656-795 660-816H583C588-780 588-780 589-738 590-668 590-668 591-637H175C131-637 100-639 72-643V-571C106-575 134-577 175-577H593C598-483 604-428 614-365 636-232 678-108 727-36 766 21 810 55 847 55 872 55 894 41 911 13 930-18 942-58 960-143 934-154 923-162 901-182 885-72 867-18 845-18 839-18 826-25 813-37 783-64 756-110 730-179 708-236 695-286 680-367 668-439 665-464 659-577H838C880-577 912-575 941-571V-643C916-639 887-637 844-637H656ZM297-367V-85C150-58 125-54 78-54L93 17C105 14 124 10 138 7 304-23 438-52 586-91V-152C478-123 435-112 361-97V-367H463C501-367 527-366 552-362V-429C527-425 505-424 462-424H203C160-424 136-425 112-429V-362C137-366 164-367 202-367H297ZM875-699C832-743 806-765 748-807L702-773C757-734 784-710 828-661L875-699Z"/>
</g>
<g id="font_17_59">
<path transform="matrix(.001,0,0,-.001,0,0)" d="M360-691H224C180-691 154-692 132-694 135-672 136-651 136-614V-238C90-238 68-240 41-244V-174C69-178 101-180 144-180H859C903-180 934-178 962-174V-244C934-240 912-238 866-238V-614C866-651 867-674 870-694 851-692 823-691 775-691H635V-739C635-780 637-801 642-827H569C574-803 575-785 575-738V-691H420V-738C420-781 421-800 427-827H354C359-802 360-784 360-739V-691ZM360-238H198V-415H360V-238ZM420-238V-415H575V-238H420ZM635-238V-415H804V-238H635ZM360-472H198V-633H360V-472ZM420-472V-633H575V-472H420ZM635-472V-633H804V-472H635ZM338-146C287-98 261-78 214-51 160-21 119-4 43 17 64 35 73 46 91 74 222 27 285-11 395-109L338-146ZM581-107C645-52 676-28 727 3 783 36 827 56 900 81 914 56 923 44 943 22 868 1 824-17 764-50 713-78 686-97 631-144L581-107Z"/>
</g>
<g id="font_14_28">
<path transform="matrix(.001,0,0,-.001,0,0)" d="M198-737C198-669 197-648 194-596H154C112-596 86-597 60-601V-536C85-540 111-541 154-541H190C184-489 177-462 161-427 140-380 122-358 64-312 86-296 96-287 112-265 165-311 191-344 213-392 234-440 245-482 251-541H396V-396C396-355 394-327 390-303H457C460-286 461-266 461-233V-217H263C208-217 184-218 157-223V-156C188-160 219-161 267-161H461V-25H176C124-25 90-27 66-30V39C99 35 135 33 178 33H825C870 33 906 35 939 39V-30C914-26 883-25 828-25H523V-161H741C789-161 819-160 850-156V-223C823-218 796-217 740-217H523V-233C523-270 524-288 529-308H460C457-327 456-354 456-395V-541H494C538-541 561-540 588-536V-601C562-597 539-596 493-596H456V-737H473C513-737 539-736 564-733V-796C538-792 513-791 467-791H184C141-791 115-792 87-796V-733C112-736 138-737 179-737H198ZM396-737V-596H255C258-642 259-668 259-737H396ZM697-440C694-461 693-484 693-527V-695C693-737 694-761 698-783H625C629-760 631-733 631-693V-530C631-490 629-461 625-440H697ZM898-725C898-772 900-802 904-824H828C833-795 834-771 834-727V-377C834-359 829-355 806-354 792-354 781-354 776-354 773-354 771-354 770-354 751-354 716-357 680-363 689-341 693-327 697-297 731-294 764-293 796-293 876-293 898-309 898-369V-725Z"/>
</g>
<g id="font_18_254">
<path transform="matrix(.001,0,0,-.001,0,0)" d="M163-484H345C386-484 424-483 446-481 444-505 443-533 443-573V-707C443-746 444-772 446-802 418-799 394-798 344-798H201C152-798 124-799 97-802 100-770 101-741 101-692V-43C101 11 99 41 95 69H169C165 45 163 13 163-43V-484ZM163-749H386V-667H163V-749ZM163-618H386V-534H163V-618ZM903-692C903-735 904-766 908-802 880-799 853-798 803-798H641C592-798 566-799 539-802 541-772 542-742 542-707V-573C542-536 541-510 539-481 561-483 599-484 641-484H841V-32C841-9 834-3 805-3 772-3 727-7 678-13 689 11 692 23 696 51 740 54 776 55 815 55 884 55 903 37 903-28V-692ZM600-749H841V-667H600V-749ZM600-618H841V-534H600V-618ZM677-331C677-354 678-373 680-392 662-390 636-389 607-389H383C356-389 334-390 314-392 316-372 317-352 317-329V-129C317-89 316-64 312-36H377V-115H617C643-115 660-114 680-112 678-129 677-148 677-172V-331ZM377-336H618V-168H377V-336Z"/>
</g>
<g id="font_12_85">
<path transform="matrix(.001,0,0,-.001,0,0)" d="M266-77C224-110 193-141 172-177 178-210 178-215 183-263 184-276 185-281 187-297L123-305C125-295 125-289 125-278 125-240 115-167 105-130 89-74 64-26 27 22 50 34 65 45 79 61 117 7 139-43 158-113 200-53 251-12 315 13 386 41 504 52 721 52 806 52 907 50 962 46 967 17 972 1 984-23 905-13 812-8 687-8 622-8 530-11 480-15 401-20 369-26 324-45V-195H384C419-195 443-193 465-189V-252C439-248 417-247 385-247H324V-356H400C437-356 464-355 493-351V-416C466-412 442-410 403-410H149C104-410 77-412 51-416V-351C75-355 99-356 149-356H266V-77ZM686-736C680-710 669-678 656-644H616C571-644 552-645 528-647 531-619 532-595 532-558V-287C532-247 531-219 528-198 549-200 579-201 617-201H823C858-201 879-200 908-198 905-223 904-251 904-294V-557C904-598 905-622 908-647 884-645 863-644 820-644H713C726-674 737-705 745-736H861C895-736 927-734 955-731V-794C931-790 901-788 858-788H591C547-788 519-790 489-794V-731C513-734 544-736 588-736H686ZM588-594H847V-515H588V-594ZM588-466H847V-384H588V-466ZM588-335H847V-251H588V-335ZM115-558C115-518 114-493 111-469 137-472 162-473 204-473H355C397-473 422-472 448-469 445-496 444-514 444-556V-707C444-751 445-772 448-798 422-795 403-794 355-794H204C158-794 135-795 111-798 114-772 115-747 115-708V-558ZM172-744H387V-660H172V-744ZM172-610H387V-521H172V-610ZM614-184C565-131 525-104 440-70 458-58 473-43 486-25 560-61 604-93 663-152L614-184ZM751-150C817-92 860-62 931-28 944-50 952-60 969-77 897-107 855-133 796-182L751-150Z"/>
</g>
<path id="font_19_25" d="M.044006349 .45777894H.1289978C.1283366 .47912089 .13050334 .5002899 .13549805 .521286 .14050293 .5422821 .14867147 .56111147 .16000366 .57777407 .17133586 .59444686 .18583171 .60795089 .20349121 .61828616 .22116089 .6286214 .24232991 .63378909 .2669983 .63378909 .2856649 .63378909 .30332948 .63078817 .31999208 .6247864 .33666484 .61879476 .35116578 .6101329 .36349488 .59880068 .37583415 .58746847 .385671 .57396957 .39300538 .55830386 .40033976 .5426483 .40400697 .5251567 .40400697 .50582888 .40400697 .48117066 .4001719 .45950828 .39250184 .44084168 .38483177 .42218528 .37349449 .40486146 .35849 .38887025 .3434957 .37287904 .32466636 .35705058 .30200196 .3413849 .27933757 .32572938 .25300599 .30856834 .2230072 .28990174 .19833882 .27524314 .17466736 .25958253 .1519928 .24291992 .12932842 .22625733 .10899353 .20692952 .09098816 .18493653 .07299296 .16294353 .05816142 .13711548 .04649353 .10745239 .034835817 .07779948 .027338664 .041982015 .024002076 0H.4869995V.07519531H.1230011C.1269989 .09718832 .13549805 .11667887 .14849854 .13366699 .16149903 .15066529 .17716472 .16649373 .1954956 .18115235 .21383667 .19582112 .23400371 .20965068 .2559967 .22264099 .27799989 .23564148 .30000306 .24880474 .32200624 .26213075 .34399925 .27612815 .36533103 .29079185 .3860016 .30612184 .40667216 .3214518 .42500306 .33861289 .44099427 .35760499 .45699565 .37659709 .46982829 .39808656 .4794922 .42207337 .48916627 .44607035 .4940033 .47372947 .4940033 .50505068 .4940033 .53837588 .48816935 .5676982 .47650147 .5930176 .4648336 .61834719 .44900004 .63950607 .42900086 .65649417 .40900169 .67349246 .38550315 .68648788 .35850526 .69548037 .33150736 .70448306 .30267335 .7089844 .27200318 .7089844 .23467 .7089844 .20133464 .70263168 .17199707 .68992617 .14266968 .67723086 .11816915 .6596985 .09849548 .6373291 .07883199 .6149699 .064331058 .5884552 .054992677 .55778506 .04566447 .52711489 .04200236 .4937795 .044006349 .45777894Z"/>
<path id="font_19_26" d="M.21800232 .4052887V.3330078C.23400371 .33496095 .25100199 .3359375 .2689972 .3359375 .29032899 .3359375 .3101603 .33310954 .3284912 .3274536 .34683229 .3217977 .3626658 .31314598 .37599183 .3014984 .389328 .28986106 .3999939 .27555848 .4079895 .2585907 .41599528 .24162293 .41999818 .22216289 .41999818 .20021057 .41999818 .17891948 .41583253 .15979004 .40750123 .14282227 .39916993 .12585449 .3880005 .11154684 .37399293 .09989929 .3599955 .088261928 .34366355 .07927958 .32499696 .07295227 .30633036 .06663513 .28666688 .06347656 .26600648 .06347656 .21734111 .06347656 .18033855 .07797241 .15499878 .10696411 .12966919 .13596599 .1163381 .173467 .11500549 .21946717H.02999878C.029337565 .18280538 .034505208 .1501414 .04550171 .12147522 .05649821 .092809047 .07232666 .068618778 .09298706 .04890442 .11365763 .029200236 .13865662 .014333089 .16798401 .0043029787 .19732158-.0057271325 .22999065-.0107421879 .2659912-.0107421879 .29932658-.0107421879 .3308258-.006245931 .3604889 .002746582 .39016215 .011749268 .41599528 .025248209 .43798829 .04324341 .45999146 .061238607 .4774933 .083730068 .49049378 .11071777 .50349429 .13771566 .5099945 .1688792 .5099945 .20420838 .5099945 .24686177 .49949647 .2838491 .47850038 .3151703 .45750428 .34650169 .42533876 .36683146 .38200379 .37615968V.37815858C.40999858 .39082337 .43332926 .40947978 .45199586 .4341278 .47066245 .458786 .47999574 .48710633 .47999574 .51908877 .47999574 .55173239 .4744924 .5800476 .46348573 .6040344 .45248924 .62802127 .437322 .64767459 .417984 .6629944 .39865623 .6783244 .37582398 .68981936 .3494873 .69747927 .3231608 .70514938 .29466249 .7089844 .2639923 .7089844 .22866313 .7089844 .19749959 .70330306 .17050171 .6919403 .14350383 .6805776 .1210022 .6648763 .102996829 .6448364 .085001628 .6248067 .07116699 .60078939 .06149292 .5727844 .05182902 .5447896 .04633077 .5137889 .04499817 .4797821H.13000489C.13000489 .5004527 .13267009 .5201213 .13800049 .53878787 .14334107 .5574544 .1515096 .57378646 .1625061 .5877838 .17350261 .6017812 .1875 .61294558 .20449829 .62127688 .22149658 .62961837 .24133301 .63378909 .26400758 .63378909 .30000816 .63378909 .33000694 .6243083 .3540039 .6053467 .3780009 .58639529 .3899994 .55795797 .3899994 .5200348 .3899994 .5014089 .38633219 .48477683 .3789978 .47013856 .37166343 .45551048 .36182658 .44337464 .3494873 .43373109 .3371582 .42408753 .3228251 .4167684 .30648805 .41177369 .29016114 .40678916 .2730001 .40429688 .25500489 .40429688H.23699951C.23366292 .40429688 .23033142 .40429688 .227005 .40429688 .2243398 .40429688 .22133892 .40462748 .21800232 .4052887Z"/>
</defs>
<path transform="matrix(.75,0,0,.75,0,0)" d="M0 0H1280V720H0Z" fill="#ffffff"/>
<g clip-path="url(#clip_1)">
<path transform="matrix(.75,0,0,.75,0,-11880)" d="M0 15840H1280V16560H0Z" fill="#ffffff"/>
</g>
<g clip-path="url(#clip_2)">
<path transform="matrix(.75,0,0,.75,0,0)" d="M0 0H1280V720H0Z" fill="#eff6ff"/>
</g>
<g clip-path="url(#clip_3)">
<use data-text="&#x30d1;" xlink:href="#font_4_208" transform="matrix(39.6,0,0,-39.6,362.3789,261.75)" fill="#1e40af"/>
<use data-text="&#x30bf;" xlink:href="#font_4_190" transform="matrix(39.6,0,0,-39.6,401.97889,261.75)" fill="#1e40af"/>
<use data-text="&#x30fc;" xlink:href="#font_5_150" transform="matrix(39.6,0,0,-39.6,441.5789,261.75)" fill="#1e40af"/>
<use data-text="&#x30f3;" xlink:href="#font_4_242" transform="matrix(39.6,0,0,-39.6,478.80287,261.75)" fill="#1e40af"/>
<use data-text="&#x8a73;" xlink:href="#font_6_205" transform="matrix(39.6,0,0,-39.6,518.40286,261.75)" fill="#1e40af"/>
<use data-text="&#x89e3;" xlink:href="#font_7_119" transform="matrix(39.6,0,0,-39.6,558.0028,261.75)" fill="#1e40af"/>
<use data-text="&#x5404;" xlink:href="#font_8_169" transform="matrix(18,0,0,-18,309.8086,306.75)" fill="#64748b"/>
<use data-text="&#x30d1;" xlink:href="#font_9_208" transform="matrix(18,0,0,-18,327.8086,306.75)" fill="#64748b"/>
<use data-text="&#x30bf;" xlink:href="#font_9_190" transform="matrix(18,0,0,-18,345.8086,306.75)" fill="#64748b"/>
<use data-text="&#x30fc;" xlink:href="#font_10_150" transform="matrix(18,0,0,-18,363.8086,306.75)" fill="#64748b"/>
<use data-text="&#x30f3;" xlink:href="#font_9_242" transform="matrix(18,0,0,-18,380.1886,306.75)" fill="#64748b"/>
<use data-text="&#x306e;" xlink:href="#font_9_122" transform="matrix(18,0,0,-18,398.18858,306.75)" fill="#64748b"/>
<use data-text="&#x72b6;" xlink:href="#font_11_230" transform="matrix(18,0,0,-18,416.18858,306.75)" fill="#64748b"/>
<use data-text="&#x614b;" xlink:href="#font_12_65" transform="matrix(18,0,0,-18,434.18858,306.75)" fill="#64748b"/>
<use data-text="&#x8a2d;" xlink:href="#font_13_141" transform="matrix(18,0,0,-18,452.18858,306.75)" fill="#64748b"/>
<use data-text="&#x8a08;" xlink:href="#font_14_52" transform="matrix(18,0,0,-18,470.18858,306.75)" fill="#64748b"/>
<use data-text="&#x30fb;" xlink:href="#font_10_128" transform="matrix(18,0,0,-18,488.18858,306.75)" fill="#64748b"/>
<use data-text="&#x9077;" xlink:href="#font_13_183" transform="matrix(18,0,0,-18,506.18858,306.75)" fill="#64748b"/>
<use data-text="&#x79fb;" xlink:href="#font_15_164" transform="matrix(18,0,0,-18,524.1886,306.75)" fill="#64748b"/>
<use data-text="&#x5f0f;" xlink:href="#font_16_228" transform="matrix(18,0,0,-18,542.1886,306.75)" fill="#64748b"/>
<use data-text="&#x30fb;" xlink:href="#font_10_128" transform="matrix(18,0,0,-18,560.1886,306.75)" fill="#64748b"/>
<use data-text="&#x5178;" xlink:href="#font_17_59" transform="matrix(18,0,0,-18,578.1886,306.75)" fill="#64748b"/>
<use data-text="&#x578b;" xlink:href="#font_14_28" transform="matrix(18,0,0,-18,596.1886,306.75)" fill="#64748b"/>
<use data-text="&#x554f;" xlink:href="#font_18_254" transform="matrix(18,0,0,-18,614.1886,306.75)" fill="#64748b"/>
<use data-text="&#x984c;" xlink:href="#font_12_85" transform="matrix(18,0,0,-18,632.1886,306.75)" fill="#64748b"/>
<use data-text="2" xlink:href="#font_19_25" transform="matrix(18,0,0,-18,917.47268,515.25)" fill="#777777"/>
<use data-text="3" xlink:href="#font_19_26" transform="matrix(18,0,0,-18,927.48068,515.25)" fill="#777777"/>
</g>
</svg>
