<svg xmlns="http://www.w3.org/2000/svg" xmlns:xlink="http://www.w3.org/1999/xlink" xmlns:inkscape="http://www.inkscape.org/namespaces/inkscape" version="1.1" width="960" height="540" viewBox="0 0 960 540">
<defs>
<clipPath id="clip_1">
<path transform="matrix(.24,0,0,.24,0,0)" d="M0 0H4000V2250H0Z" clip-rule="evenodd"/>
</clipPath>
<clipPath id="clip_2">
<path transform="matrix(.24,0,0,.24,0,0)" d="M0 0H4000V2250H0Z" clip-rule="evenodd"/>
</clipPath>
<clipPath id="clip_3">
<path transform="matrix(.24,0,0,.24,0,0)" d="M0 0H4000V2250H0Z" clip-rule="evenodd"/>
</clipPath>
<path id="font_4_43" d="M.22599793 .13183594V.58203127H.33799745C.3766632 .58203127 .40916444 .5765279 .4355011 .56552127 .46183778 .5545146 .4830068 .53867086 .49900819 .5179901 .5150096 .49731956 .5265096 .47247825 .5335083 .4434662 .540507 .41445414 .54400637 .38194276 .54400637 .345932 .54400637 .3065745 .53900656 .27322389 .52900698 .24588013 .5190074 .21853638 .5056712 .19636028 .4889984 .1793518 .47233583 .16234334 .45333863 .15017192 .43200685 .14283753 .41067506 .13550313 .38867188 .13183594 .3659973 .13183594H.22599793M.069000247 .7138672V0H.3769989C.43166606 0 .47916667 .009165446 .51950076 .027496338 .5598348 .04582723 .5935008 .070988979 .62049868 .10298157 .6475067 .13497417 .66767379 .17296346 .68099978 .21694947 .69433596 .26094566 .701004 .3089396 .701004 .3609314 .701004 .42025758 .6928355 .47191368 .6764984 .51589968 .6601715 .5598958 .63750717 .5965576 .60850527 .625885 .57950338 .6552124 .545166 .6772054 .50549319 .691864 .46583048 .7065328 .42299906 .7138672 .3769989 .7138672H.069000247Z"/>
<path id="font_4_55" d="M.22599793 .3779297V.5917969H.34799195C.3659973 .5917969 .3833313 .5904643 .3999939 .5877991 .4166565 .58513388 .4313202 .5799713 .443985 .5723114 .45665995 .5646515 .4668274 .5538228 .4744873 .53982546 .48215739 .5258382 .48599244 .5075175 .48599244 .48486329 .48599244 .46220909 .48215739 .44388328 .4744873 .42988587 .4668274 .41589866 .45665995 .40507508 .443985 .39741517 .4313202 .38975526 .4166565 .38459269 .3999939 .3819275 .3833313 .3792623 .3659973 .3779297 .34799195 .3779297H.22599793M.069000247 .7138672V0H.22599793V.25585938H.39100648C.43566386 .25585938 .47365824 .26235963 .5049896 .2753601 .5363312 .2883606 .5618337 .30552674 .5814972 .32685853 .60117086 .3481903 .61550399 .37269084 .62449648 .4003601 .63349917 .4280294 .6380005 .4561971 .6380005 .48486329 .6380005 .51420089 .63349917 .54253646 .62449648 .56987 .61550399 .59720358 .60117086 .62153628 .5814972 .64286807 .5618337 .6641998 .53633627 .68136599 .5050049 .69436648 .4736735 .70736697 .43567405 .7138672 .39100648 .7138672H.069000247Z"/>
<g id="font_5_141">
<path transform="matrix(.001,0,0,-.001,0,0)" d="M858-425C844-422 826-421 788-421H493C467-421 449-422 429-426V-320C445-323 454-323 474-324 513-229 542-181 603-117 544-76 479-46 390-20V-170C390-208 390-221 393-243 376-240 365-240 326-240H154C123-240 102-241 77-243 81-219 82-196 82-164V-17C82 19 80 51 76 82H178V34H295V68H394C391 43 390 31 390-3 411 23 425 46 441 82 543 45 614 7 681-46 749 7 814 39 931 79 945 38 958 12 981-28 872-58 826-76 758-119 813-178 850-237 893-330 907-361 907-361 913-371L858-425ZM777-325C742-256 721-226 678-181 631-227 603-267 578-325H777ZM178-153H295V-54H178V-153ZM80-721C105-724 128-725 164-725H308C344-725 365-724 392-721V-818C365-814 349-813 308-813H164C123-813 107-814 80-818V-721ZM48-573C72-576 93-577 129-577H340C382-577 395-576 416-573V-676C394-673 377-672 335-672H129C91-672 72-673 48-677V-573ZM82-432C102-434 116-435 148-435H326C356-435 368-434 390-432V-525C372-523 359-522 326-522H148C116-522 101-523 82-525V-432ZM82-291C103-293 116-294 147-294H324C357-294 367-294 390-291V-384C372-382 359-381 326-381H148C116-381 101-382 82-384V-291ZM708-712V-536C708-483 729-471 826-471 953-471 964-483 976-647 942-656 916-667 886-683 880-563 880-563 840-563 816-563 809-567 809-580V-728C809-765 810-791 813-813 787-810 763-809 728-809H575C544-809 522-810 496-813 500-787 501-777 501-746 501-615 476-554 397-496 426-478 455-455 484-427 519-458 538-483 558-522 586-578 596-625 599-712H708Z"/>
</g>
<g id="font_6_52">
<path transform="matrix(.001,0,0,-.001,0,0)" d="M662-536H599C546-536 510-538 478-542V-427C513-431 556-433 600-433H662V-68C662 5 660 43 655 83H780C775 42 773 1 773-68V-433H843C891-433 926-431 965-427V-542C932-538 898-536 844-536H773V-717C773-771 775-803 780-837H655C661-799 662-773 662-717V-536ZM95-714C120-717 145-718 181-718H354C392-718 411-717 439-714V-812C413-808 394-807 354-807H181C140-807 120-808 95-812V-714ZM53-571C82-575 104-576 137-576H395C437-576 457-575 480-572V-672C456-668 434-667 395-667H138C101-667 78-669 53-673V-571ZM96-432C119-435 129-435 162-435H374C406-435 415-435 438-432V-527C417-524 408-524 374-524H162C129-524 117-525 96-527V-432ZM96-290C117-292 129-293 161-293H372C405-293 418-292 438-290V-385C417-382 408-382 374-382H162C127-382 114-383 96-385V-290ZM201 38H340V69H447C443 44 442 20 442-18V-165C442-200 443-219 446-242 427-240 412-239 381-239H166C129-239 115-240 96-242 99-215 100-196 100-164V-13C100 26 99 54 95 83H201V38ZM199-148H341V-51H199V-148Z"/>
</g>
<g id="font_7_122">
<path transform="matrix(.001,0,0,-.001,0,0)" d="M578-641C622-637 648-629 679-611 759-563 802-485 802-389 802-282 750-187 663-139 616-112 556-96 464-84 496-42 508-20 525 33 595 21 634 11 682-9 835-71 925-209 925-382 925-607 769-753 529-753 387-753 269-705 185-613 114-535 75-432 75-322 75-161 157-45 271-45 353-45 417-104 474-233 524-346 559-484 578-641ZM456-640C444-527 411-392 373-302 337-216 303-174 270-174 226-174 191-239 191-321 191-428 243-531 327-591 368-620 404-634 456-640Z"/>
</g>
<g id="font_8_174">
<path transform="matrix(.001,0,0,-.001,0,0)" d="M847-415C822-368 804-341 776-307 715-231 628-158 536-103 460-57 406-34 325-10 351 15 369 42 390 86 520 35 599-10 693-85 757-14 830 42 914 84 933 41 947 16 972-19 889-52 838-87 771-154 824-205 870-259 908-313 931-347 932-348 940-358L847-415ZM758-589C738-539 688-472 621-403 600-425 588-437 566-457 610-507 641-552 680-624H852C897-624 933-622 964-618V-728C934-724 900-722 852-722H704V-767C704-797 705-816 709-837H591C595-817 596-800 596-768V-722H494C443-722 413-723 382-727V-619C412-623 440-624 494-624H561C545-588 523-552 495-519 476-534 469-539 447-556L380-479C458-423 492-393 545-335 470-279 421-252 343-222 371-192 385-172 409-130 575-205 702-315 819-486 837-511 844-521 855-535L758-589ZM309-563C329-563 346-562 362-560V-663C344-660 333-659 308-659H283V-740C283-787 285-817 288-844H176C180-816 182-792 182-740V-659H124C96-659 76-660 57-664V-558C77-562 97-563 124-563H171C146-451 93-333 32-254 58-211 68-191 88-140 129-210 156-272 188-379 184-319 182-266 182-243V-37C182 14 180 52 176 85H289C285 54 283 14 283-37V-285C283-316 282-349 280-423 301-366 314-339 351-280 364-321 376-346 397-382 356-427 338-453 308-511 296-533 293-541 285-563H309Z"/>
</g>
<g id="font_5_4">
<path transform="matrix(.001,0,0,-.001,0,0)" d="M136-64C200-203 217-267 250-509L139-532C115-333 93-254 26-126L136-64ZM708-693C589-760 514-793 365-844L301-749C465-690 539-654 639-588L708-693ZM981-144C924-324 886-417 812-549L705-501C778-369 820-260 866-86L981-144ZM420-523C420-559 422-590 427-622H298C303-582 305-558 305-520V-48C305 43 335 59 512 59 672 59 716 47 744-4 766-46 776-103 785-238 743-248 716-257 673-278 671-174 664-108 651-80 640-57 611-50 531-50 439-50 420-55 420-80V-523Z"/>
</g>
<g id="font_9_230">
<path transform="matrix(.001,0,0,-.001,0,0)" d="M850-495C890-495 919-493 946-489V-558C918-554 891-552 848-552H637C641-604 642-636 644-708 646-785 647-795 651-821H574C578-803 580-771 580-746 580-642 579-620 576-552H433C392-552 361-554 334-558V-489C362-493 394-495 434-495H571C557-352 527-252 468-155 426-87 383-42 313 6 330 20 343 35 358 61 438 0 489-61 535-147 578-229 608-324 620-420 641-317 656-273 691-201 746-87 806-13 906 66 921 39 931 26 953 4 861-58 798-128 745-230 706-304 679-383 653-495H850ZM230-343C163-299 79-255 38-242L67-178C80-186 104-200 138-219 165-235 199-256 230-277V-20C230 17 228 46 224 73H299C294 45 293 23 293-16V-738C293-775 294-798 299-826H224C228-798 230-773 230-738V-343ZM54-670C91-590 107-540 124-453L182-477C160-568 145-612 109-691L54-670ZM890-632C837-704 815-729 751-791L704-759C768-697 796-663 840-594L890-632Z"/>
</g>
<g id="font_10_65">
<path transform="matrix(.001,0,0,-.001,0,0)" d="M61-623C84-626 100-628 113-628 275-637 298-639 436-656 449-637 454-629 470-604L519-635C472-702 434-749 386-799L340-772C370-742 381-730 405-698 319-690 292-688 203-685 231-726 248-755 286-822L220-840C203-787 184-751 139-683 118-682 114-682 104-682 82-682 70-683 54-684L61-623ZM176-328H401V-276C401-254 396-250 366-250 343-250 315-253 280-258 289-239 292-224 293-204 317-203 339-202 354-202 387-202 416-206 431-213 448-220 457-241 457-275V-492C457-542 458-569 461-592 439-589 415-588 373-588H205C164-588 138-589 116-591 118-569 119-552 119-509V-293C119-244 118-218 114-191H180C177-214 176-238 176-287V-328ZM176-374V-434H401V-374H176ZM176-480V-540H401V-480H176ZM604-757C604-790 605-806 610-829H539C544-806 545-788 545-755V-602C545-545 577-532 716-532 832-532 866-536 888-553 912-570 921-596 928-670 901-678 898-680 871-695 866-584 864-583 746-583 681-583 633-586 621-590 607-595 604-600 604-615V-663C680-679 709-686 775-706 811-718 879-743 909-756L861-805C814-772 722-738 604-713V-757ZM601-427C601-460 602-478 607-499H536C541-476 542-458 542-425V-278C542-222 575-209 720-209 831-209 873-215 896-234 916-252 923-273 931-348 905-355 899-358 874-373 871-309 866-285 854-275 841-265 813-262 724-262 619-262 601-267 601-293V-350C711-373 784-393 854-422 879-432 882-433 894-437L849-486C805-454 709-421 601-400V-427ZM113 56C167-11 186-44 221-133L165-159C136-79 115-46 58 18L113 56ZM292-165C297-141 298-121 298-92V-4C298 56 321 63 514 63 634 63 680 58 702 42 726 24 738-10 745-83 720-89 705-94 683-107 682-58 676-29 666-15 654 3 620 7 487 7 378 7 358 3 358-19V-97C358-127 359-142 364-165H292ZM941 14C903-53 870-97 810-165L760-139C812-81 847-28 886 48L941 14ZM608-92C558-136 527-159 473-188L431-153C483-125 518-97 564-51L608-92Z"/>
</g>
<g id="font_11_122">
<path transform="matrix(.001,0,0,-.001,0,0)" d="M554-663C604-661 633-654 670-638 771-593 829-501 829-387 829-264 762-157 652-107 605-85 558-72 485-60 504-36 510-26 520 7 589-8 627-20 672-39 817-101 901-229 901-384 901-480 867-567 804-628 739-692 641-727 529-727 395-727 286-682 206-594 139-519 101-420 101-318 101-178 172-74 267-74 339-74 398-134 456-266 501-371 539-524 554-663ZM482-662C469-534 432-386 391-292 348-194 308-147 266-147 212-147 170-221 170-317 170-441 232-554 333-615 379-643 422-657 482-662Z"/>
</g>
<g id="font_12_18">
<path transform="matrix(.001,0,0,-.001,0,0)" d="M474-55C428-72 395-91 366-116 331-148 313-172 287-226 294-250 309-308 314-332 323-371 323-371 326-384L256-398C256-394 256-391 256-388 256-331 229-230 195-160 161-89 129-47 60 18 88 37 95 44 112 65 187-14 223-67 264-162 317-56 415 4 571 26 622 33 642 34 790 34 817 34 824 34 911 32 915 3 920-13 933-38 849-31 780-28 699-28 628-28 580-31 536-39V-261H729C770-261 796-260 825-255V-323C799-319 772-317 729-317H536V-480H711C755-480 782-478 810-474V-543C783-539 755-537 711-537H297C253-537 225-539 198-543V-474C228-478 254-480 297-480H474V-55ZM459-715H188C148-715 119-716 87-719 90-700 91-677 91-651V-588C91-557 90-539 87-517H153V-657H851V-517H916C913-538 912-558 912-588V-651C912-679 913-698 916-719 884-716 855-715 816-715H524V-764C524-786 526-804 531-826H453C457-802 459-786 459-763V-715Z"/>
</g>
<g id="font_13_97">
<path transform="matrix(.001,0,0,-.001,0,0)" d="M789-228C770-201 737-168 688-131 663-168 648-199 633-246L838-249C851-250 867-250 880-250 916-250 926-249 946-246L945-310C919-305 900-303 837-302L621-298C615-329 610-374 610-400 610-407 611-421 612-427H544C546-418 548-405 550-384 554-353 557-327 562-297L334-293V-365C393-376 428-385 483-403L438-446C429-442 428-442 426-441 356-410 247-392 94-385 110-367 114-361 123-337 201-345 223-347 275-355V-292L145-290C134-290 128-290 125-290 103-290 80-292 53-295L54-232C84-236 105-238 145-238L275-240V-157C187-146 129-141 93-141 86-141 81-141 69-142L82-78C91-81 94-81 101-82 118-85 136-87 154-89 234-99 234-99 275-105V-4C275 11 269 16 253 16 220 16 183 12 135 4 143 21 146 35 150 63 195 67 227 69 253 69 317 69 334 55 334 1V-114C388-122 433-131 504-146V-197C424-179 395-174 334-165V-241L574-245C591-187 613-138 640-97 572-53 505-23 408 6 426 23 436 37 446 58 543 22 606-10 673-55 738 20 808 66 858 66 904 66 928 30 960-88 940-99 928-109 912-129 888-26 874 6 851 6 827 6 762-41 719-89 754-116 786-143 812-167 832-187 834-188 840-193L789-228ZM215-742C166-742 138-744 112-748V-687C141-691 171-692 215-692H464V-627H259C212-627 186-628 163-632V-573C187-577 213-578 259-578H464V-508H159C110-508 81-510 54-514V-450C80-454 110-456 159-456H842C891-456 920-454 946-450V-514C920-510 891-508 842-508H523V-578H737C782-578 807-577 832-573V-632C809-628 786-627 737-627H523V-692H782C828-692 854-691 884-687V-748C862-743 836-742 782-742H640C666-767 687-792 710-822L647-844C626-806 605-779 570-742H407C376-785 361-803 325-840L271-819C302-788 322-766 340-742H215ZM673-406C727-377 772-346 803-319L840-359C799-391 761-415 709-441L673-406Z"/>
</g>
<g id="font_11_116">
<path transform="matrix(.001,0,0,-.001,0,0)" d="M310-785C316-769 318-764 327-722 353-594 372-524 400-442 338-411 307-392 269-361 210-313 180-255 180-191 180-112 222-57 304-27 352-9 427 0 526 0 596 0 644-3 747-13 802-19 802-19 821-19L813-102C754-81 642-68 527-68 331-68 254-103 254-194 254-277 328-343 499-411 587-447 730-493 800-508L770-584C750-574 741-571 706-558 551-504 523-493 464-469 430-569 393-733 389-800L310-785Z"/>
</g>
<g id="font_14_183">
<path transform="matrix(.001,0,0,-.001,0,0)" d="M495-749V-688H399C364-688 341-689 322-692 325-674 326-656 326-633V-574C326-543 325-527 323-514 360-516 374-516 400-516H556C538-485 534-479 520-460H398C352-460 318-462 293-466V-406C318-409 352-411 397-411H475C414-355 364-325 264-287 280-269 290-255 298-236 387-284 422-306 470-344V-302C493-305 518-306 549-306H707V-244H462C433-244 413-245 393-247 394-236 395-216 395-188V-142C395-108 402-91 421-83 450-70 499-66 619-66 857-66 863-69 878-190 856-195 841-201 819-214 818-157 813-138 796-128 780-119 722-115 604-115 519-115 495-116 474-122 457-127 453-132 453-149V-199H692C726-199 745-198 765-196 763-210 763-217 763-255V-321C816-287 852-270 942-238 955-270 958-276 971-294 887-312 841-329 782-363 757-378 745-387 719-411H836C878-411 911-409 938-405V-466C911-462 878-460 835-460H580C591-476 595-482 615-516H826C852-516 867-516 901-514 898-531 897-547 897-573V-633C897-659 898-673 901-692 881-689 857-688 823-688H715V-749H836C877-749 911-747 937-743V-804C909-800 875-798 832-798H393C349-798 314-800 285-804V-743C311-747 347-749 388-749H495ZM548-749H662V-688H548V-749ZM495-643V-560H380V-643H495ZM548-643H662V-560H548V-643ZM715-643H841V-560H715V-643ZM655-411C688-378 697-370 721-351 696-351 693-351 678-351H549C518-351 504-352 482-354 508-376 520-388 542-411H655ZM65-770C129-710 165-667 219-589L270-633C210-710 176-748 111-810L65-770ZM53-370C77-374 94-375 126-375H185V-134C125-75 72-33 29-14L63 52C69 47 69 47 86 32 119 5 119 5 142-15 174-43 182-52 214-83 254-22 296 10 359 27 411 42 469 47 583 47 700 47 840 44 951 39 956 9 961-4 974-30 864-16 741-10 569-10 450-10 390-18 339-39 294-58 272-80 247-132V-338C247-386 248-408 251-436 227-432 207-431 175-431H130C92-431 76-432 53-436V-370Z"/>
</g>
<g id="font_15_164">
<path transform="matrix(.001,0,0,-.001,0,0)" d="M890-334C842-257 805-216 729-153 684-193 664-208 606-245L561-210C623-171 642-156 682-117 585-51 490-13 348 16 365 36 373 48 382 73 442 59 472 50 508 37 582 10 658-29 724-76 818-141 893-222 944-311 958-337 963-344 967-351L928-390C908-387 890-386 860-386H712C723-399 748-431 764-451L702-472C690-448 676-428 656-404 586-325 496-266 375-219 394-202 403-191 415-169 520-216 590-262 664-334H890ZM865-760C846-757 828-756 798-756H642C647-763 661-784 683-817L619-837C591-755 496-661 383-601 400-587 410-576 421-557 497-602 552-647 602-704H823C779-636 744-597 676-542 643-573 616-593 567-624L522-590C584-549 601-536 630-506 546-446 478-413 374-382 329-424 304-461 276-522H316C344-522 363-521 384-518V-581C365-578 347-577 316-577H274V-735C315-748 336-756 376-774 386-779 390-781 399-784L359-838C341-824 320-813 286-801 212-774 150-760 64-749 79-727 85-716 93-694 153-705 176-710 214-719V-577H132C93-577 74-578 53-582V-517C76-521 96-522 132-522H204C194-483 174-434 150-383 114-308 74-248 30-203 48-182 57-169 67-145 137-226 183-313 219-439 217-396 214-306 214-283V-43C214 13 212 44 208 73H280C276 43 274 9 274-43V-302C274-305 273-330 272-374 271-412 271-417 269-450 294-392 312-363 348-322 359-344 368-357 380-373 393-359 399-348 409-329 515-365 590-405 677-470 762-533 829-604 878-683 890-701 890-701 903-720L865-760Z"/>
</g>
<g id="font_14_141">
<path transform="matrix(.001,0,0,-.001,0,0)" d="M856-405C841-402 823-401 781-401H502C473-401 451-402 431-406V-341C452-344 464-345 491-346 542-230 570-187 639-118 567-60 493-20 390 15 408 33 417 45 429 70 536 28 615-18 683-77 757-15 823 21 942 68 953 43 962 28 978 5 868-30 798-65 727-120 788-183 838-254 874-331 887-358 887-358 893-368L856-405ZM814-346C775-264 741-216 683-158 616-222 586-265 550-346H814ZM96-737C118-740 141-741 172-741H307C339-741 358-740 383-737V-800C359-796 341-795 307-795H172C137-795 120-796 96-800V-737ZM62-595C88-598 108-599 142-599H340C376-599 393-598 413-595V-662C390-658 374-657 333-657H142C104-657 85-658 62-662V-595ZM97-457C120-460 136-461 169-461H310C341-461 357-460 381-457V-518C360-515 346-514 310-514H169C134-514 116-515 97-518V-457ZM97-319C120-322 135-323 169-323H310C344-323 353-322 381-319V-380C363-377 344-376 310-376H169C134-376 117-377 97-380V-319ZM160 75V21H321V62H383C379 36 378 11 378-20V-161C378-199 379-217 381-240 363-237 351-237 308-237H177C148-237 123-238 97-241 101-215 102-192 102-157V-22C102 18 100 46 96 75H160ZM160-185H321V-31H160V-185ZM739-739V-528C739-483 757-473 838-473 895-473 920-478 935-491 954-508 964-545 970-626 948-633 939-637 915-653 913-594 908-558 899-541 894-530 882-527 841-527 808-527 799-531 799-548V-704C799-744 800-770 803-798 780-795 754-794 718-794H596C570-794 545-795 518-798 522-772 523-762 523-738 523-672 516-627 500-586 480-533 454-502 402-467 420-457 435-444 453-425 494-457 514-480 535-518 568-578 580-631 583-739H739Z"/>
</g>
<g id="font_16_52">
<path transform="matrix(.001,0,0,-.001,0,0)" d="M678-512H590C540-512 506-514 475-518V-446C509-450 546-452 590-452H678V-70C678 1 676 33 671 73H751C745 35 743-6 743-70V-452H838C888-452 921-450 958-446V-518C925-514 892-512 838-512H743V-714C743-757 745-794 750-825H671C676-789 678-761 678-714V-512ZM108-728C130-731 155-732 189-732H352C386-732 405-731 431-728V-791C407-787 387-786 352-786H189C153-786 132-787 108-791V-728ZM61-589C89-593 114-594 147-594H389C425-594 452-593 476-589V-655C453-651 428-649 389-649H148C112-649 88-651 61-655V-589ZM109-453C132-456 148-457 181-457H359C391-457 404-456 430-453V-514C408-511 393-510 359-510H181C146-510 130-511 109-514V-453ZM109-315C132-318 147-319 181-319H359C393-319 406-318 430-315V-376C408-373 393-372 359-372H181C145-372 129-373 109-376V-315ZM180 22H370V61H437C433 36 431 10 431-24V-156C431-194 432-213 435-236 415-234 396-233 367-233H184C152-233 136-234 114-237 118-211 119-188 119-155V-22C119 16 117 45 113 74H180V22ZM179-179H371V-31H179V-179Z"/>
</g>
<path id="font_17_24" d="M.3560028 0V.7089844H.29100038C.28633119 .6823527 .27766419 .66038009 .2649994 .6430664 .2523346 .62576296 .23683167 .6121165 .2184906 .6021271 .20015972 .5921478 .17966207 .58532717 .15699768 .58166506 .1343333 .5780029 .1110026 .5761719 .087005618 .5761719V.5078125H.2709961V0H.3560028Z"/>
<path id="font_17_27" d="M.33900453 .24121094H.100997928L.33700563 .5879822H.33900453V.24121094M.41900636 .24121094V.7089844H.35099793L.027999878 .24801636V.16601563H.33900453V0H.41900636V.16601563H.5149994V.24121094H.41900636Z"/>
</defs>
<path transform="matrix(.75,0,0,.75,0,0)" d="M0 0H1280V720H0Z" fill="#ffffff"/>
<g clip-path="url(#clip_1)">
<path transform="matrix(.75,0,0,.75,0,-7020)" d="M0 9360H1280V10080H0Z" fill="#ffffff"/>
</g>
<g clip-path="url(#clip_2)">
<path transform="matrix(.75,0,0,.75,0,0)" d="M0 0H1280V720H0Z" fill="#eff6ff"/>
</g>
<g clip-path="url(#clip_3)">
<use data-text="D" xlink:href="#font_4_43" transform="matrix(39.6,0,0,-39.6,353.1211,261.75)" fill="#1e40af"/>
<use data-text="P" xlink:href="#font_4_55" transform="matrix(39.6,0,0,-39.6,382.4647,261.75)" fill="#1e40af"/>
<use data-text="&#x8a2d;" xlink:href="#font_5_141" transform="matrix(39.6,0,0,-39.6,408.8779,261.75)" fill="#1e40af"/>
<use data-text="&#x8a08;" xlink:href="#font_6_52" transform="matrix(39.6,0,0,-39.6,448.4779,261.75)" fill="#1e40af"/>
<use data-text="&#x306e;" xlink:href="#font_7_122" transform="matrix(39.6,0,0,-39.6,488.07789,261.75)" fill="#1e40af"/>
<use data-text="&#x6838;" xlink:href="#font_8_174" transform="matrix(39.6,0,0,-39.6,527.67788,261.75)" fill="#1e40af"/>
<use data-text="&#x2f3c;" xlink:href="#font_5_4" transform="matrix(39.6,0,0,-39.6,567.27786,261.75)" fill="#1e40af"/>
<use data-text="&#x72b6;" xlink:href="#font_9_230" transform="matrix(18,0,0,-18,381,306.75)" fill="#64748b"/>
<use data-text="&#x614b;" xlink:href="#font_10_65" transform="matrix(18,0,0,-18,399,306.75)" fill="#64748b"/>
<use data-text="&#x306e;" xlink:href="#font_11_122" transform="matrix(18,0,0,-18,417,306.75)" fill="#64748b"/>
<use data-text="&#x5b9a;" xlink:href="#font_12_18" transform="matrix(18,0,0,-18,435,306.75)" fill="#64748b"/>
<use data-text="&#x7fa9;" xlink:href="#font_13_97" transform="matrix(18,0,0,-18,453,306.75)" fill="#64748b"/>
<use data-text="&#x3068;" xlink:href="#font_11_116" transform="matrix(18,0,0,-18,471,306.75)" fill="#64748b"/>
<use data-text="&#x9077;" xlink:href="#font_14_183" transform="matrix(18,0,0,-18,489,306.75)" fill="#64748b"/>
<use data-text="&#x79fb;" xlink:href="#font_15_164" transform="matrix(18,0,0,-18,507,306.75)" fill="#64748b"/>
<use data-text="&#x306e;" xlink:href="#font_11_122" transform="matrix(18,0,0,-18,525,306.75)" fill="#64748b"/>
<use data-text="&#x8a2d;" xlink:href="#font_14_141" transform="matrix(18,0,0,-18,543,306.75)" fill="#64748b"/>
<use data-text="&#x8a08;" xlink:href="#font_16_52" transform="matrix(18,0,0,-18,561,306.75)" fill="#64748b"/>
<use data-text="1" xlink:href="#font_17_24" transform="matrix(18,0,0,-18,917.47268,515.25)" fill="#777777"/>
<use data-text="4" xlink:href="#font_17_27" transform="matrix(18,0,0,-18,927.48068,515.25)" fill="#777777"/>
</g>
</svg>
