<svg xmlns="http://www.w3.org/2000/svg" xmlns:xlink="http://www.w3.org/1999/xlink" xmlns:inkscape="http://www.inkscape.org/namespaces/inkscape" version="1.1" width="960" height="540" viewBox="0 0 960 540">
<defs>
<clipPath id="clip_1">
<path transform="matrix(.24,0,0,.24,0,0)" d="M0 0H4000V2250H0Z" clip-rule="evenodd"/>
</clipPath>
<clipPath id="clip_2">
<path transform="matrix(.24,0,0,.24,0,0)" d="M0 0H4000V2250H0Z" clip-rule="evenodd"/>
</clipPath>
<clipPath id="clip_3">
<path transform="matrix(.24,0,0,.24,0,0)" d="M0 0H4000V2250H0Z" clip-rule="evenodd"/>
</clipPath>
<g id="font_4_41">
<path transform="matrix(.001,0,0,-.001,0,0)" d="M586-469V-246C586-200 585-174 580-143H696C691-177 690-202 690-243V-503L812-543C812-463 809-397 804-358 798-311 794-304 772-304 756-304 730-308 704-313 721-273 727-250 732-211 757-209 768-208 787-208 864-208 889-230 899-305 907-370 914-508 916-628 916-653 916-661 917-682 898-673 875-664 836-652L690-605V-738C690-779 692-804 696-835H580C584-801 586-775 586-735V-572L483-539V-628C483-675 484-701 489-730H371C376-698 377-671 377-624V-506C343-496 314-489 290-486L299-372C318-381 328-385 357-395 361-396 368-398 377-401V-46C377 34 424 54 611 54 793 54 860 45 898 18 929-6 942-45 954-159 907-168 889-173 845-191 842-143 841-131 838-112 834-90 825-73 814-66 792-51 749-47 636-47 565-47 535-49 510-55 488-60 483-66 483-86V-436L586-469ZM148-38C148 16 146 48 142 84H259C256 46 254 10 254-37V-594C287-658 301-692 324-759 334-787 336-793 344-816L231-850C226-814 212-765 192-715 148-606 89-512 15-439 41-390 53-363 67-321 102-361 127-395 151-436 148-350 148-350 148-326V-38Z"/>
</g>
<g id="font_5_122">
<path transform="matrix(.001,0,0,-.001,0,0)" d="M578-641C622-637 648-629 679-611 759-563 802-485 802-389 802-282 750-187 663-139 616-112 556-96 464-84 496-42 508-20 525 33 595 21 634 11 682-9 835-71 925-209 925-382 925-607 769-753 529-753 387-753 269-705 185-613 114-535 75-432 75-322 75-161 157-45 271-45 353-45 417-104 474-233 524-346 559-484 578-641ZM456-640C444-527 411-392 373-302 337-216 303-174 270-174 226-174 191-239 191-321 191-428 243-531 327-591 368-620 404-634 456-640Z"/>
</g>
<g id="font_6_31">
<path transform="matrix(.001,0,0,-.001,0,0)" d="M454-558H230C173-558 139-560 106-564V-452C140-456 187-458 231-458H454V-337H175C118-337 85-339 52-343V-230C87-234 120-236 175-236H454V-71C454-47 445-40 416-40 375-40 321-44 249-54 268-12 274 11 279 55 336 60 385 62 415 62 461 62 504 56 527 46 552 35 566 4 566-40V-236H822C876-236 909-234 944-230V-343C911-339 878-337 822-337H566V-458H775C826-458 864-456 898-452V-564C865-560 830-558 773-558H566V-688C647-697 783-722 869-744L787-844C733-821 697-812 602-796 482-776 297-762 154-762 139-762 127-762 105-762 131-700 131-700 142-659 273-662 323-665 454-677V-558Z"/>
</g>
<g id="font_7_93">
<path transform="matrix(.001,0,0,-.001,0,0)" d="M297 51C329 45 350 42 459 31 638 12 674 7 821-21 837 10 844 25 867 71L965 12C871-150 847-187 763-296L674-250C722-187 741-160 772-108 707-95 641-87 506-75L515-94C555-173 583-235 603-288 617-325 617-325 623-343H858C897-343 933-341 962-337V-449C931-445 899-443 857-443H665V-593H826C872-593 899-592 927-588V-698C897-694 868-692 825-692H665V-736C665-788 666-811 671-841H550C555-815 556-790 556-736V-692H437C391-692 357-694 331-698V-588C363-591 397-593 436-593H556V-443H400C353-443 320-445 291-449V-337C323-341 358-343 399-343H507C475-247 434-156 383-67 349-65 325-64 309-64 299-64 291-64 275-65L297 51ZM80-758C148-714 197-674 252-620L320-707C257-763 218-792 148-835L80-758ZM37-511C106-469 150-437 215-378L278-469C205-526 168-552 99-591L37-511ZM188-312C137-174 76-50 41-12L137 72C142 63 142 63 149 47 162 16 162 16 180-21 220-104 242-157 277-249L188-312Z"/>
</g>
<g id="font_5_116">
<path transform="matrix(.001,0,0,-.001,0,0)" d="M298-801C303-786 304-784 314-736 339-613 356-546 381-465 316-432 284-412 245-379 188-331 156-267 156-200 156-128 188-66 243-33 307 5 394 22 533 22 603 22 659 18 767 7 821 1 826 0 848 0L837-137C762-111 639-96 514-96 353-96 285-127 285-200 285-272 358-336 504-390 616-431 747-469 834-486L791-612C776-605 771-603 753-597 559-533 559-533 494-509 462-611 432-755 428-822L298-801Z"/>
</g>
<g id="font_8_171">
<path transform="matrix(.001,0,0,-.001,0,0)" d="M469-156C456-61 393-22 225-1 251 30 264 51 282 94 400 67 458 40 505-9 542-49 560-89 569-156H639V-4C639 34 646 49 672 60 696 71 730 75 792 75 940 75 960 57 970-95 930-104 904-113 871-130 871-71 869-43 863-32 857-22 843-19 801-19 746-19 741-21 741-42V-156H819C860-156 878-155 903-153 900-175 899-199 899-232V-406C899-441 900-462 903-485 877-483 855-482 809-482H460C413-482 391-483 365-485 368-465 369-441 369-406V-226C369-188 368-173 366-153 406-155 421-156 452-156H469ZM471-401H794V-361H471V-401ZM471-285H794V-241H471V-285ZM141-584H120C90-584 66-585 40-589V-482C65-485 90-487 119-487H141V-200C81-178 54-170 28-166L50-50C64-57 79-63 96-70 206-115 269-141 337-174L333-281C284-258 270-252 245-241V-487C276-487 293-486 314-483V-587C292-585 279-584 245-584V-717C245-770 246-798 251-829H135C139-799 141-767 141-718V-584ZM685-760V-783C685-808 686-821 690-842H573C576-823 578-806 578-782V-760H458C414-760 382-761 351-765V-672C378-675 391-676 438-676 451-649 456-634 465-607H424C383-607 367-608 335-611V-514C365-517 377-517 427-517H851C899-517 922-516 956-512V-612C927-608 907-607 855-607H797C810-632 815-642 829-676 880-676 897-675 931-672V-765C902-762 867-760 823-760H685ZM570-607C562-630 553-653 543-676H721C711-648 704-634 691-607H570Z"/>
</g>
<g id="font_9_137">
<path transform="matrix(.001,0,0,-.001,0,0)" d="M311-397C250-329 155-277 27-242 53-206 62-190 83-140 185-178 248-212 313-263 313-257 314-252 314-250 314-173 294-119 253-84 211-47 165-27 70-1 108 42 116 54 137 91 340 26 415-62 422-248 423-271 424-283 426-294H351C396-334 415-356 444-397H548C585-350 600-334 647-294H589C592-272 594-252 594-215V-29C594 19 592 51 588 82H709C704 49 703 16 703-28V-250C760-209 833-173 921-140 939-189 950-211 974-248 847-281 749-331 681-397H769C813-397 844-396 876-393 872-421 871-448 871-497V-706C871-757 872-784 876-813 843-809 816-808 768-808H232C184-808 156-809 125-813 128-781 130-756 130-706V-497C130-450 128-424 125-393 155-396 187-397 230-397H311ZM237-717H444V-641H237V-717ZM237-556H444V-481H237V-556ZM547-717H763V-641H547V-717ZM547-556H763V-481H547V-556Z"/>
</g>
<g id="font_10_172">
<path transform="matrix(.001,0,0,-.001,0,0)" d="M57-318C79-322 79-322 155-327 176-328 189-328 195-329V-22C195 23 193 50 189 84H297C292 53 291 31 291-21V-337C323-340 323-340 365-345 368-329 368-329 371-316L449-351C429-428 419-458 386-537L312-508C326-474 328-469 341-428 313-425 290-423 231-419 283-486 321-541 381-635 396-659 403-670 415-689L326-737C313-701 278-639 232-568 212-594 212-594 195-615 229-666 261-722 286-773 297-796 302-806 308-815L211-851C202-810 174-749 133-684L96-723 44-637C100-586 125-558 179-490 157-458 149-447 124-415 100-415 99-415 93-415 72-415 64-416 46-418L57-318ZM820-396C854-396 887-395 915-392 912-418 911-443 911-488V-668C911-716 912-738 915-768 890-765 868-764 818-764H707C718-788 725-804 737-836L625-852C619-824 613-804 598-764H541C493-764 470-765 444-768 447-741 448-707 448-670V-489C448-451 447-418 444-392 472-395 508-396 543-396H627V-48C627-29 621-24 596-24 572-24 549-27 514-33 529-1 535 23 541 68 557 70 558 70 575 70H601C603 71 606 71 607 71 695 71 728 46 727-18L726-105C726-136 723-179 717-240 751-154 774-113 817-58 849-15 874 10 922 49 944 2 959-21 986-50 922-92 881-131 831-197 874-232 911-266 961-320L890-384C854-338 825-307 783-272 757-319 745-349 734-396H820ZM549-682H809V-619H549V-682ZM549-541H809V-478H549V-541ZM84-281C76-131 69-83 45-9L129 34C152-45 159-96 170-271L84-281ZM312-270C327-196 332-153 337-68L416-90C408-166 403-200 383-289L312-270ZM513-236C479-151 429-88 349-31 382-2 402 20 417 49 476-5 498-31 532-80 569-135 589-179 614-257 618-271 619-274 623-284L587-331C575-329 563-328 540-328H472C439-328 429-329 411-332V-232C430-235 442-236 469-236H513Z"/>
</g>
<g id="font_11_128">
<path transform="matrix(.001,0,0,-.001,0,0)" d="M315-627C343-631 363-632 399-632H600C635-632 657-631 683-627V-675C766-632 844-602 937-579 948-606 956-619 972-638 884-652 813-674 724-716 639-756 583-793 530-843H461C417-799 363-763 283-723 197-681 123-656 30-637 49-617 57-604 68-581 167-610 231-636 315-678V-627ZM399-679C364-679 345-680 324-683 400-723 438-749 497-799 559-748 601-719 670-682 647-680 633-679 600-679H399ZM712-445C747-471 765-486 810-529 824-542 824-542 831-548L793-584C773-581 753-580 716-580H241C206-580 179-581 152-585V-525C181-528 211-530 249-530H736C700-496 672-474 628-445H281C229-445 206-446 177-448 179-416 180-386 180-341V-165C180-111 179-85 176-63 205-66 236-67 288-67H711C763-67 793-66 823-63 820-84 819-110 819-167V-339C819-390 820-420 822-449 797-446 771-445 725-445H712ZM240-396H759V-334H240V-396ZM240-287H759V-226H240V-287ZM240-179H759V-116H240V-179ZM343-52C264-11 172 14 55 27 71 43 80 57 91 81 224 57 301 32 396-17L343-52ZM584-17C684 34 767 61 900 84 910 62 923 43 937 28 807 14 727-7 635-52L584-17Z"/>
</g>
<g id="font_12_88">
<path transform="matrix(.001,0,0,-.001,0,0)" d="M649-680C660-709 666-730 678-778 684-799 684-799 693-827L624-841C621-807 612-764 597-714 569-623 528-544 475-476 496-465 507-457 526-438 567-496 598-551 628-623H888C853-522 832-480 789-425 810-413 824-404 841-387 889-460 920-524 944-599 954-629 956-637 961-648L930-685C911-681 889-680 837-680H649ZM258-613C229-537 186-464 133-401 102-364 69-333 25-301 39-287 54-264 64-243 96-273 117-293 137-316 138-300 138-291 138-273V-56C138-16 136 17 132 48H199V-12H378C406-12 423-11 449-8 447-34 446-59 446-95V-267C446-297 446-314 448-345 468-326 476-319 500-298 515-323 521-330 542-351 435-430 367-511 324-613H258ZM203-352C190-352 182-352 169-353 234-433 258-472 294-555 335-471 372-419 438-354 414-352 404-352 382-352H203ZM199-296H386V-67H199V-296ZM200-809C154-713 123-673 37-602 63-577 66-574 81-552 168-632 204-679 255-780L200-809ZM339-781C386-695 415-656 483-587 496-607 508-623 524-638 461-694 432-732 392-808L339-781ZM656-549C659-532 660-519 660-498 660-370 635-253 588-161 552-91 495-29 424 15 443 30 454 44 469 68 537 19 588-39 629-111 667-180 687-243 696-328 707-277 714-253 726-221 745-171 775-115 808-72 844-23 889 22 946 67 960 41 972 25 989 7 934-30 889-71 854-117 769-226 723-362 723-504 723-523 724-534 727-549H656Z"/>
</g>
<g id="font_13_93">
<path transform="matrix(.001,0,0,-.001,0,0)" d="M569-605V-422H385C343-422 313-424 286-428V-358C314-362 347-364 384-364H532C494-254 453-163 387-46 347-42 322-41 303-41 292-41 284-41 269-43L285 29C307 25 321 23 362 19 581-5 581-5 654-16 755-31 755-31 834-45 853-11 861 5 887 57L948 21C874-110 822-186 735-293L681-264C739-192 762-162 804-95 706-77 636-69 461-52 522-167 543-213 601-364H860C896-364 924-362 951-358V-428C924-424 898-422 859-422H633V-605H824C861-605 886-603 913-599V-669C886-665 860-663 823-663H633V-732C633-776 634-802 639-831H563C567-808 569-780 569-732V-663H429C387-663 356-665 331-669V-599C358-603 392-605 428-605H569ZM101-774C168-729 212-691 262-635L303-687C247-743 208-775 142-818L101-774ZM44-535C112-494 154-461 214-402L253-457C181-517 147-542 82-582L44-535ZM208-294C174-203 153-159 112-86 87-43 71-20 51 1L109 53C120 32 123 25 129 15 188-87 218-149 260-255L208-294Z"/>
</g>
<g id="font_14_128">
<path transform="matrix(.001,0,0,-.001,0,0)" d="M500-462C455-462 418-425 418-380 418-335 455-298 500-298 545-298 582-335 582-380 582-425 545-462 500-462Z"/>
</g>
<g id="font_13_10">
<path transform="matrix(.001,0,0,-.001,0,0)" d="M392-412C385-324 371-269 338-206 290-115 214-49 86 13 107 33 117 46 130 69 252 6 330-62 382-149 428-227 451-302 460-412H693C693-239 681-103 660-42 653-23 642-17 610-17 574-17 524-23 469-34 479-5 482 10 485 37 548 43 583 45 616 45 674 45 698 35 715 5 741-42 760-211 760-405 761-450 761-458 764-476 735-472 705-471 659-471H330C289-471 255-473 226-477V-406C257-410 291-412 329-412H392ZM351-827C346-797 333-766 308-722 241-602 155-510 34-429 57-410 70-395 83-375 224-479 321-595 398-750 413-781 417-789 426-801L351-827ZM573-799C578-791 584-780 589-771 683-587 768-486 926-369 941-395 954-412 973-430 836-520 751-610 678-741 657-779 648-799 640-825L573-799Z"/>
</g>
<g id="font_15_199">
<path transform="matrix(.001,0,0,-.001,0,0)" d="M310-551V-480H205C166-480 145-481 120-485V-425C145-429 165-430 205-430H310V-349H149C107-349 87-350 62-354V-291C87-295 111-296 149-296H519C558-296 579-295 604-291V-354C579-350 559-349 519-349H367V-430H466C505-430 523-429 548-425V-485C523-481 504-480 466-480H367V-551H442C481-551 501-550 527-546V-607C502-603 483-602 442-602H367C367-636 368-647 372-665H305C309-647 310-633 310-602H233C192-602 172-603 147-607V-546C173-550 194-551 233-551H310ZM309-747H163C113-747 91-748 64-751 67-732 68-713 68-684V-643C68-614 67-597 64-576H127V-695H547V-586H607C605-605 604-624 604-650V-687C604-712 605-732 607-751 576-748 547-747 497-747H371V-755C371-791 373-813 377-834H303C307-812 309-791 309-755V-747ZM218-227C179-227 154-228 129-231 132-202 133-175 133-138V-18C133 22 131 48 127 76H195V27H475V63H541C537 40 536 17 536-32V-139C536-182 537-202 540-231 514-228 493-227 458-227H218ZM195-174H475V-26H195V-174ZM663-772C667-747 668-725 668-662V-269C668-206 667-187 663-157H735C731-183 730-204 730-269V-663C730-718 732-747 736-772H663ZM842-824C847-793 849-762 849-702V-31C849-6 841 0 805 0 771 0 731-3 685-10 695 14 699 28 704 53 739 56 771 58 796 58 893 58 913 43 913-31V-703C913-760 915-796 920-824H842Z"/>
</g>
<g id="font_16_131">
<path transform="matrix(.001,0,0,-.001,0,0)" d="M61-335C74-338 120-343 211-351V-25C211 13 209 46 205 74H276C272 44 270 14 270-25V-357C323-364 337-366 361-370 368-349 371-340 379-310L428-333C401-414 383-453 345-518L302-496C322-462 329-449 343-416 271-406 270-406 188-401 237-465 301-563 358-660 368-678 372-684 381-695L322-728C307-684 279-633 220-540 200-567 190-579 164-609 195-654 221-697 246-744 268-786 275-799 284-812L223-842C209-791 176-724 128-649 109-670 107-671 85-694L52-648C111-590 149-545 188-490 164-453 164-453 124-397 110-397 92-396 82-396 68-396 62-396 51-398L61-335ZM855-645C888-645 916-643 945-640V-706C919-702 892-700 852-700H681V-745C681-779 682-801 687-830H615C619-803 621-778 621-745V-700H493C453-700 425-702 400-706V-640C423-644 449-645 490-645H577C545-574 526-539 481-470 464-469 458-469 451-469 434-469 424-470 406-471L418-406C441-410 458-411 483-413 665-425 719-429 848-446 867-421 877-408 902-370L951-410C889-493 838-551 766-618L721-585C762-546 778-530 808-495 728-485 645-478 548-473 582-525 609-576 640-645H855ZM105-292C96-163 85-104 50-14L103 13C138-84 152-153 160-281L105-292ZM314-282C337-216 347-166 359-77L412-98C398-180 386-231 364-300L314-282ZM692-374C696-351 697-323 697-276V-15C697 39 716 51 806 51 873 51 903 43 919 21 938-3 948-63 953-169 927-176 913-182 892-196 892-110 886-52 877-28 871-12 852-6 803-6 765-6 759-10 759-35V-276C759-322 760-351 764-374H692ZM523-372C527-349 528-336 528-308 528-225 514-160 485-105 459-56 419-20 347 20 370 35 377 43 398 69 469 22 503-11 535-66 570-128 587-199 589-294 590-346 591-355 594-372H523Z"/>
</g>
<g id="font_17_215">
<path transform="matrix(.001,0,0,-.001,0,0)" d="M295-439C325-445 325-445 405-449 552-456 723-471 845-485 864-453 875-433 903-378L964-413C887-545 842-610 753-716L697-688C753-624 775-595 813-536 706-523 576-513 453-509 508-607 534-660 577-764 586-786 590-795 598-810L525-834C509-756 450-621 382-507 354-507 348-507 341-507 315-507 304-508 284-510L295-439ZM107-771C179-724 225-685 280-626L321-677C257-740 221-769 149-817L107-771ZM48-520C118-478 163-444 223-386L263-441C193-498 153-526 87-566L48-520ZM221-300C187-201 166-152 126-80 103-41 89-20 67 4L126 56C131 45 135 37 145 20 198-71 231-141 274-261L221-300ZM435 13H797V72H867C863 50 861 19 861-37V-243C861-301 862-324 866-347 844-344 816-343 768-343H459C421-343 393-344 367-347 370-325 371-295 371-254V-22C371 22 370 49 367 71H435V13ZM434-285H797V-45H434V-285Z"/>
</g>
<g id="font_18_116">
<path transform="matrix(.001,0,0,-.001,0,0)" d="M310-785C316-769 318-764 327-722 353-594 372-524 400-442 338-411 307-392 269-361 210-313 180-255 180-191 180-112 222-57 304-27 352-9 427 0 526 0 596 0 644-3 747-13 802-19 802-19 821-19L813-102C754-81 642-68 527-68 331-68 254-103 254-194 254-277 328-343 499-411 587-447 730-493 800-508L770-584C750-574 741-571 706-558 551-504 523-493 464-469 430-569 393-733 389-800L310-785Z"/>
</g>
<g id="font_18_122">
<path transform="matrix(.001,0,0,-.001,0,0)" d="M554-663C604-661 633-654 670-638 771-593 829-501 829-387 829-264 762-157 652-107 605-85 558-72 485-60 504-36 510-26 520 7 589-8 627-20 672-39 817-101 901-229 901-384 901-480 867-567 804-628 739-692 641-727 529-727 395-727 286-682 206-594 139-519 101-420 101-318 101-178 172-74 267-74 339-74 398-134 456-266 501-371 539-524 554-663ZM482-662C469-534 432-386 391-292 348-194 308-147 266-147 212-147 170-221 170-317 170-441 232-554 333-615 379-643 422-657 482-662Z"/>
</g>
<g id="font_17_158">
<path transform="matrix(.001,0,0,-.001,0,0)" d="M559-299C548-236 538-205 518-168 479-204 451-238 438-267L382-234C389-227 390-225 398-216 450-153 450-153 485-121 431-64 359-23 243 15 259 31 269 46 282 70 402 25 468-18 528-87 636-11 762 37 925 63 932 40 943 17 956-3 791-20 668-61 563-133 591-177 606-224 619-299H792C837-299 863-298 891-295 888-314 888-332 888-375V-495C888-523 889-548 891-570 864-568 841-567 798-567H636C636-582 636-595 636-602 637-621 637-634 637-638 637-657 637-657 637-667H854C896-667 920-666 948-662V-729C919-725 888-723 848-723H637C637-786 638-811 642-838H570C575-804 576-784 576-723H391C353-723 322-725 295-729V-662C321-666 345-667 387-667H577V-627L576-567H412C363-567 349-568 322-570 325-547 326-536 326-500V-363C326-337 325-318 322-295 350-298 373-299 410-299H559ZM575-511C573-442 570-394 566-355H387V-511H575ZM826-511V-355H626C630-401 632-443 634-511H826ZM150-44C150 7 148 38 144 76H217C213 40 212 5 212-41V-589C244-660 256-692 280-764 288-790 291-799 298-819L229-837C222-788 214-756 191-695 149-580 92-481 23-403 41-385 50-372 63-348 108-408 129-441 153-492 150-429 150-422 150-371V-44Z"/>
</g>
<g id="font_18_80">
<path transform="matrix(.001,0,0,-.001,0,0)" d="M136-709C138-691 138-688 139-650 144-404 158-276 193-181 227-85 279-29 335-29 406-29 452-96 501-271 473-293 464-302 442-328 429-260 413-207 390-157 375-124 358-107 340-107 302-107 261-176 239-278 224-342 213-479 213-589 213-644 215-677 220-708L136-709ZM642-624C759-488 832-317 850-131L921-160C903-272 884-343 846-427 809-512 768-578 703-655L642-624Z"/>
</g>
<g id="font_18_93">
<path transform="matrix(.001,0,0,-.001,0,0)" d="M374-499C381-500 386-500 389-500 393-500 398-500 407-499 443-497 500-495 528-495 572-495 630-497 674-501 676-472 676-450 676-422 676-262 660-189 609-124 573-78 526-43 456-9 482 11 490 19 510 45 587 0 630-35 667-84 726-164 744-246 744-436 744-465 744-481 743-508 783-513 814-519 852-528 882-536 884-536 905-540L900-612C863-594 817-581 741-570 736-709 736-709 735-732 734-750 734-755 734-762 734-774 735-780 737-796L660-795C665-765 667-736 672-562 622-558 585-556 545-556 471-556 413-560 375-569L374-499ZM194-783C193-765 192-755 185-714 154-529 145-447 145-329 145-224 157-127 182-33 187-14 188-11 190 2L259-4C259-38 267-72 287-131 307-185 332-247 361-306L310-330C253-207 246-189 226-118 226-129 224-150 220-172 216-206 212-280 212-335 212-471 241-676 273-771L194-783Z"/>
</g>
<path id="font_19_24" d="M.3560028 0V.7089844H.29100038C.28633119 .6823527 .27766419 .66038009 .2649994 .6430664 .2523346 .62576296 .23683167 .6121165 .2184906 .6021271 .20015972 .5921478 .17966207 .58532717 .15699768 .58166506 .1343333 .5780029 .1110026 .5761719 .087005618 .5761719V.5078125H.2709961V0H.3560028Z"/>
</defs>
<path transform="matrix(.75,0,0,.75,0,0)" d="M0 0H1280V720H0Z" fill="#ffffff"/>
<g clip-path="url(#clip_1)">
<path transform="matrix(.75,0,0,.75,0,-5400)" d="M0 7200H1280V7920H0Z" fill="#ffffff"/>
</g>
<g clip-path="url(#clip_2)">
<path transform="matrix(.75,0,0,.75,0,0)" d="M0 0H1280V720H0Z" fill="#eff6ff"/>
</g>
<g clip-path="url(#clip_3)">
<use data-text="&#x4ed6;" xlink:href="#font_4_41" transform="matrix(39.6,0,0,-39.6,301.79298,261.75)" fill="#1e40af"/>
<use data-text="&#x306e;" xlink:href="#font_5_122" transform="matrix(39.6,0,0,-39.6,341.39295,261.75)" fill="#1e40af"/>
<use data-text="&#x2f3f;" xlink:href="#font_6_31" transform="matrix(39.6,0,0,-39.6,380.99296,261.75)" fill="#1e40af"/>
<use data-text="&#x6cd5;" xlink:href="#font_7_93" transform="matrix(39.6,0,0,-39.6,420.59297,261.75)" fill="#1e40af"/>
<use data-text="&#x3068;" xlink:href="#font_5_116" transform="matrix(39.6,0,0,-39.6,460.19294,261.75)" fill="#1e40af"/>
<use data-text="&#x306e;" xlink:href="#font_5_122" transform="matrix(39.6,0,0,-39.6,499.7929,261.75)" fill="#1e40af"/>
<use data-text="&#x5883;" xlink:href="#font_8_171" transform="matrix(39.6,0,0,-39.6,539.39297,261.75)" fill="#1e40af"/>
<use data-text="&#x754c;" xlink:href="#font_9_137" transform="matrix(39.6,0,0,-39.6,578.9929,261.75)" fill="#1e40af"/>
<use data-text="&#x7dda;" xlink:href="#font_10_172" transform="matrix(39.6,0,0,-39.6,618.5929,261.75)" fill="#1e40af"/>
<use data-text="&#x8caa;" xlink:href="#font_11_128" transform="matrix(18,0,0,-18,354,306.75)" fill="#64748b"/>
<use data-text="&#x6b32;" xlink:href="#font_12_88" transform="matrix(18,0,0,-18,372,306.75)" fill="#64748b"/>
<use data-text="&#x6cd5;" xlink:href="#font_13_93" transform="matrix(18,0,0,-18,390,306.75)" fill="#64748b"/>
<use data-text="&#x30fb;" xlink:href="#font_14_128" transform="matrix(18,0,0,-18,408,306.75)" fill="#64748b"/>
<use data-text="&#x5206;" xlink:href="#font_13_10" transform="matrix(18,0,0,-18,426,306.75)" fill="#64748b"/>
<use data-text="&#x5272;" xlink:href="#font_15_199" transform="matrix(18,0,0,-18,444,306.75)" fill="#64748b"/>
<use data-text="&#x7d71;" xlink:href="#font_16_131" transform="matrix(18,0,0,-18,462,306.75)" fill="#64748b"/>
<use data-text="&#x6cbb;" xlink:href="#font_17_215" transform="matrix(18,0,0,-18,480,306.75)" fill="#64748b"/>
<use data-text="&#x3068;" xlink:href="#font_18_116" transform="matrix(18,0,0,-18,498,306.75)" fill="#64748b"/>
<use data-text="&#x306e;" xlink:href="#font_18_122" transform="matrix(18,0,0,-18,516,306.75)" fill="#64748b"/>
<use data-text="&#x4f7f;" xlink:href="#font_17_158" transform="matrix(18,0,0,-18,534,306.75)" fill="#64748b"/>
<use data-text="&#x3044;" xlink:href="#font_18_80" transform="matrix(18,0,0,-18,552,306.75)" fill="#64748b"/>
<use data-text="&#x5206;" xlink:href="#font_13_10" transform="matrix(18,0,0,-18,570,306.75)" fill="#64748b"/>
<use data-text="&#x3051;" xlink:href="#font_18_93" transform="matrix(18,0,0,-18,588,306.75)" fill="#64748b"/>
<use data-text="1" xlink:href="#font_19_24" transform="matrix(18,0,0,-18,917.47268,515.25)" fill="#777777"/>
<use data-text="1" xlink:href="#font_19_24" transform="matrix(18,0,0,-18,927.48068,515.25)" fill="#777777"/>
</g>
</svg>
