<svg xmlns="http://www.w3.org/2000/svg" xmlns:xlink="http://www.w3.org/1999/xlink" xmlns:inkscape="http://www.inkscape.org/namespaces/inkscape" version="1.1" width="960" height="540" viewBox="0 0 960 540">
<defs>
<clipPath id="clip_1">
<path transform="matrix(.24,0,0,.24,0,0)" d="M0 0H4000V2250H0Z" clip-rule="evenodd"/>
</clipPath>
<clipPath id="clip_2">
<path transform="matrix(.24,0,0,.24,0,0)" d="M0 0H4000V2250H0Z" clip-rule="evenodd"/>
</clipPath>
<clipPath id="clip_3">
<path transform="matrix(.24,0,0,.24,0,0)" d="M0 0H4000V2250H0Z" clip-rule="evenodd"/>
</clipPath>
<g id="font_4_186">
<path transform="matrix(.001,0,0,-.001,0,0)" d="M849-637C826-627 825-626 772-620L408-576V-702C408-745 409-766 414-795H276C281-761 282-750 282-700V-563L176-550C149-546 106-543 88-543 83-543 75-543 64-544L77-420C110-429 110-429 188-439L282-451V-222C282-142 283-127 292-96 303-53 337-16 378-4 416 7 475 13 556 13 622 13 696 8 804-4 830-7 838-7 865-8L859-143C776-118 667-104 552-104 450-104 418-115 411-154 408-171 408-171 407-240V-465C511-480 614-493 715-505 730-507 737-508 753-511 735-481 729-472 715-452 671-394 619-349 550-311 596-284 611-273 650-230 766-316 837-400 895-522 909-551 911-554 923-571L849-637Z"/>
</g>
<g id="font_4_175">
<path transform="matrix(.001,0,0,-.001,0,0)" d="M819-660 862-676C835-742 812-782 773-834L699-809C731-766 749-734 772-684 764-683 747-682 720-682L501-679C481-679 465-678 453-677L461-692C463-696 463-697 468-706 478-726 487-746 495-764 504-783 505-785 512-794L375-822C372-790 354-743 324-689 253-561 173-471 65-399 117-367 132-354 162-313 245-374 340-478 396-570L697-574C617-314 448-135 186-35 227 1 245 23 271 70 415 7 538-81 627-183 721-294 769-383 828-561 839-596 844-608 853-621L819-660ZM992-721C968-780 945-820 904-873L832-848C865-803 894-752 918-693L992-721Z"/>
</g>
<g id="font_5_244">
<path transform="matrix(.001,0,0,-.001,0,0)" d="M820-544C863-544 904-542 941-537V-655C908-650 871-648 820-648H551V-743C551-781 553-807 558-835H428C433-807 435-781 435-742V-648H180C132-648 98-650 60-655V-537C98-542 135-544 180-544H399C328-391 189-245 23-149 53-120 73-92 97-47 258-158 365-278 440-432 437-393 435-348 435-323V-45C435 4 433 42 428 80H558C553 44 551 4 551-44V-324C551-355 549-392 544-437 594-344 639-280 706-210 755-159 809-114 899-51 929-104 938-116 976-157 796-255 673-378 587-544H820Z"/>
</g>
<g id="font_6_128">
<path transform="matrix(.001,0,0,-.001,0,0)" d="M500-499C434-499 381-446 381-380 381-314 434-261 500-261 566-261 619-314 619-380 619-446 566-499 500-499Z"/>
</g>
<g id="font_7_35">
<path transform="matrix(.001,0,0,-.001,0,0)" d="M445 12C611 12 704-67 704-207 704-272 683-322 642-360 615-385 592-395 541-406 580-418 598-427 620-448 658-483 676-528 676-589 676-714 589-784 434-784H198C130-784 114-784 72-786 77-745 80-709 80-663V-120C80-56 78-27 71 15 112 13 141 12 199 12H445ZM212-458V-672H419C459-672 493-661 515-641 531-626 541-599 541-567 541-499 496-458 420-458H212ZM212-347H425C471-347 509-335 534-313 556-293 566-266 566-226 566-145 516-101 427-101H212V-347Z"/>
</g>
<g id="font_7_42">
<path transform="matrix(.001,0,0,-.001,0,0)" d="M71-784C77-744 79-717 79-655V-117C79-58 77-26 71 12H223C217-26 215-58 215-117V-655C215-715 217-746 223-784H71Z"/>
</g>
<g id="font_7_53">
<path transform="matrix(.001,0,0,-.001,0,0)" d="M422-664H547C619-664 657-662 694-657V-791C656-786 619-784 547-784H151C94-784 51-786 15-791V-657C50-662 93-664 152-664H287V-118C287-64 285-30 279 12H430C424-29 422-64 422-118V-664Z"/>
</g>
<g id="font_8_241">
<path transform="matrix(.001,0,0,-.001,0,0)" d="M451-727H184C139-727 111-728 80-731 83-709 84-691 84-660V-590C84-559 83-542 79-518H158V-658H846V-518H924C921-540 920-558 920-590V-660C920-693 921-711 924-731 892-728 866-727 820-727H529V-760C529-792 531-816 535-837H445C449-815 451-791 451-760V-727ZM336-317C333-284 331-270 328-250 317-176 280-118 215-72 172-42 136-25 49 2 68 24 84 49 96 75 158 50 193 34 221 18 290-23 338-71 371-136 398-189 407-227 414-317H548V-27C548 37 576 49 723 49 848 49 889 42 914 18 936-4 946-44 949-131 918-138 907-142 875-158 876-142 876-136 876-124 876-91 873-65 867-52 857-28 832-22 736-22 640-22 626-26 626-53V-317H826C870-317 901-315 928-311V-392C901-388 873-386 827-386H176C129-386 101-388 74-392V-311C102-315 132-317 176-317H336ZM213-485C238-489 263-490 303-490H694C735-490 759-489 784-485V-563C756-559 737-558 694-558H303C261-558 241-559 213-563V-485Z"/>
</g>
<g id="font_9_192">
<path transform="matrix(.001,0,0,-.001,0,0)" d="M453-414V-272H291C246-272 220-273 193-277V-197C219-201 246-202 291-202H453V-34H178C129-34 91-36 63-40V45C95 40 133 38 177 38H822C865 38 904 40 936 45V-40C905-36 869-34 822-34H530V-202H710C755-202 782-201 808-197V-277C782-273 756-272 710-272H530V-414H687C730-414 754-413 783-409V-489C755-485 733-484 690-484H302C262-484 240-485 214-489 264-521 308-554 354-594 415-648 451-689 495-754 553-675 598-629 677-566 754-506 838-453 927-410 942-443 955-465 976-489 891-521 810-566 729-626 648-686 593-742 539-821H447C404-751 351-691 280-633 210-576 118-521 31-486 57-459 69-441 81-414 130-437 155-451 209-485V-409C236-413 263-414 306-414H453Z"/>
</g>
<g id="font_10_118">
<path transform="matrix(.001,0,0,-.001,0,0)" d="M615-28H415C366-28 344-29 318-33V45C350 41 372 40 422 40H862C912 40 934 41 965 45V-33C939-29 914-28 865-28H686V-162H829C877-162 900-161 928-157V-234C900-230 878-229 829-229H686V-334H800C857-334 881-333 917-330 914-358 913-394 913-460V-665C913-724 914-765 917-794 890-790 861-789 789-789H522C455-789 423-790 391-794 395-762 396-730 396-665V-448C395-353 395-353 392-330 420-333 452-334 515-334H615V-229H488C438-229 415-230 391-234V-157C417-161 439-162 489-162H615V-28ZM615-723V-593H466V-723H615ZM686-723H842V-593H686V-723ZM615-528V-400H466V-528H615ZM686-528H842V-400H686V-528ZM173-712V-488H127C97-488 81-489 58-493V-418C81-422 99-423 126-423H173V-156C105-131 74-121 39-114L61-32C73-38 77-40 101-49 237-103 272-118 362-162L358-237C305-211 287-202 246-185V-423H281C306-423 326-422 347-419V-493C325-489 309-488 281-488H246V-712H290C321-712 340-711 366-708V-786C341-781 320-780 282-780H133C93-780 70-782 46-786V-707C75-711 86-712 125-712H173Z"/>
</g>
<g id="font_8_119">
<path transform="matrix(.001,0,0,-.001,0,0)" d="M348-590C362-613 381-648 393-670 412-707 417-716 427-731L393-770C380-768 370-767 338-767H246C260-803 269-824 272-830L196-847C190-821 184-802 171-770 138-688 96-625 35-565 55-545 57-543 81-502 94-518 95-520 106-533 107-507 107-489 107-475 107-306 105-245 98-175 89-86 75-38 44 18 73 35 76 38 107 69 143-11 156-63 166-184H395V-29C395-12 387-8 355-8 336-8 307-10 265-16 274 10 278 29 280 57 338 59 341 59 354 59 438 59 461 43 461-15V-508C461-549 462-571 464-595 437-591 411-590 371-590H348ZM206-590C174-590 162-590 149-591 178-633 197-664 216-704H336C315-660 297-625 275-590H206ZM170-246C172-288 172-288 172-360H254V-246H170ZM395-246H314V-360H395V-246ZM395-420H314V-527H395V-420ZM254-527V-420H173L174-463V-527H254ZM626-728C617-678 610-656 593-630 569-594 535-568 470-537 493-516 507-499 519-477 593-522 626-552 657-603 680-641 689-666 700-728H836C830-661 826-632 818-603 812-583 802-577 773-577 753-577 723-581 688-588 699-559 702-546 703-519 749-514 769-513 791-513 838-513 860-522 873-546 890-576 903-650 911-762 913-779 913-782 914-796 890-793 862-792 823-792H590C542-792 514-794 489-798V-722C511-726 539-728 582-728H626ZM693-326V-213H576C538-213 513-215 487-218V-141C515-145 539-146 574-146H693V-18C693 20 691 44 687 73H768C763 45 762 21 762-18V-146H862C905-146 927-145 953-142V-218C924-214 899-213 859-213H762V-326H835C876-326 902-325 928-321V-398C908-394 882-392 835-392H762V-412C762-440 763-465 766-490H687C691-466 693-442 693-412V-392H611C616-409 616-409 630-456L559-472C559-462 556-448 550-424 535-361 518-323 482-270 504-263 519-255 545-238 568-278 576-294 588-326H693Z"/>
</g>
<g id="font_11_171">
<path transform="matrix(.001,0,0,-.001,0,0)" d="M229-601C221-601 213-601 206-601 170-601 150-603 120-608L122-519C156-523 167-524 228-524H405C391-414 379-364 345-296 290-185 205-100 85-36 115-10 124 1 147 36 264-35 356-129 411-232 456-317 477-395 491-525L758-526C757-389 748-256 734-180 716-84 700-61 653-61 620-61 579-69 523-86 535-51 537-40 537 3 592 14 628 19 662 19 760 19 792-19 817-166 829-234 840-386 844-511 844-546 846-557 852-573L810-610C789-603 784-603 740-603L498-602C500-634 501-646 502-671 507-772 507-776 511-798L415-800C418-782 418-770 418-747 418-706 416-650 412-601H229ZM721-794C762-748 794-698 825-636L884-669C849-734 826-768 779-824L721-794ZM837-848C881-796 911-751 940-693L998-726C962-792 940-823 893-878L837-848Z"/>
</g>
<g id="font_11_163">
<path transform="matrix(.001,0,0,-.001,0,0)" d="M777-799C749-751 679-681 588-610 428-486 257-401 67-351 92-320 99-308 114-271 300-335 364-364 492-442V-82C492-19 491 4 486 35H588C584 7 583-22 583-83V-498C672-562 751-631 823-707 839-724 844-728 859-741L777-799Z"/>
</g>
<g id="font_11_200">
<path transform="matrix(.001,0,0,-.001,0,0)" d="M379 35C375 4 374-28 374-81V-342C374-382 373-399 370-424 385-416 388-414 403-408 545-347 683-273 771-211L821-298C651-396 515-460 374-509V-688C374-744 375-772 379-800H278C283-774 284-751 284-690V-81C284-24 283 2 278 35H379ZM626-729C667-683 699-633 730-571L789-604C754-669 731-703 684-759L626-729ZM742-783C786-731 816-686 845-628L903-661C867-727 845-758 798-813L742-783Z"/>
</g>
<g id="font_12_161">
<path transform="matrix(.001,0,0,-.001,0,0)" d="M871-745C851-738 845-738 783-738H251C190-738 161-740 126-745V-654C163-658 189-659 249-659H805C777-604 743-559 698-517 651-474 613-451 543-423 575-396 584-386 604-356 734-420 825-511 894-648 906-672 909-676 919-690L871-745ZM424-564C428-544 428-537 428-509 428-315 391-218 286-133 235-92 187-68 106-44 134-14 143-2 161 37 283-11 357-62 418-138 486-225 513-322 517-491 518-546 518-546 521-564H424Z"/>
</g>
<g id="font_12_234">
<path transform="matrix(.001,0,0,-.001,0,0)" d="M260-767C263-743 263-737 263-688 263-483 250-355 219-267 186-173 135-102 54-38 89-15 100-4 126 29 215-57 264-128 298-223 335-324 343-397 351-674 353-736 353-737 357-762L260-767ZM512-775C516-755 517-732 517-693 517-686 517-679 517-671L511-105C511-58 510-45 504-26L551 26C560 21 563 20 575 15 585 11 595 7 607 3 665-20 705-40 748-69 837-129 903-213 954-331 922-358 912-368 888-400 864-324 828-261 775-205 726-152 678-121 599-89L604-670C605-729 606-745 611-774L512-775Z"/>
</g>
<g id="font_12_179">
<path transform="matrix(.001,0,0,-.001,0,0)" d="M805-656 860-687C825-752 802-786 755-842L697-812C730-775 758-735 783-688H271C200-688 185-689 147-695V-600C183-604 204-605 270-605H715V-136H251C184-136 167-137 132-144V-49C162-52 183-53 249-53H715V7H809C806-19 805-48 805-93V-656ZM827-848C871-796 901-751 930-693L988-726C952-792 930-823 883-878L827-848Z"/>
</g>
<g id="font_12_233">
<path transform="matrix(.001,0,0,-.001,0,0)" d="M226-775C230-749 231-727 231-680V-436C231-390 230-364 226-335H325C322-361 321-385 321-436V-681C321-722 322-753 325-775H226ZM672-774C675-750 676-736 676-675V-568C676-455 675-433 672-390 660-254 624-189 527-124 470-85 417-65 313-43 343-7 350 5 363 40 451 14 500-5 549-32 648-88 712-163 740-258 758-317 766-405 766-563V-676C766-730 767-748 771-774H672Z"/>
</g>
<g id="font_12_185">
<path transform="matrix(.001,0,0,-.001,0,0)" d="M721-794C762-748 794-698 825-636L884-669C849-734 826-768 779-824L721-794ZM837-848C881-796 911-751 940-693L998-726C962-792 940-823 893-878L837-848ZM902-49C787-169 696-249 570-343 635-429 680-507 724-605 735-630 742-643 753-655L695-722C676-715 665-713 624-713L294-709C228-709 208-710 177-714L180-620C216-625 241-627 295-628L635-634 626-612C579-497 498-379 404-284 303-183 202-114 73-60 103-30 112-18 131 18 205-19 257-50 326-101 398-154 450-201 516-277 633-186 754-69 831 29L902-49Z"/>
</g>
<g id="font_12_223">
<path transform="matrix(.001,0,0,-.001,0,0)" d="M412-796C404-737 384-662 335-511 284-353 248-257 186-113 147-110 110-108 100-108 95-108 88-108 73-110L85-11C104-16 123-18 172-23 438-49 634-74 749-98 771-102 771-102 783-105 813-43 822-21 839 27L924-18C858-177 764-349 677-473L600-437C646-373 703-276 750-180 643-158 428-131 285-120 351-275 422-475 490-702 501-738 507-754 516-773L412-796Z"/>
</g>
<g id="font_13_1">
</g>
<g id="font_13_186">
<path transform="matrix(.001,0,0,-.001,0,0)" d="M332-218 521-29 579-86 389-276 579-465 521-523 332-333 142-523 85-465 275-276 86-87 143-30 332-218Z"/>
</g>
<g id="font_13_36">
<path transform="matrix(.001,0,0,-.001,0,0)" d="M710-571C686-635 667-667 629-704 572-759 496-786 400-786 304-786 227-757 168-700 92-626 50-515 50-384 50-258 89-148 159-77 217-17 300 14 399 14 512 14 606-27 662-100 688-134 702-166 720-228L620-249C611-204 602-180 581-151 543-99 479-70 402-70 247-70 148-193 148-387 148-581 245-702 402-702 471-702 529-678 567-633 588-608 599-588 613-545L710-571Z"/>
</g>
<g id="font_13_12">
<path transform="matrix(.001,0,0,-.001,0,0)" d="M373-234H614V-316H373V-556H290V-316H50V-234H290V6H373V-234Z"/>
</g>
<g id="font_14_246">
<path transform="matrix(.001,0,0,-.001,0,0)" d="M840-216C879-216 906-214 938-210V-288C912-283 887-282 843-282H507C514-312 516-328 520-368H721C765-368 783-367 808-363V-435C782-431 767-430 721-430H525C527-452 527-470 529-509H729C773-509 796-508 825-504V-577C800-573 774-572 729-572H530C531-616 532-632 536-648H450C454-627 455-613 455-572H271C227-572 201-573 176-577V-504C203-508 228-509 271-509H455C454-478 453-468 451-430H273C227-430 211-431 185-435V-363C209-367 229-368 273-368H447C443-331 440-309 433-282H163C119-282 94-283 68-288V-210C99-214 129-216 166-216H410C380-153 336-108 269-71 207-38 151-20 54-3 77 29 83 39 95 72 194 49 259 23 327-20 398-65 447-121 481-200 576-60 696 17 910 73 922 43 934 20 952-4 837-25 759-52 687-94 631-127 595-160 552-216H840ZM453-740H183C137-740 111-741 79-744 82-720 83-701 83-674V-612C83-581 82-563 79-541H157V-674H846V-541H923C920-561 919-583 919-612V-675C919-702 920-720 923-744 891-741 866-740 820-740H531V-774C531-797 533-815 537-836H447C451-814 453-797 453-773V-740Z"/>
</g>
<g id="font_15_2">
<path transform="matrix(.001,0,0,-.001,0,0)" d="M497-265C527-195 558-151 613-100 693-26 788 26 929 74 945 37 955 20 974-1 874-25 790-60 719-108 776-144 790-155 859-211L795-251C762-214 725-185 667-148 618-190 595-218 570-265H836C882-265 912-263 944-260V-337C920-334 883-332 837-332H532V-351C532-377 534-393 537-412H452C456-391 457-376 457-352V-332H166C118-332 86-334 56-337V-260C88-263 118-265 164-265H386C302-203 184-151 43-115 64-88 73-75 84-49 170-77 236-105 307-144V-16C245-6 213-3 183-3 181-3 176-3 171-3L188 75C398 39 477 22 598-12V-81C533-61 466-45 380-28V-188C420-215 445-234 480-265H497ZM274-475C274-435 272-411 268-388H352C348-412 347-425 347-475V-748C347-791 348-808 352-831H268C272-809 274-785 274-749V-587C184-545 109-520 45-510L74-435C93-443 99-446 124-455 195-482 226-495 274-519V-475ZM606-645V-509H503C458-509 433-510 409-513V-439C433-442 465-444 506-444H807C853-444 878-443 902-439V-514C876-510 853-509 805-509H679V-645H841C887-645 913-644 940-640V-716C913-712 887-711 841-711H679V-751C679-791 680-806 685-830H600C605-807 606-789 606-750V-711H488C442-711 416-712 389-716V-640C413-643 444-645 488-645H606ZM67-751C124-698 147-671 184-612L239-658C198-717 175-742 122-793L67-751Z"/>
</g>
</defs>
<path transform="matrix(.75,0,0,.75,0,0)" d="M0 0H1280V720H0Z" fill="#ffffff"/>
<g clip-path="url(#clip_1)">
<path transform="matrix(.75,0,0,.75,0,0)" d="M0 0H1280V720H0Z" fill="#ffffff"/>
</g>
<g clip-path="url(#clip_2)">
<path transform="matrix(.75,0,0,.75,0,0)" d="M0 0H1280V720H0Z" fill="#1e293b"/>
</g>
<g clip-path="url(#clip_3)">
<use data-text="&#x30bb;" xlink:href="#font_4_186" transform="matrix(50.699998,0,0,-50.699998,334.07814,232.5)" fill="#ffffff"/>
<use data-text="&#x30b0;" xlink:href="#font_4_175" transform="matrix(50.699998,0,0,-50.699998,384.7781,232.5)" fill="#ffffff"/>
<use data-text="&#x2f4a;" xlink:href="#font_5_244" transform="matrix(50.699998,0,0,-50.699998,435.4781,232.5)" fill="#ffffff"/>
<use data-text="&#x30fb;" xlink:href="#font_6_128" transform="matrix(50.699998,0,0,-50.699998,486.17808,232.5)" fill="#ffffff"/>
<use data-text="B" xlink:href="#font_7_35" transform="matrix(50.699998,0,0,-50.699998,536.87808,232.5)" fill="#ffffff"/>
<use data-text="I" xlink:href="#font_7_42" transform="matrix(50.699998,0,0,-50.699998,575.10586,232.5)" fill="#ffffff"/>
<use data-text="T" xlink:href="#font_7_53" transform="matrix(50.699998,0,0,-50.699998,589.96096,232.5)" fill="#ffffff"/>
<use data-text="&#x5b8c;" xlink:href="#font_8_241" transform="matrix(25.349999,0,0,-25.349999,391.26564,299.25)" fill="#94a3b8"/>
<use data-text="&#x5168;" xlink:href="#font_9_192" transform="matrix(25.349999,0,0,-25.349999,416.6156,299.25)" fill="#94a3b8"/>
<use data-text="&#x7406;" xlink:href="#font_10_118" transform="matrix(25.349999,0,0,-25.349999,441.9656,299.25)" fill="#94a3b8"/>
<use data-text="&#x89e3;" xlink:href="#font_8_119" transform="matrix(25.349999,0,0,-25.349999,467.3156,299.25)" fill="#94a3b8"/>
<use data-text="&#x30ac;" xlink:href="#font_11_171" transform="matrix(25.349999,0,0,-25.349999,492.6656,299.25)" fill="#94a3b8"/>
<use data-text="&#x30a4;" xlink:href="#font_11_163" transform="matrix(25.349999,0,0,-25.349999,518.01559,299.25)" fill="#94a3b8"/>
<use data-text="&#x30c9;" xlink:href="#font_11_200" transform="matrix(25.349999,0,0,-25.349999,543.3656,299.25)" fill="#94a3b8"/>
<use data-text="&#x30a2;" xlink:href="#font_12_161" transform="matrix(19.5,0,0,-19.5,366.2461,348.75)" fill="#f1f5f9"/>
<use data-text="&#x30eb;" xlink:href="#font_12_234" transform="matrix(19.5,0,0,-19.5,384.5761,348.75)" fill="#f1f5f9"/>
<use data-text="&#x30b4;" xlink:href="#font_12_179" transform="matrix(19.5,0,0,-19.5,404.0761,348.75)" fill="#f1f5f9"/>
<use data-text="&#x30ea;" xlink:href="#font_12_233" transform="matrix(19.5,0,0,-19.5,423.5761,348.75)" fill="#f1f5f9"/>
<use data-text="&#x30ba;" xlink:href="#font_12_185" transform="matrix(19.5,0,0,-19.5,442.49113,348.75)" fill="#f1f5f9"/>
<use data-text="&#x30e0;" xlink:href="#font_12_223" transform="matrix(19.5,0,0,-19.5,461.99113,348.75)" fill="#f1f5f9"/>
<use data-text=" " xlink:href="#font_13_1" transform="matrix(19.5,0,0,-19.5,481.49113,348.75)" fill="#f1f5f9"/>
<use data-text="&#x00d7;" xlink:href="#font_13_186" transform="matrix(19.5,0,0,-19.5,487.9846,348.75)" fill="#f1f5f9"/>
<use data-text=" " xlink:href="#font_13_1" transform="matrix(19.5,0,0,-19.5,500.93257,348.75)" fill="#f1f5f9"/>
<use data-text="C" xlink:href="#font_13_36" transform="matrix(19.5,0,0,-19.5,507.4261,348.75)" fill="#f1f5f9"/>
<use data-text="+" xlink:href="#font_13_12" transform="matrix(19.5,0,0,-19.5,522.3631,348.75)" fill="#f1f5f9"/>
<use data-text="+" xlink:href="#font_13_12" transform="matrix(19.5,0,0,-19.5,535.3111,348.75)" fill="#f1f5f9"/>
<use data-text=" " xlink:href="#font_13_1" transform="matrix(19.5,0,0,-19.5,548.25906,348.75)" fill="#f1f5f9"/>
<use data-text="&#x5b9f;" xlink:href="#font_14_246" transform="matrix(19.5,0,0,-19.5,554.75259,348.75)" fill="#f1f5f9"/>
<use data-text="&#x88c5;" xlink:href="#font_15_2" transform="matrix(19.5,0,0,-19.5,574.25259,348.75)" fill="#f1f5f9"/>
</g>
</svg>
