<svg xmlns="http://www.w3.org/2000/svg" xmlns:xlink="http://www.w3.org/1999/xlink" xmlns:inkscape="http://www.inkscape.org/namespaces/inkscape" version="1.1" width="960" height="540" viewBox="0 0 960 540">
<defs>
<clipPath id="clip_1">
<path transform="matrix(.24,0,0,.24,0,0)" d="M0 0H4000V2250H0Z" clip-rule="evenodd"/>
</clipPath>
<clipPath id="clip_2">
<path transform="matrix(.24,0,0,.24,0,0)" d="M0 0H4000V2250H0Z" clip-rule="evenodd"/>
</clipPath>
<clipPath id="clip_3">
<path transform="matrix(.24,0,0,.24,0,0)" d="M0 0H4000V2250H0Z" clip-rule="evenodd"/>
</clipPath>
<g id="font_4_49">
<path transform="matrix(.001,0,0,-.001,0,0)" d="M219 12C213-26 211-64 211-118V-285H402C498-285 566-308 615-357 659-403 682-465 682-541 682-613 661-673 620-713 572-761 504-784 407-784H198C145-784 114-785 71-787 77-742 79-706 79-658V-117C79-63 77-28 71 12H219ZM211-400V-669H402C455-669 488-658 511-633 533-610 544-577 544-537 544-449 494-400 402-400H211Z"/>
</g>
<g id="font_4_66">
<path transform="matrix(.001,0,0,-.001,0,0)" d="M442 12H577C571-33 569-60 569-113V-382C569-450 556-488 522-520 479-562 421-579 325-579 239-579 183-564 134-528 96-501 78-475 55-417L183-394C195-430 204-444 223-458 246-476 287-487 327-487 403-487 442-457 442-399V-348C299-345 225-335 160-308 91-279 47-216 47-146 47-41 121 22 243 22 275 22 307 18 336 10 377-1 402-15 442-53V12ZM442-211C442-176 430-147 406-123 372-90 320-70 267-70 211-70 176-99 176-146 176-224 251-257 442-261V-211Z"/>
</g>
<g id="font_4_83">
<path transform="matrix(.001,0,0,-.001,0,0)" d="M481-562C436-570 412-573 388-573 298-573 236-539 200-468V-562H64C70-521 71-493 71-432V-118C71-66 69-37 64 12H207C202-35 200-64 200-118V-303C206-351 216-374 241-403 269-436 307-452 357-452 383-452 404-448 446-436L481-562Z"/>
</g>
<g id="font_4_85">
<path transform="matrix(.001,0,0,-.001,0,0)" d="M129-716C133-680 136-636 136-593V-562H99C57-562 38-563 9-568V-450C42-455 61-456 98-456H136V-120C136-15 182 26 297 26 349 26 379 21 422 5L404-101C373-84 357-79 331-79 283-79 265-97 265-146V-456H310C356-456 375-455 408-450V-568C376-563 354-562 307-562H265V-593C265-638 268-681 272-716H129Z"/>
</g>
<g id="font_4_1">
</g>
<g id="font_4_21">
<path transform="matrix(.001,0,0,-.001,0,0)" d="M688-294C651-289 627-287 587-287H552V-615C552-691 553-726 559-784H424C401-748 385-727 341-674L104-384C69-342 58-329 24-292V-169C58-172 90-173 149-173H426V-104C426-54 424-23 418 12H560C554-25 552-51 552-102V-173H588C630-172 651-171 688-166V-294ZM427-286H172L364-524C400-568 412-584 432-613 428-572 427-540 427-493V-286Z"/>
</g>
<g id="font_5_138">
<path transform="matrix(.001,0,0,-.001,0,0)" d="M899-106C885-114 880-118 863-129 755-205 677-244 589-270 588-294 588-294 585-391 624-393 639-394 653-395 728-402 773-407 788-409 811-412 836-415 853-416L850-526C805-514 789-512 726-504 634-494 634-494 584-491 583-553 583-565 582-590 670-595 709-598 797-610 854-618 854-618 876-619L871-730C806-711 719-700 583-692 584-774 585-787 590-814H463C467-789 467-788 468-688 443-687 409-686 393-686 278-686 175-694 124-707L123-596C130-596 135-596 139-596 142-596 150-596 161-595 228-590 357-585 406-585 421-585 437-585 469-586 470-529 470-495 470-486 442-485 408-484 388-484 293-484 198-491 155-501L153-393C168-393 178-393 191-392 274-386 311-385 372-385 393-385 424-386 472-387 473-347 473-347 474-333 474-323 474-316 474-311 475-299 475-299 475-287 449-290 432-291 408-291 240-291 141-227 141-118 141-19 225 38 371 38 444 38 498 24 536-5 574-34 592-77 592-140 592-142 592-146 592-151 616-141 624-138 646-126 718-89 787-38 831 11L899-106ZM477-183C477-183 477-163 477-159 477-129 473-108 465-95 451-75 420-63 378-63 307-63 264-86 264-123 264-166 313-192 394-192 424-192 444-190 477-183Z"/>
</g>
<g id="font_5_116">
<path transform="matrix(.001,0,0,-.001,0,0)" d="M298-801C303-786 304-784 314-736 339-613 356-546 381-465 316-432 284-412 245-379 188-331 156-267 156-200 156-128 188-66 243-33 307 5 394 22 533 22 603 22 659 18 767 7 821 1 826 0 848 0L837-137C762-111 639-96 514-96 353-96 285-127 285-200 285-272 358-336 504-390 616-431 747-469 834-486L791-612C776-605 771-603 753-597 559-533 559-533 494-509 462-611 432-755 428-822L298-801Z"/>
</g>
<g id="font_5_141">
<path transform="matrix(.001,0,0,-.001,0,0)" d="M191-763C197-748 199-742 201-729 212-673 230-586 235-571 131-493 75-387 75-264 75-129 144-39 247-39 281-39 309-47 340-66 380-89 423-130 459-176 532-271 601-412 641-549 682-537 704-527 731-506 781-467 804-417 804-351 804-307 792-265 770-228 743-185 698-150 630-121 575-97 536-88 467-82 505-32 514-15 529 35 606 19 644 8 692-13 841-76 926-195 926-342 926-446 884-531 804-590 765-619 729-635 670-650 674-664 687-713 701-767 703-776 705-783 711-795L585-820C584-787 577-750 556-665 544-665 535-665 529-665 463-665 404-653 336-625 324-676 313-748 312-786L191-763ZM265-452C285-369 301-323 347-222 313-179 281-157 253-157 213-157 185-202 185-267 185-337 209-393 265-452ZM422-320C421-325 420-327 417-335 386-414 373-455 357-524 410-553 460-564 529-564 496-464 469-401 429-333 426-328 426-327 423-320H422Z"/>
</g>
</defs>
<path transform="matrix(.75,0,0,.75,0,0)" d="M0 0H1280V720H0Z" fill="#ffffff"/>
<g clip-path="url(#clip_1)">
<path transform="matrix(.75,0,0,.75,0,-15120)" d="M0 20160H1280V20880H0Z" fill="#ffffff"/>
</g>
<g clip-path="url(#clip_2)">
<path transform="matrix(.75,0,0,.75,0,0)" d="M0 0H1280V720H0Z" fill="#1e293b"/>
</g>
<g clip-path="url(#clip_3)">
<use data-text="P" xlink:href="#font_4_49" transform="matrix(42.9,0,0,-42.9,42,250.5)" fill="#ffffff"/>
<use data-text="a" xlink:href="#font_4_66" transform="matrix(42.9,0,0,-42.9,72.50189,250.5)" fill="#ffffff"/>
<use data-text="r" xlink:href="#font_4_83" transform="matrix(42.9,0,0,-42.9,99.70049,250.5)" fill="#ffffff"/>
<use data-text="t" xlink:href="#font_4_85" transform="matrix(42.9,0,0,-42.9,120.80729,250.5)" fill="#ffffff"/>
<use data-text=" " xlink:href="#font_4_1" transform="matrix(42.9,0,0,-42.9,139.42589,250.5)" fill="#ffffff"/>
<use data-text="4" xlink:href="#font_4_21" transform="matrix(42.9,0,0,-42.9,153.71158,250.5)" fill="#ffffff"/>
<use data-text="&#x307e;" xlink:href="#font_5_138" transform="matrix(23.400002,0,0,-23.400002,42,319.5)" fill="#94a3b8"/>
<use data-text="&#x3068;" xlink:href="#font_5_116" transform="matrix(23.400002,0,0,-23.400002,65.399997,319.5)" fill="#94a3b8"/>
<use data-text="&#x3081;" xlink:href="#font_5_141" transform="matrix(23.400002,0,0,-23.400002,88.799999,319.5)" fill="#94a3b8"/>
</g>
</svg>
