<svg xmlns="http://www.w3.org/2000/svg" xmlns:xlink="http://www.w3.org/1999/xlink" xmlns:inkscape="http://www.inkscape.org/namespaces/inkscape" version="1.1" width="960" height="540" viewBox="0 0 960 540">
<defs>
<clipPath id="clip_1">
<path transform="matrix(.24,0,0,.24,0,0)" d="M0 0H4000V2250H0Z" clip-rule="evenodd"/>
</clipPath>
<clipPath id="clip_2">
<path transform="matrix(.24,0,0,.24,0,0)" d="M0 0H4000V2250H0Z" clip-rule="evenodd"/>
</clipPath>
<clipPath id="clip_3">
<path transform="matrix(.24,0,0,.24,0,0)" d="M0 0H4000V2250H0Z" clip-rule="evenodd"/>
</clipPath>
<g id="font_4_49">
<path transform="matrix(.001,0,0,-.001,0,0)" d="M219 12C213-26 211-64 211-118V-285H402C498-285 566-308 615-357 659-403 682-465 682-541 682-613 661-673 620-713 572-761 504-784 407-784H198C145-784 114-785 71-787 77-742 79-706 79-658V-117C79-63 77-28 71 12H219ZM211-400V-669H402C455-669 488-658 511-633 533-610 544-577 544-537 544-449 494-400 402-400H211Z"/>
</g>
<g id="font_4_66">
<path transform="matrix(.001,0,0,-.001,0,0)" d="M442 12H577C571-33 569-60 569-113V-382C569-450 556-488 522-520 479-562 421-579 325-579 239-579 183-564 134-528 96-501 78-475 55-417L183-394C195-430 204-444 223-458 246-476 287-487 327-487 403-487 442-457 442-399V-348C299-345 225-335 160-308 91-279 47-216 47-146 47-41 121 22 243 22 275 22 307 18 336 10 377-1 402-15 442-53V12ZM442-211C442-176 430-147 406-123 372-90 320-70 267-70 211-70 176-99 176-146 176-224 251-257 442-261V-211Z"/>
</g>
<g id="font_4_83">
<path transform="matrix(.001,0,0,-.001,0,0)" d="M481-562C436-570 412-573 388-573 298-573 236-539 200-468V-562H64C70-521 71-493 71-432V-118C71-66 69-37 64 12H207C202-35 200-64 200-118V-303C206-351 216-374 241-403 269-436 307-452 357-452 383-452 404-448 446-436L481-562Z"/>
</g>
<g id="font_4_85">
<path transform="matrix(.001,0,0,-.001,0,0)" d="M129-716C133-680 136-636 136-593V-562H99C57-562 38-563 9-568V-450C42-455 61-456 98-456H136V-120C136-15 182 26 297 26 349 26 379 21 422 5L404-101C373-84 357-79 331-79 283-79 265-97 265-146V-456H310C356-456 375-455 408-450V-568C376-563 354-562 307-562H265V-593C265-638 268-681 272-716H129Z"/>
</g>
<g id="font_4_1">
</g>
<g id="font_4_18">
<path transform="matrix(.001,0,0,-.001,0,0)" d="M448 12C442-29 440-65 440-118V-624C440-684 442-730 448-789 412-785 397-784 346-784H254C207-784 185-785 154-790V-663C191-667 220-669 257-669H305V-118C305-66 303-27 297 12H448Z"/>
</g>
<g id="font_5_118">
<path transform="matrix(.001,0,0,-.001,0,0)" d="M305-829C303-786 292-726 275-655 253-654 236-654 224-654 163-654 125-656 89-663V-549L142-548C163-547 169-547 182-547 194-547 200-547 245-548 207-433 190-392 151-312 117-243 89-198 54-152L169-88C175-100 175-100 188-124 226-194 235-212 258-261 303-356 339-451 368-551 430-556 491-563 527-569 546-573 548-573 559-574L556-689C517-677 465-668 396-661 407-705 412-725 417-749 427-797 427-797 433-816L305-829ZM945-569C856-623 781-658 663-703L603-606C715-567 804-524 891-466L945-569ZM941-118C934-124 934-124 926-132 910-145 906-149 891-159 815-214 805-219 733-251 726-308 724-348 724-388 724-429 726-452 736-489L620-495C614-462 612-433 612-394 612-364 614-325 617-279 575-286 554-288 524-288 397-288 308-217 308-116 308-14 394 52 526 52 597 52 657 32 692-4 718-30 735-73 735-110 735-114 734-121 733-130 792-96 850-49 886-6L941-118ZM621-173C621-173 623-149 623-139 623-83 590-55 522-55 460-55 424-79 424-120 424-162 466-189 531-189 562-189 586-185 621-173Z"/>
</g>
<g id="font_5_104">
<path transform="matrix(.001,0,0,-.001,0,0)" d="M221-466C221-395 221-372 221-364 221-198 225-141 239-96 269 0 350 36 537 36 603 36 734 29 807 21L838 17 853 16 844-118C779-92 685-80 556-80 393-80 350-101 342-185 340-205 337-314 337-366 337-371 337-381 337-387 338-440 338-440 338-448 338-455 338-461 337-472L436-478C457-479 474-480 479-480L629-486C628-430 625-390 620-361 613-322 603-309 577-309 547-309 499-327 446-358 451-322 453-303 453-276 453-262 453-256 451-236 504-212 547-202 595-202 653-202 694-227 716-277 732-313 741-388 742-489 795-490 843-490 878-490 907-490 915-490 939-487L936-606C910-603 899-602 863-601L742-597C742-602 742-607 742-609 742-613 742-619 742-629 743-641 743-650 743-659 743-664 743-673 742-684 742-700 742-709 742-719 742-744 743-758 746-780H623C628-747 629-734 629-696V-593L527-588 482-586 340-579C342-725 342-738 349-774H214C220-737 221-718 221-611V-573C120-567 65-564 57-564 54-564 43-564 28-565L36-448C69-454 85-456 121-459L221-466ZM742-830C771-786 792-737 810-673L879-693C862-752 841-800 810-849L742-830ZM997-727C978-788 956-835 929-877L865-857C892-814 916-758 932-704L997-727Z"/>
</g>
<g id="font_6_171">
<path transform="matrix(.001,0,0,-.001,0,0)" d="M286-41C286 46 327 66 510 66 743 66 759 50 781-213 740-222 718-230 675-251 673-150 665-87 651-62 639-41 605-34 516-34 421-34 395-41 395-66V-136C459-188 500-227 546-280 647-396 726-515 797-660 824-716 824-716 836-737L721-783C707-721 662-624 609-540 548-444 470-349 395-278V-525C395-561 397-593 401-624H280C285-580 286-561 286-522V-186C202-124 127-80 30-37 65-4 81 16 105 58 183 18 214-2 286-52V-41ZM276-762C409-710 493-666 569-609L635-705C529-770 477-795 343-848L276-762ZM124-534C102-382 82-310 28-187L132-135C186-274 205-347 230-514L124-534ZM721-475C793-339 820-267 867-90L973-147C923-305 885-397 819-523L721-475Z"/>
</g>
<g id="font_7_80">
<path transform="matrix(.001,0,0,-.001,0,0)" d="M173-322C118-322 86-324 58-328V-224C91-227 124-229 173-229H280C245-188 226-170 181-131 282-107 299-103 415-72 326-39 217-23 79-23 74-23 67-23 57-23 83 21 90 38 102 79 301 69 436 36 553-30 706 25 706 25 791 64 804 70 824 79 849 90L919-2C808-47 772-60 645-99 683-138 710-177 736-229H826C875-229 909-227 942-224V-328C914-323 884-322 826-322H473C485-342 488-348 509-385H762C819-385 850-384 875-381 873-406 872-429 872-479V-547C872-596 873-621 876-649 847-645 815-644 764-644H648V-707H827C875-707 911-705 943-702V-808C916-804 877-802 819-802H183C127-802 90-804 60-808V-702C91-705 128-707 175-707H341V-644H232C185-644 153-645 121-649 124-619 125-593 125-547V-478C125-433 124-410 121-381 152-384 185-385 237-385H389C375-358 368-346 352-322H173ZM617-229C594-189 566-159 530-133 495-143 481-147 470-149 392-167 392-167 357-177 382-202 390-211 405-229H617ZM440-707H549V-644H440V-707ZM341-563V-468H231V-563H341ZM440-563H549V-468H440V-563ZM648-563H765V-468H648V-563Z"/>
</g>
<g id="font_5_87">
<path transform="matrix(.001,0,0,-.001,0,0)" d="M303-821C303-813 303-806 303-802 303-769 295-708 277-600 222-592 101-580 64-580L76-462C109-471 204-488 255-494 215-351 201-309 158-211 124-135 84-63 54-23L170 41C175 31 175 30 178 24 188 4 188 4 193-6 251-123 278-187 313-287 335-352 344-382 374-504 397-506 412-507 432-507 511-507 534-480 534-388 534-303 524-212 508-160 493-111 477-92 448-92 413-92 356-107 302-131 310-92 312-72 312-46 312-36 311-22 310-2 377 19 418 27 464 27 517 27 547 15 575-18 623-73 652-210 652-382 652-473 639-521 605-559 572-594 523-612 457-612 438-612 424-611 395-609 398-622 398-624 402-646 416-721 416-721 419-742 422-758 423-763 425-776 427-787 430-798 433-807L303-821ZM661-629C708-578 740-532 776-458 814-383 837-317 856-231L970-289C927-443 864-562 764-679L661-629Z"/>
</g>
<g id="font_8_131">
<path transform="matrix(.001,0,0,-.001,0,0)" d="M548-202C546-221 545-237 545-253 545-306 561-330 623-372 704-427 723-443 746-475 770-507 781-545 781-593 781-649 757-696 710-733 660-773 593-793 509-793 415-793 339-769 288-723 245-683 225-645 209-572L357-554C361-592 367-609 381-630 405-666 449-687 501-687 586-687 639-649 639-588 639-542 616-511 551-468 486-425 478-418 457-393 429-357 416-316 416-263L417-244C417-231 416-219 414-202H548ZM408-119V18H553V-119H408Z"/>
</g>
</defs>
<path transform="matrix(.75,0,0,.75,0,0)" d="M0 0H1280V720H0Z" fill="#ffffff"/>
<g clip-path="url(#clip_1)">
<path transform="matrix(.75,0,0,.75,0,-1080)" d="M0 1440H1280V2160H0Z" fill="#ffffff"/>
</g>
<g clip-path="url(#clip_2)">
<path transform="matrix(.75,0,0,.75,0,0)" d="M0 0H1280V720H0Z" fill="#1e293b"/>
</g>
<g clip-path="url(#clip_3)">
<use data-text="P" xlink:href="#font_4_49" transform="matrix(42.9,0,0,-42.9,42,250.5)" fill="#ffffff"/>
<use data-text="a" xlink:href="#font_4_66" transform="matrix(42.9,0,0,-42.9,72.50189,250.5)" fill="#ffffff"/>
<use data-text="r" xlink:href="#font_4_83" transform="matrix(42.9,0,0,-42.9,99.70049,250.5)" fill="#ffffff"/>
<use data-text="t" xlink:href="#font_4_85" transform="matrix(42.9,0,0,-42.9,120.80729,250.5)" fill="#ffffff"/>
<use data-text=" " xlink:href="#font_4_1" transform="matrix(42.9,0,0,-42.9,139.42589,250.5)" fill="#ffffff"/>
<use data-text="1" xlink:href="#font_4_18" transform="matrix(42.9,0,0,-42.9,153.71158,250.5)" fill="#ffffff"/>
<use data-text="&#x306a;" xlink:href="#font_5_118" transform="matrix(23.400002,0,0,-23.400002,42,319.5)" fill="#94a3b8"/>
<use data-text="&#x305c;" xlink:href="#font_5_104" transform="matrix(23.400002,0,0,-23.400002,65.399997,319.5)" fill="#94a3b8"/>
<use data-text="&#x5fc5;" xlink:href="#font_6_171" transform="matrix(23.400002,0,0,-23.400002,88.799999,319.5)" fill="#94a3b8"/>
<use data-text="&#x8981;" xlink:href="#font_7_80" transform="matrix(23.400002,0,0,-23.400002,112.2,319.5)" fill="#94a3b8"/>
<use data-text="&#x304b;" xlink:href="#font_5_87" transform="matrix(23.400002,0,0,-23.400002,135.59999,319.5)" fill="#94a3b8"/>
<use data-text="&#xff1f;" xlink:href="#font_8_131" transform="matrix(23.400002,0,0,-23.400002,158.99999,319.5)" fill="#94a3b8"/>
</g>
</svg>
