<svg xmlns="http://www.w3.org/2000/svg" xmlns:xlink="http://www.w3.org/1999/xlink" xmlns:inkscape="http://www.inkscape.org/namespaces/inkscape" version="1.1" width="960" height="540" viewBox="0 0 960 540">
<defs>
<clipPath id="clip_1">
<path transform="matrix(.24,0,0,.24,0,0)" d="M0 0H4000V2250H0Z" clip-rule="evenodd"/>
</clipPath>
<clipPath id="clip_2">
<path transform="matrix(.24,0,0,.24,0,0)" d="M0 0H4000V2250H0Z" clip-rule="evenodd"/>
</clipPath>
<clipPath id="clip_3">
<path transform="matrix(.24,0,0,.24,0,0)" d="M0 0H4000V2250H0Z" clip-rule="evenodd"/>
</clipPath>
<g id="font_4_186">
<path transform="matrix(.001,0,0,-.001,0,0)" d="M849-637C826-627 825-626 772-620L408-576V-702C408-745 409-766 414-795H276C281-761 282-750 282-700V-563L176-550C149-546 106-543 88-543 83-543 75-543 64-544L77-420C110-429 110-429 188-439L282-451V-222C282-142 283-127 292-96 303-53 337-16 378-4 416 7 475 13 556 13 622 13 696 8 804-4 830-7 838-7 865-8L859-143C776-118 667-104 552-104 450-104 418-115 411-154 408-171 408-171 407-240V-465C511-480 614-493 715-505 730-507 737-508 753-511 735-481 729-472 715-452 671-394 619-349 550-311 596-284 611-273 650-230 766-316 837-400 895-522 909-551 911-554 923-571L849-637Z"/>
</g>
<g id="font_4_175">
<path transform="matrix(.001,0,0,-.001,0,0)" d="M819-660 862-676C835-742 812-782 773-834L699-809C731-766 749-734 772-684 764-683 747-682 720-682L501-679C481-679 465-678 453-677L461-692C463-696 463-697 468-706 478-726 487-746 495-764 504-783 505-785 512-794L375-822C372-790 354-743 324-689 253-561 173-471 65-399 117-367 132-354 162-313 245-374 340-478 396-570L697-574C617-314 448-135 186-35 227 1 245 23 271 70 415 7 538-81 627-183 721-294 769-383 828-561 839-596 844-608 853-621L819-660ZM992-721C968-780 945-820 904-873L832-848C865-803 894-752 918-693L992-721Z"/>
</g>
<g id="font_5_244">
<path transform="matrix(.001,0,0,-.001,0,0)" d="M820-544C863-544 904-542 941-537V-655C908-650 871-648 820-648H551V-743C551-781 553-807 558-835H428C433-807 435-781 435-742V-648H180C132-648 98-650 60-655V-537C98-542 135-544 180-544H399C328-391 189-245 23-149 53-120 73-92 97-47 258-158 365-278 440-432 437-393 435-348 435-323V-45C435 4 433 42 428 80H558C553 44 551 4 551-44V-324C551-355 549-392 544-437 594-344 639-280 706-210 755-159 809-114 899-51 929-104 938-116 976-157 796-255 673-378 587-544H820Z"/>
</g>
<g id="font_6_128">
<path transform="matrix(.001,0,0,-.001,0,0)" d="M500-499C434-499 381-446 381-380 381-314 434-261 500-261 566-261 619-314 619-380 619-446 566-499 500-499Z"/>
</g>
<g id="font_7_35">
<path transform="matrix(.001,0,0,-.001,0,0)" d="M445 12C611 12 704-67 704-207 704-272 683-322 642-360 615-385 592-395 541-406 580-418 598-427 620-448 658-483 676-528 676-589 676-714 589-784 434-784H198C130-784 114-784 72-786 77-745 80-709 80-663V-120C80-56 78-27 71 15 112 13 141 12 199 12H445ZM212-458V-672H419C459-672 493-661 515-641 531-626 541-599 541-567 541-499 496-458 420-458H212ZM212-347H425C471-347 509-335 534-313 556-293 566-266 566-226 566-145 516-101 427-101H212V-347Z"/>
</g>
<g id="font_7_42">
<path transform="matrix(.001,0,0,-.001,0,0)" d="M71-784C77-744 79-717 79-655V-117C79-58 77-26 71 12H223C217-26 215-58 215-117V-655C215-715 217-746 223-784H71Z"/>
</g>
<g id="font_7_53">
<path transform="matrix(.001,0,0,-.001,0,0)" d="M422-664H547C619-664 657-662 694-657V-791C656-786 619-784 547-784H151C94-784 51-786 15-791V-657C50-662 93-664 152-664H287V-118C287-64 285-30 279 12H430C424-29 422-64 422-118V-664Z"/>
</g>
<g id="font_8_138">
<path transform="matrix(.001,0,0,-.001,0,0)" d="M883-88C869-96 865-100 848-111 742-187 665-227 570-256 568-297 568-297 565-399 617-402 706-410 745-416 822-427 825-428 842-429L838-510C781-492 683-478 564-471 563-526 562-541 562-595 653-600 703-605 789-617 842-625 842-625 861-626L857-707C798-688 694-674 562-667 563-743 565-779 569-802H479C483-779 483-779 484-664 454-663 419-662 400-662 289-662 188-670 140-682L139-601C145-602 150-602 153-602 157-602 164-602 173-601 244-596 354-591 414-591 433-591 450-591 484-592 484-576 485-566 486-467 452-466 422-465 399-465 299-465 213-471 168-481L167-403C171-403 174-403 176-403 182-403 190-403 202-402 266-396 315-394 374-394 399-394 434-395 487-396 490-293 490-293 492-269 463-273 438-275 404-275 250-275 157-216 157-118 157-30 236 25 362 25 457 25 524 0 550-46 565-72 574-110 574-149 574-158 574-163 573-175 609-160 609-160 631-149 715-107 788-55 835-5L883-88ZM493-194C493-194 494-168 494-160 494-118 488-93 474-78 456-58 419-47 368-47 288-47 240-74 240-120 240-136 246-152 256-162 281-188 334-204 395-204 436-204 455-202 493-194Z"/>
</g>
<g id="font_8_116">
<path transform="matrix(.001,0,0,-.001,0,0)" d="M308-790C314-774 315-769 324-726 348-607 368-530 395-449 333-418 301-398 263-366 206-319 174-258 174-197 174-129 204-73 258-42 318-8 397 6 526 6 599 6 650 3 754-8 809-14 809-14 830-14L821-113C757-91 642-77 527-77 459-77 394-83 360-92 296-109 264-143 264-195 264-234 283-272 316-302 359-339 423-375 501-405 613-448 736-487 811-503L777-593C759-583 755-582 711-566 535-506 535-506 474-481 440-582 405-738 401-807L308-790Z"/>
</g>
<g id="font_8_141">
<path transform="matrix(.001,0,0,-.001,0,0)" d="M595-794C593-764 584-714 565-635 552-635 543-635 537-635 461-635 394-620 325-589 312-647 300-725 299-759L212-742C218-725 219-723 225-688 234-638 247-574 254-548 208-514 180-486 154-446 116-388 95-319 95-252 95-130 156-48 246-48 307-48 369-88 435-168 509-259 582-408 625-554 753-526 822-449 822-334 822-221 758-137 634-87 582-66 540-55 481-50 509-17 516-4 527 31 602 15 634 5 680-14 826-76 907-188 907-329 907-482 811-590 645-625 649-641 650-646 658-676 678-761 678-761 685-776L595-794ZM275-467C295-379 324-297 365-209 323-157 284-130 250-130 204-130 173-179 173-251 173-333 206-404 275-467ZM419-275C417-282 416-285 413-293 377-383 363-425 341-513 398-546 459-562 526-562 530-562 537-562 545-562 510-450 477-375 429-294 426-289 425-288 422-282 422-281 421-279 420-277L419-275Z"/>
</g>
<g id="font_9_35">
<path transform="matrix(.001,0,0,-.001,0,0)" d="M445 12C611 12 704-67 704-207 704-272 683-322 642-360 615-385 592-395 541-406 580-418 598-427 620-448 658-483 676-528 676-589 676-714 589-784 434-784H198C130-784 114-784 72-786 77-745 80-709 80-663V-120C80-56 78-27 71 15 112 13 141 12 199 12H445ZM212-458V-672H419C459-672 493-661 515-641 531-626 541-599 541-567 541-499 496-458 420-458H212ZM212-347H425C471-347 509-335 534-313 556-293 566-266 566-226 566-145 516-101 427-101H212V-347Z"/>
</g>
<g id="font_9_42">
<path transform="matrix(.001,0,0,-.001,0,0)" d="M71-784C77-744 79-717 79-655V-117C79-58 77-26 71 12H223C217-26 215-58 215-117V-655C215-715 217-746 223-784H71Z"/>
</g>
<g id="font_9_53">
<path transform="matrix(.001,0,0,-.001,0,0)" d="M422-664H547C619-664 657-662 694-657V-791C656-786 619-784 547-784H151C94-784 51-786 15-791V-657C50-662 93-664 152-664H287V-118C287-64 285-30 279 12H430C424-29 422-64 422-118V-664Z"/>
</g>
<g id="font_10_27">
<path transform="matrix(.001,0,0,-.001,0,0)" d="M182-550H69V-437H182V-550ZM182 0V-113H69V0H182Z"/>
</g>
<g id="font_10_1">
</g>
<g id="font_11_230">
<path transform="matrix(.001,0,0,-.001,0,0)" d="M853-182C763-268 708-317 623-386 675-449 718-513 755-585 770-614 773-619 784-635L705-674C688-611 634-519 564-433 480-497 429-533 320-605L267-548C370-486 433-442 514-376 432-292 345-226 221-156 244-137 261-118 279-96 407-174 486-237 572-329 657-256 704-212 796-116L853-182ZM935-61C909-56 885-55 834-55H177V-708H806C855-708 884-706 917-702V-788C886-783 859-781 806-781H200C157-781 128-782 94-786 97-755 98-724 98-682V-41C98 3 96 34 92 70H177V18H834C879 18 905 20 935 25V-61Z"/>
</g>
<g id="font_11_24">
<path transform="matrix(.001,0,0,-.001,0,0)" d="M168-485H350C390-485 421-484 449-482 447-508 446-532 446-573V-706C446-745 447-771 449-801 421-798 397-797 347-797H194C144-797 118-798 90-801 93-769 94-740 94-690V-43C94 14 92 45 88 73H174C170 47 168 15 168-42V-485ZM168-739H377V-669H168V-739ZM168-612H377V-541H168V-612ZM909-691C909-736 910-761 914-801 885-798 861-797 809-797H636C586-797 562-798 534-801 536-771 537-741 537-706V-573C537-535 536-510 534-482 560-484 594-485 633-485H836V-38C836-15 828-10 788-10 767-10 726-14 678-20 689 6 694 24 699 57 719 58 775 60 796 60 886 60 909 41 909-31V-691ZM606-739H836V-669H606V-739ZM606-612H836V-541H606V-612ZM690-319C690-357 691-384 693-411 664-408 640-407 596-407H402C358-407 333-408 304-411 306-382 307-354 307-319V-90C307-49 306-22 302 6H377V-60H593C635-60 662-59 693-57 691-83 690-109 690-147V-319ZM377-347H621V-267H377V-347ZM377-207H621V-120H377V-207Z"/>
</g>
<g id="font_12_247">
<path transform="matrix(.001,0,0,-.001,0,0)" d="M239-567H156C114-567 90-568 61-573V-493C91-497 117-499 155-499H226C203-433 197-417 175-374 135-293 92-234 34-178 53-159 66-141 82-113 122-159 143-187 166-227 201-286 221-331 243-401 241-356 238-278 238-249V-53C238 9 237 39 232 71H319C315 42 313 8 313-53V-256C311-337 309-390 308-414 343-337 376-288 433-228 452-260 461-271 480-289 426-334 396-367 359-423 338-453 330-467 317-499H384C422-499 445-498 470-494V-572C448-568 425-567 384-567H313V-711C363-726 391-734 420-746 449-758 465-764 476-768L426-833C372-794 221-752 64-732 81-707 89-689 94-662 163-675 188-680 239-692V-567ZM586-29H837V41H918C914 11 912-32 912-83V-643C912-691 913-720 917-749 888-745 864-744 821-744H601C559-744 538-745 506-749 510-720 511-688 511-643V-76C511-25 509 10 506 41H586V-29ZM586-671H837V-101H586V-671Z"/>
</g>
<g id="font_10_12">
<path transform="matrix(.001,0,0,-.001,0,0)" d="M373-234H614V-316H373V-556H290V-316H50V-234H290V6H373V-234Z"/>
</g>
<g id="font_13_70">
<path transform="matrix(.001,0,0,-.001,0,0)" d="M522-644H799C836-644 866-642 901-638V-719C873-715 844-713 799-713H522V-740C522-777 524-807 529-833H436C441-805 443-772 443-735V-522H289C243-522 207-524 176-527 179-501 180-480 180-449V-282C180-255 179-234 176-209 206-212 234-213 277-213H725C769-213 795-212 826-209 823-233 822-251 822-283V-449C822-482 823-505 826-527 798-523 768-522 714-522H522V-644ZM746-452V-284H257V-452H746ZM117 74C176 3 208-55 244-151L174-179C157-126 147-103 122-63 98-23 83-4 46 32L117 74ZM438 59C434-17 427-68 409-159L340-148C356-64 360-22 360 74L438 59ZM684 45C658-33 636-88 598-167L532-147C570-62 590-4 607 75L684 45ZM935 32C880-67 860-100 801-182L735-154C792-74 819-25 863 73L935 32Z"/>
</g>
<g id="font_14_210">
<path transform="matrix(.001,0,0,-.001,0,0)" d="M469-726V-636H264C202-636 178-637 148-641 151-608 152-578 152-531V-353C152-314 151-281 148-246 180-250 209-251 263-251H446C436-208 422-179 396-144 358-173 325-206 306-235L238-197C246-189 253-182 261-173 298-134 309-124 347-94 308-62 273-41 223-22 172-3 131 7 50 18 71 51 74 59 85 91 177 73 213 62 264 40 320 16 363-12 407-51 547 33 705 71 932 73 940 40 947 18 962-10 924-9 905-8 886-8 713-8 569-40 455-104 487-147 505-189 520-251H746C801-251 828-250 860-246 857-279 856-308 856-353V-531C856-577 857-606 860-640 830-637 806-636 744-636H544V-726H836C874-726 912-724 946-720V-800C913-796 879-794 836-794H167C122-794 86-796 56-800V-720C95-724 125-726 167-726H469ZM468-572 466-478H224V-572H468ZM783-572V-478H541C542-513 543-527 543-572H783ZM465-416C462-373 461-356 457-315H224V-416H465ZM783-416V-315H531C535-348 536-369 539-416H783Z"/>
</g>
<g id="font_15_7">
<path transform="matrix(.001,0,0,-.001,0,0)" d="M628-522V-682C760-704 828-721 911-754 937-764 937-764 947-767L886-835C863-818 836-806 796-793 712-766 612-747 555-747 554-747 551-747 547-747 551-718 553-677 553-612 553-373 543-241 520-153 500-79 472-23 429 31 458 47 470 56 497 80 587-44 625-197 627-452H769V-25C769 26 767 51 763 80H851C846 54 845 28 845-25V-452H878C919-452 940-451 965-447V-528C941-524 917-522 873-522H628ZM251-441C252-430 253-425 253-417V-341H137C94-341 75-342 50-347V-270C76-274 93-275 135-275H226C200-229 187-210 158-178 120-136 82-104 32-72 49-52 61-31 73-3 160-68 212-128 257-215 254-181 253-159 253-136V-6C253 27 251 53 247 78H329C325 51 324 27 324-7V-139C324-164 323-177 320-224 355-169 371-152 437-95 450-122 458-136 476-160 410-202 377-232 346-275H424C464-275 483-274 508-270V-347C481-342 461-341 424-341H324V-417C324-424 324-429 325-441H428C466-441 485-440 513-436V-514C489-510 468-509 428-509H378C402-550 422-591 444-647L373-669C359-609 342-567 309-509H134C93-509 73-510 49-514V-436C72-440 96-441 134-441H251ZM328-744V-768C328-802 329-817 333-838H247C251-814 252-800 252-767V-744H159C113-744 91-745 69-749V-671C96-675 115-676 157-676H413C454-676 472-675 501-671V-749C476-745 457-744 414-744H328ZM243-537C227-591 216-619 190-668L126-646C150-603 162-574 179-515L243-537Z"/>
</g>
<g id="font_16_119">
<path transform="matrix(.001,0,0,-.001,0,0)" d="M216-131C216-148 215-152 215-174 214-201 213-249 213-269 213-383 221-487 236-575 250-653 268-727 286-774L191-787C189-762 187-752 177-702 145-554 133-446 133-306 133-205 140-131 159-21 162-1 163 5 165 21L252 15C251 7 251 0 251-4 251-65 285-180 335-286L275-314C243-235 227-187 217-131H216ZM405-588C413-587 415-587 421-586 436-584 436-584 439-584 490-579 522-577 573-577 647-577 725-582 786-590 829-596 852-599 855-599L850-684C789-667 693-657 576-657 499-657 453-661 407-672L405-588ZM477-401C415-329 388-271 388-212 388-176 399-141 418-116 460-62 535-37 653-37 720-37 787-43 859-56 880-60 882-60 895-62L886-153C829-131 743-118 653-118 532-118 470-152 470-220 470-264 493-310 545-367L477-401Z"/>
</g>
<g id="font_13_167">
<path transform="matrix(.001,0,0,-.001,0,0)" d="M216-557V-337C137-307 85-291 46-285L69-201C82-208 82-208 216-261V-28C216 15 213 57 209 81H296C291 47 289 12 289-28V-292C345-318 353-321 381-337V-278C411-282 437-284 479-284H759V-34C759-10 753-6 717-6 688-6 647-10 601-18 612 9 616 27 619 62 658 65 689 66 717 66 807 66 833 48 833-14V-284H854C895-284 922-282 952-278V-358C927-353 900-352 854-352H833V-458H853C892-458 927-456 953-452V-532C927-528 896-526 849-526H687V-650H817C856-650 887-648 914-645V-724C888-720 858-718 817-718H687V-757C687-788 689-811 693-835H607C611-811 613-786 613-756V-718H511C470-718 440-720 414-724V-645C440-648 472-650 511-650H613V-526H480C433-526 401-528 375-532V-452C402-456 433-458 480-458H759V-352H485C437-352 407-354 382-358L375-406C302-373 302-373 289-367V-557H312C342-557 367-556 393-552V-632C370-628 345-626 307-626H289V-753C289-787 291-811 296-836H209C214-810 216-786 216-753V-626H153C158-663 162-690 164-713 165-730 166-733 168-746L93-757C94-744 94-738 94-729 94-695 89-647 81-602 70-536 58-494 35-439 58-431 70-425 100-407 121-464 130-493 142-557H216ZM438-217C495-164 534-114 573-50L636-97C589-162 553-203 496-257L438-217Z"/>
</g>
<g id="font_17_66">
<path transform="matrix(.001,0,0,-.001,0,0)" d="M559-359C689-430 789-499 875-578 919-617 919-617 931-627L866-691C832-646 796-611 733-560 677-516 616-476 559-447V-714C559-759 561-797 565-825H475C478-799 481-758 481-714V-52C481 30 508 44 671 44 828 44 877 35 904 0 927-29 940-89 951-204 926-210 907-218 875-236 868-126 859-76 842-54 828-36 790-30 681-30 574-30 559-35 559-68V-359ZM206-49C206-3 204 35 199 76H290C286 36 284-8 284-47V-574C325-665 344-711 361-757 377-800 377-800 383-813L296-838C291-798 284-772 263-718 213-593 143-490 42-389 60-367 75-342 88-314 142-373 180-422 208-472 206-420 206-402 206-353V-49Z"/>
</g>
<g id="font_18_125">
<path transform="matrix(.001,0,0,-.001,0,0)" d="M207-242C121-242 51-172 51-87 51-1 121 69 207 69 293 69 362 0 362-87 362-173 293-242 207-242ZM207-178C257-178 297-137 297-87 297-37 256 4 207 4 157 4 116-37 116-87 116-137 157-178 207-178Z"/>
</g>
<g id="font_10_18">
<path transform="matrix(.001,0,0,-.001,0,0)" d="M159-683C191-687 217-689 251-689H303V-118C303-71 301-37 295 0H406C400-39 398-70 398-118V-610C398-665 401-716 407-776 373-772 356-771 318-771H247C207-771 187-772 159-776V-683Z"/>
</g>
<g id="font_10_22">
<path transform="matrix(.001,0,0,-.001,0,0)" d="M208-690H443C493-690 526-688 566-682V-779C525-773 501-771 442-771H226C169-771 149-772 119-776 121-745 121-744 121-741 121-713 121-706 117-673L95-441C92-401 89-382 81-337L170-329C179-350 184-358 197-371 232-407 283-428 333-428 444-428 510-362 510-252 510-141 438-68 329-68 273-68 225-88 193-124 179-141 172-154 162-183L64-157C87-107 101-85 127-59 177-10 244 15 328 15 499 15 607-90 607-256 607-407 507-506 355-506 286-506 230-484 181-438 187-466 187-466 188-483L208-690Z"/>
</g>
<g id="font_14_237">
<path transform="matrix(.001,0,0,-.001,0,0)" d="M709-455V-37C709-17 702-13 667-13 628-13 583-17 528-25 539 3 544 24 548 56 591 59 632 60 668 60 763 60 789 41 789-28V-455H842C888-455 928-453 954-449V-531C930-527 893-525 841-525H493C445-525 405-527 379-531V-449C404-453 446-455 493-455H709ZM279-837C264-803 242-773 200-729 155-683 117-652 54-614 77-595 88-580 105-552 200-619 269-685 333-769 341-780 343-783 350-790L279-837ZM419-700C449-704 486-706 526-706H805C844-706 879-704 910-700V-782C881-778 850-776 804-776H526C480-776 445-778 419-782V-700ZM199-48C199 4 197 46 192 75H284C279 46 277 4 277-48V-450C303-480 318-500 341-535 357-559 362-566 372-579L301-622C290-594 275-567 251-535 191-456 128-395 52-344 70-323 82-303 94-273 139-307 169-336 202-377 200-325 199-297 199-258V-48Z"/>
</g>
<g id="font_19_63">
<path transform="matrix(.001,0,0,-.001,0,0)" d="M155-392V-61C113-57 83-55 65-55 61-55 55-55 48-56L65 21C101 13 112 11 210-3 287-13 287-13 417-37V-16C417 30 415 56 411 79H492C487 53 486 30 486-17V-392H858C900-392 922-391 954-386V-460C927-455 905-454 858-454H143C96-454 74-455 48-460V-386C79-391 101-392 142-392H155ZM225-392H417V-329H225V-392ZM225-274H417V-208H225V-274ZM225-153H417V-96C326-80 313-79 225-69V-153ZM860-334C844-331 821-330 784-330H603C562-330 540-331 518-334V-265C546-268 561-269 589-269H807C773-207 752-178 711-135 672-176 651-208 625-266L565-239C609-154 619-139 662-92 612-51 572-29 499 0 520 20 530 34 544 62 617 27 656 3 711-44 765 2 819 33 908 70 920 45 934 22 950 2 869-23 813-51 761-90 807-138 839-184 882-262 889-277 892-281 899-291L860-334ZM839-722C839-759 840-781 843-803 809-800 782-799 735-799H272C226-799 199-800 164-803 167-780 168-757 168-722V-585C168-550 167-527 164-503 201-506 225-507 270-507H742C780-507 812-506 843-503 840-527 839-549 839-585V-722ZM240-741H767V-681H240V-741ZM240-625H767V-563H240V-625Z"/>
</g>
<g id="font_20_25">
<path transform="matrix(.001,0,0,-.001,0,0)" d="M578-666V-591H440C399-591 375-592 343-596 346-563 347-541 347-502V-431C347-393 346-372 343-340 369-343 393-344 439-344H545C514-313 503-302 482-285 421-236 371-207 290-172 312-148 320-137 336-109 404-145 436-166 483-204 524-237 544-257 581-301 579-275 578-255 578-219V-135C578-105 576-82 572-58H652C648-85 647-105 647-136V-218C647-252 646-281 643-302 686-253 709-230 754-196 809-154 846-132 924-96 936-126 943-139 964-167 877-199 830-223 769-267 736-291 717-307 680-344H803C851-344 875-343 899-340 896-366 895-389 895-433V-506C895-547 896-570 899-596 867-592 844-591 805-591H647V-666H857C899-666 916-665 943-661V-739C915-734 896-733 847-733H647V-766C647-792 648-813 652-833H572C576-813 578-789 578-763V-733H409C360-733 337-734 310-739V-661C336-665 357-666 400-666H578ZM578-527V-407H418V-527H578ZM647-527H823V-407H647V-527ZM64-766C131-703 170-658 223-581L283-637C226-710 188-751 120-816L64-766ZM55-364C79-368 96-369 126-369H186V-134C135-85 73-40 30-20L68 59C82 47 93 38 108 27 151-5 175-26 222-73 256-23 284 2 331 22 388 46 445 52 629 52 739 52 854 50 949 46 955 6 957 1 974-41 871-27 725-20 530-20 370-20 311-45 260-135V-335C260-386 261-409 264-442 240-438 219-437 188-437H133C95-437 81-438 55-442V-364Z"/>
</g>
<g id="font_21_186">
<path transform="matrix(.001,0,0,-.001,0,0)" d="M849-637C826-627 825-626 772-620L408-576V-702C408-745 409-766 414-795H276C281-761 282-750 282-700V-563L176-550C149-546 106-543 88-543 83-543 75-543 64-544L77-420C110-429 110-429 188-439L282-451V-222C282-142 283-127 292-96 303-53 337-16 378-4 416 7 475 13 556 13 622 13 696 8 804-4 830-7 838-7 865-8L859-143C776-118 667-104 552-104 450-104 418-115 411-154 408-171 408-171 407-240V-465C511-480 614-493 715-505 730-507 737-508 753-511 735-481 729-472 715-452 671-394 619-349 550-311 596-284 611-273 650-230 766-316 837-400 895-522 909-551 911-554 923-571L849-637Z"/>
</g>
<g id="font_21_175">
<path transform="matrix(.001,0,0,-.001,0,0)" d="M819-660 862-676C835-742 812-782 773-834L699-809C731-766 749-734 772-684 764-683 747-682 720-682L501-679C481-679 465-678 453-677L461-692C463-696 463-697 468-706 478-726 487-746 495-764 504-783 505-785 512-794L375-822C372-790 354-743 324-689 253-561 173-471 65-399 117-367 132-354 162-313 245-374 340-478 396-570L697-574C617-314 448-135 186-35 227 1 245 23 271 70 415 7 538-81 627-183 721-294 769-383 828-561 839-596 844-608 853-621L819-660ZM992-721C968-780 945-820 904-873L832-848C865-803 894-752 918-693L992-721Z"/>
</g>
<g id="font_22_244">
<path transform="matrix(.001,0,0,-.001,0,0)" d="M820-544C863-544 904-542 941-537V-655C908-650 871-648 820-648H551V-743C551-781 553-807 558-835H428C433-807 435-781 435-742V-648H180C132-648 98-650 60-655V-537C98-542 135-544 180-544H399C328-391 189-245 23-149 53-120 73-92 97-47 258-158 365-278 440-432 437-393 435-348 435-323V-45C435 4 433 42 428 80H558C553 44 551 4 551-44V-324C551-355 549-392 544-437 594-344 639-280 706-210 755-159 809-114 899-51 929-104 938-116 976-157 796-255 673-378 587-544H820Z"/>
</g>
<g id="font_10_78">
<path transform="matrix(.001,0,0,-.001,0,0)" d="M173 0C168-41 166-69 166-118V-315C166-335 184-385 201-410 232-455 279-483 324-483 395-483 432-438 432-351V-118C432-66 430-36 425 0H530C525-36 523-65 523-117V-315C523-340 540-388 558-414 588-458 632-483 679-483 707-483 730-477 747-465 777-444 788-412 788-351V-118C788-63 787-40 781 0H886C881-36 879-65 879-117V-365C879-427 868-468 841-501 810-541 760-561 694-561 609-561 555-531 505-457 495-485 489-497 474-512 444-545 401-561 344-561 264-561 200-527 164-464 164-470 164-470 165-479 165-482 166-497 166-500V-550H69C74-514 76-487 76-432V-118C76-68 74-38 69 0H173Z"/>
</g>
<g id="font_10_74">
<path transform="matrix(.001,0,0,-.001,0,0)" d="M69-771V-671H180V-771H69ZM71-550C76-515 78-482 78-432V-118C78-72 76-44 71 0H177C172-42 170-70 170-118V-431C170-485 172-514 177-550H71Z"/>
</g>
<g id="font_10_79">
<path transform="matrix(.001,0,0,-.001,0,0)" d="M174 0C169-40 167-74 167-118V-314C178-355 191-379 218-411 259-460 302-482 354-482 430-482 469-437 469-349V-118C469-71 467-42 462 0H567C562-34 560-65 560-117V-363C560-416 550-455 530-486 497-534 440-560 367-560 278-560 215-525 165-448 167-473 167-478 167-491V-550H69C75-510 77-481 77-432V-118C77-67 75-40 69 0H174Z"/>
</g>
<g id="font_10_16">
<path transform="matrix(.001,0,0,-.001,0,0)" d="M380-771 19 153H108L468-771H380Z"/>
</g>
<g id="font_10_66">
<path transform="matrix(.001,0,0,-.001,0,0)" d="M432 0H527C521-42 519-66 519-115V-393C519-448 506-486 476-514 440-549 385-566 309-566 232-566 171-548 127-511 98-488 83-465 65-415L158-397C167-424 174-437 187-451 214-479 254-493 308-493 393-493 432-461 432-393V-341C302-338 247-331 187-312 101-284 52-224 52-147 52-50 121 9 233 9 272 9 309 3 343-10 376-22 394-34 432-67V0ZM432-213C432-176 423-152 399-127 360-87 300-62 245-62 182-62 143-95 143-147 143-193 168-225 218-245 262-263 318-270 432-273V-213Z"/>
</g>
<g id="font_10_89">
<path transform="matrix(.001,0,0,-.001,0,0)" d="M542 0C506-46 481-80 470-96L334-285 463-466C472-480 495-511 501-519 518-541 518-541 524-550H411C401-529 388-506 370-480L280-348 188-480C170-506 160-525 148-550H33C74-496 87-480 95-469L225-286 83-88C66-64 37-25 17 0H134C151-32 159-46 174-68L279-222 379-76C401-45 410-30 425 0H542Z"/>
</g>
<g id="font_10_72">
<path transform="matrix(.001,0,0,-.001,0,0)" d="M65 106C131 179 197 207 300 207 392 207 471 180 514 134 559 87 578 23 578-83V-434C578-483 580-509 585-550H491V-499C491-488 491-481 493-465 451-527 387-559 303-559 145-559 45-450 45-280 45-111 143-4 298-4 357-4 411-21 450-51 467-65 477-77 493-103 491-37 484 6 473 34 447 98 386 133 302 133 232 133 182 109 140 54L65 106ZM138-278C138-405 204-484 311-484 418-484 489-405 489-286 489-162 414-78 305-78 202-78 138-155 138-278Z"/>
</g>
<g id="font_10_68">
<path transform="matrix(.001,0,0,-.001,0,0)" d="M543-402C532-431 523-448 508-469 464-532 394-565 307-565 148-565 44-449 44-273 44-98 149 14 311 14 396 14 464-16 509-75 526-97 536-116 550-154L461-176C453-151 448-139 440-126 414-86 369-64 314-64 205-64 136-146 136-275 136-406 203-489 310-489 381-489 428-453 455-377L543-402Z"/>
</g>
<g id="font_10_69">
<path transform="matrix(.001,0,0,-.001,0,0)" d="M498 0H594C589-39 587-69 587-121V-652C587-698 589-729 594-771H491C496-733 498-701 498-652V-531C498-515 498-499 499-492 500-475 500-475 501-464 456-528 386-562 297-562 142-562 44-451 44-276 44-183 72-105 124-53 167-11 226 10 299 10 388 10 450-20 501-88 500-75 498-57 498-45V0ZM308-484C361-484 409-465 444-430 478-397 497-342 497-279 497-151 423-67 309-67 267-67 228-80 199-105 160-139 138-200 138-279 138-406 202-484 308-484Z"/>
</g>
<g id="font_16_142">
<path transform="matrix(.001,0,0,-.001,0,0)" d="M119-333C132-332 134-331 152-327 195-316 240-309 299-302 294-245 294-242 294-210 294-130 316-72 361-33 408 7 474 28 557 28 735 28 858-70 858-212 858-263 842-312 811-358 800-374 789-388 764-415 731-401 717-398 677-394 741-339 772-282 772-221 772-118 688-52 556-52 497-52 451-66 419-93 390-119 376-156 376-209 376-225 378-257 380-277 381-290 381-290 381-297 426-294 438-294 459-294 505-294 558-297 604-302 619-304 622-304 632-305L635-386C593-375 521-368 449-368 433-368 423-368 387-370 392-415 394-432 410-539 461-537 473-537 488-537 514-537 554-539 583-541 637-546 637-546 656-548L659-631C612-618 543-612 461-612 454-612 451-612 422-613 425-635 427-647 431-671 439-722 439-722 441-731 447-769 450-779 456-798L361-808C361-803 361-803 361-800V-794C361-771 352-703 338-618 267-624 200-638 158-656L149-577C164-574 171-573 181-570 250-555 265-552 329-544 321-496 311-419 306-375 219-386 170-397 128-414L119-333Z"/>
</g>
<g id="font_10_48">
<path transform="matrix(.001,0,0,-.001,0,0)" d="M404-786C189-786 50-629 50-386 50-141 188 15 403 15 619 15 757-142 757-386 757-631 620-786 404-786ZM405-69C249-69 147-195 147-386 147-578 248-702 404-702 470-702 529-679 573-635 629-579 659-493 659-385 659-192 560-69 405-69Z"/>
</g>
<g id="font_10_44">
<path transform="matrix(.001,0,0,-.001,0,0)" d="M356-451 572-667C626-723 640-736 676-771H537C521-743 504-722 466-684L176-389V-654C176-705 178-739 185-771H75C81-732 83-703 83-654V-117C83-68 81-38 75 0H185C178-38 176-64 176-117V-276L290-389 516-91C542-58 561-28 576 0H712C684-28 674-40 617-115L356-451Z"/>
</g>
<g id="font_23_103">
<path transform="matrix(.001,0,0,-.001,0,0)" d="M99-772C169-727 213-690 269-629L318-691C257-749 217-781 148-826L99-772ZM48-530C122-485 158-456 223-391L268-457C197-519 160-546 93-586L48-530ZM202-309C158-172 107-68 54-11L123 49C129 37 141 14 152-6 195-84 224-149 265-264L202-309ZM483-493C553-408 579-367 625-265L691-315C638-408 601-464 541-535L483-493ZM463-722H711V-43C711-4 715 9 730 21 746 33 775 38 825 38 892 38 922 28 939 1 957-28 963-67 971-207 943-214 931-220 899-239 898-162 893-94 888-68 881-38 872-33 832-33 793-33 787-36 787-54V-690C787-735 788-765 792-795 763-792 733-791 686-791H484C438-791 406-792 383-795 387-756 388-735 388-657 388-498 385-424 374-331 362-224 345-167 308-100 285-59 266-36 224 3 253 23 267 37 284 64 349-3 384-60 412-140 445-237 463-390 463-593V-722Z"/>
</g>
<g id="font_12_74">
<path transform="matrix(.001,0,0,-.001,0,0)" d="M544-251H823V-39C823-15 815-10 769-10 735-10 688-14 633-21 644 10 648 28 651 55 690 58 736 60 768 60 874 60 898 44 898-25V-692C898-740 899-764 902-794 872-791 845-790 793-790H249C197-790 168-791 138-794 141-758 142-728 142-675 142-210 125-103 33 21 65 41 75 48 102 74 168-30 193-108 207-251H470V-68C470-14 469 14 465 43H549C545 17 544-15 544-69V-251ZM544-556V-718H823V-556H544ZM470-556H217L218-603V-718H470V-556ZM544-486H823V-322H544V-486ZM470-486V-322H212C214-367 214-367 215-421 215-435 215-458 216-486H470Z"/>
</g>
<g id="font_16_197">
<path transform="matrix(.001,0,0,-.001,0,0)" d="M789-423C842-423 880-421 912-418V-508C877-503 847-501 788-501H212C154-501 126-503 88-508V-418C124-422 150-423 210-423H470C467-345 452-271 429-223 387-136 308-75 180-34 210-5 219 8 237 44 319 11 368-17 413-55 486-117 529-197 548-308 556-352 560-391 561-423H789ZM189-666C219-670 252-671 311-671H691C744-671 786-669 814-666V-756C780-750 756-749 690-749H312C247-749 223-750 189-756V-666Z"/>
</g>
<g id="font_16_242">
<path transform="matrix(.001,0,0,-.001,0,0)" d="M146-650C235-597 315-532 390-452L451-527C378-598 316-646 205-717L146-650ZM161 3C183-4 191-6 223-13 384-49 496-93 598-163 732-254 825-370 907-548 872-571 861-582 833-617 751-402 619-257 428-172 335-131 215-100 135-97L161 3Z"/>
</g>
<g id="font_16_214">
<path transform="matrix(.001,0,0,-.001,0,0)" d="M252-706C190-706 168-707 128-713V-618C163-622 192-624 250-624H744C689-409 593-266 432-159 357-109 298-82 208-54 240-23 249-9 268 29 405-26 492-78 584-163 705-275 782-408 834-599L840-620C850-617 862-615 873-615 936-615 987-666 987-729 987-792 936-843 873-843 810-843 759-792 759-729 759-721 760-713 761-706H252ZM873-799C911-799 943-767 943-729 943-691 911-659 873-659 835-659 803-691 803-729 803-767 835-799 873-799Z"/>
</g>
<g id="font_16_235">
<path transform="matrix(.001,0,0,-.001,0,0)" d="M220-773C224-743 224-743 224-668L222-115C221-72 220-60 214-40L261 18C275 12 286 9 320 3 591-50 744-146 881-352 851-377 842-387 814-427 758-322 693-252 596-190 516-139 427-107 313-87L317-670C317-725 318-748 322-773H220Z"/>
</g>
<g id="font_18_150">
<path transform="matrix(.001,0,0,-.001,0,0)" d="M83-333C118-337 143-338 222-338H782C851-338 880-337 918-333V-432C883-427 863-426 783-426H221C152-426 115-428 83-432V-333Z"/>
</g>
<g id="font_16_199">
<path transform="matrix(.001,0,0,-.001,0,0)" d="M388 35C384 4 383-28 383-81V-342C383-382 382-399 379-424 393-415 397-414 412-407 554-347 692-273 780-211L830-298C660-396 524-459 383-509V-687C383-743 384-771 388-800H287C292-774 293-750 293-690V-81C293-24 292 2 287 35H388Z"/>
</g>
<g id="font_12_149">
<path transform="matrix(.001,0,0,-.001,0,0)" d="M463-729V-608H192C151-608 125-609 99-612 102-582 103-555 103-516V-39C103 3 101 44 97 77H186C182 48 180 8 180-34V-541H463V-186H353V-387C353-416 354-437 357-458H277C280-436 281-416 281-387V-124C281-86 279-55 276-29H350V-120H653V-74H726C723-95 722-117 722-157V-387C722-418 723-437 726-458H646C649-436 650-414 650-385V-186H535V-541H823V-34C823-11 817-7 786-7 755-7 707-12 667-19 679 8 686 30 688 59 761 63 766 63 781 63 833 63 857 59 874 49 894 36 900 19 900-24V-518C900-559 901-585 904-612 877-609 851-608 808-608H535V-729H843C887-729 919-727 953-723V-804C921-800 885-798 841-798H158C114-798 79-800 47-804V-723C72-727 115-729 158-729H463Z"/>
</g>
<g id="font_24_91">
<path transform="matrix(.001,0,0,-.001,0,0)" d="M452-672H175C125-672 92-674 59-679V-591C87-595 125-597 175-597H373C365-388 327-257 245-153 191-84 136-41 48 4 78 30 89 42 106 72 157 42 177 28 208 2 261-42 304-89 336-138 384-211 411-280 433-391H735C729-256 722-178 706-102 691-30 683-19 639-19 596-19 546-24 490-34 502-3 505 12 509 50 561 55 612 58 645 58 734 58 758 37 780-54 797-124 813-266 818-396 819-443 819-443 823-469 798-465 773-464 719-464H445C452-513 454-532 458-597H833C892-597 921-596 948-591V-679C917-674 883-672 831-672H533V-743C533-782 535-809 540-830H445C450-805 452-777 452-743V-672Z"/>
</g>
<g id="font_16_116">
<path transform="matrix(.001,0,0,-.001,0,0)" d="M308-790C314-774 315-769 324-726 348-607 368-530 395-449 333-418 301-398 263-366 206-319 174-258 174-197 174-129 204-73 258-42 318-8 397 6 526 6 599 6 650 3 754-8 809-14 809-14 830-14L821-113C757-91 642-77 527-77 459-77 394-83 360-92 296-109 264-143 264-195 264-234 283-272 316-302 359-339 423-375 501-405 613-448 736-487 811-503L777-593C759-583 755-582 711-566 535-506 535-506 474-481 440-582 405-738 401-807L308-790Z"/>
</g>
<g id="font_9_48">
<path transform="matrix(.001,0,0,-.001,0,0)" d="M417-800C311-800 228-768 159-700 85-628 45-517 45-388 45-134 191 29 418 29 645 29 792-135 792-388 792-518 753-627 680-700 612-768 527-800 417-800ZM420-90C359-90 306-111 265-151 213-203 184-287 184-387 184-568 275-682 419-682 479-682 532-661 573-621 624-570 652-489 652-388 652-204 563-90 420-90Z"/>
</g>
<g id="font_9_9">
<path transform="matrix(.001,0,0,-.001,0,0)" d="M380 105C322 20 298-25 276-93 255-159 244-232 244-310 244-389 255-462 278-531 300-601 324-646 382-730L276-798C207-699 178-644 151-561 125-484 112-399 112-312 112-207 130-111 170-14 197 54 220 95 276 176L380 105Z"/>
</g>
<g id="font_9_77">
<path transform="matrix(.001,0,0,-.001,0,0)" d="M62-784C67-746 69-714 69-654V-118C69-60 67-31 62 12H207C202-32 200-65 200-118V-653C200-713 202-745 207-784H62Z"/>
</g>
<g id="font_9_80">
<path transform="matrix(.001,0,0,-.001,0,0)" d="M337 31C515 31 632-91 632-276 632-461 517-579 336-579 154-579 38-460 38-274 38-87 154 31 337 31ZM336-475C442-475 503-401 503-272 503-150 439-75 335-75 231-75 167-151 167-274 167-399 231-475 336-475Z"/>
</g>
<g id="font_9_72">
<path transform="matrix(.001,0,0,-.001,0,0)" d="M50 104C118 181 184 208 301 208 404 208 487 185 537 144 595 95 621 18 621-102V-437C621-491 623-519 628-562H494V-516C494-505 494-503 496-483 453-544 394-571 305-571 143-571 38-459 38-286 38-115 140-6 299-6 386-6 445-34 495-97 493-29 486 6 469 36 441 84 382 111 305 111 233 111 189 89 150 35L50 104ZM169-283C169-402 231-477 331-477 367-477 400-464 428-441 468-407 488-357 488-293 488-247 479-210 460-179 432-132 376-100 321-100 283-100 240-118 215-145 185-175 169-224 169-283Z"/>
</g>
<g id="font_9_1">
</g>
<g id="font_9_79">
<path transform="matrix(.001,0,0,-.001,0,0)" d="M206 12C200-31 198-69 198-118V-320C242-419 301-469 373-469 411-469 441-454 457-428 469-409 474-382 474-340V-118C474-67 472-33 467 12H612C606-25 604-63 604-118V-358C604-425 594-465 570-498 534-547 477-572 400-572 310-572 257-544 196-466 198-491 198-494 198-509V-562H62C68-521 70-487 70-432V-118C70-62 68-31 62 12H206Z"/>
</g>
<g id="font_9_10">
<path transform="matrix(.001,0,0,-.001,0,0)" d="M130 176C186 95 209 54 237-14 276-111 294-206 294-312 294-400 281-483 256-561 228-644 199-699 130-798L24-730C82-646 106-601 128-531 151-462 162-389 162-310 162-231 151-160 130-93 108-25 84 20 26 105L130 176Z"/>
</g>
<g id="font_16_115">
<path transform="matrix(.001,0,0,-.001,0,0)" d="M90-579C143-590 225-598 419-611 527-618 575-623 639-633 470-557 371-427 371-281 371-191 413-115 490-65 549-28 608-8 711 9 727 11 731 12 743 15L757-82C709-82 657-91 607-108 507-141 456-201 456-289 456-383 513-475 615-544 694-597 789-629 870-629H882L875-718C859-714 819-710 758-708 593-701 319-685 179-675 148-673 135-672 121-672L85-673 90-579ZM704-485C745-439 777-389 808-327L867-360C832-425 809-459 762-515L704-485ZM820-539C864-487 894-442 923-384L981-417C945-483 923-514 876-569L820-539Z"/>
</g>
<g id="font_14_251">
<path transform="matrix(.001,0,0,-.001,0,0)" d="M453-756H163C119-756 91-758 60-762V-686C92-690 119-691 160-691H837C879-691 906-690 938-686V-762C908-758 879-756 837-756H530V-774C530-799 532-819 536-840H447C451-819 453-798 453-774V-756ZM222-498C222-461 221-443 219-421 249-424 272-425 310-425H692C734-425 756-424 784-421 781-444 781-454 781-498V-562C781-597 782-612 784-639 756-636 737-635 698-635H314C270-635 245-636 219-639 221-616 222-596 222-563V-498ZM295-573H708V-486H295V-573ZM92-23C92 17 90 56 86 81H174C169 45 168 23 168-24V-305H833V-25C833-5 828-2 798-2 765-2 722-5 682-11 692 15 695 30 697 61 752 64 784 65 792 65 847 65 868 61 885 49 903 36 909 17 909-21V-283C909-320 910-341 913-372 887-369 864-368 816-368H188C146-368 118-369 88-372 91-344 92-314 92-282V-23ZM703-185C703-217 704-233 706-252 677-250 658-249 620-249H370C334-249 313-250 289-252 291-231 292-212 292-181V-76C292-39 290-14 287 7H364V-47H616C650-47 682-46 706-44 704-64 703-79 703-114V-185ZM363-189H634V-107H363V-189Z"/>
</g>
<g id="font_25_123">
<path transform="matrix(.001,0,0,-.001,0,0)" d="M260-695C267-727 270-747 274-772 279-801 281-812 286-830L205-836C205-830 205-828 205-822 205-782 189-694 170-625 140-518 102-439 41-357 65-335 72-327 92-292 134-354 152-385 179-447 200-371 230-289 257-231 237-198 216-167 188-134 143-81 111-51 38 5 57 23 73 45 87 74 185-9 238-69 297-160 309-142 318-130 331-115 400-29 463 5 590 27 650 37 735 44 797 44 837 44 920 42 957 39 962 5 967-12 983-45 911-39 849-36 795-36 530-36 416-82 333-222 394-337 431-469 444-610 449-670 449-670 453-698 430-696 415-695 374-695H260ZM372-630C357-480 337-394 294-301 259-387 249-418 220-548 229-576 237-604 244-630H372ZM730-705V-211C730-162 751-149 829-149 939-149 946-162 960-390 929-396 915-401 891-414 889-341 886-290 882-261 877-225 870-219 837-219 810-219 804-223 804-240V-689C804-730 805-757 808-778 789-775 761-774 716-774H600C564-774 547-775 532-778 534-760 536-727 536-687 536-546 529-445 516-374 499-290 475-240 422-180 451-162 463-151 486-125 545-201 572-266 590-372 604-457 609-544 610-705H730Z"/>
</g>
<g id="font_12_118">
<path transform="matrix(.001,0,0,-.001,0,0)" d="M615-28H415C366-28 344-29 318-33V45C350 41 372 40 422 40H862C912 40 934 41 965 45V-33C939-29 914-28 865-28H686V-162H829C877-162 900-161 928-157V-234C900-230 878-229 829-229H686V-334H800C857-334 881-333 917-330 914-358 913-394 913-460V-665C913-724 914-765 917-794 890-790 861-789 789-789H522C455-789 423-790 391-794 395-762 396-730 396-665V-448C395-353 395-353 392-330 420-333 452-334 515-334H615V-229H488C438-229 415-230 391-234V-157C417-161 439-162 489-162H615V-28ZM615-723V-593H466V-723H615ZM686-723H842V-593H686V-723ZM615-528V-400H466V-528H615ZM686-528H842V-400H686V-528ZM173-712V-488H127C97-488 81-489 58-493V-418C81-422 99-423 126-423H173V-156C105-131 74-121 39-114L61-32C73-38 77-40 101-49 237-103 272-118 362-162L358-237C305-211 287-202 246-185V-423H281C306-423 326-422 347-419V-493C325-489 309-488 281-488H246V-712H290C321-712 340-711 366-708V-786C341-781 320-780 282-780H133C93-780 70-782 46-786V-707C75-711 86-712 125-712H173Z"/>
</g>
<g id="font_24_220">
<path transform="matrix(.001,0,0,-.001,0,0)" d="M644-524V-743C644-778 645-803 649-826H565C568-802 570-777 570-743V-524H392C355-524 328-526 304-530V-452C329-455 358-457 391-457H541C514-415 504-401 484-377 428-309 367-257 286-205 311-181 321-168 336-143 382-175 413-201 454-243 502-291 529-327 574-397 570-364 570-350 570-305V-170C570-131 568-99 564-73H649C646-98 644-130 644-169V-304C644-346 643-372 640-398 690-322 720-286 771-239 818-196 852-168 901-136 916-167 926-183 947-208 864-256 809-299 748-362 720-391 705-409 670-457H845C878-457 912-455 943-452V-530C916-526 884-524 845-524H644ZM327-765C378-691 402-648 438-561L507-596C467-680 442-724 393-796L327-765ZM818-795C781-708 758-666 703-594L766-558C820-631 842-669 888-762L818-795ZM56-770C127-705 155-673 216-587L275-642C220-713 181-755 113-819L56-770ZM51-369C76-373 91-374 122-374H185V-140C130-87 76-47 29-25L67 54C81 41 81 41 95 30 99 27 103 24 106 21 132 1 132 1 140-5 169-29 189-48 219-78 250-33 280-6 319 12 379 41 433 47 623 47 734 47 865 44 948 40 956-5 957-6 973-46 870-32 748-26 567-26 367-26 305-49 259-139V-347C259-396 260-418 263-447 239-443 220-442 187-442H129C91-442 74-443 51-447V-369Z"/>
</g>
<g id="font_16_111">
<path transform="matrix(.001,0,0,-.001,0,0)" d="M178-334C210-348 226-353 288-367 408-396 483-407 552-407 668-407 729-360 729-272 729-185 662-112 549-75 491-57 411-44 350-44 346-44 342-44 335-44 354-9 359 4 366 38 493 22 514 19 575-1 722-49 811-149 811-267 811-310 799-353 778-386 739-450 665-482 560-482 475-482 386-469 253-438 185-423 184-422 158-420L178-334Z"/>
</g>
<g id="font_16_107">
<path transform="matrix(.001,0,0,-.001,0,0)" d="M105-557C120-557 120-557 123-557 125-557 127-557 130-557 157-556 184-555 192-555 225-555 262-556 275-556 236-353 163-137 90-8L178 29C232-100 260-177 292-284 320-376 346-485 360-560 412-564 478-573 527-583 548-587 548-587 556-588L552-670C503-654 450-645 374-637 379-663 381-674 387-708 399-779 399-779 405-803L311-813V-800C311-769 303-711 289-632 262-631 250-631 234-631 179-631 139-634 106-640L105-557ZM871-515C798-518 784-518 765-518 673-518 611-510 491-485L499-405C593-429 660-438 752-438 796-438 824-436 872-430L871-515ZM499-301C446-230 430-195 430-149 430-47 518 6 685 6 740 6 791 1 865-11 899-17 899-17 911-19L903-108C846-87 755-72 681-72 573-72 513-103 513-158 513-174 518-195 526-212 533-227 539-235 568-269L499-301Z"/>
</g>
<g id="font_16_149">
<path transform="matrix(.001,0,0,-.001,0,0)" d="M309-723C397-682 397-682 467-658 528-638 568-626 669-601L701-683C593-700 423-754 352-794L309-723ZM227-620C226-601 225-592 220-565 202-452 188-361 178-285 174-251 173-244 170-226L262-223C277-243 286-252 303-265 376-317 475-348 574-348 691-348 761-302 761-225 761-128 657-63 502-63 416-63 323-81 241-113 248-79 250-65 250-43V-32C250-27 250-23 250-19 368 11 416 18 504 18 611 18 692-3 756-48 815-89 851-157 851-226 851-345 745-424 586-424 475-424 366-394 298-344 283-333 277-328 263-313L262-314C264-323 265-325 267-337 285-468 304-569 317-614L227-620Z"/>
</g>
<g id="font_18_124">
<path transform="matrix(.001,0,0,-.001,0,0)" d="M43-151C122-87 178-27 246 70L314 5C243-88 191-141 106-209L43-151Z"/>
</g>
<g id="font_10_84">
<path transform="matrix(.001,0,0,-.001,0,0)" d="M41-152C51-110 59-92 75-70 114-17 185 11 279 11 423 11 511-53 511-158 511-202 490-243 455-269 425-291 388-304 296-324 236-337 212-345 189-357 168-368 156-388 156-410 156-460 205-494 275-494 319-494 353-481 375-457 388-443 393-431 399-406L493-420C479-466 466-490 439-513 402-546 345-564 274-564 203-564 147-546 109-509 81-483 65-447 65-409 65-361 87-321 128-295 163-273 197-262 275-246 351-229 367-225 389-211 409-199 419-178 419-152 419-97 366-62 284-62 235-62 198-74 173-96 154-114 146-130 139-167L41-152Z"/>
</g>
<g id="font_10_86">
<path transform="matrix(.001,0,0,-.001,0,0)" d="M460-550C465-510 467-476 467-432V-236C456-195 443-171 416-139 375-90 332-68 280-68 204-68 165-113 165-201V-432C165-479 167-508 172-550H67C72-516 74-485 74-433V-187C74-134 84-95 104-65 137-17 194 9 267 9 355 9 419-26 469-102 467-77 467-72 467-59V0H565C559-40 557-69 557-118V-432C557-483 559-510 565-550H460Z"/>
</g>
<g id="font_16_108">
<path transform="matrix(.001,0,0,-.001,0,0)" d="M97-551C105-552 114-552 122-552 149-550 176-550 184-550L267-551C228-347 155-131 82-2L170 34C224-94 252-172 284-278 312-370 338-479 352-555 404-558 470-567 519-577 540-582 540-582 548-583L544-665C495-649 442-639 366-632 371-657 373-669 379-703 391-774 391-774 397-797L303-807V-794C303-763 295-705 281-627 254-626 242-625 226-625 171-625 131-628 98-634L97-551ZM653-760C694-714 726-664 757-602L816-635C781-700 758-734 711-790L653-760ZM863-510 757-512C665-512 603-505 483-479L491-399C585-423 652-432 744-432 788-432 816-430 864-425L863-510ZM491-295C438-225 422-190 422-143 422-42 510 11 677 11 731 11 783 6 857-6L903-13 895-102C838-81 747-67 673-67 565-67 505-97 505-152 505-169 510-190 518-206 525-221 531-229 560-264L491-295ZM769-814C813-762 843-717 872-659L930-692C894-758 872-789 825-844L769-814Z"/>
</g>
<g id="font_16_93">
<path transform="matrix(.001,0,0,-.001,0,0)" d="M378-494C384-494 389-494 392-494 396-494 402-494 410-493 457-490 499-489 528-489 573-489 635-492 674-495 675-468 675-439 675-416 675-266 657-192 607-129 570-82 524-48 454-15 486 9 496 19 521 50 634-14 690-73 722-161 748-231 757-299 757-431 757-480 757-480 756-503 800-509 820-513 862-523 894-530 898-531 916-534L911-619C874-602 827-589 754-578 751-662 750-715 749-737 748-756 748-761 748-767 748-777 748-784 750-800L659-799C664-768 665-753 672-570 620-565 591-564 549-564 472-564 418-568 378-578V-494ZM190-787C190-765 189-756 182-717 151-526 143-450 143-334 143-226 155-128 180-29 185-10 186-6 188 6L270 1C270-34 278-69 299-128 319-186 345-248 375-307L311-337C263-230 252-199 235-130 234-148 232-176 231-194 226-248 224-295 224-338 224-478 252-676 285-775L190-787Z"/>
</g>
<g id="font_16_118">
<path transform="matrix(.001,0,0,-.001,0,0)" d="M324-817C321-772 308-696 291-633 275-632 249-632 222-632 166-632 136-634 101-640V-558C106-558 110-558 112-558 118-558 126-558 136-558 166-557 174-557 198-557 240-557 244-557 270-558 224-404 144-239 73-149L154-102C159-111 165-122 174-137 212-204 221-221 245-269 289-361 325-457 355-561 423-566 480-574 518-581 541-585 541-585 552-586L549-669C506-655 443-644 376-638 388-685 394-707 401-741 410-784 410-787 416-805L324-817ZM927-545C845-598 774-633 658-678L615-610C723-571 802-531 886-473L927-545ZM928-100C922-105 922-105 913-112 904-121 900-124 885-136 825-183 789-203 715-236 709-280 704-341 704-383 704-421 707-441 718-479L636-486C629-452 626-426 626-393 626-360 629-306 633-257 591-267 566-270 532-270 409-270 323-205 323-112 323-52 360-1 419 19 451 31 491 37 528 37 598 37 656 15 686-23 706-48 719-88 719-126 719-134 719-139 717-152 787-114 849-66 886-20L928-100ZM637-180C638-180 640-151 640-140 640-71 602-38 523-38 448-38 403-67 403-115 403-166 453-199 532-199 570-199 597-194 637-180Z"/>
</g>
<g id="font_26_213">
<path transform="matrix(.001,0,0,-.001,0,0)" d="M525-692C533-712 537-724 543-740 563-793 565-799 573-818L453-839C421-681 355-561 250-467 284-443 308-420 333-386 400-458 439-514 481-596H813C783-522 749-470 689-409 738-381 745-376 781-346 845-426 880-486 923-588 935-616 938-623 945-640L885-698C863-694 834-692 788-692H525ZM53-724C133-661 163-631 225-555L311-636C249-704 213-738 139-796L53-724ZM277-387C218-310 187-277 119-218 73-178 53-163 32-152L107-47C116-56 120-60 140-78 219-150 282-218 346-300L277-387ZM513-550C516-532 517-520 517-505 517-358 469-227 383-140 329-85 274-49 192-16 224 21 239 42 255 79 351 33 418-14 470-74 515-127 552-197 573-271 598-193 640-125 700-65 754-12 803 23 901 77 919 37 937 8 965-29 884-63 846-84 797-123 734-172 685-237 657-307 638-357 626-435 626-508 626-524 627-537 630-550H513Z"/>
</g>
<g id="font_21_122">
<path transform="matrix(.001,0,0,-.001,0,0)" d="M578-641C622-637 648-629 679-611 759-563 802-485 802-389 802-282 750-187 663-139 616-112 556-96 464-84 496-42 508-20 525 33 595 21 634 11 682-9 835-71 925-209 925-382 925-607 769-753 529-753 387-753 269-705 185-613 114-535 75-432 75-322 75-161 157-45 271-45 353-45 417-104 474-233 524-346 559-484 578-641ZM456-640C444-527 411-392 373-302 337-216 303-174 270-174 226-174 191-239 191-321 191-428 243-531 327-591 368-620 404-634 456-640Z"/>
</g>
<g id="font_21_184">
<path transform="matrix(.001,0,0,-.001,0,0)" d="M933-71C812-188 812-188 787-210 719-271 665-313 602-355 663-437 712-524 758-631 769-656 777-670 790-685L724-753C699-744 691-743 635-742L283-737C271-737 263-737 259-737 218-737 199-738 171-743L175-615C209-620 236-622 284-623 599-628 599-628 615-629L604-603C539-447 419-302 268-196 193-143 145-116 68-86 109-43 121-27 149 25 302-50 417-138 530-264 639-181 754-69 837 33L933-71Z"/>
</g>
<g id="font_21_197">
<path transform="matrix(.001,0,0,-.001,0,0)" d="M794-408C862-408 885-407 921-403V-522C883-516 860-515 792-515H207C138-515 116-516 78-522V-403C114-407 137-408 205-408H449C446-330 431-265 405-219 363-142 288-89 168-52 211-10 224 7 249 58 384 4 457-51 510-139 553-210 575-293 580-408H794ZM179-652C212-656 236-657 306-657H694C764-657 788-656 821-652V-774C784-768 764-767 692-767H308C236-767 216-768 179-774V-652Z"/>
</g>
<g id="font_21_194">
<path transform="matrix(.001,0,0,-.001,0,0)" d="M160-544C205-456 225-403 251-302L364-338C328-450 308-498 266-575L160-544ZM374-586C416-504 446-427 465-351L576-386C551-473 532-517 479-616L374-586ZM718-596C718-565 713-530 700-481 657-321 590-219 473-134 414-91 373-69 303-42 345-2 357 13 383 57 531-18 614-83 688-184 752-271 797-381 826-517 832-548 834-553 840-568L718-596Z"/>
</g>
<g id="font_21_214">
<path transform="matrix(.001,0,0,-.001,0,0)" d="M237-727C169-727 145-728 109-734V-604C142-609 161-610 235-610H711C647-344 466-158 189-72 234-28 251-5 277 47 593-85 770-289 851-616 858-615 864-614 870-614 934-614 986-666 986-730 986-793 934-845 870-845 806-845 756-794 755-729 738-728 726-727 696-727H237ZM870-795C907-795 936-766 936-730 936-694 907-664 870-664 834-664 805-694 805-730 805-766 834-795 870-795Z"/>
</g>
<g id="font_27_226">
<path transform="matrix(.001,0,0,-.001,0,0)" d="M681-562C706-535 706-535 754-481 763-470 769-464 831-403H63V-359H831C810-336 800-327 781-307 754-280 754-280 729-253 703-226 702-225 681-203L704-176C799-265 848-303 962-381 815-485 815-485 704-585L681-562Z"/>
</g>
<g id="font_28_162">
<path transform="matrix(.001,0,0,-.001,0,0)" d="M267-350C267-405 268-429 271-460 245-456 225-455 195-455H121C84-455 68-456 41-460V-348C67-352 82-353 109-353H162V-142C112-97 56-57 20-42L69 71C79 64 81 63 98 49 105 43 114 36 125 28 167-5 176-13 215-49 282 42 354 63 605 63 725 63 861 61 947 57 956 2 959-11 977-57 873-44 740-37 575-37 486-37 411-42 375-52 320-66 295-85 267-135V-157C296-138 317-122 352-87 388-156 406-206 421-284 437-367 444-439 448-583H514C534-550 541-536 554-511H543C502-511 485-512 462-516V-426C484-429 507-430 543-430H630V-376H556C509-376 492-377 468-380V-293C495-296 512-297 556-297H630V-242H527C481-242 457-243 429-247V-152C458-156 483-157 527-157H630V-131C630-96 629-83 625-61H735C731-83 730-96 730-130V-157H857C900-157 926-156 954-152V-247C926-243 902-242 857-242H730V-297H824C868-297 885-296 912-293V-380C887-377 871-376 824-376H730V-430H854C893-430 916-429 938-426V-516C914-512 897-511 854-511H818C830-532 834-538 856-583 902-583 902-583 936-581 935-599 934-623 934-654V-743C934-774 935-798 937-817 910-814 887-813 845-813H439C397-813 372-814 340-817 344-785 345-759 345-669 345-459 339-374 317-288 305-242 295-216 267-163V-350ZM649-511C639-535 626-560 615-583H748C739-557 733-541 718-511H649ZM449-665V-724H831V-665H449ZM51-757C112-701 163-643 217-567L301-647C238-728 210-758 130-830L51-757Z"/>
</g>
<g id="font_29_11">
<path transform="matrix(.001,0,0,-.001,0,0)" d="M633-232H548V-473C548-519 549-543 552-566H439C443-536 445-512 445-469V-232C400-232 382-233 358-237V-130C384-134 403-135 457-135H855C898-135 925-133 953-129V-238C915-233 891-232 855-232H738V-425H836C874-425 898-424 925-420V-525C897-521 876-520 836-520H738V-692C764-698 833-714 947-743L876-840C846-821 792-804 700-785 586-762 506-752 374-744 390-710 399-682 404-647 508-655 552-661 633-674V-232ZM72-328C78-318 84-305 89-293 108-253 137-198 162-157 126-107 99-80 30-22 62 11 79 33 100 70 168 6 194-23 228-71 326 31 418 54 725 54 772 54 872 53 953 51 960 0 963-14 980-61 883-53 780-49 668-49 432-49 359-69 281-156 330-253 357-360 372-520 355-517 332-516 302-516H244C280-572 312-634 338-699 344-714 352-729 359-740L311-805C294-802 276-801 239-801H129C99-801 81-802 58-806V-700C81-704 99-705 126-705H220C183-601 140-519 71-420 88-421 121-422 146-422H265C251-340 240-303 215-247 189-292 176-325 161-376L72-328Z"/>
</g>
</defs>
<path transform="matrix(.75,0,0,.75,0,0)" d="M0 0H1280V720H0Z" fill="#ffffff"/>
<g clip-path="url(#clip_1)">
<path transform="matrix(.75,0,0,.75,0,-17820)" d="M0 23760H1280V24480H0Z" fill="#ffffff"/>
</g>
<g clip-path="url(#clip_2)">
<path transform="matrix(.75,0,0,.75,0,0)" d="M0 0H1280V720H0Z" fill="#1e293b"/>
</g>
<g clip-path="url(#clip_3)">
<use data-text="&#x30bb;" xlink:href="#font_4_186" transform="matrix(50.699998,0,0,-50.699998,334.07814,155.25)" fill="#ffffff"/>
<use data-text="&#x30b0;" xlink:href="#font_4_175" transform="matrix(50.699998,0,0,-50.699998,384.7781,155.25)" fill="#ffffff"/>
<use data-text="&#x2f4a;" xlink:href="#font_5_244" transform="matrix(50.699998,0,0,-50.699998,435.4781,155.25)" fill="#ffffff"/>
<use data-text="&#x30fb;" xlink:href="#font_6_128" transform="matrix(50.699998,0,0,-50.699998,486.17808,155.25)" fill="#ffffff"/>
<use data-text="B" xlink:href="#font_7_35" transform="matrix(50.699998,0,0,-50.699998,536.87808,155.25)" fill="#ffffff"/>
<use data-text="I" xlink:href="#font_7_42" transform="matrix(50.699998,0,0,-50.699998,575.10586,155.25)" fill="#ffffff"/>
<use data-text="T" xlink:href="#font_7_53" transform="matrix(50.699998,0,0,-50.699998,589.96096,155.25)" fill="#ffffff"/>
<use data-text="&#x307e;" xlink:href="#font_8_138" transform="matrix(25.349999,0,0,-25.349999,441.97267,222)" fill="#94a3b8"/>
<use data-text="&#x3068;" xlink:href="#font_8_116" transform="matrix(25.349999,0,0,-25.349999,467.32264,222)" fill="#94a3b8"/>
<use data-text="&#x3081;" xlink:href="#font_8_141" transform="matrix(25.349999,0,0,-25.349999,492.67265,222)" fill="#94a3b8"/>
<path transform="matrix(.75,0,0,.75,0,0)" d="M94 354C93.99999 354.53044 93.89849 355.04066 93.6955 355.5307 93.492519 356.02076 93.20349 356.4533 92.82842 356.8284 92.45334 357.20347 92.020778 357.4925 91.53072 357.6955 91.040668 357.89848 90.530429 357.99998 90 358 89.46957 357.99998 88.95932 357.89848 88.46926 357.6955 87.9792 357.4925 87.54664 357.20347 87.17157 356.8284 86.79649 356.4533 86.50746 356.02076 86.304477 355.5307 86.10149 355.04066 85.99999 354.53044 86 354 85.99999 353.46955 86.10149 352.9593 86.304477 352.4692 86.50746 351.97914 86.79649 351.54658 87.17157 351.17155 87.54664 350.79649 87.9792 350.50746 88.46926 350.30445 88.95932 350.10148 89.46957 350 90 350 90.530429 350 91.040668 350.10148 91.53072 350.30445 92.020778 350.50746 92.45334 350.79649 92.82842 351.17155 93.20349 351.54658 93.492519 351.97914 93.6955 352.4692 93.89849 352.9593 93.99999 353.46955 94 354Z" fill="#f1f5f9"/>
<use data-text="B" xlink:href="#font_9_35" transform="matrix(19.5,0,0,-19.5,314.09767,270.75)" fill="#f1f5f9"/>
<use data-text="I" xlink:href="#font_9_42" transform="matrix(19.5,0,0,-19.5,328.80067,270.75)" fill="#f1f5f9"/>
<use data-text="T" xlink:href="#font_9_53" transform="matrix(19.5,0,0,-19.5,334.51417,270.75)" fill="#f1f5f9"/>
<use data-text=":" xlink:href="#font_10_27" transform="matrix(19.5,0,0,-19.5,348.33985,270.75)" fill="#f1f5f9"/>
<use data-text=" " xlink:href="#font_10_1" transform="matrix(19.5,0,0,-19.5,353.21485,270.75)" fill="#f1f5f9"/>
<use data-text="&#x533a;" xlink:href="#font_11_230" transform="matrix(19.5,0,0,-19.5,359.70835,270.75)" fill="#f1f5f9"/>
<use data-text="&#x9593;" xlink:href="#font_11_24" transform="matrix(19.5,0,0,-19.5,379.20835,270.75)" fill="#f1f5f9"/>
<use data-text="&#x548c;" xlink:href="#font_12_247" transform="matrix(19.5,0,0,-19.5,398.7083,270.75)" fill="#f1f5f9"/>
<use data-text=" " xlink:href="#font_10_1" transform="matrix(19.5,0,0,-19.5,418.2083,270.75)" fill="#f1f5f9"/>
<use data-text="+" xlink:href="#font_10_12" transform="matrix(19.5,0,0,-19.5,424.70185,270.75)" fill="#f1f5f9"/>
<use data-text=" " xlink:href="#font_10_1" transform="matrix(19.5,0,0,-19.5,437.6498,270.75)" fill="#f1f5f9"/>
<use data-text="&#x70b9;" xlink:href="#font_13_70" transform="matrix(19.5,0,0,-19.5,444.14329,270.75)" fill="#f1f5f9"/>
<use data-text="&#x66f4;" xlink:href="#font_14_210" transform="matrix(19.5,0,0,-19.5,463.64329,270.75)" fill="#f1f5f9"/>
<use data-text="&#x65b0;" xlink:href="#font_15_7" transform="matrix(19.5,0,0,-19.5,483.14329,270.75)" fill="#f1f5f9"/>
<use data-text="&#x306b;" xlink:href="#font_16_119" transform="matrix(19.5,0,0,-19.5,502.64329,270.75)" fill="#f1f5f9"/>
<use data-text="&#x7279;" xlink:href="#font_13_167" transform="matrix(19.5,0,0,-19.5,522.1433,270.75)" fill="#f1f5f9"/>
<use data-text="&#x5316;" xlink:href="#font_17_66" transform="matrix(19.5,0,0,-19.5,541.6433,270.75)" fill="#f1f5f9"/>
<use data-text="&#x3002;" xlink:href="#font_18_125" transform="matrix(19.5,0,0,-19.5,561.1433,270.75)" fill="#f1f5f9"/>
<use data-text="1" xlink:href="#font_10_18" transform="matrix(19.5,0,0,-19.5,580.6433,270.75)" fill="#f1f5f9"/>
<use data-text="5" xlink:href="#font_10_22" transform="matrix(19.5,0,0,-19.5,593.7668,270.75)" fill="#f1f5f9"/>
<use data-text="&#x2f8f;" xlink:href="#font_14_237" transform="matrix(19.5,0,0,-19.5,606.89028,270.75)" fill="#f1f5f9"/>
<use data-text="&#x3002;" xlink:href="#font_18_125" transform="matrix(19.5,0,0,-19.5,626.39028,270.75)" fill="#f1f5f9"/>
<use data-text="&#x6700;" xlink:href="#font_19_63" transform="matrix(19.5,0,0,-19.5,645.89028,270.75)" fill="#f1f5f9"/>
<use data-text="&#x901f;" xlink:href="#font_20_25" transform="matrix(19.5,0,0,-19.5,665.39028,270.75)" fill="#f1f5f9"/>
<path transform="matrix(.75,0,0,.75,0,0)" d="M94 404C93.99999 404.53044 93.89849 405.04066 93.6955 405.5307 93.492519 406.02073 93.20349 406.4533 92.82842 406.8284 92.45334 407.20347 92.020778 407.4925 91.53072 407.69548 91.040668 407.89848 90.530429 407.99998 90 408 89.46957 407.99998 88.95932 407.89848 88.46926 407.69548 87.9792 407.4925 87.54664 407.20347 87.17157 406.8284 86.79649 406.4533 86.50746 406.02073 86.304477 405.5307 86.10149 405.04066 85.99999 404.53044 86 404 85.99999 403.4695 86.10149 402.95927 86.304477 402.46919 86.50746 401.97917 86.79649 401.5466 87.17157 401.17155 87.54664 400.79646 87.9792 400.50743 88.46926 400.30445 88.95932 400.10148 89.46957 400 90 400 90.530429 400 91.040668 400.10148 91.53072 400.30445 92.020778 400.50743 92.45334 400.79646 92.82842 401.17155 93.20349 401.5466 93.492519 401.97917 93.6955 402.46925 93.89849 402.95927 93.99999 403.4695 94 404Z" fill="#f1f5f9"/>
<use data-text="&#x30bb;" xlink:href="#font_21_186" transform="matrix(19.5,0,0,-19.5,279.08204,308.25)" fill="#f1f5f9"/>
<use data-text="&#x30b0;" xlink:href="#font_21_175" transform="matrix(19.5,0,0,-19.5,298.58204,308.25)" fill="#f1f5f9"/>
<use data-text="&#x2f4a;" xlink:href="#font_22_244" transform="matrix(19.5,0,0,-19.5,318.08204,308.25)" fill="#f1f5f9"/>
<use data-text=":" xlink:href="#font_10_27" transform="matrix(19.5,0,0,-19.5,337.58204,308.25)" fill="#f1f5f9"/>
<use data-text=" " xlink:href="#font_10_1" transform="matrix(19.5,0,0,-19.5,342.45704,308.25)" fill="#f1f5f9"/>
<use data-text="m" xlink:href="#font_10_78" transform="matrix(19.5,0,0,-19.5,348.95054,308.25)" fill="#f1f5f9"/>
<use data-text="i" xlink:href="#font_10_74" transform="matrix(19.5,0,0,-19.5,367.55354,308.25)" fill="#f1f5f9"/>
<use data-text="n" xlink:href="#font_10_79" transform="matrix(19.5,0,0,-19.5,372.38954,308.25)" fill="#f1f5f9"/>
<use data-text="/" xlink:href="#font_10_16" transform="matrix(19.5,0,0,-19.5,384.7525,308.25)" fill="#f1f5f9"/>
<use data-text="m" xlink:href="#font_10_78" transform="matrix(19.5,0,0,-19.5,394.24903,308.25)" fill="#f1f5f9"/>
<use data-text="a" xlink:href="#font_10_66" transform="matrix(19.5,0,0,-19.5,412.85203,308.25)" fill="#f1f5f9"/>
<use data-text="x" xlink:href="#font_10_89" transform="matrix(19.5,0,0,-19.5,424.39607,308.25)" fill="#f1f5f9"/>
<use data-text="/" xlink:href="#font_10_16" transform="matrix(19.5,0,0,-19.5,435.2965,308.25)" fill="#f1f5f9"/>
<use data-text="g" xlink:href="#font_10_72" transform="matrix(19.5,0,0,-19.5,444.79298,308.25)" fill="#f1f5f9"/>
<use data-text="c" xlink:href="#font_10_68" transform="matrix(19.5,0,0,-19.5,457.52647,308.25)" fill="#f1f5f9"/>
<use data-text="d" xlink:href="#font_10_69" transform="matrix(19.5,0,0,-19.5,469.05094,308.25)" fill="#f1f5f9"/>
<use data-text=" " xlink:href="#font_10_1" transform="matrix(19.5,0,0,-19.5,481.97944,308.25)" fill="#f1f5f9"/>
<use data-text="&#x3082;" xlink:href="#font_16_142" transform="matrix(19.5,0,0,-19.5,488.47294,308.25)" fill="#f1f5f9"/>
<use data-text=" " xlink:href="#font_10_1" transform="matrix(19.5,0,0,-19.5,507.97294,308.25)" fill="#f1f5f9"/>
<use data-text="O" xlink:href="#font_10_48" transform="matrix(19.5,0,0,-19.5,514.46646,308.25)" fill="#f1f5f9"/>
<use data-text="K" xlink:href="#font_10_44" transform="matrix(19.5,0,0,-19.5,530.2029,308.25)" fill="#f1f5f9"/>
<use data-text="&#x3002;" xlink:href="#font_18_125" transform="matrix(19.5,0,0,-19.5,544.3989,308.25)" fill="#f1f5f9"/>
<use data-text="&#x6c4e;" xlink:href="#font_23_103" transform="matrix(19.5,0,0,-19.5,563.8989,308.25)" fill="#f1f5f9"/>
<use data-text="&#x2f64;" xlink:href="#font_12_74" transform="matrix(19.5,0,0,-19.5,583.3989,308.25)" fill="#f1f5f9"/>
<use data-text="&#x30c6;" xlink:href="#font_16_197" transform="matrix(19.5,0,0,-19.5,602.8989,308.25)" fill="#f1f5f9"/>
<use data-text="&#x30f3;" xlink:href="#font_16_242" transform="matrix(19.5,0,0,-19.5,622.3989,308.25)" fill="#f1f5f9"/>
<use data-text="&#x30d7;" xlink:href="#font_16_214" transform="matrix(19.5,0,0,-19.5,641.8989,308.25)" fill="#f1f5f9"/>
<use data-text="&#x30ec;" xlink:href="#font_16_235" transform="matrix(19.5,0,0,-19.5,661.3989,308.25)" fill="#f1f5f9"/>
<use data-text="&#x30fc;" xlink:href="#font_18_150" transform="matrix(19.5,0,0,-19.5,680.8989,308.25)" fill="#f1f5f9"/>
<use data-text="&#x30c8;" xlink:href="#font_16_199" transform="matrix(19.5,0,0,-19.5,700.3989,308.25)" fill="#f1f5f9"/>
<path transform="matrix(.75,0,0,.75,0,0)" d="M94 453C93.99999 453.5304 93.89849 454.04063 93.6955 454.5307 93.492519 455.02076 93.20349 455.45335 92.82842 455.82844 92.45334 456.20347 92.020778 456.4925 91.53072 456.6955 91.040668 456.89848 90.530429 456.99998 90 457 89.46957 456.99998 88.95932 456.89848 88.46926 456.6955 87.9792 456.4925 87.54664 456.20347 87.17157 455.82844 86.79649 455.45335 86.50746 455.02076 86.304477 454.5307 86.10149 454.04063 85.99999 453.5304 86 453 85.99999 452.46955 86.10149 451.9593 86.304477 451.46925 86.50746 450.97917 86.79649 450.5466 87.17157 450.17158 87.54664 449.79649 87.9792 449.50746 88.46926 449.30445 88.95932 449.10148 89.46957 449 90 449 90.530429 449 91.040668 449.10148 91.53072 449.30445 92.020778 449.50746 92.45334 449.79649 92.82842 450.17158 93.20349 450.5466 93.492519 450.97917 93.6955 451.46925 93.89849 451.9593 93.99999 452.46955 94 453Z" fill="#f1f5f9"/>
<use data-text="&#x4e21;" xlink:href="#font_12_149" transform="matrix(19.5,0,0,-19.5,363.42189,345)" fill="#f1f5f9"/>
<use data-text="&#x2f45;" xlink:href="#font_24_91" transform="matrix(19.5,0,0,-19.5,382.92189,345)" fill="#f1f5f9"/>
<use data-text="&#x3068;" xlink:href="#font_16_116" transform="matrix(19.5,0,0,-19.5,402.42189,345)" fill="#f1f5f9"/>
<use data-text="&#x3082;" xlink:href="#font_16_142" transform="matrix(19.5,0,0,-19.5,421.92189,345)" fill="#f1f5f9"/>
<use data-text=" " xlink:href="#font_10_1" transform="matrix(19.5,0,0,-19.5,441.42189,345)" fill="#f1f5f9"/>
<use data-text="O" xlink:href="#font_9_48" transform="matrix(19.5,0,0,-19.5,447.92579,345)" fill="#f1f5f9"/>
<use data-text="(" xlink:href="#font_9_9" transform="matrix(19.5,0,0,-19.5,464.26676,345)" fill="#f1f5f9"/>
<use data-text="l" xlink:href="#font_9_77" transform="matrix(19.5,0,0,-19.5,472.18379,345)" fill="#f1f5f9"/>
<use data-text="o" xlink:href="#font_9_80" transform="matrix(19.5,0,0,-19.5,477.46827,345)" fill="#f1f5f9"/>
<use data-text="g" xlink:href="#font_9_72" transform="matrix(19.5,0,0,-19.5,490.53324,345)" fill="#f1f5f9"/>
<use data-text=" " xlink:href="#font_9_1" transform="matrix(19.5,0,0,-19.5,504.02723,345)" fill="#f1f5f9"/>
<use data-text="n" xlink:href="#font_9_79" transform="matrix(19.5,0,0,-19.5,510.52076,345)" fill="#f1f5f9"/>
<use data-text=")" xlink:href="#font_9_10" transform="matrix(19.5,0,0,-19.5,523.6442,345)" fill="#f1f5f9"/>
<use data-text=" " xlink:href="#font_10_1" transform="matrix(19.5,0,0,-19.5,531.5625,345)" fill="#f1f5f9"/>
<use data-text="&#x3067;" xlink:href="#font_16_115" transform="matrix(19.5,0,0,-19.5,538.05599,345)" fill="#f1f5f9"/>
<use data-text="&#x2fbc;" xlink:href="#font_14_251" transform="matrix(19.5,0,0,-19.5,557.55599,345)" fill="#f1f5f9"/>
<use data-text="&#x901f;" xlink:href="#font_20_25" transform="matrix(19.5,0,0,-19.5,577.05599,345)" fill="#f1f5f9"/>
<use data-text="&#x51e6;" xlink:href="#font_25_123" transform="matrix(19.5,0,0,-19.5,596.55599,345)" fill="#f1f5f9"/>
<use data-text="&#x7406;" xlink:href="#font_12_118" transform="matrix(19.5,0,0,-19.5,616.05599,345)" fill="#f1f5f9"/>
<path transform="matrix(.75,0,0,.75,0,0)" d="M94 502C93.99999 502.5304 93.89849 503.04063 93.6955 503.53068 93.492519 504.02073 93.20349 504.4533 92.82842 504.8284 92.45334 505.20344 92.020778 505.49247 91.53072 505.69548 91.040668 505.89845 90.530429 505.99998 90 506 89.46957 505.99998 88.95932 505.89845 88.46926 505.69548 87.9792 505.49247 87.54664 505.20344 87.17157 504.8284 86.79649 504.4533 86.50746 504.02073 86.304477 503.53068 86.10149 503.04063 85.99999 502.5304 86 502 85.99999 501.4695 86.10149 500.95927 86.304477 500.4692 86.50746 499.97917 86.79649 499.5466 87.17157 499.17155 87.54664 498.79646 87.9792 498.50743 88.46926 498.30445 88.95932 498.10148 89.46957 498 90 498 90.530429 498 91.040668 498.10148 91.53072 498.30445 92.020778 498.50743 92.45334 498.79646 92.82842 499.17155 93.20349 499.5466 93.492519 499.97917 93.6955 500.4692 93.89849 500.95927 93.99999 501.4695 94 502Z" fill="#f1f5f9"/>
<use data-text="&#x8ff7;" xlink:href="#font_24_220" transform="matrix(19.5,0,0,-19.5,341.25,381.75)" fill="#f1f5f9"/>
<use data-text="&#x3063;" xlink:href="#font_16_111" transform="matrix(19.5,0,0,-19.5,360.75,381.75)" fill="#f1f5f9"/>
<use data-text="&#x305f;" xlink:href="#font_16_107" transform="matrix(19.5,0,0,-19.5,380.25,381.75)" fill="#f1f5f9"/>
<use data-text="&#x3089;" xlink:href="#font_16_149" transform="matrix(19.5,0,0,-19.5,399.75,381.75)" fill="#f1f5f9"/>
<use data-text="&#x30bb;" xlink:href="#font_21_186" transform="matrix(19.5,0,0,-19.5,419.25,381.75)" fill="#f1f5f9"/>
<use data-text="&#x30b0;" xlink:href="#font_21_175" transform="matrix(19.5,0,0,-19.5,438.75,381.75)" fill="#f1f5f9"/>
<use data-text="&#x2f4a;" xlink:href="#font_22_244" transform="matrix(19.5,0,0,-19.5,458.25,381.75)" fill="#f1f5f9"/>
<use data-text="&#x3001;" xlink:href="#font_18_124" transform="matrix(19.5,0,0,-19.5,477.75,381.75)" fill="#f1f5f9"/>
<use data-text="s" xlink:href="#font_10_84" transform="matrix(19.5,0,0,-19.5,497.25,381.75)" fill="#f1f5f9"/>
<use data-text="u" xlink:href="#font_10_86" transform="matrix(19.5,0,0,-19.5,508.0335,381.75)" fill="#f1f5f9"/>
<use data-text="m" xlink:href="#font_10_78" transform="matrix(19.5,0,0,-19.5,520.3965,381.75)" fill="#f1f5f9"/>
<use data-text=" " xlink:href="#font_10_1" transform="matrix(19.5,0,0,-19.5,538.9995,381.75)" fill="#f1f5f9"/>
<use data-text="&#x3060;" xlink:href="#font_16_108" transform="matrix(19.5,0,0,-19.5,545.493,381.75)" fill="#f1f5f9"/>
<use data-text="&#x3051;" xlink:href="#font_16_93" transform="matrix(19.5,0,0,-19.5,564.993,381.75)" fill="#f1f5f9"/>
<use data-text="&#x306a;" xlink:href="#font_16_118" transform="matrix(19.5,0,0,-19.5,584.493,381.75)" fill="#f1f5f9"/>
<use data-text="&#x3089;" xlink:href="#font_16_149" transform="matrix(19.5,0,0,-19.5,603.993,381.75)" fill="#f1f5f9"/>
<use data-text="B" xlink:href="#font_9_35" transform="matrix(19.5,0,0,-19.5,623.4961,381.75)" fill="#f1f5f9"/>
<use data-text="I" xlink:href="#font_9_42" transform="matrix(19.5,0,0,-19.5,638.1991,381.75)" fill="#f1f5f9"/>
<use data-text="T" xlink:href="#font_9_53" transform="matrix(19.5,0,0,-19.5,643.9126,381.75)" fill="#f1f5f9"/>
<use data-text="&#x6b21;" xlink:href="#font_26_213" transform="matrix(19.5,0,0,-19.5,356.4961,426)" fill="#f1f5f9"/>
<use data-text="&#x306e;" xlink:href="#font_21_122" transform="matrix(19.5,0,0,-19.5,375.9961,426)" fill="#f1f5f9"/>
<use data-text="&#x30b9;" xlink:href="#font_21_184" transform="matrix(19.5,0,0,-19.5,395.4961,426)" fill="#f1f5f9"/>
<use data-text="&#x30c6;" xlink:href="#font_21_197" transform="matrix(19.5,0,0,-19.5,414.9961,426)" fill="#f1f5f9"/>
<use data-text="&#x30c3;" xlink:href="#font_21_194" transform="matrix(19.5,0,0,-19.5,434.4961,426)" fill="#f1f5f9"/>
<use data-text="&#x30d7;" xlink:href="#font_21_214" transform="matrix(19.5,0,0,-19.5,453.9961,426)" fill="#f1f5f9"/>
<use data-text=" " xlink:href="#font_9_1" transform="matrix(19.5,0,0,-19.5,473.4961,426)" fill="#f1f5f9"/>
<use data-text="&#x2192;" xlink:href="#font_27_226" transform="matrix(19.5,0,0,-19.5,479.98957,426)" fill="#f1f5f9"/>
<use data-text=" " xlink:href="#font_9_1" transform="matrix(19.5,0,0,-19.5,499.48957,426)" fill="#f1f5f9"/>
<use data-text="&#x9045;" xlink:href="#font_28_162" transform="matrix(19.5,0,0,-19.5,505.98304,426)" fill="#f1f5f9"/>
<use data-text="&#x5ef6;" xlink:href="#font_29_11" transform="matrix(19.5,0,0,-19.5,525.48306,426)" fill="#f1f5f9"/>
<use data-text="&#x30bb;" xlink:href="#font_21_186" transform="matrix(19.5,0,0,-19.5,544.98306,426)" fill="#f1f5f9"/>
<use data-text="&#x30b0;" xlink:href="#font_21_175" transform="matrix(19.5,0,0,-19.5,564.48306,426)" fill="#f1f5f9"/>
<use data-text="&#x2f4a;" xlink:href="#font_22_244" transform="matrix(19.5,0,0,-19.5,583.98306,426)" fill="#f1f5f9"/>
</g>
</svg>
