<svg xmlns="http://www.w3.org/2000/svg" xmlns:xlink="http://www.w3.org/1999/xlink" xmlns:inkscape="http://www.inkscape.org/namespaces/inkscape" version="1.1" width="960" height="540" viewBox="0 0 960 540">
<defs>
<clipPath id="clip_1">
<path transform="matrix(.24,0,0,.24,0,0)" d="M0 0H4000V2250H0Z" clip-rule="evenodd"/>
</clipPath>
<clipPath id="clip_2">
<path transform="matrix(.24,0,0,.24,0,0)" d="M0 0H4000V2250H0Z" clip-rule="evenodd"/>
</clipPath>
<clipPath id="clip_3">
<path transform="matrix(.24,0,0,.24,0,0)" d="M0 0H4000V2250H0Z" clip-rule="evenodd"/>
</clipPath>
<g id="font_4_49">
<path transform="matrix(.001,0,0,-.001,0,0)" d="M219 12C213-26 211-64 211-118V-285H402C498-285 566-308 615-357 659-403 682-465 682-541 682-613 661-673 620-713 572-761 504-784 407-784H198C145-784 114-785 71-787 77-742 79-706 79-658V-117C79-63 77-28 71 12H219ZM211-400V-669H402C455-669 488-658 511-633 533-610 544-577 544-537 544-449 494-400 402-400H211Z"/>
</g>
<g id="font_4_66">
<path transform="matrix(.001,0,0,-.001,0,0)" d="M442 12H577C571-33 569-60 569-113V-382C569-450 556-488 522-520 479-562 421-579 325-579 239-579 183-564 134-528 96-501 78-475 55-417L183-394C195-430 204-444 223-458 246-476 287-487 327-487 403-487 442-457 442-399V-348C299-345 225-335 160-308 91-279 47-216 47-146 47-41 121 22 243 22 275 22 307 18 336 10 377-1 402-15 442-53V12ZM442-211C442-176 430-147 406-123 372-90 320-70 267-70 211-70 176-99 176-146 176-224 251-257 442-261V-211Z"/>
</g>
<g id="font_4_83">
<path transform="matrix(.001,0,0,-.001,0,0)" d="M481-562C436-570 412-573 388-573 298-573 236-539 200-468V-562H64C70-521 71-493 71-432V-118C71-66 69-37 64 12H207C202-35 200-64 200-118V-303C206-351 216-374 241-403 269-436 307-452 357-452 383-452 404-448 446-436L481-562Z"/>
</g>
<g id="font_4_85">
<path transform="matrix(.001,0,0,-.001,0,0)" d="M129-716C133-680 136-636 136-593V-562H99C57-562 38-563 9-568V-450C42-455 61-456 98-456H136V-120C136-15 182 26 297 26 349 26 379 21 422 5L404-101C373-84 357-79 331-79 283-79 265-97 265-146V-456H310C356-456 375-455 408-450V-568C376-563 354-562 307-562H265V-593C265-638 268-681 272-716H129Z"/>
</g>
<g id="font_4_1">
</g>
<g id="font_4_20">
<path transform="matrix(.001,0,0,-.001,0,0)" d="M41-177C59-119 72-93 97-65 154 0 234 30 351 30 458 30 542 2 597-51 634-88 657-143 657-197 657-256 642-298 609-335 574-374 537-391 466-402 519-416 541-424 563-441 606-473 632-528 632-588 632-718 524-802 357-802 277-802 212-784 161-747 114-713 91-678 66-604L209-580C221-621 231-638 251-657 275-677 311-688 360-688 445-688 492-649 492-580 492-503 433-457 333-457 290-457 268-458 236-462V-338C270-342 299-343 343-343 387-343 434-333 458-319 494-298 514-260 514-214 514-135 451-84 352-84 304-84 264-97 231-123 206-143 197-159 184-205L41-177Z"/>
</g>
<g id="font_5_35">
<path transform="matrix(.001,0,0,-.001,0,0)" d="M445 12C611 12 704-67 704-207 704-272 683-322 642-360 615-385 592-395 541-406 580-418 598-427 620-448 658-483 676-528 676-589 676-714 589-784 434-784H198C130-784 114-784 72-786 77-745 80-709 80-663V-120C80-56 78-27 71 15 112 13 141 12 199 12H445ZM212-458V-672H419C459-672 493-661 515-641 531-626 541-599 541-567 541-499 496-458 420-458H212ZM212-347H425C471-347 509-335 534-313 556-293 566-266 566-226 566-145 516-101 427-101H212V-347Z"/>
</g>
<g id="font_5_42">
<path transform="matrix(.001,0,0,-.001,0,0)" d="M71-784C77-744 79-717 79-655V-117C79-58 77-26 71 12H223C217-26 215-58 215-117V-655C215-715 217-746 223-784H71Z"/>
</g>
<g id="font_5_53">
<path transform="matrix(.001,0,0,-.001,0,0)" d="M422-664H547C619-664 657-662 694-657V-791C656-786 619-784 547-784H151C94-784 51-786 15-791V-657C50-662 93-664 152-664H287V-118C287-64 285-30 279 12H430C424-29 422-64 422-118V-664Z"/>
</g>
<g id="font_6_164">
<path transform="matrix(.001,0,0,-.001,0,0)" d="M971 89C900 0 872-44 844-110 808-193 791-283 791-384 791-482 808-567 843-649 871-715 900-760 970-848H830C773-768 749-724 720-651 685-561 669-478 669-384 669-288 686-200 722-108 750-35 775 9 831 89H971Z"/>
</g>
<g id="font_5_39">
<path transform="matrix(.001,0,0,-.001,0,0)" d="M212-332H426C487-332 525-330 562-325V-458C523-453 488-451 426-451H212V-663H478C542-663 579-661 615-656V-791C573-786 541-784 478-784H198C137-784 112-785 71-787 77-741 79-712 79-657V-130C79-64 77-22 71 12H220C214-26 212-61 212-132V-332Z"/>
</g>
<g id="font_5_70">
<path transform="matrix(.001,0,0,-.001,0,0)" d="M600-242C598-265 598-268 598-270 595-338 588-374 569-422 529-522 437-580 320-580 149-580 38-459 38-274 38-87 150 31 327 31 411 31 481 5 533-46 558-71 571-90 594-138L476-176C466-149 459-138 447-124 418-92 376-74 327-74 276-74 231-94 202-130 179-159 170-187 165-242H600ZM168-341C183-425 240-477 318-477 365-477 399-464 426-437 451-412 463-385 470-341H168Z"/>
</g>
<g id="font_5_79">
<path transform="matrix(.001,0,0,-.001,0,0)" d="M206 12C200-31 198-69 198-118V-320C242-419 301-469 373-469 411-469 441-454 457-428 469-409 474-382 474-340V-118C474-67 472-33 467 12H612C606-25 604-63 604-118V-358C604-425 594-465 570-498 534-547 477-572 400-572 310-572 257-544 196-466 198-491 198-494 198-509V-562H62C68-521 70-487 70-432V-118C70-62 68-31 62 12H206Z"/>
</g>
<g id="font_5_88">
<path transform="matrix(.001,0,0,-.001,0,0)" d="M663 12C668-16 673-35 688-83L799-438C825-521 827-529 840-562H693C691-530 683-486 671-443L615-243C613-236 606-204 603-190 600-176 600-176 598-168 596-177 595-178 592-191 586-212 581-231 578-240L504-467C495-496 482-543 479-562H372C369-542 357-496 347-467L275-249C271-237 254-178 252-168 244-207 238-235 234-248L179-443C168-482 159-533 157-562H9C23-525 37-484 51-438L161-83C177-32 181-17 187 12H303C307-9 318-49 329-83L406-317C409-327 421-368 426-386 437-345 443-323 445-319L522-83C534-44 543-12 547 12H663Z"/>
</g>
<g id="font_5_74">
<path transform="matrix(.001,0,0,-.001,0,0)" d="M62-784V-657H209V-784H62ZM62-562C68-521 70-487 70-432V-118C70-68 68-33 62 12H208C203-30 201-64 201-119V-431C201-492 203-525 208-562H62Z"/>
</g>
<g id="font_5_68">
<path transform="matrix(.001,0,0,-.001,0,0)" d="M583-399C569-436 561-452 548-472 500-542 422-580 324-580 242-580 172-554 123-504 68-448 38-367 38-273 38-88 152 31 328 31 423 31 500-4 548-70 566-94 576-115 590-155L466-180C460-155 455-144 446-130 421-94 381-74 331-74 230-74 168-151 168-276 168-400 229-477 327-477 371-477 406-461 430-431 443-415 450-401 461-370L583-399Z"/>
</g>
<g id="font_5_76">
<path transform="matrix(.001,0,0,-.001,0,0)" d="M64-784C69-746 71-713 71-653V-118C71-63 69-29 64 12H205C199-27 198-51 198-116V-181L280-259 388-101C430-40 442-20 454 12H632C609-11 609-11 541-104L372-335 514-470C557-511 557-511 614-562H427C411-537 394-517 348-473L198-324V-653C198-711 200-746 205-784H64Z"/>
</g>
<g id="font_5_1">
</g>
<g id="font_5_83">
<path transform="matrix(.001,0,0,-.001,0,0)" d="M481-562C436-570 412-573 388-573 298-573 236-539 200-468V-562H64C70-521 71-493 71-432V-118C71-66 69-37 64 12H207C202-35 200-64 200-118V-303C206-351 216-374 241-403 269-436 307-452 357-452 383-452 404-448 446-436L481-562Z"/>
</g>
<g id="font_6_165">
<path transform="matrix(.001,0,0,-.001,0,0)" d="M170 89C226 9 250-35 279-108 314-200 331-287 331-384 331-479 315-560 280-651 251-725 227-769 171-848H30C100-760 129-715 158-649 193-567 209-484 209-384 209-282 192-193 156-110 128-44 100 0 29 89H170Z"/>
</g>
</defs>
<path transform="matrix(.75,0,0,.75,0,0)" d="M0 0H1280V720H0Z" fill="#ffffff"/>
<g clip-path="url(#clip_1)">
<path transform="matrix(.75,0,0,.75,0,-8100)" d="M0 10800H1280V11520H0Z" fill="#ffffff"/>
</g>
<g clip-path="url(#clip_2)">
<path transform="matrix(.75,0,0,.75,0,0)" d="M0 0H1280V720H0Z" fill="#1e293b"/>
</g>
<g clip-path="url(#clip_3)">
<use data-text="P" xlink:href="#font_4_49" transform="matrix(42.9,0,0,-42.9,42,250.5)" fill="#ffffff"/>
<use data-text="a" xlink:href="#font_4_66" transform="matrix(42.9,0,0,-42.9,72.50189,250.5)" fill="#ffffff"/>
<use data-text="r" xlink:href="#font_4_83" transform="matrix(42.9,0,0,-42.9,99.70049,250.5)" fill="#ffffff"/>
<use data-text="t" xlink:href="#font_4_85" transform="matrix(42.9,0,0,-42.9,120.80729,250.5)" fill="#ffffff"/>
<use data-text=" " xlink:href="#font_4_1" transform="matrix(42.9,0,0,-42.9,139.42589,250.5)" fill="#ffffff"/>
<use data-text="3" xlink:href="#font_4_20" transform="matrix(42.9,0,0,-42.9,153.71158,250.5)" fill="#ffffff"/>
<use data-text="B" xlink:href="#font_5_35" transform="matrix(23.400002,0,0,-23.400002,42,319.5)" fill="#94a3b8"/>
<use data-text="I" xlink:href="#font_5_42" transform="matrix(23.400002,0,0,-23.400002,59.643598,319.5)" fill="#94a3b8"/>
<use data-text="T" xlink:href="#font_5_53" transform="matrix(23.400002,0,0,-23.400002,66.49979,319.5)" fill="#94a3b8"/>
<use data-text="&#xff08;" xlink:href="#font_6_164" transform="matrix(23.400002,0,0,-23.400002,83.09038,319.5)" fill="#94a3b8"/>
<use data-text="F" xlink:href="#font_5_39" transform="matrix(23.400002,0,0,-23.400002,106.49037,319.5)" fill="#94a3b8"/>
<use data-text="e" xlink:href="#font_5_70" transform="matrix(23.400002,0,0,-23.400002,121.55997,319.5)" fill="#94a3b8"/>
<use data-text="n" xlink:href="#font_5_79" transform="matrix(23.400002,0,0,-23.400002,136.46576,319.5)" fill="#94a3b8"/>
<use data-text="w" xlink:href="#font_5_88" transform="matrix(23.400002,0,0,-23.400002,152.21396,319.5)" fill="#94a3b8"/>
<use data-text="i" xlink:href="#font_5_74" transform="matrix(23.400002,0,0,-23.400002,172.10395,319.5)" fill="#94a3b8"/>
<use data-text="c" xlink:href="#font_5_68" transform="matrix(23.400002,0,0,-23.400002,178.44535,319.5)" fill="#94a3b8"/>
<use data-text="k" xlink:href="#font_5_76" transform="matrix(23.400002,0,0,-23.400002,193.07035,319.5)" fill="#94a3b8"/>
<use data-text=" " xlink:href="#font_5_1" transform="matrix(23.400002,0,0,-23.400002,208.32715,319.5)" fill="#94a3b8"/>
<use data-text="T" xlink:href="#font_5_53" transform="matrix(23.400002,0,0,-23.400002,216.11934,319.5)" fill="#94a3b8"/>
<use data-text="r" xlink:href="#font_5_83" transform="matrix(23.400002,0,0,-23.400002,230.60395,319.5)" fill="#94a3b8"/>
<use data-text="e" xlink:href="#font_5_70" transform="matrix(23.400002,0,0,-23.400002,242.11673,319.5)" fill="#94a3b8"/>
<use data-text="e" xlink:href="#font_5_70" transform="matrix(23.400002,0,0,-23.400002,257.02253,319.5)" fill="#94a3b8"/>
<use data-text="&#xff09;" xlink:href="#font_6_165" transform="matrix(23.400002,0,0,-23.400002,271.9283,319.5)" fill="#94a3b8"/>
</g>
</svg>
