<svg xmlns="http://www.w3.org/2000/svg" xmlns:xlink="http://www.w3.org/1999/xlink" xmlns:inkscape="http://www.inkscape.org/namespaces/inkscape" version="1.1" width="960" height="540" viewBox="0 0 960 540">
<defs>
<clipPath id="clip_1">
<path transform="matrix(.24,0,0,.24,0,0)" d="M0 0H4000V2250H0Z" clip-rule="evenodd"/>
</clipPath>
<clipPath id="clip_2">
<path transform="matrix(.24,0,0,.24,0,0)" d="M0 0H4000V2250H0Z" clip-rule="evenodd"/>
</clipPath>
<clipPath id="clip_3">
<path transform="matrix(.24,0,0,.24,0,0)" d="M175 646.875H3825V1806.25H175Z" clip-rule="evenodd"/>
</clipPath>
<clipPath id="clip_4">
<path transform="matrix(.24,0,0,.24,0,0)" d="M0 0H4000V2250H0Z" clip-rule="evenodd"/>
</clipPath>
<g id="font_5_212">
<path transform="matrix(.001,0,0,-.001,0,0)" d="M574-243C512-161 448-111 329-50 359-19 376 6 394 44 435 19 461-1 507-42 563-92 584-116 615-166 614-143 613-123 613-90V-6C613 33 612 55 607 83H719C714 53 713 35 713-7V-92C713-117 713-118 710-169 743-120 764-95 809-53 848-17 876 5 936 43 952-8 962-29 984-66 928-91 891-112 846-147 803-181 767-215 744-243H828C870-243 897-242 923-239 921-260 920-287 920-336V-509C920-557 921-583 923-605 906-602 882-601 840-601H713V-656H872C914-656 940-655 966-651V-756C937-752 908-750 862-750H713V-759C713-793 715-817 719-839H607C611-812 613-788 613-759V-750H502C455-750 427-752 398-756V-651C425-655 443-656 492-656H613V-601H505C462-601 436-602 416-605 418-579 419-553 419-512V-350C404-414 382-475 356-533L284-505C298-474 302-464 314-428 284-425 264-423 215-420 268-491 330-585 373-659 381-674 386-682 392-688L300-735C290-703 278-681 212-565 198-586 193-592 176-615 197-647 213-675 247-740 276-796 276-796 286-810L190-850C182-812 151-740 119-685 109-697 103-705 88-723L34-638C82-586 117-540 155-480 127-438 121-429 110-415 91-415 86-415 76-415 56-415 47-416 33-418L44-315C64-319 64-319 138-324 157-325 171-326 180-327V-19C180 27 178 55 174 86H281C276 56 275 31 275-19V-336C300-338 309-340 338-344 343-326 344-319 348-295L419-321C419-281 418-261 416-239 439-242 468-243 506-243H574ZM613-513V-462H512V-513H613ZM713-513H823V-462H713V-513ZM613-381V-331H512V-381H613ZM713-381H824V-331H713V-381ZM70-287C64-153 56-100 33-15L119 27C139-53 148-122 157-269L70-287ZM297-266C312-199 318-163 324-81L404-107C397-171 388-217 374-283L297-266Z"/>
</g>
<g id="font_6_63">
<path transform="matrix(.001,0,0,-.001,0,0)" d="M918-716C918-765 919-794 922-819 902-816 876-815 827-815H618C572-815 538-816 505-821V-717C532-721 549-722 585-722L523-663C580-631 607-612 658-568L726-633C674-674 656-686 589-723H816V-505C816-482 813-481 770-481 757-481 734-482 714-485 735-494 747-500 779-518L777-609C666-554 581-523 507-512L534-430 473-442C477-457 478-470 478-491V-718C478-774 479-796 482-819 456-816 434-815 381-815H171C125-815 92-817 60-821V-718C87-722 108-723 151-723H162L95-664C156-629 184-609 226-569L298-635C249-674 217-694 164-723H378V-505C378-483 375-482 328-482 317-482 306-483 275-485 304-498 311-502 341-518L338-611C225-553 125-514 53-502L87-402C103-411 110-413 132-422 180-441 216-457 264-479 277-450 283-427 285-392 307-391 337-391 349-391 392-391 417-394 438-402 419-367 417-365 408-350H274C218-350 196-351 164-354 167-320 168-302 168-239V-33C168 25 167 51 162 82H275V41H725V82H839C834 54 833 25 833-33V-241C833-303 834-320 837-354 804-351 785-350 727-350H521C539-377 543-383 565-423 575-427 578-428 591-433 636-450 649-455 692-474 702-448 707-423 708-392 754-390 766-390 785-390 848-390 877-395 895-409 913-423 918-439 918-489V-716ZM275-267H725V-201H275V-267ZM275-119H725V-48H275V-119Z"/>
</g>
<g id="font_7_254">
<path transform="matrix(.001,0,0,-.001,0,0)" d="M189-468H369C402-468 437-467 461-465 459-487 458-510 458-555V-720C458-759 459-782 461-814 434-811 411-810 359-810H182C134-810 111-811 80-814 83-782 84-754 84-701V-46C84 16 82 48 78 78H195C191 52 189 15 189-45V-468ZM189-728H360V-676H189V-728ZM189-599H360V-546H189V-599ZM920-702C920-751 921-781 925-814 894-811 870-810 822-810H632C582-810 560-811 530-814 532-785 533-758 533-720V-555C533-512 532-492 531-465 553-467 589-468 622-468H815V-59C815-37 810-33 782-33 749-33 701-37 659-42 675-5 680 16 687 64 753 68 764 68 780 68 838 68 865 64 885 52 911 36 920 10 920-45V-702ZM632-728H815V-676H632V-728ZM632-599H815V-546H632V-599ZM695-330C695-359 696-379 698-399 677-397 652-396 621-396H374C345-396 322-397 300-399 302-378 303-356 303-329V-115C303-77 301-46 298-18H404V-85H627C656-85 677-84 698-82 696-101 695-121 695-150V-330ZM404-307H594V-176H404V-307Z"/>
</g>
<g id="font_8_85">
<path transform="matrix(.001,0,0,-.001,0,0)" d="M248-118C221-143 206-159 191-180 196-217 198-240 199-260 199-278 200-280 202-295L101-312C102-299 103-292 103-283 103-243 96-177 88-143 74-86 52-36 22 6 71 36 78 42 107 75 135 31 154-14 171-75 211-24 268 15 333 35 399 55 511 65 685 65 772 65 886 63 954 60 962 11 969-16 985-51 959-48 948-47 930-46 945-70 956-84 976-106 916-129 874-154 823-198H840C877-198 897-197 922-195 919-223 918-252 918-290V-568C918-607 919-629 922-653 898-651 880-650 838-650H752C763-674 768-687 778-716H865C899-716 937-714 961-712V-809C937-805 908-803 856-803H604C558-803 525-805 496-808V-711C522-714 556-716 595-716H677C670-695 662-673 652-650H612C569-650 552-651 529-653 531-626 532-602 532-569V-277C532-243 531-217 529-195 551-197 569-198 607-198 567-151 522-123 453-97 475-79 490-63 508-40 427-44 389-50 347-62V-174H398C434-174 456-173 479-169V-266C455-263 431-262 399-262H347V-343H409C454-343 471-342 501-339V-440C475-436 454-435 418-435H140C91-435 71-436 44-440V-338C70-342 88-343 140-343H248V-118ZM625-198H800L739-153C793-100 833-70 884-42 819-39 726-36 656-36 626-36 591-37 556-38 599-62 653-108 693-154L625-198ZM628-568H822V-521H628V-568ZM628-447H822V-401H628V-447ZM628-328H822V-281H628V-328ZM96-554C96-511 95-493 92-467 120-470 144-471 180-471H376C411-471 436-470 464-467 461-491 460-508 460-553V-723C460-768 461-786 464-811 441-808 424-807 374-807H180C136-807 112-808 92-811 95-786 96-760 96-724V-554ZM194-725H362V-676H194V-725ZM194-602H362V-550H194V-602Z"/>
</g>
<clipPath id="clip_9">
<path transform="matrix(.24,0,0,.24,0,0)" d="M175 646.875H3825V1806.25H175Z" clip-rule="evenodd"/>
</clipPath>
<g id="font_10_235">
<path transform="matrix(.001,0,0,-.001,0,0)" d="M200-787C205-754 205-754 205-684L201-144C201-86 199-68 192-41L256 36C277 28 289 24 316 19 478-12 580-51 680-118 770-178 834-245 903-351 860-387 847-401 808-453 758-356 696-287 604-224 529-172 435-134 331-114L336-685C337-734 338-759 342-786L200-787Z"/>
</g>
<g id="font_10_216">
<path transform="matrix(.001,0,0,-.001,0,0)" d="M123-194C137-211 141-216 157-235 211-299 295-403 336-458 377-513 381-516 397-516 414-516 414-516 478-446 663-245 714-194 901-24L964-161C942-174 926-186 869-236 757-332 664-424 545-555 469-641 446-657 396-657 372-657 349-651 328-638 308-625 287-603 253-559 119-391 67-332 38-317L123-194ZM647-666C691-618 719-578 752-517L822-554C788-616 761-654 717-701L647-666ZM941-619C910-676 883-714 837-760L770-725C809-682 842-635 872-580L941-619Z"/>
</g>
<g id="font_10_234">
<path transform="matrix(.001,0,0,-.001,0,0)" d="M233-782C237-755 237-746 237-691 237-411 214-282 142-167 112-119 88-92 39-52 86-20 101-5 140 45 206-20 244-71 278-140 330-243 352-356 359-551 365-747 365-747 369-775L233-782ZM498-789C501-770 502-748 502-723V-693L497-129C496-74 495-52 488-23L552 45C565 39 573 35 595 27 699-14 751-44 808-93 874-152 926-227 967-326 921-362 908-375 873-420 850-346 821-291 775-237 732-186 692-156 622-123L627-692C628-741 629-758 634-787L498-789Z"/>
</g>
<g id="font_11_254">
<path transform="matrix(.001,0,0,-.001,0,0)" d="M189-468H369C402-468 437-467 461-465 459-487 458-510 458-555V-720C458-759 459-782 461-814 434-811 411-810 359-810H182C134-810 111-811 80-814 83-782 84-754 84-701V-46C84 16 82 48 78 78H195C191 52 189 15 189-45V-468ZM189-728H360V-676H189V-728ZM189-599H360V-546H189V-599ZM920-702C920-751 921-781 925-814 894-811 870-810 822-810H632C582-810 560-811 530-814 532-785 533-758 533-720V-555C533-512 532-492 531-465 553-467 589-468 622-468H815V-59C815-37 810-33 782-33 749-33 701-37 659-42 675-5 680 16 687 64 753 68 764 68 780 68 838 68 865 64 885 52 911 36 920 10 920-45V-702ZM632-728H815V-676H632V-728ZM632-599H815V-546H632V-599ZM695-330C695-359 696-379 698-399 677-397 652-396 621-396H374C345-396 322-397 300-399 302-378 303-356 303-329V-115C303-77 301-46 298-18H404V-85H627C656-85 677-84 698-82 696-101 695-121 695-150V-330ZM404-307H594V-176H404V-307Z"/>
</g>
<g id="font_12_85">
<path transform="matrix(.001,0,0,-.001,0,0)" d="M248-118C221-143 206-159 191-180 196-217 198-240 199-260 199-278 200-280 202-295L101-312C102-299 103-292 103-283 103-243 96-177 88-143 74-86 52-36 22 6 71 36 78 42 107 75 135 31 154-14 171-75 211-24 268 15 333 35 399 55 511 65 685 65 772 65 886 63 954 60 962 11 969-16 985-51 959-48 948-47 930-46 945-70 956-84 976-106 916-129 874-154 823-198H840C877-198 897-197 922-195 919-223 918-252 918-290V-568C918-607 919-629 922-653 898-651 880-650 838-650H752C763-674 768-687 778-716H865C899-716 937-714 961-712V-809C937-805 908-803 856-803H604C558-803 525-805 496-808V-711C522-714 556-716 595-716H677C670-695 662-673 652-650H612C569-650 552-651 529-653 531-626 532-602 532-569V-277C532-243 531-217 529-195 551-197 569-198 607-198 567-151 522-123 453-97 475-79 490-63 508-40 427-44 389-50 347-62V-174H398C434-174 456-173 479-169V-266C455-263 431-262 399-262H347V-343H409C454-343 471-342 501-339V-440C475-436 454-435 418-435H140C91-435 71-436 44-440V-338C70-342 88-343 140-343H248V-118ZM625-198H800L739-153C793-100 833-70 884-42 819-39 726-36 656-36 626-36 591-37 556-38 599-62 653-108 693-154L625-198ZM628-568H822V-521H628V-568ZM628-447H822V-401H628V-447ZM628-328H822V-281H628V-328ZM96-554C96-511 95-493 92-467 120-470 144-471 180-471H376C411-471 436-470 464-467 461-491 460-508 460-553V-723C460-768 461-786 464-811 441-808 424-807 374-807H180C136-807 112-808 92-811 95-786 96-760 96-724V-554ZM194-725H362V-676H194V-725ZM194-602H362V-550H194V-602Z"/>
</g>
<g id="font_13_158">
<path transform="matrix(.001,0,0,-.001,0,0)" d="M816-276C861-276 884-275 913-272 911-296 910-315 910-363V-492C910-529 911-554 913-579 885-577 864-576 819-576H672V-618C672-624 672-634 672-648H859C899-648 929-647 959-643V-751C925-747 892-745 846-745H672C672-818 672-818 675-846H560C564-815 565-797 566-745H413C373-745 335-747 305-751V-643C335-647 361-648 401-648H566L567-576H412C364-576 349-577 319-579 322-555 323-538 323-495V-356C323-320 322-301 319-272 344-275 368-276 400-276H547C539-239 530-215 512-182 478-213 458-238 446-262L359-216C369-205 377-196 390-179 413-149 426-134 452-110 400-67 341-39 249-14 272 13 293 44 311 80 413 44 476 8 534-48 644 22 759 58 928 76 937 39 953 1 971-35 804-42 702-65 596-123 625-171 641-213 652-276H816ZM566-480C564-424 564-416 560-371H427V-480H566ZM805-480V-371H663C667-409 668-428 670-480H805ZM132-33C132 16 130 46 126 84H243C239 44 238 11 238-32V-601C274-681 280-699 320-823L206-850C188-717 111-552 19-452 40-410 51-381 65-333 97-375 113-399 135-438 132-374 132-358 132-327V-33Z"/>
</g>
<g id="font_10_82">
<path transform="matrix(.001,0,0,-.001,0,0)" d="M251-699C398-662 536-644 718-636L735-759C723-759 712-759 707-759 549-759 401-780 290-817L251-699ZM163-365C246-399 446-434 559-434 663-434 716-396 716-321 716-252 673-189 594-145 517-102 409-74 293-69 324-22 335 3 345 56 508 30 578 9 660-38 781-107 850-211 850-325 850-404 815-471 753-508 707-536 645-549 564-549 479-549 392-540 250-515 160-499 160-499 134-498L163-365Z"/>
</g>
<g id="font_10_142">
<path transform="matrix(.001,0,0,-.001,0,0)" d="M104-321C118-320 121-320 142-315 182-306 221-300 281-292 277-258 276-233 276-207 276-46 375 41 557 41 651 41 726 19 783-25 844-72 879-141 879-212 879-258 862-315 836-359 825-378 814-393 789-422 742-405 721-401 665-397 725-342 755-286 755-228 755-130 682-74 555-74 500-74 460-86 431-111 405-134 394-165 394-214 394-232 396-258 399-285 438-283 447-283 463-283 510-283 569-287 613-292 630-295 633-295 643-295L646-410C598-397 526-390 455-390 444-390 436-390 406-391 412-439 415-459 425-532 468-531 477-531 487-531 523-531 555-533 627-539 649-541 654-542 667-543L671-660C614-646 556-641 443-639 461-762 464-777 475-808L342-820C343-815 343-813 343-810 343-780 337-728 323-644 255-650 184-664 142-680L132-570C147-567 152-566 166-563 234-548 250-546 309-538 304-501 295-434 291-398 189-412 161-418 115-436L104-321Z"/>
</g>
<g id="font_10_122">
<path transform="matrix(.001,0,0,-.001,0,0)" d="M578-641C622-637 648-629 679-611 759-563 802-485 802-389 802-282 750-187 663-139 616-112 556-96 464-84 496-42 508-20 525 33 595 21 634 11 682-9 835-71 925-209 925-382 925-607 769-753 529-753 387-753 269-705 185-613 114-535 75-432 75-322 75-161 157-45 271-45 353-45 417-104 474-233 524-346 559-484 578-641ZM456-640C444-527 411-392 373-302 337-216 303-174 270-174 226-174 191-239 191-321 191-428 243-531 327-591 368-620 404-634 456-640Z"/>
</g>
<g id="font_14_226">
<path transform="matrix(.001,0,0,-.001,0,0)" d="M462-702C457-609 450-558 429-488 398-381 345-283 270-196 203-118 148-72 47-11 76 12 91 30 109 62 223-17 299-88 366-182 434-275 475-368 508-500 535-388 570-306 629-217 703-105 784-23 902 59 927 20 936 9 967-19 883-69 847-97 791-153 727-217 677-283 638-356 576-470 546-589 546-718 546-740 547-760 550-784 530-779 505-778 458-778H318C279-778 260-779 237-783V-697C271-700 298-702 319-702H462Z"/>
</g>
<g id="font_15_2">
<path transform="matrix(.001,0,0,-.001,0,0)" d="M174-454H356C396-454 433-453 455-451 453-477 452-499 452-542V-712C452-752 453-778 455-806 427-803 403-802 352-802H199C148-802 122-803 95-806 98-774 99-746 99-695V-45C99 8 97 42 93 71H180C176 45 174 13 174-44V-454ZM174-741H382V-660H174V-741ZM174-600H382V-515H174V-600ZM903-696C903-742 904-771 908-806 881-803 855-802 803-802H638C587-802 563-803 536-806 538-774 539-748 539-712V-542C539-502 538-480 536-451 560-453 591-454 635-454H828V-40C828-18 819-14 773-14 744-14 701-18 651-25 662 3 667 21 671 54 719 56 746 57 781 57 880 57 903 39 903-38V-696ZM609-741H828V-660H609V-741ZM609-600H828V-515H609V-600Z"/>
</g>
<g id="font_16_34">
<path transform="matrix(.001,0,0,-.001,0,0)" d="M754 0C739-26 726-55 701-116L477-676C453-736 448-751 443-771H321C316-747 308-724 289-676L66-116C42-56 31-32 13 0H134C141-36 149-62 165-103L213-227H554L603-103C614-73 626-34 633 0H754ZM526-309H241L362-629C364-634 367-644 372-658 374-665 378-677 383-691 401-638 401-638 404-629L526-309Z"/>
</g>
<g id="font_16_42">
<path transform="matrix(.001,0,0,-.001,0,0)" d="M75-771C81-734 83-708 83-654V-117C83-64 81-38 75 0H186C180-35 178-69 178-117V-654C178-701 180-735 186-771H75Z"/>
</g>
<g id="font_16_59">
<path transform="matrix(.001,0,0,-.001,0,0)" d="M648-91C608-86 575-84 523-84H229C205-84 176-83 150-82 172-106 185-121 199-140L556-604C587-645 609-670 631-692V-774C590-772 554-771 514-771H191C139-771 105-773 68-778V-680C104-685 137-687 191-687H447C462-687 487-688 511-689 495-671 495-671 472-644L106-169C73-126 51-101 31-82V2C64 0 90 0 150 0H523C582 0 609 1 648 6V-91Z"/>
</g>
<g id="font_16_54">
<path transform="matrix(.001,0,0,-.001,0,0)" d="M605-771C611-736 613-704 613-650V-288C613-146 536-68 395-68 254-68 176-147 176-288V-650C176-706 178-739 184-771H74C80-737 82-704 82-650V-285C82-92 193 15 393 15 493 15 576-14 628-67 680-120 707-194 707-285V-652C707-705 709-736 715-771H605Z"/>
</g>
<g id="font_16_1">
</g>
<g id="font_16_37">
<path transform="matrix(.001,0,0,-.001,0,0)" d="M83-120C83-67 81-37 75 2 111 0 136 0 189 0H362C467 0 550-30 611-89 683-159 721-263 721-393 721-517 686-616 617-682 557-742 472-771 361-771H189C138-771 109-772 75-774 81-730 83-702 83-655V-120ZM176-84V-687H361C445-687 504-666 548-621 599-569 624-493 624-391 624-290 596-207 543-153 498-106 438-84 358-84H176Z"/>
</g>
<g id="font_16_52">
<path transform="matrix(.001,0,0,-.001,0,0)" d="M52-221C62-151 74-118 103-81 150-20 236 13 349 13 525 13 627-71 627-216 627-282 605-331 557-368 523-396 473-416 396-432 283-456 279-458 253-468 199-490 172-525 172-575 172-651 240-703 339-703 401-703 450-684 481-648 499-626 507-607 514-569L615-582C604-633 593-660 570-690 524-752 444-785 341-785 180-785 76-701 76-572 76-502 106-449 165-413 200-391 240-377 305-362 432-334 441-332 473-314 509-294 529-258 529-211 529-123 460-70 347-70 275-70 217-94 185-136 166-163 158-185 155-232L52-221Z"/>
</g>
<g id="font_16_45">
<path transform="matrix(.001,0,0,-.001,0,0)" d="M482 0C543 0 572 1 606 6V-92C566-87 537-85 482-85H178V-645C178-705 180-732 186-771H75C81-735 83-702 83-644V-120C83-68 81-34 75 2 112 0 138 0 190 0H482Z"/>
</g>
<g id="font_16_14">
<path transform="matrix(.001,0,0,-.001,0,0)" d="M30-247C60-251 82-252 122-252H251C293-252 314-251 344-247V-344C316-340 294-339 251-339H122C80-339 58-340 30-344V-247Z"/>
</g>
<g id="font_16_19">
<path transform="matrix(.001,0,0,-.001,0,0)" d="M481 0C535 0 569 1 612 5V-92C577-87 536-85 483-85H174C200-174 251-231 383-319 497-395 522-415 554-455 584-491 601-538 601-585 601-707 500-786 344-786 252-786 181-759 134-706 100-667 83-629 69-557L170-542C178-591 186-615 204-641 233-683 280-704 345-704 440-704 501-658 501-585 501-525 468-482 373-418 274-351 250-334 217-305 153-249 111-192 85-126 70-88 67-72 57 4 90 1 106 0 173 0H481Z"/>
</g>
<g id="font_16_35">
<path transform="matrix(.001,0,0,-.001,0,0)" d="M190-771C131-771 105-772 76-773 82-736 84-706 84-662V-124C84-64 82-39 75 2 112 0 140 0 190 0H421C578 0 667-77 667-213 667-277 646-328 606-364 579-388 556-398 508-407 548-420 565-429 586-448 622-481 640-525 640-583 640-704 557-771 410-771H190ZM177-445V-690H404C497-690 545-650 545-573 545-491 494-445 405-445H177ZM177-365H408C515-365 570-316 570-222 570-130 514-81 411-81H177V-365Z"/>
</g>
<g id="font_16_9">
<path transform="matrix(.001,0,0,-.001,0,0)" d="M343 117C286 31 263-14 241-84 219-154 208-230 208-309 208-388 219-463 241-533 263-603 286-648 343-734L268-784C211-697 187-652 162-580 131-493 116-403 116-309 116-215 131-124 162-38 187 34 211 80 268 166L343 117Z"/>
</g>
<g id="font_16_51">
<path transform="matrix(.001,0,0,-.001,0,0)" d="M705 0C691-24 673-61 659-95 627-169 603-221 581-264 545-334 520-361 480-374 534-387 559-399 588-426 626-462 644-509 644-573 644-701 563-771 415-771H190C141-771 110-772 75-774 81-732 83-701 83-655V-118C83-65 81-38 75 0H184C178-36 176-65 176-118V-344H349C428-344 467-305 524-168 565-69 578-32 582 0H705ZM176-426V-689H408C499-689 547-646 547-564 547-523 535-491 511-467 484-441 445-426 403-426H176Z"/>
</g>
<g id="font_16_66">
<path transform="matrix(.001,0,0,-.001,0,0)" d="M432 0H527C521-42 519-66 519-115V-393C519-448 506-486 476-514 440-549 385-566 309-566 232-566 171-548 127-511 98-488 83-465 65-415L158-397C167-424 174-437 187-451 214-479 254-493 308-493 393-493 432-461 432-393V-341C302-338 247-331 187-312 101-284 52-224 52-147 52-50 121 9 233 9 272 9 309 3 343-10 376-22 394-34 432-67V0ZM432-213C432-176 423-152 399-127 360-87 300-62 245-62 182-62 143-95 143-147 143-193 168-225 218-245 262-263 318-270 432-273V-213Z"/>
</g>
<g id="font_16_79">
<path transform="matrix(.001,0,0,-.001,0,0)" d="M174 0C169-40 167-74 167-118V-314C178-355 191-379 218-411 259-460 302-482 354-482 430-482 469-437 469-349V-118C469-71 467-42 462 0H567C562-34 560-65 560-117V-363C560-416 550-455 530-486 497-534 440-560 367-560 278-560 215-525 165-448 167-473 167-478 167-491V-550H69C75-510 77-481 77-432V-118C77-67 75-40 69 0H174Z"/>
</g>
<g id="font_16_72">
<path transform="matrix(.001,0,0,-.001,0,0)" d="M65 106C131 179 197 207 300 207 392 207 471 180 514 134 559 87 578 23 578-83V-434C578-483 580-509 585-550H491V-499C491-488 491-481 493-465 451-527 387-559 303-559 145-559 45-450 45-280 45-111 143-4 298-4 357-4 411-21 450-51 467-65 477-77 493-103 491-37 484 6 473 34 447 98 386 133 302 133 232 133 182 109 140 54L65 106ZM138-278C138-405 204-484 311-484 418-484 489-405 489-286 489-162 414-78 305-78 202-78 138-155 138-278Z"/>
</g>
<g id="font_16_70">
<path transform="matrix(.001,0,0,-.001,0,0)" d="M559-258C556-308 554-329 552-339 532-479 437-564 302-564 146-564 44-450 44-275 44-97 147 15 309 15 386 15 450-10 498-58 522-81 535-101 554-143L470-174C460-145 453-132 438-116 407-80 363-61 310-61 252-61 205-83 174-125 148-160 138-193 134-258H559ZM137-331C143-367 148-383 162-407 192-460 241-489 300-489 347-489 385-475 415-446 444-417 459-383 465-331H137Z"/>
</g>
<g id="font_16_86">
<path transform="matrix(.001,0,0,-.001,0,0)" d="M460-550C465-510 467-476 467-432V-236C456-195 443-171 416-139 375-90 332-68 280-68 204-68 165-113 165-201V-432C165-479 167-508 172-550H67C72-516 74-485 74-433V-187C74-134 84-95 104-65 137-17 194 9 267 9 355 9 419-26 469-102 467-77 467-72 467-59V0H565C559-40 557-69 557-118V-432C557-483 559-510 565-550H460Z"/>
</g>
<g id="font_16_78">
<path transform="matrix(.001,0,0,-.001,0,0)" d="M173 0C168-41 166-69 166-118V-315C166-335 184-385 201-410 232-455 279-483 324-483 395-483 432-438 432-351V-118C432-66 430-36 425 0H530C525-36 523-65 523-117V-315C523-340 540-388 558-414 588-458 632-483 679-483 707-483 730-477 747-465 777-444 788-412 788-351V-118C788-63 787-40 781 0H886C881-36 879-65 879-117V-365C879-427 868-468 841-501 810-541 760-561 694-561 609-561 555-531 505-457 495-485 489-497 474-512 444-545 401-561 344-561 264-561 200-527 164-464 164-470 164-470 165-479 165-482 166-497 166-500V-550H69C74-514 76-487 76-432V-118C76-68 74-38 69 0H173Z"/>
</g>
<g id="font_16_50">
<path transform="matrix(.001,0,0,-.001,0,0)" d="M732-1C703-23 692-33 644-81 687-128 704-152 722-197 746-254 757-316 757-387 757-630 619-786 405-786 189-786 50-628 50-384 50-141 188 15 403 15 473 15 524 1 581-32 641 27 652 39 671 64L732-1ZM436-166C467-143 485-127 517-95 482-76 449-68 406-68 249-68 147-193 147-386 147-579 248-703 405-703 472-703 530-680 574-636 630-580 659-494 659-386 659-325 649-270 629-221 617-191 606-175 578-144 535-187 514-208 498-227L436-166Z"/>
</g>
<g id="font_16_83">
<path transform="matrix(.001,0,0,-.001,0,0)" d="M435-550C394-557 374-559 343-559 291-559 245-545 211-518 194-506 182-491 165-465 166-473 166-475 167-482 167-485 167-487 167-489 167-494 167-497 167-498V-550H69C74-513 76-485 76-432V-118C76-73 75-49 69 0H174C169-41 167-70 167-118V-316C172-362 181-386 205-417 235-455 275-474 327-474 353-474 372-471 409-459L435-550Z"/>
</g>
<g id="font_16_90">
<path transform="matrix(.001,0,0,-.001,0,0)" d="M250-24 207 76C192 111 167 130 134 130 114 130 97 125 69 112L47 199C86 207 111 210 135 210 212 210 260 179 288 112L513-431C541-497 558-537 563-550H455C450-521 442-495 421-440L297-120 158-441C141-480 128-522 123-550H10C21-529 21-529 66-431L250-24Z"/>
</g>
<g id="font_16_10">
<path transform="matrix(.001,0,0,-.001,0,0)" d="M102 166C159 80 183 34 208-38 239-124 254-214 254-309 254-403 239-493 208-580 183-652 159-697 102-784L27-734C84-648 107-603 129-533 151-463 162-389 162-309 162-229 151-154 129-84 107-14 84 31 27 117L102 166Z"/>
</g>
<g id="font_16_53">
<path transform="matrix(.001,0,0,-.001,0,0)" d="M378-687H524C585-687 617-685 651-680V-778C618-773 588-771 524-771H133C78-771 52-773 13-778V-680C46-685 81-687 134-687H284V-118C284-68 281-30 276 0H386C380-37 378-68 378-118V-687Z"/>
</g>
<g id="font_17_50">
<path transform="matrix(.001,0,0,-.001,0,0)" d="M253-740H184C140-740 108-742 81-746V-670C113-673 145-675 184-675H253V-366H153C110-366 78-368 51-372V-297C79-301 111-303 153-303H287C233-243 140-195 27-168 48-140 54-130 66-96 147-125 194-148 251-187V-119C277-122 300-123 339-123H455V-24H216C163-24 131-26 107-29V48C139 44 174 42 219 42H789C834 42 866 44 899 48V-30C869-25 842-24 793-24H527V-123H662C703-123 724-122 751-119V-187C811-148 859-126 937-99 949-129 958-148 976-172 855-202 770-243 707-303H845C888-303 919-301 948-297V-372C918-368 884-366 843-366H741V-675H826C865-675 897-673 930-670V-746C903-742 870-740 826-740H741V-748C741-779 743-807 747-829H661C665-810 667-784 667-748V-740H327V-748C327-779 328-805 332-829H247C251-808 253-784 253-748V-740ZM327-366V-430H667V-366H327ZM327-490V-552H667V-490H327ZM327-612V-675H667V-612H327ZM616-303C655-257 690-227 743-191 721-189 701-188 662-188H527V-195C527-230 528-249 532-271H450C453-249 455-229 455-195V-188H339C302-188 276-189 256-191 308-228 338-257 375-303H616Z"/>
</g>
<g id="font_18_207">
<path transform="matrix(.001,0,0,-.001,0,0)" d="M612-54C558-78 525-106 492-156 502-193 510-232 519-280L444-292C440-226 434-192 416-145 389-73 358-31 287 27 310 43 325 57 344 81 408 21 437-19 469-92 549 15 657 54 871 54 890 54 919 53 957 52 961 16 965 2 978-29 897-22 860-20 818-20 764-20 724-24 682-32V-157H803C845-157 869-156 894-153V-227C869-223 846-222 803-222H682V-344H859C840-318 824-302 789-275 813-265 830-255 851-239 895-284 912-306 944-356 948-364 949-365 953-371L910-414C892-410 869-409 821-409H452C410-409 390-410 365-414V-339C389-343 411-344 452-344H612V-54ZM533-746V-760C533-800 533-816 537-834H467C471-811 472-792 472-760V-746H414C388-746 375-747 354-750V-681C374-684 395-685 420-685H460C420-615 383-575 312-522 331-508 346-492 356-475 417-528 444-561 477-623 473-561 473-560 473-549V-508C473-482 472-470 469-441H537C534-461 533-478 533-507V-549C533-563 532-579 529-624 552-590 567-573 599-545 615-570 621-579 634-593 591-621 566-645 538-685H559C582-685 601-684 623-681V-750C601-747 586-746 557-746H533ZM170-731C162-652 156-619 138-560 110-464 78-398 22-326 39-301 44-290 59-251 83-286 93-302 115-348 113-308 112-280 112-248V-49C112-6 110 24 106 49H178V-49H271C299-49 314-48 332-47 329-64 329-78 329-125V-408C329-451 329-463 332-485 314-483 303-483 271-483H186C215-567 231-637 242-731H261C303-731 325-730 352-727V-803C323-799 294-798 256-798H151C113-798 83-800 55-803V-726C81-730 104-731 144-731H170ZM178-417H266V-112H178V-417ZM874-685C901-685 925-684 946-681V-750C926-747 907-746 872-746H802V-760C802-794 803-814 806-834H736C740-813 741-792 741-760V-746H705C676-746 666-747 641-750V-681C664-684 683-685 706-685H729C686-607 657-575 576-513 596-496 605-486 617-466 679-518 708-553 744-621 743-604 741-566 741-548V-508C741-484 740-464 737-441H807C803-459 802-481 802-508V-551C802-578 800-607 798-626 841-554 874-520 945-469 955-495 966-513 980-530 904-572 861-613 813-685H874Z"/>
</g>
<g id="font_16_85">
<path transform="matrix(.001,0,0,-.001,0,0)" d="M133-700C137-666 140-626 140-586V-550H101C59-550 39-551 11-556V-468C43-472 65-474 100-474H140V-123C140-72 149-42 171-21 193-1 229 10 277 10 319 10 351 4 393-13L371-94C340-76 320-70 293-70 272-70 255-76 245-85 235-95 231-109 231-138V-474H278C324-474 347-473 379-468V-556C346-551 324-550 277-550H231V-586C231-629 234-668 238-700H133Z"/>
</g>
<g id="font_16_36">
<path transform="matrix(.001,0,0,-.001,0,0)" d="M710-571C686-635 667-667 629-704 572-759 496-786 400-786 304-786 227-757 168-700 92-626 50-515 50-384 50-258 89-148 159-77 217-17 300 14 399 14 512 14 606-27 662-100 688-134 702-166 720-228L620-249C611-204 602-180 581-151 543-99 479-70 402-70 247-70 148-193 148-387 148-581 245-702 402-702 471-702 529-678 567-633 588-608 599-588 613-545L710-571Z"/>
</g>
<g id="font_16_80">
<path transform="matrix(.001,0,0,-.001,0,0)" d="M321 14C486 14 594-100 594-276 594-452 487-564 319-564 151-564 44-451 44-275 44-98 151 14 321 14ZM321-489C433-489 502-407 502-274 502-142 433-62 319-62 206-62 136-144 136-276 136-408 207-489 321-489Z"/>
</g>
<g id="font_16_69">
<path transform="matrix(.001,0,0,-.001,0,0)" d="M498 0H594C589-39 587-69 587-121V-652C587-698 589-729 594-771H491C496-733 498-701 498-652V-531C498-515 498-499 499-492 500-475 500-475 501-464 456-528 386-562 297-562 142-562 44-451 44-276 44-183 72-105 124-53 167-11 226 10 299 10 388 10 450-20 501-88 500-75 498-57 498-45V0ZM308-484C361-484 409-465 444-430 478-397 497-342 497-279 497-151 423-67 309-67 267-67 228-80 199-105 160-139 138-200 138-279 138-406 202-484 308-484Z"/>
</g>
<g id="font_16_74">
<path transform="matrix(.001,0,0,-.001,0,0)" d="M69-771V-671H180V-771H69ZM71-550C76-515 78-482 78-432V-118C78-72 76-44 71 0H177C172-42 170-70 170-118V-431C170-485 172-514 177-550H71Z"/>
</g>
<g id="font_16_67">
<path transform="matrix(.001,0,0,-.001,0,0)" d="M164 0V-49C163-70 163-70 162-79 162-81 162-84 162-87 209-22 276 10 362 10 522 10 619-99 619-279 619-456 525-562 368-562 278-562 210-528 162-458 164-481 165-501 165-529V-652C165-703 167-733 172-771H69C74-729 76-697 76-652V-121C76-69 74-38 69 0H164ZM526-279C526-147 461-67 353-67 243-67 166-154 166-278 166-401 244-485 357-485 464-485 526-409 526-279Z"/>
</g>
<g id="font_16_49">
<path transform="matrix(.001,0,0,-.001,0,0)" d="M184 0C178-36 176-68 176-118V-307H390C552-307 645-394 645-546 645-690 556-771 395-771H189C142-771 111-772 75-774 81-731 83-700 83-656V-117C83-67 81-38 75 0H184ZM176-389V-689H390C494-689 548-638 548-542 548-444 491-389 390-389H176Z"/>
</g>
<g id="font_16_68">
<path transform="matrix(.001,0,0,-.001,0,0)" d="M543-402C532-431 523-448 508-469 464-532 394-565 307-565 148-565 44-449 44-273 44-98 149 14 311 14 396 14 464-16 509-75 526-97 536-116 550-154L461-176C453-151 448-139 440-126 414-86 369-64 314-64 205-64 136-146 136-275 136-406 203-489 310-489 381-489 428-453 455-377L543-402Z"/>
</g>
<g id="font_16_43">
<path transform="matrix(.001,0,0,-.001,0,0)" d="M345-771C351-735 353-706 353-654V-206C353-161 345-129 328-108 310-85 274-71 233-71 191-71 156-84 133-110 119-125 111-140 98-171L4-134C24-92 36-73 56-52 97-10 157 12 232 12 376 12 448-60 448-205V-654C448-707 449-733 456-771H345Z"/>
</g>
<g id="font_19_186">
<path transform="matrix(.001,0,0,-.001,0,0)" d="M300-539 183-524C146-519 112-516 92-516 89-516 82-516 75-517L85-426C119-435 119-435 192-445L300-460V-223C300-116 306-86 337-54 370-18 429-4 550-4 618-4 691-10 791-22 816-25 823-26 851-27L846-124C767-100 659-86 551-86 471-86 431-93 412-110 391-127 387-147 387-239V-471C766-522 766-522 784-527 738-436 668-365 565-304 598-286 608-278 635-247 745-325 816-404 865-500 893-555 893-555 901-567L844-616C826-607 818-605 782-600L388-550V-687C388-733 389-751 393-782H295C299-749 300-741 300-687V-539Z"/>
</g>
<g id="font_19_175">
<path transform="matrix(.001,0,0,-.001,0,0)" d="M721-794C762-748 794-698 825-636L884-669C849-734 826-768 779-824L721-794ZM837-848C881-796 911-751 940-693L998-726C962-792 940-823 893-878L837-848ZM733-676C721-672 714-671 690-671L453-667C424-666 424-666 416-664 428-684 436-700 460-751 472-777 473-778 482-790L384-813C379-778 361-735 324-671 253-546 179-464 71-392 106-371 117-361 139-331 234-404 312-488 376-589L703-594C667-469 607-356 532-268 437-156 333-83 182-21 213 4 223 16 242 51 390-16 500-95 592-200 678-299 748-431 787-559 796-590 797-590 804-600L733-676Z"/>
</g>
<g id="font_20_244">
<path transform="matrix(.001,0,0,-.001,0,0)" d="M821-557C862-557 898-555 936-551V-636C905-631 872-629 821-629H533V-736C533-769 535-799 540-828H447C452-796 454-771 454-736V-629H180C136-629 104-631 68-636V-551C107-555 139-557 181-557H433C386-467 340-401 283-336 210-256 123-183 33-129 56-110 71-90 90-59 163-109 219-156 277-216 354-296 409-376 459-482 456-450 454-397 454-358V-44C454 3 452 39 447 74H540C535 41 533 3 533-43V-359C533-394 531-436 527-483 618-305 730-183 910-62 930-96 941-111 967-136 869-189 798-245 716-330 657-391 607-461 553-557H821Z"/>
</g>
<g id="font_21_37">
<path transform="matrix(.001,0,0,-.001,0,0)" d="M481-731H219C179-731 149-732 118-736 121-704 122-675 122-608 122-234 106-125 31 3 58 20 73 34 97 61 138-14 161-80 176-170 193-275 199-394 199-661H835C887-661 917-660 946-656V-737C919-733 889-731 835-731H559V-781C559-810 560-825 564-843H475C479-823 481-804 481-781V-731ZM275-23C323-135 343-220 360-383L285-402C274-248 256-175 203-66L275-23ZM425-481C429-458 431-434 431-390V-10C431 50 458 61 599 61 768 61 781 45 793-185 768-190 749-197 717-212 717-137 712-74 704-46 696-19 675-12 599-12 521-12 509-16 509-44V-389C509-433 511-459 515-481H425ZM730-475C637-549 594-577 485-635L432-584C544-527 598-489 677-414L730-475ZM957-73C924-206 897-278 834-409L765-378C828-256 851-186 880-39L957-73Z"/>
</g>
<g id="font_15_74">
<path transform="matrix(.001,0,0,-.001,0,0)" d="M544-251H823V-39C823-15 815-10 769-10 735-10 688-14 633-21 644 10 648 28 651 55 690 58 736 60 768 60 874 60 898 44 898-25V-692C898-740 899-764 902-794 872-791 845-790 793-790H249C197-790 168-791 138-794 141-758 142-728 142-675 142-210 125-103 33 21 65 41 75 48 102 74 168-30 193-108 207-251H470V-68C470-14 469 14 465 43H549C545 17 544-15 544-69V-251ZM544-556V-718H823V-556H544ZM470-556H217L218-603V-718H470V-556ZM544-486H823V-322H544V-486ZM470-486V-322H212C214-367 214-367 215-421 215-435 215-458 216-486H470Z"/>
</g>
<g id="font_14_68">
<path transform="matrix(.001,0,0,-.001,0,0)" d="M308-94H390C429-94 451-93 477-89V-164C450-160 433-159 394-159H308V-241H371C418-241 439-240 461-238 459-258 458-286 458-339V-506C458-554 459-582 461-600 440-598 421-597 375-597H308V-677H397C441-677 457-676 485-673V-747C459-743 439-742 395-742H308V-754C308-785 310-810 315-839H234C239-808 241-785 241-754V-742H153C108-742 87-743 61-747V-672C90-676 109-677 150-677H241V-597H186C139-597 116-598 90-601 93-575 94-547 94-502V-341C94-296 93-264 90-238 118-240 143-241 189-241H241V-159H142C98-159 80-160 53-164V-89C79-93 105-94 145-94H241V-19C241 16 239 41 234 73H315C310 43 308 12 308-17V-94ZM307-303V-394H396V-303H307ZM307-450V-536H396V-450H307ZM241-536V-450H157V-536H241ZM241-394V-303H157V-394H241ZM632-423C615-337 573-197 539-112 520-66 520-66 514-49 477-46 466-46 441-45L458 36C476 33 487 31 514 26 721-5 763-12 861-35 878 17 879 20 893 64L963 28C904-137 882-188 809-332L744-305C784-230 808-177 839-96 754-79 695-70 593-58 650-200 677-283 712-423H866C905-423 931-422 957-418V-498C931-493 909-492 866-492H584C540-492 518-493 492-498V-418C519-422 544-423 583-423H632ZM529-678C555-682 578-683 620-683H831C857-683 885-682 898-681 912-679 912-679 921-679V-759C895-754 876-753 831-753H620C574-753 554-754 529-759V-678Z"/>
</g>
<g id="font_14_99">
<path transform="matrix(.001,0,0,-.001,0,0)" d="M393-707C367-621 354-591 314-516 288-515 286-515 281-515 270-515 258-516 246-517L257-440C279-443 289-445 312-447 444-458 477-461 595-480 602-463 607-453 618-427L679-463C645-531 606-595 558-663L502-634C533-589 545-571 564-538 509-531 464-526 388-520 421-584 443-635 469-707H575C606-707 637-706 658-704V-777C654-777 637-775 609-773H362C323-773 301-774 280-778V-703C296-706 315-707 345-707H393ZM414-316H336C301-316 282-317 264-321V-247C280-250 302-251 333-251H414V-96C313-79 273-74 238-75L252 5C265 2 281-1 303-5 509-41 555-51 663-81L660-149C589-129 554-121 484-108V-251H568C596-251 623-250 640-248V-320C634-319 620-318 597-316H484V-369C484-402 485-418 489-436H409C413-416 414-396 414-369V-316ZM206-601C244-695 254-721 270-777 274-790 277-797 283-815L206-840C197-780 171-700 140-628 103-545 63-477 10-413 31-385 32-382 51-340 87-385 109-420 137-480 135-433 134-390 134-336V-46C134 6 132 41 128 76H210C207 39 206 11 206-47V-601ZM769-164C765-189 764-214 764-262V-666C764-712 765-736 769-763H690C694-732 695-708 695-666V-262C695-217 694-192 690-164H769ZM926-695C926-753 927-783 932-815H848C853-780 854-751 854-698V-31C854-9 845-5 804-5 781-5 744-8 696-14 708 16 711 31 715 62 775 63 776 63 794 63 898 63 926 46 926-20V-695Z"/>
</g>
<g id="font_18_68">
<path transform="matrix(.001,0,0,-.001,0,0)" d="M964-652C938-647 916-646 870-646H670C682-685 693-723 705-773 712-801 713-805 718-818L637-835C636-806 630-771 621-730 591-602 537-489 468-406 491-392 504-381 524-358 551-393 564-413 589-458 610-340 636-266 687-181 627-102 551-43 438 12 460 34 472 51 486 79 590 22 665-39 729-118 792-36 857 22 943 73 959 37 969 20 987-2 898-49 834-102 774-181 808-238 832-293 850-360 869-428 877-481 883-578 925-578 943-577 964-573V-652ZM810-578C802-437 780-346 730-250 681-339 655-423 635-553 640-564 641-567 645-578H810ZM476-53C430-80 415-89 378-107 413-155 429-186 450-254H463C498-254 517-253 538-249V-323C520-319 501-318 467-318H291C301-340 306-349 317-379L244-395C232-357 227-344 216-318H130C95-318 77-319 57-323V-249C78-253 96-254 130-254H182C157-210 147-195 113-149 188-121 219-108 266-86 215-46 141-13 51 9 67 32 77 49 88 75 207 35 268 3 330-54 380-27 391-19 434 12L476-53ZM378-254C361-204 346-175 316-136 284-150 267-157 212-179 235-214 242-225 258-254H378ZM338-636V-766C338-793 339-813 342-832H265C269-810 270-793 270-765V-636H143C104-636 83-637 61-641V-569C81-573 106-574 141-574H224C177-509 135-474 42-420 64-401 76-387 92-362 185-428 220-463 273-546 271-526 270-509 270-494V-443C270-430 269-416 266-404H341C339-416 338-431 338-445V-495C338-509 337-523 334-546 368-494 389-471 445-428 467-464 469-466 489-486 440-512 401-542 376-574H467C500-574 517-573 534-570V-640C519-637 500-636 468-636H338ZM89-790C121-745 140-711 160-658L223-683C201-735 186-763 150-814L89-790ZM456-818C435-763 413-724 376-677L436-648C470-694 485-720 520-789L456-818Z"/>
</g>
<g id="font_19_170">
<path transform="matrix(.001,0,0,-.001,0,0)" d="M238-609C187-609 165-610 129-616L131-527C165-531 176-532 237-532L414-533C400-422 388-373 354-304 299-193 214-108 94-44 124-18 133-8 156 28 273-43 365-137 420-241 465-325 486-403 500-533L767-534C766-398 757-265 743-189 725-93 709-70 662-70 629-70 588-78 532-95 544-60 546-48 546-5 601 6 637 10 671 10 769 10 801-28 826-175 838-243 849-395 853-520 853-554 855-565 861-581L819-618C798-612 793-611 749-611L507-610C509-642 510-654 511-679 516-780 516-785 520-806L424-808C426-790 427-778 427-755 427-714 425-659 421-610L238-609Z"/>
</g>
<g id="font_19_165">
<path transform="matrix(.001,0,0,-.001,0,0)" d="M541-644V-731C541-762 543-787 547-807H446C450-783 451-767 451-730V-644H243C198-644 177-645 147-648 149-623 150-598 150-563V-435C150-399 149-372 146-348H243C241-369 240-399 240-433V-566H770C750-367 677-235 536-141 470-97 412-72 317-48 348-14 356-2 372 35 657-61 811-230 854-498 868-589 868-589 877-606L831-651C812-644 806-644 743-644H541Z"/>
</g>
<g id="font_19_242">
<path transform="matrix(.001,0,0,-.001,0,0)" d="M146-650C235-597 315-532 390-452L451-527C378-598 316-646 205-717L146-650ZM161 3C183-4 191-6 223-13 384-49 496-93 598-163 732-254 825-370 907-548 872-571 861-582 833-617 751-402 619-257 428-172 335-131 215-100 135-97L161 3Z"/>
</g>
<g id="font_19_199">
<path transform="matrix(.001,0,0,-.001,0,0)" d="M388 35C384 4 383-28 383-81V-342C383-382 382-399 379-424 393-415 397-414 412-407 554-347 692-273 780-211L830-298C660-396 524-459 383-509V-687C383-743 384-771 388-800H287C292-774 293-750 293-690V-81C293-24 292 2 287 35H388Z"/>
</g>
<g id="font_20_254">
<path transform="matrix(.001,0,0,-.001,0,0)" d="M169-478H350C388-478 422-477 449-475 447-496 446-525 446-567V-711C446-750 447-775 449-806 421-803 397-802 347-802H195C145-802 120-803 91-806 94-774 95-745 95-695V-44C95 13 93 44 89 72H175C171 47 169 14 169-43V-478ZM169-743H377V-670H169V-743ZM169-612H377V-537H169V-612ZM907-695C907-739 908-770 912-806 882-803 858-802 807-802H638C588-802 565-803 536-806 538-778 539-749 539-711V-567C539-527 538-507 536-475 562-477 594-478 635-478H833V-39C833-17 826-12 799-12 766-12 719-15 672-21 684 6 688 21 693 55 748 58 762 58 805 58 887 58 907 40 907-32V-695ZM608-743H833V-670H608V-743ZM608-612H833V-537H608V-612ZM681-331C681-356 682-375 684-394 662-392 639-391 609-391H379C352-391 330-392 309-394 311-374 312-353 312-329V-126C312-86 311-59 307-31H384V-107H618C645-107 663-106 684-104 682-122 681-141 681-166V-331ZM384-327H610V-171H384V-327Z"/>
</g>
<g id="font_22_85">
<path transform="matrix(.001,0,0,-.001,0,0)" d="M257-89C222-117 192-148 174-177 179-208 179-210 184-263 185-275 186-281 188-296L113-307C114-297 114-291 114-280 114-240 105-173 95-134 81-79 59-33 22 17 48 31 66 46 83 65 118 12 139-34 158-103 198-47 247-8 307 16 377 44 495 56 709 56 791 56 899 53 955 50 961 15 967-4 980-31 897-21 801-16 674-16 607-16 518-19 468-23 398-28 368-34 326-50V-189H384C418-189 443-187 465-184V-256C437-253 417-252 384-252H326V-352H398C438-352 460-351 491-348V-422C462-418 442-417 403-417H142C97-417 73-418 45-422V-347C69-351 93-352 142-352H257V-89ZM679-730C674-708 663-677 650-646H611C566-646 547-647 524-649 527-624 528-596 528-561V-284C528-246 527-218 524-197 549-199 574-200 612-200H823C859-200 877-199 908-197 905-222 904-251 904-293V-560C904-600 905-625 908-649 885-647 865-646 821-646H720C733-676 742-702 750-730H858C892-730 926-728 952-725V-798C928-794 899-792 853-792H590C545-792 517-794 487-797V-725C513-729 544-730 586-730H679ZM595-587H836V-516H595V-587ZM595-459H836V-389H595V-459ZM595-332H836V-259H595V-332ZM105-557C105-517 104-494 101-468 126-471 151-472 192-472H357C398-472 422-471 448-468 445-495 444-512 444-555V-712C444-757 445-776 448-802 423-799 405-798 356-798H192C147-798 123-799 101-802 104-776 105-750 105-713V-557ZM173-739H376V-665H173V-739ZM173-605H376V-529H173V-605ZM744-151C810-91 853-61 924-27 938-53 948-66 968-86 897-115 858-139 798-190L744-151ZM609-191C560-137 521-112 439-79 461-62 477-45 492-23 563-58 609-92 667-153L609-191Z"/>
</g>
<g id="font_23_58">
<path transform="matrix(.001,0,0,-.001,0,0)" d="M334-630C330-582 320-537 301-485 277-419 250-377 197-318 219-305 227-299 251-273 294-323 324-372 350-432 378-383 408-344 455-292 469-317 481-334 498-354 438-404 409-439 376-502 384-526 394-563 408-619L334-630ZM735-633C733-592 724-550 706-500 680-429 652-384 599-326 622-314 640-299 657-281 700-334 724-372 750-428 786-369 826-326 891-273 904-296 921-320 937-336 861-382 813-431 775-497 785-528 793-556 798-577 806-607 806-607 811-622L735-633ZM515-229H335C287-229 274-230 248-234V-158C274-161 286-162 336-162H515V-28H272C224-28 201-29 174-33V47C209 43 241 41 282 41H844C886 41 921 43 951 47V-34C922-29 897-28 854-28H588V-162H795C840-162 859-161 885-157V-234C859-230 837-229 795-229H588V-551C588-606 589-622 593-644H510C514-622 515-603 515-551V-229ZM484-743H228C189-743 154-745 118-748 121-722 123-697 123-660 123-655 123-645 123-628 123-263 101-118 28-1 54 18 70 33 91 59 133-15 155-80 172-177 192-289 199-416 200-673H836C883-673 919-671 941-668V-749C912-745 873-743 829-743H560V-776C560-801 562-822 566-839H479C482-819 484-800 484-777V-743Z"/>
</g>
<g id="font_24_183">
<path transform="matrix(.001,0,0,-.001,0,0)" d="M743-661V-730H844C889-730 924-728 949-725V-800C920-796 885-794 840-794H428C384-794 351-796 322-800V-724C348-728 384-730 429-730H519V-661H442C401-661 374-662 351-666 354-646 355-624 355-595V-513C355-482 354-462 351-439 379-442 405-443 445-443H823C864-443 888-442 916-439 913-462 912-481 912-517V-596C912-630 913-646 916-666 890-662 861-661 824-661H743ZM680-661H582V-730H680V-661ZM519-603V-501H418V-603H519ZM582-603H680V-501H582V-603ZM743-603H848V-501H743V-603ZM162-644H115C83-644 63-645 46-648V-574C64-577 85-578 115-578H153C126-445 80-328 23-246 40-225 51-205 64-174 108-242 141-331 170-457 165-385 162-330 162-294V-38C162 14 160 50 156 80H239C235 52 233 15 233-38V-331C233-369 232-400 230-484 254-421 269-391 304-335 318-363 325-374 341-397 293-454 258-513 236-578H260C283-578 302-577 322-575V-648C304-645 288-644 259-644H233V-735C233-782 234-811 238-838H156C160-816 162-790 162-734V-644ZM666-193H855C897-193 924-192 951-188V-262C923-258 894-257 854-257H418C374-257 347-259 319-263V-188C346-192 376-193 419-193H594V-22C594-5 589-2 560-2 539-2 513-5 480-11 489 16 492 36 493 62 529 64 545 65 563 65 610 65 632 61 646 51 660 41 666 23 666-5V-193ZM377-316C404-320 430-321 473-321H792C836-321 857-320 885-316V-389C855-385 828-384 787-384H475C433-384 405-386 377-389V-316ZM738-132C795-53 842-10 919 38 936 14 952-4 970-20 919-48 894-65 857-98 831-120 820-133 795-165L738-132ZM445-169C420-125 406-106 376-76 346-46 326-31 281-6 311 14 319 21 339 43 415-11 454-54 508-140L445-169Z"/>
</g>
<g id="font_25_125">
<path transform="matrix(.001,0,0,-.001,0,0)" d="M532-52H313C269-52 233-54 204-58V27C238 22 273 20 315 20H833C875 20 910 22 944 27V-58C915-54 880-52 832-52H610V-366H796C838-366 867-364 900-360V-444C871-439 840-437 796-437H610V-566C610-604 612-637 617-668H525C530-634 532-603 532-566V-437H383C341-437 308-439 278-444V-360C311-364 341-366 383-366H532V-52ZM225-707H815C872-707 901-706 930-702V-784C907-780 873-778 815-778H268C215-778 179-779 143-783 147-751 148-717 148-662 148-303 124-159 43-18 68-2 85 13 109 43 194-114 225-289 225-622V-707Z"/>
</g>
<g id="font_26_95">
<path transform="matrix(.001,0,0,-.001,0,0)" d="M94-407H80C61-407 53-407 38-410L46-333C64-337 64-337 189-348V-36C189 20 188 46 183 76H262C258 50 257 21 257-36V-354C291-358 303-359 328-363 331-349 333-344 336-327L392-354C375-414 353-470 326-525L274-504C291-470 295-459 309-421 277-417 253-415 177-410 233-479 294-565 345-648 360-674 366-682 375-695L307-731C293-691 271-650 209-555 194-577 188-585 162-618 192-664 207-691 251-773 264-798 264-798 270-809L200-841C191-799 161-734 120-668 107-683 100-690 82-711L44-653C89-606 139-544 170-497 146-462 146-462 104-407H94ZM627-736H476C432-736 404-737 384-739 387-722 388-709 388-679V-617C388-595 387-572 384-552H458V-672H879V-592C862-591 853-591 835-591H667C635-591 616-592 588-596V-523C610-527 633-528 666-528H719C713-495 703-459 689-423H677C636-423 615-424 588-426 591-397 592-377 592-335V-18C592 22 591 42 587 74H658V26H854V75H927C923 45 921 19 921-19V-333C921-376 922-399 925-426 900-424 873-423 833-423H759C770-454 779-484 789-528H838C869-528 894-527 916-523V-586H953C951-602 950-617 950-642V-682C950-706 951-723 953-741 929-737 898-736 850-736H700V-756C700-791 701-812 706-833H622C626-812 627-792 627-757V-736ZM658-360H854V-236H658V-360ZM658-174H854V-38H658V-174ZM82-291C76-178 63-100 35-16L96 13C121-69 131-132 144-280L82-291ZM293-273C312-193 322-126 329-39L389-57C378-146 368-205 348-288L293-273ZM450-38C450 17 449 44 445 74H521C518 45 517 24 517-44V-441C555-537 555-537 578-613L509-634C494-561 477-509 449-450 419-389 402-362 367-320 382-302 392-287 406-260 430-292 437-303 456-339 451-296 450-268 450-220V-38Z"/>
</g>
<g id="font_16_12">
<path transform="matrix(.001,0,0,-.001,0,0)" d="M373-234H614V-316H373V-556H290V-316H50V-234H290V6H373V-234Z"/>
</g>
<g id="font_17_230">
<path transform="matrix(.001,0,0,-.001,0,0)" d="M853-182C763-268 708-317 623-386 675-449 718-513 755-585 770-614 773-619 784-635L705-674C688-611 634-519 564-433 480-497 429-533 320-605L267-548C370-486 433-442 514-376 432-292 345-226 221-156 244-137 261-118 279-96 407-174 486-237 572-329 657-256 704-212 796-116L853-182ZM935-61C909-56 885-55 834-55H177V-708H806C855-708 884-706 917-702V-788C886-783 859-781 806-781H200C157-781 128-782 94-786 97-755 98-724 98-682V-41C98 3 96 34 92 70H177V18H834C879 18 905 20 935 25V-61Z"/>
</g>
<g id="font_17_24">
<path transform="matrix(.001,0,0,-.001,0,0)" d="M168-485H350C390-485 421-484 449-482 447-508 446-532 446-573V-706C446-745 447-771 449-801 421-798 397-797 347-797H194C144-797 118-798 90-801 93-769 94-740 94-690V-43C94 14 92 45 88 73H174C170 47 168 15 168-42V-485ZM168-739H377V-669H168V-739ZM168-612H377V-541H168V-612ZM909-691C909-736 910-761 914-801 885-798 861-797 809-797H636C586-797 562-798 534-801 536-771 537-741 537-706V-573C537-535 536-510 534-482 560-484 594-485 633-485H836V-38C836-15 828-10 788-10 767-10 726-14 678-20 689 6 694 24 699 57 719 58 775 60 796 60 886 60 909 41 909-31V-691ZM606-739H836V-669H606V-739ZM606-612H836V-541H606V-612ZM690-319C690-357 691-384 693-411 664-408 640-407 596-407H402C358-407 333-408 304-411 306-382 307-354 307-319V-90C307-49 306-22 302 6H377V-60H593C635-60 662-59 693-57 691-83 690-109 690-147V-319ZM377-347H621V-267H377V-347ZM377-207H621V-120H377V-207Z"/>
</g>
<g id="font_23_63">
<path transform="matrix(.001,0,0,-.001,0,0)" d="M155-392V-61C113-57 83-55 65-55 61-55 55-55 48-56L65 21C101 13 112 11 210-3 287-13 287-13 417-37V-16C417 30 415 56 411 79H492C487 53 486 30 486-17V-392H858C900-392 922-391 954-386V-460C927-455 905-454 858-454H143C96-454 74-455 48-460V-386C79-391 101-392 142-392H155ZM225-392H417V-329H225V-392ZM225-274H417V-208H225V-274ZM225-153H417V-96C326-80 313-79 225-69V-153ZM860-334C844-331 821-330 784-330H603C562-330 540-331 518-334V-265C546-268 561-269 589-269H807C773-207 752-178 711-135 672-176 651-208 625-266L565-239C609-154 619-139 662-92 612-51 572-29 499 0 520 20 530 34 544 62 617 27 656 3 711-44 765 2 819 33 908 70 920 45 934 22 950 2 869-23 813-51 761-90 807-138 839-184 882-262 889-277 892-281 899-291L860-334ZM839-722C839-759 840-781 843-803 809-800 782-799 735-799H272C226-799 199-800 164-803 167-780 168-757 168-722V-585C168-550 167-527 164-503 201-506 225-507 270-507H742C780-507 812-506 843-503 840-527 839-549 839-585V-722ZM240-741H767V-681H240V-741ZM240-625H767V-563H240V-625Z"/>
</g>
<g id="font_22_82">
<path transform="matrix(.001,0,0,-.001,0,0)" d="M822-514C873-514 903-512 936-507V-599C907-594 873-592 821-592H529C531-628 532-660 533-709 533-762 535-783 540-817H443C448-785 450-756 450-690 450-652 449-625 448-592H179C125-592 91-594 63-599V-507C93-512 122-514 178-514H441C415-307 348-191 194-86 147-54 112-36 42-7 67 20 76 32 92 66 187 24 252-18 315-75 410-163 472-274 501-409 555-248 644-122 772-24 812 7 839 23 915 65 935 26 944 12 968-16 920-36 896-48 862-69 792-111 729-164 688-215 617-303 567-402 537-514H822Z"/>
</g>
<g id="font_22_150">
<path transform="matrix(.001,0,0,-.001,0,0)" d="M600-669C594-639 591-627 579-582H557C519-582 497-583 474-585 475-576 476-548 478-500V-190C478-159 477-133 475-109 515-112 529-112 562-112H801C834-112 847-112 889-109 886-137 886-157 886-195V-490C886-540 886-558 889-585 868-583 844-582 802-582H651C663-630 663-630 671-669H870C902-669 929-668 960-664V-741C929-736 909-735 863-735H684C690-770 692-780 699-826L621-831C618-786 616-771 611-735H416C369-735 345-736 318-740V-665C347-668 370-669 410-669H600ZM547-521H817V-447H547V-521ZM547-387H817V-313H547V-387ZM547-253H817V-173H547V-253ZM143-45C143 6 141 38 137 74H221C217 40 216 4 216-43V-596C250-670 258-692 281-763 288-784 292-795 300-817L218-838C212-791 203-760 180-697 140-589 93-509 19-425 34-405 50-378 61-352 100-402 118-432 146-485 143-427 143-415 143-368V-45ZM383 78V24H845C889 24 917 26 950 30V-49C923-45 896-44 845-44H383V-484C383-531 384-566 388-593H305C309-563 311-531 311-485V-45C311 15 310 44 306 78H383Z"/>
</g>
<g id="font_14_70">
<path transform="matrix(.001,0,0,-.001,0,0)" d="M522-644H799C836-644 866-642 901-638V-719C873-715 844-713 799-713H522V-740C522-777 524-807 529-833H436C441-805 443-772 443-735V-522H289C243-522 207-524 176-527 179-501 180-480 180-449V-282C180-255 179-234 176-209 206-212 234-213 277-213H725C769-213 795-212 826-209 823-233 822-251 822-283V-449C822-482 823-505 826-527 798-523 768-522 714-522H522V-644ZM746-452V-284H257V-452H746ZM117 74C176 3 208-55 244-151L174-179C157-126 147-103 122-63 98-23 83-4 46 32L117 74ZM438 59C434-17 427-68 409-159L340-148C356-64 360-22 360 74L438 59ZM684 45C658-33 636-88 598-167L532-147C570-62 590-4 607 75L684 45ZM935 32C880-67 860-100 801-182L735-154C792-74 819-25 863 73L935 32Z"/>
</g>
<g id="font_27_210">
<path transform="matrix(.001,0,0,-.001,0,0)" d="M469-726V-636H264C202-636 178-637 148-641 151-608 152-578 152-531V-353C152-314 151-281 148-246 180-250 209-251 263-251H446C436-208 422-179 396-144 358-173 325-206 306-235L238-197C246-189 253-182 261-173 298-134 309-124 347-94 308-62 273-41 223-22 172-3 131 7 50 18 71 51 74 59 85 91 177 73 213 62 264 40 320 16 363-12 407-51 547 33 705 71 932 73 940 40 947 18 962-10 924-9 905-8 886-8 713-8 569-40 455-104 487-147 505-189 520-251H746C801-251 828-250 860-246 857-279 856-308 856-353V-531C856-577 857-606 860-640 830-637 806-636 744-636H544V-726H836C874-726 912-724 946-720V-800C913-796 879-794 836-794H167C122-794 86-796 56-800V-720C95-724 125-726 167-726H469ZM468-572 466-478H224V-572H468ZM783-572V-478H541C542-513 543-527 543-572H783ZM465-416C462-373 461-356 457-315H224V-416H465ZM783-416V-315H531C535-348 536-369 539-416H783Z"/>
</g>
<g id="font_18_7">
<path transform="matrix(.001,0,0,-.001,0,0)" d="M628-522V-682C760-704 828-721 911-754 937-764 937-764 947-767L886-835C863-818 836-806 796-793 712-766 612-747 555-747 554-747 551-747 547-747 551-718 553-677 553-612 553-373 543-241 520-153 500-79 472-23 429 31 458 47 470 56 497 80 587-44 625-197 627-452H769V-25C769 26 767 51 763 80H851C846 54 845 28 845-25V-452H878C919-452 940-451 965-447V-528C941-524 917-522 873-522H628ZM251-441C252-430 253-425 253-417V-341H137C94-341 75-342 50-347V-270C76-274 93-275 135-275H226C200-229 187-210 158-178 120-136 82-104 32-72 49-52 61-31 73-3 160-68 212-128 257-215 254-181 253-159 253-136V-6C253 27 251 53 247 78H329C325 51 324 27 324-7V-139C324-164 323-177 320-224 355-169 371-152 437-95 450-122 458-136 476-160 410-202 377-232 346-275H424C464-275 483-274 508-270V-347C481-342 461-341 424-341H324V-417C324-424 324-429 325-441H428C466-441 485-440 513-436V-514C489-510 468-509 428-509H378C402-550 422-591 444-647L373-669C359-609 342-567 309-509H134C93-509 73-510 49-514V-436C72-440 96-441 134-441H251ZM328-744V-768C328-802 329-817 333-838H247C251-814 252-800 252-767V-744H159C113-744 91-745 69-749V-671C96-675 115-676 157-676H413C454-676 472-675 501-671V-749C476-745 457-744 414-744H328ZM243-537C227-591 216-619 190-668L126-646C150-603 162-574 179-515L243-537Z"/>
</g>
<g id="font_16_89">
<path transform="matrix(.001,0,0,-.001,0,0)" d="M542 0C506-46 481-80 470-96L334-285 463-466C472-480 495-511 501-519 518-541 518-541 524-550H411C401-529 388-506 370-480L280-348 188-480C170-506 160-525 148-550H33C74-496 87-480 95-469L225-286 83-88C66-64 37-25 17 0H134C151-32 159-46 174-68L279-222 379-76C401-45 410-30 425 0H542Z"/>
</g>
<g id="font_24_80">
<path transform="matrix(.001,0,0,-.001,0,0)" d="M189-288C144-288 116-290 88-294V-215C118-219 145-221 189-221H331C317-164 294-123 256-91 206-47 150-18 65 8 91 32 103 48 120 77 162 61 181 52 206 39 251 13 296-21 324-51 366-96 391-147 407-221H563V-19C563 45 593 60 722 60 900 60 917 47 941-110 914-115 894-123 864-140 859-79 851-43 839-30 826-15 801-11 731-11 698-11 679-12 660-16 642-19 637-26 637-44V-221H810C853-221 883-219 911-215V-294C882-290 855-288 810-288H637V-422H648C683-422 708-421 735-418V-467C796-422 837-399 921-358 936-390 946-405 964-428 885-459 846-479 785-521 814-546 843-574 865-599 902-641 902-641 912-651L847-692C823-652 781-603 733-560 704-583 678-606 655-628 689-659 720-691 754-732 765-746 768-749 775-756L710-797C692-763 652-714 610-675 567-725 545-762 537-803 516-800 496-799 449-799H261C229-799 203-801 186-804V-728C209-731 233-733 249-733H426C384-668 364-644 308-592 268-634 222-674 163-720L106-675C164-634 189-612 254-544 183-487 129-456 36-419 54-401 67-383 81-355 173-400 213-423 270-467V-418C294-421 315-422 348-422 348-356 347-330 342-288H189ZM563-422V-288H417C421-326 421-326 423-422H563ZM362-488C335-488 319-488 299-490 399-576 435-617 500-719 555-627 610-566 705-490 683-488 674-488 643-488H362Z"/>
</g>
<g id="font_14_62">
<path transform="matrix(.001,0,0,-.001,0,0)" d="M489-244C521-171 554-125 611-76 694-4 776 38 913 79 926 47 937 30 960 6 851-17 791-39 713-88 751-112 759-119 857-200L790-243C751-196 713-163 659-127 610-168 589-195 566-244H825C865-244 900-242 933-238V-315C908-311 874-309 824-309H715V-416H792C832-416 863-415 888-412V-485C865-481 846-480 793-480H715V-574H793C830-574 852-573 895-571 893-591 892-614 892-648V-721C892-754 893-774 895-801 867-798 841-797 787-797H260C202-797 170-798 135-801 139-761 140-736 140-657 140-452 128-285 107-184 89-97 68-46 24 20 48 38 64 53 88 82 148-16 177-106 194-244H323V-18C262-9 226-5 203-5 200-5 197-5 192-5L209 77C226 73 232 72 245 69 455 29 504 18 599-7V-75C500-50 474-44 396-31V-244H489ZM642-309H461V-416H642V-309ZM388-309H202C210-401 212-446 213-574H388V-480H334C291-480 267-481 245-485V-412C270-415 296-416 333-416H388V-309ZM461-574H642V-480H461V-574ZM214-636V-732H819V-636H214Z"/>
</g>
<g id="font_22_162">
<path transform="matrix(.001,0,0,-.001,0,0)" d="M707-436H842C883-436 906-435 932-431V-500C907-495 889-494 842-494H789C797-506 801-514 804-519 822-554 822-554 831-568L765-590C753-556 741-530 722-494H633C616-531 608-543 578-590L519-567C537-544 542-537 565-494H537C494-494 475-495 451-500V-431C477-435 498-436 537-436H638V-364H554C509-364 487-365 463-369V-302C493-305 511-306 554-306H638V-230H518C472-230 443-232 418-236V-164C445-168 473-169 518-169H638V-130C638-93 637-78 633-53H712C708-79 707-94 707-130V-169H848C892-169 920-167 947-164V-236C921-232 893-230 848-230H707V-306H808C853-306 871-305 901-302V-369C876-365 855-364 808-364H707V-436ZM845-596C881-596 903-595 928-593 926-612 925-635 925-665V-735C925-764 926-785 928-806 902-803 877-802 837-802H451C411-802 380-803 350-807 354-771 355-743 355-656 355-365 339-260 277-141 302-126 318-114 340-93 403-217 423-333 427-596H845ZM428-656V-738H854V-656H428ZM67-768C129-708 168-661 221-581L282-636C223-716 196-746 122-817L67-768ZM48-364C73-368 89-369 120-369H181V-137C126-84 69-42 25-22L63 58C90 35 110 19 122 10 154-15 180-39 216-74 251-25 275-4 318 16 377 42 444 50 622 50 733 50 856 48 945 44 952 6 955-5 970-40 870-27 746-21 570-21 422-21 356-33 306-68 285-84 273-98 255-135V-337C255-386 256-412 260-443 237-440 212-438 183-438H126C90-438 72-439 48-443V-364Z"/>
</g>
<g id="font_21_11">
<path transform="matrix(.001,0,0,-.001,0,0)" d="M641-204H526V-464C526-508 527-534 531-559H447C451-531 453-504 453-462V-204C406-204 387-205 360-209V-131C388-135 410-136 458-136H849C891-136 920-134 947-130V-210C917-206 888-204 849-204H714V-435H823C862-435 887-434 915-430V-507C889-503 864-502 823-502H714V-701C747-709 763-712 785-719 869-744 881-747 936-762L882-831C853-811 803-794 715-772 603-744 523-732 378-721 392-698 399-678 405-652 512-663 556-670 641-686V-204ZM95-346C101-335 104-327 109-317 131-266 165-199 187-166 147-105 116-73 38-6 61 14 75 31 91 56 166-16 195-49 232-105 286-42 338-7 405 12 474 31 580 41 714 41 756 41 871 39 951 37 957 0 959-8 974-44 882-36 777-31 670-31 542-31 463-41 398-65 346-84 312-110 268-165 311-246 341-339 355-429 358-452 360-466 361-471 365-493 365-493 367-510 351-507 329-506 291-506H211C252-567 296-644 318-694 330-720 336-732 345-745L310-791C292-788 273-787 237-787H137C107-787 88-788 67-792V-715C90-719 107-720 135-720H247C224-666 210-637 176-581 130-504 117-483 86-440 103-440 145-441 165-441H288C269-342 255-298 223-231 191-288 173-330 163-378L95-346Z"/>
</g>
</defs>
<path transform="matrix(.75,0,0,.75,0,0)" d="M0 0H1280V720H0Z" fill="#ffffff"/>
<g clip-path="url(#clip_1)">
<path transform="matrix(.75,0,0,.75,0,-17280)" d="M0 23040H1280V23760H0Z" fill="#ffffff"/>
</g>
<g clip-path="url(#clip_2)">
<path transform="matrix(.75,0,0,.75,0,0)" d="M0 0H1280V720H0Z" fill="#fafafa"/>
</g>
<g clip-path="url(#clip_3)">
<path transform="matrix(.75,0,0,.75,0,0)" d="M57 207H156V260H57Z" fill="#ffffff"/>
<path transform="matrix(.75,0,0,.75,0,0)" d="M156 207H599V260H156Z" fill="#ffffff"/>
<path transform="matrix(.75,0,0,.75,0,0)" d="M599 207H795V260H599Z" fill="#ffffff"/>
<path transform="matrix(.75,0,0,.75,0,0)" d="M57 207H156V260H57Z" fill="#1e293b"/>
<path transform="matrix(.75,0,0,.75,0,0)" d="M156 207H599V260H156Z" fill="#1e293b"/>
<path transform="matrix(.75,0,0,.75,0,0)" d="M599 207H795V260H599Z" fill="#1e293b"/>
<path transform="matrix(.75,0,0,.75,0,0)" d="M57 260H156V313H57Z" fill="#ffffff"/>
<path transform="matrix(.75,0,0,.75,0,0)" d="M156 260H599V313H156Z" fill="#ffffff"/>
<path transform="matrix(.75,0,0,.75,0,0)" d="M599 260H795V313H599Z" fill="#ffffff"/>
<path transform="matrix(.75,0,0,.75,0,0)" d="M57 313H156V366H57Z" fill="#f6f8fa"/>
<path transform="matrix(.75,0,0,.75,0,0)" d="M156 313H599V366H156Z" fill="#f6f8fa"/>
<path transform="matrix(.75,0,0,.75,0,0)" d="M599 313H795V366H599Z" fill="#f6f8fa"/>
<path transform="matrix(.75,0,0,.75,0,0)" d="M57 313H156V366H57Z" fill="#f8fafc"/>
<path transform="matrix(.75,0,0,.75,0,0)" d="M156 313H599V366H156Z" fill="#f8fafc"/>
<path transform="matrix(.75,0,0,.75,0,0)" d="M599 313H795V366H599Z" fill="#f8fafc"/>
<path transform="matrix(.75,0,0,.75,0,0)" d="M57 366H156V419H57Z" fill="#ffffff"/>
<path transform="matrix(.75,0,0,.75,0,0)" d="M156 366H599V419H156Z" fill="#ffffff"/>
<path transform="matrix(.75,0,0,.75,0,0)" d="M599 366H795V419H599Z" fill="#ffffff"/>
<path transform="matrix(.75,0,0,.75,0,0)" d="M57 419H156V472H57Z" fill="#f6f8fa"/>
<path transform="matrix(.75,0,0,.75,0,0)" d="M156 419H599V472H156Z" fill="#f6f8fa"/>
<path transform="matrix(.75,0,0,.75,0,0)" d="M599 419H795V472H599Z" fill="#f6f8fa"/>
<path transform="matrix(.75,0,0,.75,0,0)" d="M57 419H156V472H57Z" fill="#f8fafc"/>
<path transform="matrix(.75,0,0,.75,0,0)" d="M156 419H599V472H156Z" fill="#f8fafc"/>
<path transform="matrix(.75,0,0,.75,0,0)" d="M599 419H795V472H599Z" fill="#f8fafc"/>
<path transform="matrix(.75,0,0,.75,0,0)" d="M57 472H156V524H57Z" fill="#ffffff"/>
<path transform="matrix(.75,0,0,.75,0,0)" d="M156 472H599V524H156Z" fill="#ffffff"/>
<path transform="matrix(.75,0,0,.75,0,0)" d="M599 472H795V524H599Z" fill="#ffffff"/>
<path transform="matrix(.75,0,0,.75,0,0)" d="M57 524H156V577H57Z" fill="#f6f8fa"/>
<path transform="matrix(.75,0,0,.75,0,0)" d="M156 524H599V577H156Z" fill="#f6f8fa"/>
<path transform="matrix(.75,0,0,.75,0,0)" d="M599 524H795V577H599Z" fill="#f6f8fa"/>
<path transform="matrix(.75,0,0,.75,0,0)" d="M57 524H156V577H57Z" fill="#f8fafc"/>
<path transform="matrix(.75,0,0,.75,0,0)" d="M156 524H599V577H156Z" fill="#f8fafc"/>
<path transform="matrix(.75,0,0,.75,0,0)" d="M599 524H795V577H599Z" fill="#f8fafc"/>
<path transform="matrix(.75,0,0,.75,0,0)" d="M56 207H57V260H56Z" fill="#d1d9e0"/>
<path transform="matrix(.75,0,0,.75,0,0)" d="M56 207H157V208H56Z" fill="#d1d9e0"/>
<path transform="matrix(.75,0,0,.75,0,0)" d="M156 207H157V260H156Z" fill="#d1d9e0"/>
<path transform="matrix(.75,0,0,.75,0,0)" d="M157 207H600V208H157Z" fill="#d1d9e0"/>
<path transform="matrix(.75,0,0,.75,0,0)" d="M599 207H600V260H599Z" fill="#d1d9e0"/>
<path transform="matrix(.75,0,0,.75,0,0)" d="M600 207H795V208H600Z" fill="#d1d9e0"/>
<path transform="matrix(.75,0,0,.75,0,0)" d="M794 207H795V260H794Z" fill="#d1d9e0"/>
<path transform="matrix(.75,0,0,.75,0,0)" d="M56 259H157V260H56Z" fill="#d1d9e0"/>
<path transform="matrix(.75,0,0,.75,0,0)" d="M157 259H600V260H157Z" fill="#d1d9e0"/>
<path transform="matrix(.75,0,0,.75,0,0)" d="M600 259H795V260H600Z" fill="#d1d9e0"/>
<path transform="matrix(.75,0,0,.75,0,0)" d="M56 260H57V313H56Z" fill="#d1d9e0"/>
<path transform="matrix(.75,0,0,.75,0,0)" d="M156 260H157V313H156Z" fill="#d1d9e0"/>
<path transform="matrix(.75,0,0,.75,0,0)" d="M599 260H600V313H599Z" fill="#d1d9e0"/>
<path transform="matrix(.75,0,0,.75,0,0)" d="M794 260H795V313H794Z" fill="#d1d9e0"/>
<path transform="matrix(.75,0,0,.75,0,0)" d="M56 313H57V366H56Z" fill="#d1d9e0"/>
<path transform="matrix(.75,0,0,.75,0,0)" d="M56 312H157V313H56Z" fill="#d1d9e0"/>
<path transform="matrix(.75,0,0,.75,0,0)" d="M156 313H157V366H156Z" fill="#d1d9e0"/>
<path transform="matrix(.75,0,0,.75,0,0)" d="M157 312H600V313H157Z" fill="#d1d9e0"/>
<path transform="matrix(.75,0,0,.75,0,0)" d="M599 313H600V366H599Z" fill="#d1d9e0"/>
<path transform="matrix(.75,0,0,.75,0,0)" d="M600 312H795V313H600Z" fill="#d1d9e0"/>
<path transform="matrix(.75,0,0,.75,0,0)" d="M794 313H795V366H794Z" fill="#d1d9e0"/>
<path transform="matrix(.75,0,0,.75,0,0)" d="M56 366H57V419H56Z" fill="#d1d9e0"/>
<path transform="matrix(.75,0,0,.75,0,0)" d="M56 365H157V366H56Z" fill="#d1d9e0"/>
<path transform="matrix(.75,0,0,.75,0,0)" d="M156 366H157V419H156Z" fill="#d1d9e0"/>
<path transform="matrix(.75,0,0,.75,0,0)" d="M157 365H600V366H157Z" fill="#d1d9e0"/>
<path transform="matrix(.75,0,0,.75,0,0)" d="M599 366H600V419H599Z" fill="#d1d9e0"/>
<path transform="matrix(.75,0,0,.75,0,0)" d="M600 365H795V366H600Z" fill="#d1d9e0"/>
<path transform="matrix(.75,0,0,.75,0,0)" d="M794 366H795V419H794Z" fill="#d1d9e0"/>
<path transform="matrix(.75,0,0,.75,0,0)" d="M56 419H57V472H56Z" fill="#d1d9e0"/>
<path transform="matrix(.75,0,0,.75,0,0)" d="M56 418H157V419H56Z" fill="#d1d9e0"/>
<path transform="matrix(.75,0,0,.75,0,0)" d="M156 419H157V472H156Z" fill="#d1d9e0"/>
<path transform="matrix(.75,0,0,.75,0,0)" d="M157 418H600V419H157Z" fill="#d1d9e0"/>
<path transform="matrix(.75,0,0,.75,0,0)" d="M599 419H600V472H599Z" fill="#d1d9e0"/>
<path transform="matrix(.75,0,0,.75,0,0)" d="M600 418H795V419H600Z" fill="#d1d9e0"/>
<path transform="matrix(.75,0,0,.75,0,0)" d="M794 419H795V472H794Z" fill="#d1d9e0"/>
<path transform="matrix(.75,0,0,.75,0,0)" d="M56 472H57V525H56Z" fill="#d1d9e0"/>
<path transform="matrix(.75,0,0,.75,0,0)" d="M56 471H157V472H56Z" fill="#d1d9e0"/>
<path transform="matrix(.75,0,0,.75,0,0)" d="M156 472H157V525H156Z" fill="#d1d9e0"/>
<path transform="matrix(.75,0,0,.75,0,0)" d="M157 471H600V472H157Z" fill="#d1d9e0"/>
<path transform="matrix(.75,0,0,.75,0,0)" d="M599 472H600V525H599Z" fill="#d1d9e0"/>
<path transform="matrix(.75,0,0,.75,0,0)" d="M600 471H795V472H600Z" fill="#d1d9e0"/>
<path transform="matrix(.75,0,0,.75,0,0)" d="M794 472H795V525H794Z" fill="#d1d9e0"/>
<path transform="matrix(.75,0,0,.75,0,0)" d="M56 525H57V578H56Z" fill="#d1d9e0"/>
<path transform="matrix(.75,0,0,.75,0,0)" d="M56 524H157V525H56Z" fill="#d1d9e0"/>
<path transform="matrix(.75,0,0,.75,0,0)" d="M156 525H157V578H156Z" fill="#d1d9e0"/>
<path transform="matrix(.75,0,0,.75,0,0)" d="M157 524H600V525H157Z" fill="#d1d9e0"/>
<path transform="matrix(.75,0,0,.75,0,0)" d="M599 525H600V578H599Z" fill="#d1d9e0"/>
<path transform="matrix(.75,0,0,.75,0,0)" d="M600 524H795V525H600Z" fill="#d1d9e0"/>
<path transform="matrix(.75,0,0,.75,0,0)" d="M794 525H795V578H794Z" fill="#d1d9e0"/>
<path transform="matrix(.75,0,0,.75,0,0)" d="M56 577H157V578H56Z" fill="#d1d9e0"/>
<path transform="matrix(.75,0,0,.75,0,0)" d="M157 577H600V578H157Z" fill="#d1d9e0"/>
<path transform="matrix(.75,0,0,.75,0,0)" d="M600 577H795V578H600Z" fill="#d1d9e0"/>
</g>
<g clip-path="url(#clip_4)">
<use data-text="&#x7df4;" xlink:href="#font_5_212" transform="matrix(23.400002,0,0,-23.400002,42,129.75)" fill="#1e293b"/>
<use data-text="&#x7fd2;" xlink:href="#font_6_63" transform="matrix(23.400002,0,0,-23.400002,65.399997,129.75)" fill="#1e293b"/>
<use data-text="&#x554f;" xlink:href="#font_7_254" transform="matrix(23.400002,0,0,-23.400002,88.799999,129.75)" fill="#1e293b"/>
<use data-text="&#x984c;" xlink:href="#font_8_85" transform="matrix(23.400002,0,0,-23.400002,112.2,129.75)" fill="#1e293b"/>
</g>
<g clip-path="url(#clip_9)">
<use data-text="&#x30ec;" xlink:href="#font_10_235" transform="matrix(18.135,0,0,-18.135,52.5,181.5)" fill="#ffffff"/>
<use data-text="&#x30d9;" xlink:href="#font_10_216" transform="matrix(18.135,0,0,-18.135,70.634998,181.5)" fill="#ffffff"/>
<use data-text="&#x30eb;" xlink:href="#font_10_234" transform="matrix(18.135,0,0,-18.135,88.76999,181.5)" fill="#ffffff"/>
<use data-text="&#x554f;" xlink:href="#font_11_254" transform="matrix(18.135,0,0,-18.135,265.03126,181.5)" fill="#ffffff"/>
<use data-text="&#x984c;" xlink:href="#font_12_85" transform="matrix(18.135,0,0,-18.135,283.16627,181.5)" fill="#ffffff"/>
<use data-text="&#x4f7f;" xlink:href="#font_13_158" transform="matrix(18.135,0,0,-18.135,486.42189,181.5)" fill="#ffffff"/>
<use data-text="&#x3046;" xlink:href="#font_10_82" transform="matrix(18.135,0,0,-18.135,504.5569,181.5)" fill="#ffffff"/>
<use data-text="&#x3082;" xlink:href="#font_10_142" transform="matrix(18.135,0,0,-18.135,522.6919,181.5)" fill="#ffffff"/>
<use data-text="&#x306e;" xlink:href="#font_10_122" transform="matrix(18.135,0,0,-18.135,540.82687,181.5)" fill="#ffffff"/>
<use data-text="&#x2f0a;" xlink:href="#font_14_226" transform="matrix(18.135,0,0,-18.135,52.5,220.5)" fill="#1a1a1a"/>
<use data-text="&#x2fa8;" xlink:href="#font_15_2" transform="matrix(18.135,0,0,-18.135,70.634998,220.5)" fill="#1a1a1a"/>
<use data-text="A" xlink:href="#font_16_34" transform="matrix(18.135,0,0,-18.135,127.16016,220.5)" fill="#1a1a1a"/>
<use data-text="I" xlink:href="#font_16_42" transform="matrix(18.135,0,0,-18.135,141.05158,220.5)" fill="#1a1a1a"/>
<use data-text="Z" xlink:href="#font_16_59" transform="matrix(18.135,0,0,-18.135,145.78479,220.5)" fill="#1a1a1a"/>
<use data-text="U" xlink:href="#font_16_54" transform="matrix(18.135,0,0,-18.135,158.09845,220.5)" fill="#1a1a1a"/>
<use data-text=" " xlink:href="#font_16_1" transform="matrix(18.135,0,0,-18.135,172.40697,220.5)" fill="#1a1a1a"/>
<use data-text="D" xlink:href="#font_16_37" transform="matrix(18.135,0,0,-18.135,178.44593,220.5)" fill="#1a1a1a"/>
<use data-text="S" xlink:href="#font_16_52" transform="matrix(18.135,0,0,-18.135,192.42801,220.5)" fill="#1a1a1a"/>
<use data-text="L" xlink:href="#font_16_45" transform="matrix(18.135,0,0,-18.135,204.79608,220.5)" fill="#1a1a1a"/>
<use data-text="-" xlink:href="#font_16_14" transform="matrix(18.135,0,0,-18.135,213.73664,220.5)" fill="#1a1a1a"/>
<use data-text="2" xlink:href="#font_16_19" transform="matrix(18.135,0,0,-18.135,220.50098,220.5)" fill="#1a1a1a"/>
<use data-text="-" xlink:href="#font_16_14" transform="matrix(18.135,0,0,-18.135,232.70584,220.5)" fill="#1a1a1a"/>
<use data-text="B" xlink:href="#font_16_35" transform="matrix(18.135,0,0,-18.135,239.47019,220.5)" fill="#1a1a1a"/>
<use data-text=" " xlink:href="#font_16_1" transform="matrix(18.135,0,0,-18.135,252.54552,220.5)" fill="#1a1a1a"/>
<use data-text="(" xlink:href="#font_16_9" transform="matrix(18.135,0,0,-18.135,258.58448,220.5)" fill="#1a1a1a"/>
<use data-text="R" xlink:href="#font_16_51" transform="matrix(18.135,0,0,-18.135,265.29444,220.5)" fill="#1a1a1a"/>
<use data-text="a" xlink:href="#font_16_66" transform="matrix(18.135,0,0,-18.135,278.67805,220.5)" fill="#1a1a1a"/>
<use data-text="n" xlink:href="#font_16_79" transform="matrix(18.135,0,0,-18.135,289.414,220.5)" fill="#1a1a1a"/>
<use data-text="g" xlink:href="#font_16_72" transform="matrix(18.135,0,0,-18.135,300.91157,220.5)" fill="#1a1a1a"/>
<use data-text="e" xlink:href="#font_16_70" transform="matrix(18.135,0,0,-18.135,312.75373,220.5)" fill="#1a1a1a"/>
<use data-text=" " xlink:href="#font_16_1" transform="matrix(18.135,0,0,-18.135,323.67097,220.5)" fill="#1a1a1a"/>
<use data-text="S" xlink:href="#font_16_52" transform="matrix(18.135,0,0,-18.135,329.7099,220.5)" fill="#1a1a1a"/>
<use data-text="u" xlink:href="#font_16_86" transform="matrix(18.135,0,0,-18.135,342.07798,220.5)" fill="#1a1a1a"/>
<use data-text="m" xlink:href="#font_16_78" transform="matrix(18.135,0,0,-18.135,353.57557,220.5)" fill="#1a1a1a"/>
<use data-text=" " xlink:href="#font_16_1" transform="matrix(18.135,0,0,-18.135,370.87635,220.5)" fill="#1a1a1a"/>
<use data-text="Q" xlink:href="#font_16_50" transform="matrix(18.135,0,0,-18.135,376.91529,220.5)" fill="#1a1a1a"/>
<use data-text="u" xlink:href="#font_16_86" transform="matrix(18.135,0,0,-18.135,391.55027,220.5)" fill="#1a1a1a"/>
<use data-text="e" xlink:href="#font_16_70" transform="matrix(18.135,0,0,-18.135,403.04783,220.5)" fill="#1a1a1a"/>
<use data-text="r" xlink:href="#font_16_83" transform="matrix(18.135,0,0,-18.135,413.9651,220.5)" fill="#1a1a1a"/>
<use data-text="y" xlink:href="#font_16_90" transform="matrix(18.135,0,0,-18.135,422.0714,220.5)" fill="#1a1a1a"/>
<use data-text=")" xlink:href="#font_16_10" transform="matrix(18.135,0,0,-18.135,432.48094,220.5)" fill="#1a1a1a"/>
<use data-text="B" xlink:href="#font_16_35" transform="matrix(18.135,0,0,-18.135,459.4453,220.5)" fill="#1a1a1a"/>
<use data-text="I" xlink:href="#font_16_42" transform="matrix(18.135,0,0,-18.135,472.52064,220.5)" fill="#1a1a1a"/>
<use data-text="T" xlink:href="#font_16_53" transform="matrix(18.135,0,0,-18.135,477.25389,220.5)" fill="#1a1a1a"/>
<use data-text="&#x57fa;" xlink:href="#font_17_50" transform="matrix(18.135,0,0,-18.135,52.5,260.25)" fill="#1a1a1a"/>
<use data-text="&#x790e;" xlink:href="#font_18_207" transform="matrix(18.135,0,0,-18.135,70.634998,260.25)" fill="#1a1a1a"/>
<use data-text="A" xlink:href="#font_16_34" transform="matrix(18.135,0,0,-18.135,127.16016,260.25)" fill="#1a1a1a"/>
<use data-text="t" xlink:href="#font_16_85" transform="matrix(18.135,0,0,-18.135,141.05158,260.25)" fill="#1a1a1a"/>
<use data-text="C" xlink:href="#font_16_36" transform="matrix(18.135,0,0,-18.135,148.39624,260.25)" fill="#1a1a1a"/>
<use data-text="o" xlink:href="#font_16_80" transform="matrix(18.135,0,0,-18.135,162.28765,260.25)" fill="#1a1a1a"/>
<use data-text="d" xlink:href="#font_16_69" transform="matrix(18.135,0,0,-18.135,173.85778,260.25)" fill="#1a1a1a"/>
<use data-text="e" xlink:href="#font_16_70" transform="matrix(18.135,0,0,-18.135,185.88127,260.25)" fill="#1a1a1a"/>
<use data-text="r" xlink:href="#font_16_83" transform="matrix(18.135,0,0,-18.135,196.79853,260.25)" fill="#1a1a1a"/>
<use data-text=" " xlink:href="#font_16_1" transform="matrix(18.135,0,0,-18.135,204.90486,260.25)" fill="#1a1a1a"/>
<use data-text="L" xlink:href="#font_16_45" transform="matrix(18.135,0,0,-18.135,210.94382,260.25)" fill="#1a1a1a"/>
<use data-text="i" xlink:href="#font_16_74" transform="matrix(18.135,0,0,-18.135,222.06056,260.25)" fill="#1a1a1a"/>
<use data-text="b" xlink:href="#font_16_67" transform="matrix(18.135,0,0,-18.135,226.55805,260.25)" fill="#1a1a1a"/>
<use data-text="r" xlink:href="#font_16_83" transform="matrix(18.135,0,0,-18.135,238.58153,260.25)" fill="#1a1a1a"/>
<use data-text="a" xlink:href="#font_16_66" transform="matrix(18.135,0,0,-18.135,246.68788,260.25)" fill="#1a1a1a"/>
<use data-text="r" xlink:href="#font_16_83" transform="matrix(18.135,0,0,-18.135,257.42384,260.25)" fill="#1a1a1a"/>
<use data-text="y" xlink:href="#font_16_90" transform="matrix(18.135,0,0,-18.135,265.53016,260.25)" fill="#1a1a1a"/>
<use data-text=" " xlink:href="#font_16_1" transform="matrix(18.135,0,0,-18.135,275.93965,260.25)" fill="#1a1a1a"/>
<use data-text="P" xlink:href="#font_16_49" transform="matrix(18.135,0,0,-18.135,281.97859,260.25)" fill="#1a1a1a"/>
<use data-text="r" xlink:href="#font_16_83" transform="matrix(18.135,0,0,-18.135,294.23783,260.25)" fill="#1a1a1a"/>
<use data-text="a" xlink:href="#font_16_66" transform="matrix(18.135,0,0,-18.135,302.34419,260.25)" fill="#1a1a1a"/>
<use data-text="c" xlink:href="#font_16_68" transform="matrix(18.135,0,0,-18.135,313.08009,260.25)" fill="#1a1a1a"/>
<use data-text="t" xlink:href="#font_16_85" transform="matrix(18.135,0,0,-18.135,323.79786,260.25)" fill="#1a1a1a"/>
<use data-text="i" xlink:href="#font_16_74" transform="matrix(18.135,0,0,-18.135,331.14253,260.25)" fill="#1a1a1a"/>
<use data-text="c" xlink:href="#font_16_68" transform="matrix(18.135,0,0,-18.135,335.64,260.25)" fill="#1a1a1a"/>
<use data-text="e" xlink:href="#font_16_70" transform="matrix(18.135,0,0,-18.135,346.3578,260.25)" fill="#1a1a1a"/>
<use data-text=" " xlink:href="#font_16_1" transform="matrix(18.135,0,0,-18.135,357.27507,260.25)" fill="#1a1a1a"/>
<use data-text="B" xlink:href="#font_16_35" transform="matrix(18.135,0,0,-18.135,363.31398,260.25)" fill="#1a1a1a"/>
<use data-text="B" xlink:href="#font_16_35" transform="matrix(18.135,0,0,-18.135,459.4453,260.25)" fill="#1a1a1a"/>
<use data-text="I" xlink:href="#font_16_42" transform="matrix(18.135,0,0,-18.135,472.52064,260.25)" fill="#1a1a1a"/>
<use data-text="T" xlink:href="#font_16_53" transform="matrix(18.135,0,0,-18.135,477.25389,260.25)" fill="#1a1a1a"/>
<use data-text="&#x57fa;" xlink:href="#font_17_50" transform="matrix(18.135,0,0,-18.135,52.5,300)" fill="#1a1a1a"/>
<use data-text="&#x790e;" xlink:href="#font_18_207" transform="matrix(18.135,0,0,-18.135,70.634998,300)" fill="#1a1a1a"/>
<use data-text="A" xlink:href="#font_16_34" transform="matrix(18.135,0,0,-18.135,127.16016,300)" fill="#1a1a1a"/>
<use data-text="t" xlink:href="#font_16_85" transform="matrix(18.135,0,0,-18.135,141.05158,300)" fill="#1a1a1a"/>
<use data-text="C" xlink:href="#font_16_36" transform="matrix(18.135,0,0,-18.135,148.39624,300)" fill="#1a1a1a"/>
<use data-text="o" xlink:href="#font_16_80" transform="matrix(18.135,0,0,-18.135,162.28765,300)" fill="#1a1a1a"/>
<use data-text="d" xlink:href="#font_16_69" transform="matrix(18.135,0,0,-18.135,173.85778,300)" fill="#1a1a1a"/>
<use data-text="e" xlink:href="#font_16_70" transform="matrix(18.135,0,0,-18.135,185.88127,300)" fill="#1a1a1a"/>
<use data-text="r" xlink:href="#font_16_83" transform="matrix(18.135,0,0,-18.135,196.79853,300)" fill="#1a1a1a"/>
<use data-text=" " xlink:href="#font_16_1" transform="matrix(18.135,0,0,-18.135,204.90486,300)" fill="#1a1a1a"/>
<use data-text="L" xlink:href="#font_16_45" transform="matrix(18.135,0,0,-18.135,210.94382,300)" fill="#1a1a1a"/>
<use data-text="i" xlink:href="#font_16_74" transform="matrix(18.135,0,0,-18.135,222.06056,300)" fill="#1a1a1a"/>
<use data-text="b" xlink:href="#font_16_67" transform="matrix(18.135,0,0,-18.135,226.55805,300)" fill="#1a1a1a"/>
<use data-text="r" xlink:href="#font_16_83" transform="matrix(18.135,0,0,-18.135,238.58153,300)" fill="#1a1a1a"/>
<use data-text="a" xlink:href="#font_16_66" transform="matrix(18.135,0,0,-18.135,246.68788,300)" fill="#1a1a1a"/>
<use data-text="r" xlink:href="#font_16_83" transform="matrix(18.135,0,0,-18.135,257.42384,300)" fill="#1a1a1a"/>
<use data-text="y" xlink:href="#font_16_90" transform="matrix(18.135,0,0,-18.135,265.53016,300)" fill="#1a1a1a"/>
<use data-text=" " xlink:href="#font_16_1" transform="matrix(18.135,0,0,-18.135,275.93965,300)" fill="#1a1a1a"/>
<use data-text="P" xlink:href="#font_16_49" transform="matrix(18.135,0,0,-18.135,281.97859,300)" fill="#1a1a1a"/>
<use data-text="r" xlink:href="#font_16_83" transform="matrix(18.135,0,0,-18.135,294.23783,300)" fill="#1a1a1a"/>
<use data-text="a" xlink:href="#font_16_66" transform="matrix(18.135,0,0,-18.135,302.34419,300)" fill="#1a1a1a"/>
<use data-text="c" xlink:href="#font_16_68" transform="matrix(18.135,0,0,-18.135,313.08009,300)" fill="#1a1a1a"/>
<use data-text="t" xlink:href="#font_16_85" transform="matrix(18.135,0,0,-18.135,323.79786,300)" fill="#1a1a1a"/>
<use data-text="i" xlink:href="#font_16_74" transform="matrix(18.135,0,0,-18.135,331.14253,300)" fill="#1a1a1a"/>
<use data-text="c" xlink:href="#font_16_68" transform="matrix(18.135,0,0,-18.135,335.64,300)" fill="#1a1a1a"/>
<use data-text="e" xlink:href="#font_16_70" transform="matrix(18.135,0,0,-18.135,346.3578,300)" fill="#1a1a1a"/>
<use data-text=" " xlink:href="#font_16_1" transform="matrix(18.135,0,0,-18.135,357.27507,300)" fill="#1a1a1a"/>
<use data-text="J" xlink:href="#font_16_43" transform="matrix(18.135,0,0,-18.135,363.31398,300)" fill="#1a1a1a"/>
<use data-text="&#x30bb;" xlink:href="#font_19_186" transform="matrix(18.135,0,0,-18.135,459.4453,300)" fill="#1a1a1a"/>
<use data-text="&#x30b0;" xlink:href="#font_19_175" transform="matrix(18.135,0,0,-18.135,477.58033,300)" fill="#1a1a1a"/>
<use data-text="&#x2f4a;" xlink:href="#font_20_244" transform="matrix(18.135,0,0,-18.135,495.7153,300)" fill="#1a1a1a"/>
<use data-text="&#x5fdc;" xlink:href="#font_21_37" transform="matrix(18.135,0,0,-18.135,52.5,339.75)" fill="#1a1a1a"/>
<use data-text="&#x2f64;" xlink:href="#font_15_74" transform="matrix(18.135,0,0,-18.135,70.634998,339.75)" fill="#1a1a1a"/>
<use data-text="&#x8ee2;" xlink:href="#font_14_68" transform="matrix(18.135,0,0,-18.135,127.16016,339.75)" fill="#1a1a1a"/>
<use data-text="&#x5012;" xlink:href="#font_14_99" transform="matrix(18.135,0,0,-18.135,145.29515,339.75)" fill="#1a1a1a"/>
<use data-text="&#x6570;" xlink:href="#font_18_68" transform="matrix(18.135,0,0,-18.135,163.43015,339.75)" fill="#1a1a1a"/>
<use data-text="&#x30ab;" xlink:href="#font_19_170" transform="matrix(18.135,0,0,-18.135,181.56514,339.75)" fill="#1a1a1a"/>
<use data-text="&#x30a6;" xlink:href="#font_19_165" transform="matrix(18.135,0,0,-18.135,199.70014,339.75)" fill="#1a1a1a"/>
<use data-text="&#x30f3;" xlink:href="#font_19_242" transform="matrix(18.135,0,0,-18.135,217.83513,339.75)" fill="#1a1a1a"/>
<use data-text="&#x30c8;" xlink:href="#font_19_199" transform="matrix(18.135,0,0,-18.135,235.97013,339.75)" fill="#1a1a1a"/>
<use data-text="&#x554f;" xlink:href="#font_20_254" transform="matrix(18.135,0,0,-18.135,254.10512,339.75)" fill="#1a1a1a"/>
<use data-text="&#x984c;" xlink:href="#font_22_85" transform="matrix(18.135,0,0,-18.135,272.2401,339.75)" fill="#1a1a1a"/>
<use data-text="&#x5ea7;" xlink:href="#font_23_58" transform="matrix(18.135,0,0,-18.135,459.4453,339.75)" fill="#1a1a1a"/>
<use data-text="&#x6a19;" xlink:href="#font_24_183" transform="matrix(18.135,0,0,-18.135,477.58033,339.75)" fill="#1a1a1a"/>
<use data-text="&#x5727;" xlink:href="#font_25_125" transform="matrix(18.135,0,0,-18.135,495.7153,339.75)" fill="#1a1a1a"/>
<use data-text="&#x7e2e;" xlink:href="#font_26_95" transform="matrix(18.135,0,0,-18.135,513.8503,339.75)" fill="#1a1a1a"/>
<use data-text=" " xlink:href="#font_16_1" transform="matrix(18.135,0,0,-18.135,531.9853,339.75)" fill="#1a1a1a"/>
<use data-text="+" xlink:href="#font_16_12" transform="matrix(18.135,0,0,-18.135,538.02426,339.75)" fill="#1a1a1a"/>
<use data-text=" " xlink:href="#font_16_1" transform="matrix(18.135,0,0,-18.135,550.06588,339.75)" fill="#1a1a1a"/>
<use data-text="B" xlink:href="#font_16_35" transform="matrix(18.135,0,0,-18.135,556.1048,339.75)" fill="#1a1a1a"/>
<use data-text="I" xlink:href="#font_16_42" transform="matrix(18.135,0,0,-18.135,569.1802,339.75)" fill="#1a1a1a"/>
<use data-text="T" xlink:href="#font_16_53" transform="matrix(18.135,0,0,-18.135,573.9134,339.75)" fill="#1a1a1a"/>
<use data-text="&#x5fdc;" xlink:href="#font_21_37" transform="matrix(18.135,0,0,-18.135,52.5,379.5)" fill="#1a1a1a"/>
<use data-text="&#x2f64;" xlink:href="#font_15_74" transform="matrix(18.135,0,0,-18.135,70.634998,379.5)" fill="#1a1a1a"/>
<use data-text="&#x533a;" xlink:href="#font_17_230" transform="matrix(18.135,0,0,-18.135,127.16016,379.5)" fill="#1a1a1a"/>
<use data-text="&#x9593;" xlink:href="#font_17_24" transform="matrix(18.135,0,0,-18.135,145.29515,379.5)" fill="#1a1a1a"/>
<use data-text="&#x6700;" xlink:href="#font_23_63" transform="matrix(18.135,0,0,-18.135,163.43015,379.5)" fill="#1a1a1a"/>
<use data-text="&#x2f24;" xlink:href="#font_22_82" transform="matrix(18.135,0,0,-18.135,181.56514,379.5)" fill="#1a1a1a"/>
<use data-text="&#x5024;" xlink:href="#font_22_150" transform="matrix(18.135,0,0,-18.135,199.70014,379.5)" fill="#1a1a1a"/>
<use data-text=" " xlink:href="#font_16_1" transform="matrix(18.135,0,0,-18.135,217.83513,379.5)" fill="#1a1a1a"/>
<use data-text="+" xlink:href="#font_16_12" transform="matrix(18.135,0,0,-18.135,223.87409,379.5)" fill="#1a1a1a"/>
<use data-text=" " xlink:href="#font_16_1" transform="matrix(18.135,0,0,-18.135,235.91571,379.5)" fill="#1a1a1a"/>
<use data-text="&#x70b9;" xlink:href="#font_14_70" transform="matrix(18.135,0,0,-18.135,241.95465,379.5)" fill="#1a1a1a"/>
<use data-text="&#x66f4;" xlink:href="#font_27_210" transform="matrix(18.135,0,0,-18.135,260.08967,379.5)" fill="#1a1a1a"/>
<use data-text="&#x65b0;" xlink:href="#font_18_7" transform="matrix(18.135,0,0,-18.135,278.22465,379.5)" fill="#1a1a1a"/>
<use data-text="&#x30bb;" xlink:href="#font_19_186" transform="matrix(18.135,0,0,-18.135,459.4453,379.5)" fill="#1a1a1a"/>
<use data-text="&#x30b0;" xlink:href="#font_19_175" transform="matrix(18.135,0,0,-18.135,477.58033,379.5)" fill="#1a1a1a"/>
<use data-text="&#x2f4a;" xlink:href="#font_20_244" transform="matrix(18.135,0,0,-18.135,495.7153,379.5)" fill="#1a1a1a"/>
<use data-text=" " xlink:href="#font_16_1" transform="matrix(18.135,0,0,-18.135,513.8503,379.5)" fill="#1a1a1a"/>
<use data-text="(" xlink:href="#font_16_9" transform="matrix(18.135,0,0,-18.135,519.8893,379.5)" fill="#1a1a1a"/>
<use data-text="m" xlink:href="#font_16_78" transform="matrix(18.135,0,0,-18.135,526.5992,379.5)" fill="#1a1a1a"/>
<use data-text="a" xlink:href="#font_16_66" transform="matrix(18.135,0,0,-18.135,543.89999,379.5)" fill="#1a1a1a"/>
<use data-text="x" xlink:href="#font_16_89" transform="matrix(18.135,0,0,-18.135,554.63589,379.5)" fill="#1a1a1a"/>
<use data-text=")" xlink:href="#font_16_10" transform="matrix(18.135,0,0,-18.135,564.7733,379.5)" fill="#1a1a1a"/>
<use data-text="&#x767a;" xlink:href="#font_24_80" transform="matrix(18.135,0,0,-18.135,52.5,419.25)" fill="#1a1a1a"/>
<use data-text="&#x5c55;" xlink:href="#font_14_62" transform="matrix(18.135,0,0,-18.135,70.634998,419.25)" fill="#1a1a1a"/>
<use data-text="&#x533a;" xlink:href="#font_17_230" transform="matrix(18.135,0,0,-18.135,127.16016,419.25)" fill="#1a1a1a"/>
<use data-text="&#x9593;" xlink:href="#font_17_24" transform="matrix(18.135,0,0,-18.135,145.29515,419.25)" fill="#1a1a1a"/>
<use data-text=" " xlink:href="#font_16_1" transform="matrix(18.135,0,0,-18.135,163.43015,419.25)" fill="#1a1a1a"/>
<use data-text="a" xlink:href="#font_16_66" transform="matrix(18.135,0,0,-18.135,169.46909,419.25)" fill="#1a1a1a"/>
<use data-text="d" xlink:href="#font_16_69" transform="matrix(18.135,0,0,-18.135,180.20502,419.25)" fill="#1a1a1a"/>
<use data-text="d" xlink:href="#font_16_69" transform="matrix(18.135,0,0,-18.135,192.22852,419.25)" fill="#1a1a1a"/>
<use data-text=" " xlink:href="#font_16_1" transform="matrix(18.135,0,0,-18.135,204.252,419.25)" fill="#1a1a1a"/>
<use data-text="+" xlink:href="#font_16_12" transform="matrix(18.135,0,0,-18.135,210.29096,419.25)" fill="#1a1a1a"/>
<use data-text=" " xlink:href="#font_16_1" transform="matrix(18.135,0,0,-18.135,222.33258,419.25)" fill="#1a1a1a"/>
<use data-text="&#x533a;" xlink:href="#font_17_230" transform="matrix(18.135,0,0,-18.135,228.37152,419.25)" fill="#1a1a1a"/>
<use data-text="&#x9593;" xlink:href="#font_17_24" transform="matrix(18.135,0,0,-18.135,246.50652,419.25)" fill="#1a1a1a"/>
<use data-text=" " xlink:href="#font_16_1" transform="matrix(18.135,0,0,-18.135,264.6415,419.25)" fill="#1a1a1a"/>
<use data-text="m" xlink:href="#font_16_78" transform="matrix(18.135,0,0,-18.135,270.68049,419.25)" fill="#1a1a1a"/>
<use data-text="i" xlink:href="#font_16_74" transform="matrix(18.135,0,0,-18.135,287.98127,419.25)" fill="#1a1a1a"/>
<use data-text="n" xlink:href="#font_16_79" transform="matrix(18.135,0,0,-18.135,292.4787,419.25)" fill="#1a1a1a"/>
<use data-text="&#x9045;" xlink:href="#font_22_162" transform="matrix(18.135,0,0,-18.135,459.4453,419.25)" fill="#1a1a1a"/>
<use data-text="&#x5ef6;" xlink:href="#font_21_11" transform="matrix(18.135,0,0,-18.135,477.58033,419.25)" fill="#1a1a1a"/>
<use data-text="&#x30bb;" xlink:href="#font_19_186" transform="matrix(18.135,0,0,-18.135,495.7153,419.25)" fill="#1a1a1a"/>
<use data-text="&#x30b0;" xlink:href="#font_19_175" transform="matrix(18.135,0,0,-18.135,513.8503,419.25)" fill="#1a1a1a"/>
<use data-text="&#x2f4a;" xlink:href="#font_20_244" transform="matrix(18.135,0,0,-18.135,531.9853,419.25)" fill="#1a1a1a"/>
</g>
</svg>
