<svg xmlns="http://www.w3.org/2000/svg" xmlns:xlink="http://www.w3.org/1999/xlink" xmlns:inkscape="http://www.inkscape.org/namespaces/inkscape" version="1.1" width="960" height="540" viewBox="0 0 960 540">
<defs>
<clipPath id="clip_1">
<path transform="matrix(.24,0,0,.24,0,0)" d="M0 0H4000V2250H0Z" clip-rule="evenodd"/>
</clipPath>
<clipPath id="clip_2">
<path transform="matrix(.24,0,0,.24,0,0)" d="M0 0H4000V2250H0Z" clip-rule="evenodd"/>
</clipPath>
<clipPath id="clip_3">
<path transform="matrix(.24,0,0,.24,0,0)" d="M0 0H4000V2250H0Z" clip-rule="evenodd"/>
</clipPath>
<g id="font_4_49">
<path transform="matrix(.001,0,0,-.001,0,0)" d="M219 12C213-26 211-64 211-118V-285H402C498-285 566-308 615-357 659-403 682-465 682-541 682-613 661-673 620-713 572-761 504-784 407-784H198C145-784 114-785 71-787 77-742 79-706 79-658V-117C79-63 77-28 71 12H219ZM211-400V-669H402C455-669 488-658 511-633 533-610 544-577 544-537 544-449 494-400 402-400H211Z"/>
</g>
<g id="font_4_66">
<path transform="matrix(.001,0,0,-.001,0,0)" d="M442 12H577C571-33 569-60 569-113V-382C569-450 556-488 522-520 479-562 421-579 325-579 239-579 183-564 134-528 96-501 78-475 55-417L183-394C195-430 204-444 223-458 246-476 287-487 327-487 403-487 442-457 442-399V-348C299-345 225-335 160-308 91-279 47-216 47-146 47-41 121 22 243 22 275 22 307 18 336 10 377-1 402-15 442-53V12ZM442-211C442-176 430-147 406-123 372-90 320-70 267-70 211-70 176-99 176-146 176-224 251-257 442-261V-211Z"/>
</g>
<g id="font_4_83">
<path transform="matrix(.001,0,0,-.001,0,0)" d="M481-562C436-570 412-573 388-573 298-573 236-539 200-468V-562H64C70-521 71-493 71-432V-118C71-66 69-37 64 12H207C202-35 200-64 200-118V-303C206-351 216-374 241-403 269-436 307-452 357-452 383-452 404-448 446-436L481-562Z"/>
</g>
<g id="font_4_85">
<path transform="matrix(.001,0,0,-.001,0,0)" d="M129-716C133-680 136-636 136-593V-562H99C57-562 38-563 9-568V-450C42-455 61-456 98-456H136V-120C136-15 182 26 297 26 349 26 379 21 422 5L404-101C373-84 357-79 331-79 283-79 265-97 265-146V-456H310C356-456 375-455 408-450V-568C376-563 354-562 307-562H265V-593C265-638 268-681 272-716H129Z"/>
</g>
<g id="font_4_1">
</g>
<g id="font_4_19">
<path transform="matrix(.001,0,0,-.001,0,0)" d="M504 12C568 12 608 14 655 18V-114C622-109 572-106 509-106H229C244-144 256-164 286-196 311-223 361-265 405-296 535-385 545-393 573-419 622-465 644-513 644-579 644-716 536-800 361-800 261-800 182-769 132-711 95-668 77-627 63-551L206-534C213-580 220-602 237-626 262-665 306-685 364-685 449-685 502-643 502-575 502-524 474-491 382-428 282-361 252-338 217-307 152-248 107-184 80-111 67-75 60-40 54 17 89 13 105 12 183 12H504Z"/>
</g>
<g id="font_5_186">
<path transform="matrix(.001,0,0,-.001,0,0)" d="M849-637C826-627 825-626 772-620L408-576V-702C408-745 409-766 414-795H276C281-761 282-750 282-700V-563L176-550C149-546 106-543 88-543 83-543 75-543 64-544L77-420C110-429 110-429 188-439L282-451V-222C282-142 283-127 292-96 303-53 337-16 378-4 416 7 475 13 556 13 622 13 696 8 804-4 830-7 838-7 865-8L859-143C776-118 667-104 552-104 450-104 418-115 411-154 408-171 408-171 407-240V-465C511-480 614-493 715-505 730-507 737-508 753-511 735-481 729-472 715-452 671-394 619-349 550-311 596-284 611-273 650-230 766-316 837-400 895-522 909-551 911-554 923-571L849-637Z"/>
</g>
<g id="font_5_175">
<path transform="matrix(.001,0,0,-.001,0,0)" d="M819-660 862-676C835-742 812-782 773-834L699-809C731-766 749-734 772-684 764-683 747-682 720-682L501-679C481-679 465-678 453-677L461-692C463-696 463-697 468-706 478-726 487-746 495-764 504-783 505-785 512-794L375-822C372-790 354-743 324-689 253-561 173-471 65-399 117-367 132-354 162-313 245-374 340-478 396-570L697-574C617-314 448-135 186-35 227 1 245 23 271 70 415 7 538-81 627-183 721-294 769-383 828-561 839-596 844-608 853-621L819-660ZM992-721C968-780 945-820 904-873L832-848C865-803 894-752 918-693L992-721Z"/>
</g>
<g id="font_5_224">
<path transform="matrix(.001,0,0,-.001,0,0)" d="M673-801C660-729 596-584 532-479 524-484 524-484 449-538 400-573 357-601 284-644L196-556C285-507 381-442 461-376 422-326 382-283 334-240 255-168 186-122 75-67 120-29 136-11 163 37 265-20 329-65 401-128 462-182 514-238 557-295 648-214 708-152 760-84L856-187C769-279 717-328 633-399 672-457 711-533 774-682 794-727 798-735 809-754L673-801Z"/>
</g>
<g id="font_5_242">
<path transform="matrix(.001,0,0,-.001,0,0)" d="M122-642C215-590 297-524 377-439L463-548C386-621 324-667 205-741L122-642ZM157 18C180 10 183 9 223 1 378-32 502-81 604-149 741-240 836-358 921-541 870-577 854-592 815-639 785-558 757-503 713-439 634-325 541-248 416-194 325-154 206-125 120-120L157 18Z"/>
</g>
<g id="font_5_199">
<path transform="matrix(.001,0,0,-.001,0,0)" d="M402 45C399 12 398-14 398-66V-330C398-358 397-370 394-398 402-393 405-392 428-381 595-304 699-247 782-190L852-308C692-398 535-471 398-519V-705C398-767 398-780 402-810H265C269-783 271-757 271-708V-67C271-14 270 13 265 45H402Z"/>
</g>
<g id="font_6_244">
<path transform="matrix(.001,0,0,-.001,0,0)" d="M820-544C863-544 904-542 941-537V-655C908-650 871-648 820-648H551V-743C551-781 553-807 558-835H428C433-807 435-781 435-742V-648H180C132-648 98-650 60-655V-537C98-542 135-544 180-544H399C328-391 189-245 23-149 53-120 73-92 97-47 258-158 365-278 440-432 437-393 435-348 435-323V-45C435 4 433 42 428 80H558C553 44 551 4 551-44V-324C551-355 549-392 544-437 594-344 639-280 706-210 755-159 809-114 899-51 929-104 938-116 976-157 796-255 673-378 587-544H820Z"/>
</g>
</defs>
<path transform="matrix(.75,0,0,.75,0,0)" d="M0 0H1280V720H0Z" fill="#ffffff"/>
<g clip-path="url(#clip_1)">
<path transform="matrix(.75,0,0,.75,0,-3240)" d="M0 4320H1280V5040H0Z" fill="#ffffff"/>
</g>
<g clip-path="url(#clip_2)">
<path transform="matrix(.75,0,0,.75,0,0)" d="M0 0H1280V720H0Z" fill="#1e293b"/>
</g>
<g clip-path="url(#clip_3)">
<use data-text="P" xlink:href="#font_4_49" transform="matrix(42.9,0,0,-42.9,42,250.5)" fill="#ffffff"/>
<use data-text="a" xlink:href="#font_4_66" transform="matrix(42.9,0,0,-42.9,72.50189,250.5)" fill="#ffffff"/>
<use data-text="r" xlink:href="#font_4_83" transform="matrix(42.9,0,0,-42.9,99.70049,250.5)" fill="#ffffff"/>
<use data-text="t" xlink:href="#font_4_85" transform="matrix(42.9,0,0,-42.9,120.80729,250.5)" fill="#ffffff"/>
<use data-text=" " xlink:href="#font_4_1" transform="matrix(42.9,0,0,-42.9,139.42589,250.5)" fill="#ffffff"/>
<use data-text="2" xlink:href="#font_4_19" transform="matrix(42.9,0,0,-42.9,153.71158,250.5)" fill="#ffffff"/>
<use data-text="&#x30bb;" xlink:href="#font_5_186" transform="matrix(23.400002,0,0,-23.400002,42,319.5)" fill="#94a3b8"/>
<use data-text="&#x30b0;" xlink:href="#font_5_175" transform="matrix(23.400002,0,0,-23.400002,65.399997,319.5)" fill="#94a3b8"/>
<use data-text="&#x30e1;" xlink:href="#font_5_224" transform="matrix(23.400002,0,0,-23.400002,86.694,319.5)" fill="#94a3b8"/>
<use data-text="&#x30f3;" xlink:href="#font_5_242" transform="matrix(23.400002,0,0,-23.400002,110.093997,319.5)" fill="#94a3b8"/>
<use data-text="&#x30c8;" xlink:href="#font_5_199" transform="matrix(23.400002,0,0,-23.400002,133.49399,319.5)" fill="#94a3b8"/>
<use data-text="&#x2f4a;" xlink:href="#font_6_244" transform="matrix(23.400002,0,0,-23.400002,156.89398,319.5)" fill="#94a3b8"/>
</g>
</svg>
