<svg xmlns="http://www.w3.org/2000/svg" xmlns:xlink="http://www.w3.org/1999/xlink" xmlns:inkscape="http://www.inkscape.org/namespaces/inkscape" version="1.1" width="960" height="540" viewBox="0 0 960 540">
<defs>
<clipPath id="clip_1">
<path transform="matrix(.24,0,0,.24,0,0)" d="M0 0H4000V2250H0Z" clip-rule="evenodd"/>
</clipPath>
<clipPath id="clip_2">
<path transform="matrix(.24,0,0,.24,0,0)" d="M0 0H4000V2250H0Z" clip-rule="evenodd"/>
</clipPath>
<clipPath id="clip_3">
<path transform="matrix(.24,0,0,.24,0,0)" d="M0 0H4000V2250H0Z" clip-rule="evenodd"/>
</clipPath>
<g id="font_4_254">
<path transform="matrix(.001,0,0,-.001,0,0)" d="M189-468H369C402-468 437-467 461-465 459-487 458-510 458-555V-720C458-759 459-782 461-814 434-811 411-810 359-810H182C134-810 111-811 80-814 83-782 84-754 84-701V-46C84 16 82 48 78 78H195C191 52 189 15 189-45V-468ZM189-728H360V-676H189V-728ZM189-599H360V-546H189V-599ZM920-702C920-751 921-781 925-814 894-811 870-810 822-810H632C582-810 560-811 530-814 532-785 533-758 533-720V-555C533-512 532-492 531-465 553-467 589-468 622-468H815V-59C815-37 810-33 782-33 749-33 701-37 659-42 675-5 680 16 687 64 753 68 764 68 780 68 838 68 865 64 885 52 911 36 920 10 920-45V-702ZM632-728H815V-676H632V-728ZM632-599H815V-546H632V-599ZM695-330C695-359 696-379 698-399 677-397 652-396 621-396H374C345-396 322-397 300-399 302-378 303-356 303-329V-115C303-77 301-46 298-18H404V-85H627C656-85 677-84 698-82 696-101 695-121 695-150V-330ZM404-307H594V-176H404V-307Z"/>
</g>
<g id="font_5_85">
<path transform="matrix(.001,0,0,-.001,0,0)" d="M248-118C221-143 206-159 191-180 196-217 198-240 199-260 199-278 200-280 202-295L101-312C102-299 103-292 103-283 103-243 96-177 88-143 74-86 52-36 22 6 71 36 78 42 107 75 135 31 154-14 171-75 211-24 268 15 333 35 399 55 511 65 685 65 772 65 886 63 954 60 962 11 969-16 985-51 959-48 948-47 930-46 945-70 956-84 976-106 916-129 874-154 823-198H840C877-198 897-197 922-195 919-223 918-252 918-290V-568C918-607 919-629 922-653 898-651 880-650 838-650H752C763-674 768-687 778-716H865C899-716 937-714 961-712V-809C937-805 908-803 856-803H604C558-803 525-805 496-808V-711C522-714 556-716 595-716H677C670-695 662-673 652-650H612C569-650 552-651 529-653 531-626 532-602 532-569V-277C532-243 531-217 529-195 551-197 569-198 607-198 567-151 522-123 453-97 475-79 490-63 508-40 427-44 389-50 347-62V-174H398C434-174 456-173 479-169V-266C455-263 431-262 399-262H347V-343H409C454-343 471-342 501-339V-440C475-436 454-435 418-435H140C91-435 71-436 44-440V-338C70-342 88-343 140-343H248V-118ZM625-198H800L739-153C793-100 833-70 884-42 819-39 726-36 656-36 626-36 591-37 556-38 599-62 653-108 693-154L625-198ZM628-568H822V-521H628V-568ZM628-447H822V-401H628V-447ZM628-328H822V-281H628V-328ZM96-554C96-511 95-493 92-467 120-470 144-471 180-471H376C411-471 436-470 464-467 461-491 460-508 460-553V-723C460-768 461-786 464-811 441-808 424-807 374-807H180C136-807 112-808 92-811 95-786 96-760 96-724V-554ZM194-725H362V-676H194V-725ZM194-602H362V-550H194V-602Z"/>
</g>
<g id="font_6_152">
<path transform="matrix(.001,0,0,-.001,0,0)" d="M623-146C577-86 521-36 457 4 489 27 509 47 537 80 622 15 695-75 757-191V-18C757 52 772 65 851 65 910 65 932 58 948 34 964 8 971-37 976-153 948-161 928-170 898-190 898-174 898-160 898-152 898-93 895-54 889-42 885-34 876-30 862-30 845-30 841-36 841-57V-226C841-251 842-267 845-288H803C815-316 819-326 831-357H869C913-357 937-356 965-352V-457C937-453 915-452 873-452H862C888-550 896-592 906-707 927-706 937-705 960-703V-806C932-802 906-801 871-801H711C671-801 652-802 624-806V-704C637-706 642-706 660-707V-452C642-453 635-453 618-455V-353C643-356 671-357 708-357H738C704-273 672-213 633-158 594-246 594-246 549-323L476-292C497-255 503-242 518-212 486-192 462-179 428-161V-348H536C570-348 585-347 601-345 598-363 598-383 598-428V-714C598-756 599-785 601-806 580-804 556-803 522-803H414C381-803 354-804 334-806 337-781 338-752 338-710V-406C293-464 265-514 251-565H260C283-565 300-564 318-561V-661C298-658 284-657 258-657H249V-739C249-784 250-812 254-842H147C151-813 152-786 152-738V-657H114C83-657 66-658 48-662V-561C65-564 84-565 114-565H147C129-469 75-336 17-250 41-220 51-201 71-152 107-214 127-266 159-369 158-354 158-348 157-337 156-326 155-314 155-302L153-249V-37C153 9 151 51 147 85H254C251 52 249 11 249-37V-291C249-321 248-356 248-367 247-394 247-394 246-414 264-369 274-348 294-313 300-322 300-322 320-354 323-358 328-366 338-378V-122C311-111 302-108 272-99L306 6C334-10 339-13 391-41 465-81 496-100 549-138 552-129 553-125 556-114L623-146ZM750-452V-707H810C805-600 796-540 771-452H750ZM428-617V-709H512V-617H428ZM428-532H512V-439H428V-532Z"/>
</g>
<g id="font_7_80">
<path transform="matrix(.001,0,0,-.001,0,0)" d="M173-322C118-322 86-324 58-328V-224C91-227 124-229 173-229H280C245-188 226-170 181-131 282-107 299-103 415-72 326-39 217-23 79-23 74-23 67-23 57-23 83 21 90 38 102 79 301 69 436 36 553-30 706 25 706 25 791 64 804 70 824 79 849 90L919-2C808-47 772-60 645-99 683-138 710-177 736-229H826C875-229 909-227 942-224V-328C914-323 884-322 826-322H473C485-342 488-348 509-385H762C819-385 850-384 875-381 873-406 872-429 872-479V-547C872-596 873-621 876-649 847-645 815-644 764-644H648V-707H827C875-707 911-705 943-702V-808C916-804 877-802 819-802H183C127-802 90-804 60-808V-702C91-705 128-707 175-707H341V-644H232C185-644 153-645 121-649 124-619 125-593 125-547V-478C125-433 124-410 121-381 152-384 185-385 237-385H389C375-358 368-346 352-322H173ZM617-229C594-189 566-159 530-133 495-143 481-147 470-149 392-167 392-167 357-177 382-202 390-211 405-229H617ZM440-707H549V-644H440V-707ZM341-563V-468H231V-563H341ZM440-563H549V-468H440V-563ZM648-563H765V-468H648V-563Z"/>
</g>
<path id="font_8_53" d="M.07699585 .7138672V0H.16700745V.57289126H.16900635L.5419922 0H.6459961V.7138672H.55599978V.13497925H.55400088L.17799378 .7138672H.07699585Z"/>
<path id="font_8_237" d="M.070999149 .07241821 .119003299 .024414063 .30099488 .20640564 .48199464 .024414063 .5299988 .07241821 .34899903 .25442506 .52900698 .43441773 .4810028 .48242188 .30099488 .3024292 .11999512 .48242188 .072006229 .43441773 .25300599 .25442506 .070999149 .07241821Z"/>
<path id="font_8_3" d=""/>
<g id="font_9_175">
<path transform="matrix(.001,0,0,-.001,0,0)" d="M392-809C390-783 369-733 329-664 256-539 176-451 78-389 107-372 117-362 134-338 223-402 318-507 373-598L710-603C633-326 445-116 185-16 210 3 220 16 235 43 513-81 687-277 779-571 787-597 788-599 796-610L736-673C722-667 719-667 684-666L442-662C423-662 414-661 406-659 416-673 427-696 452-747 464-774 465-775 474-788L392-809ZM733-793C765-760 810-691 835-639L885-669C854-729 832-762 783-820L733-793ZM846-848C888-800 924-745 948-695L998-724C962-789 945-815 895-876L846-848Z"/>
</g>
<g id="font_9_233">
<path transform="matrix(.001,0,0,-.001,0,0)" d="M235-772C238-748 239-731 239-688V-421C239-381 238-360 235-337H318C315-361 314-372 314-420V-689C314-735 315-748 318-772H235ZM677-772C680-750 681-736 681-684V-571C681-419 678-373 667-316 648-223 600-159 507-105 455-74 407-57 317-37 342-7 348 3 359 32 444 7 492-12 541-40 639-95 702-168 731-262 749-320 756-408 756-567V-685C756-733 757-749 761-772H677Z"/>
</g>
<g id="font_9_194">
<path transform="matrix(.001,0,0,-.001,0,0)" d="M187-528C229-459 257-392 281-304L349-327C312-433 290-480 250-549L187-528ZM393-570C436-495 467-422 485-351L551-374C525-454 507-494 454-589L393-570ZM740-571C740-568 740-568 740-565V-561C740-549 736-526 729-493 711-416 682-341 644-278 575-163 481-86 327-17 350 4 358 14 373 39 528-36 633-128 704-250 740-312 776-404 792-474 808-539 808-539 814-555L740-571Z"/>
</g>
<g id="font_9_200">
<path transform="matrix(.001,0,0,-.001,0,0)" d="M382 31C378 7 377-15 377-75V-376C377-401 376-417 373-435L375-436C384-429 392-425 406-419 547-360 704-277 779-221L822-295C658-390 520-455 377-506V-693C377-755 378-774 382-797H296C300-775 301-758 302-695V-74C301-13 300 8 296 31H382ZM630-731C660-700 708-625 733-572L783-602C753-661 725-703 680-757L630-731ZM744-785C783-739 825-675 846-627L896-656C863-719 838-756 793-812L744-785Z"/>
</g>
<g id="font_10_214">
<path transform="matrix(.001,0,0,-.001,0,0)" d="M514-443H767C810-443 840-441 871-437V-514C842-510 810-508 767-508H514V-713C514-751 516-783 521-817H436C441-782 443-751 443-713V-38H175C125-38 90-40 57-44V32C95 27 132 25 175 25H841C884 25 915 27 953 32V-44C919-40 888-38 841-38H514V-443Z"/>
</g>
<g id="font_9_122">
<path transform="matrix(.001,0,0,-.001,0,0)" d="M554-663C604-661 633-654 670-638 771-593 829-501 829-387 829-264 762-157 652-107 605-85 558-72 485-60 504-36 510-26 520 7 589-8 627-20 672-39 817-101 901-229 901-384 901-480 867-567 804-628 739-692 641-727 529-727 395-727 286-682 206-594 139-519 101-420 101-318 101-178 172-74 267-74 339-74 398-134 456-266 501-371 539-524 554-663ZM482-662C469-534 432-386 391-292 348-194 308-147 266-147 212-147 170-221 170-317 170-441 232-554 333-615 379-643 422-657 482-662Z"/>
</g>
<g id="font_9_206">
<path transform="matrix(.001,0,0,-.001,0,0)" d="M313-727C314-720 314-714 314-711 314-693 310-657 304-617 285-486 250-369 201-270 159-186 118-130 56-72 85-55 94-48 120-20 263-171 342-359 384-644 391-691 393-699 397-712L313-727ZM600-712C605-696 607-683 613-646 634-511 670-386 718-278 768-169 818-90 885-18 909-47 919-55 947-74 845-171 769-308 720-487 695-576 676-675 674-727L600-712Z"/>
</g>
<g id="font_9_222">
<path transform="matrix(.001,0,0,-.001,0,0)" d="M248-711C414-691 624-643 755-595L781-668C596-723 443-756 277-778L248-711ZM230-438C409-413 585-370 726-316L752-388C574-444 427-479 259-505L230-438ZM151-157C251-142 332-126 453-96 616-55 698-28 792 16L820-57C608-137 434-183 181-224L151-157Z"/>
</g>
<g id="font_9_234">
<path transform="matrix(.001,0,0,-.001,0,0)" d="M269-762C272-739 273-727 273-691 273-480 259-349 228-262 195-169 141-97 59-32 89-13 99-4 119 22 210-65 258-132 292-225 330-326 338-400 346-671 348-732 348-732 352-757L269-762ZM518-769C522-745 522-745 522-680L516-95C516-52 515-44 509-27L549 19C558 14 560 13 572 8 586 3 586 3 604-4 663-27 703-47 747-77 833-136 899-219 948-334 921-356 913-365 892-392 868-315 829-249 774-192 722-139 671-107 588-76L594-680C594-726 595-744 600-768L518-769Z"/>
</g>
<g id="font_9_199">
<path transform="matrix(.001,0,0,-.001,0,0)" d="M382 31C378 3 377-19 377-75V-376C377-401 376-415 373-435L375-436C384-429 391-425 406-419 547-361 685-287 779-221L822-295C647-396 531-451 377-506V-693C377-750 378-771 382-797H296C300-772 302-748 302-695V-74C302-20 300 4 296 31H382Z"/>
</g>
<g id="font_9_242">
<path transform="matrix(.001,0,0,-.001,0,0)" d="M156-653C243-600 322-535 394-457L446-519C374-590 312-639 205-707L156-653ZM163-3C188-11 196-13 223-19 390-57 493-98 596-168 728-259 821-376 901-550 873-569 863-578 840-609 759-397 625-250 432-164 339-121 219-90 141-87L163-3Z"/>
</g>
<g id="font_9_208">
<path transform="matrix(.001,0,0,-.001,0,0)" d="M305-727C306-720 306-714 306-711 306-693 302-657 296-617 277-486 242-369 193-270 151-186 110-130 48-72 76-56 87-47 112-20 253-167 334-359 376-644 384-695 385-701 389-712L305-727ZM592-712C596-699 600-681 605-646 644-390 744-159 877-18 900-46 912-57 939-74 842-163 760-311 712-487 688-569 666-684 666-727L592-712ZM861-804C798-804 747-753 747-691 747-629 798-578 861-578 923-578 974-629 974-691 974-754 924-804 861-804ZM861-762C900-762 932-730 932-691 932-652 900-620 861-620 821-620 789-652 789-691 789-730 821-762 861-762Z"/>
</g>
<g id="font_9_184">
<path transform="matrix(.001,0,0,-.001,0,0)" d="M901-54C787-175 699-254 568-354 630-431 677-510 733-634 744-659 751-671 761-683L719-726C702-720 690-719 655-718L298-714C284-714 275-714 272-714 238-714 220-715 193-719L195-638C224-643 253-645 298-646L632-651C644-651 647-651 656-652 655-649 655-648 653-645 651-640 650-639 648-633 575-458 451-300 291-182 214-125 165-98 88-67 113-42 121-31 137-1 211-38 264-71 333-121 405-174 454-220 524-300 652-201 765-92 844 9L901-54Z"/>
</g>
<path id="font_8_26" d="M.21800232 .4052887V.3330078C.23400371 .33496095 .25100199 .3359375 .2689972 .3359375 .29032899 .3359375 .3101603 .33310954 .3284912 .3274536 .34683229 .3217977 .3626658 .31314598 .37599183 .3014984 .389328 .28986106 .3999939 .27555848 .4079895 .2585907 .41599528 .24162293 .41999818 .22216289 .41999818 .20021057 .41999818 .17891948 .41583253 .15979004 .40750123 .14282227 .39916993 .12585449 .3880005 .11154684 .37399293 .09989929 .3599955 .088261928 .34366355 .07927958 .32499696 .07295227 .30633036 .06663513 .28666688 .06347656 .26600648 .06347656 .21734111 .06347656 .18033855 .07797241 .15499878 .10696411 .12966919 .13596599 .1163381 .173467 .11500549 .21946717H.02999878C.029337565 .18280538 .034505208 .1501414 .04550171 .12147522 .05649821 .092809047 .07232666 .068618778 .09298706 .04890442 .11365763 .029200236 .13865662 .014333089 .16798401 .0043029787 .19732158-.0057271325 .22999065-.0107421879 .2659912-.0107421879 .29932658-.0107421879 .3308258-.006245931 .3604889 .002746582 .39016215 .011749268 .41599528 .025248209 .43798829 .04324341 .45999146 .061238607 .4774933 .083730068 .49049378 .11071777 .50349429 .13771566 .5099945 .1688792 .5099945 .20420838 .5099945 .24686177 .49949647 .2838491 .47850038 .3151703 .45750428 .34650169 .42533876 .36683146 .38200379 .37615968V.37815858C.40999858 .39082337 .43332926 .40947978 .45199586 .4341278 .47066245 .458786 .47999574 .48710633 .47999574 .51908877 .47999574 .55173239 .4744924 .5800476 .46348573 .6040344 .45248924 .62802127 .437322 .64767459 .417984 .6629944 .39865623 .6783244 .37582398 .68981936 .3494873 .69747927 .3231608 .70514938 .29466249 .7089844 .2639923 .7089844 .22866313 .7089844 .19749959 .70330306 .17050171 .6919403 .14350383 .6805776 .1210022 .6648763 .102996829 .6448364 .085001628 .6248067 .07116699 .60078939 .06149292 .5727844 .05182902 .5447896 .04633077 .5137889 .04499817 .4797821H.13000489C.13000489 .5004527 .13267009 .5201213 .13800049 .53878787 .14334107 .5574544 .1515096 .57378646 .1625061 .5877838 .17350261 .6017812 .1875 .61294558 .20449829 .62127688 .22149658 .62961837 .24133301 .63378909 .26400758 .63378909 .30000816 .63378909 .33000694 .6243083 .3540039 .6053467 .3780009 .58639529 .3899994 .55795797 .3899994 .5200348 .3899994 .5014089 .38633219 .48477683 .3789978 .47013856 .37166343 .45551048 .36182658 .44337464 .3494873 .43373109 .3371582 .42408753 .3228251 .4167684 .30648805 .41177369 .29016114 .40678916 .2730001 .40429688 .25500489 .40429688H.23699951C.23366292 .40429688 .23033142 .40429688 .227005 .40429688 .2243398 .40429688 .22133892 .40462748 .21800232 .4052887Z"/>
</defs>
<path transform="matrix(.75,0,0,.75,0,0)" d="M0 0H1280V720H0Z" fill="#ffffff"/>
<g clip-path="url(#clip_1)">
<path transform="matrix(.75,0,0,.75,0,-1080)" d="M0 1440H1280V2160H0Z" fill="#ffffff"/>
</g>
<g clip-path="url(#clip_2)">
<path transform="matrix(.75,0,0,.75,0,0)" d="M0 0H1280V720H0Z" fill="#eff6ff"/>
</g>
<g clip-path="url(#clip_3)">
<use data-text="&#x554f;" xlink:href="#font_4_254" transform="matrix(39.6,0,0,-39.6,400.79298,261.75)" fill="#1e40af"/>
<use data-text="&#x984c;" xlink:href="#font_5_85" transform="matrix(39.6,0,0,-39.6,440.39295,261.75)" fill="#1e40af"/>
<use data-text="&#x6982;" xlink:href="#font_6_152" transform="matrix(39.6,0,0,-39.6,479.99296,261.75)" fill="#1e40af"/>
<use data-text="&#x8981;" xlink:href="#font_7_80" transform="matrix(39.6,0,0,-39.6,519.59298,261.75)" fill="#1e40af"/>
<use data-text="N" xlink:href="#font_8_53" transform="matrix(18,0,0,-18,342.8203,306.75)" fill="#64748b"/>
<use data-text="&#x00d7;" xlink:href="#font_8_237" transform="matrix(18,0,0,-18,355.8163,306.75)" fill="#64748b"/>
<use data-text="N" xlink:href="#font_8_53" transform="matrix(18,0,0,-18,366.6163,306.75)" fill="#64748b"/>
<use data-text=" " xlink:href="#font_8_3" transform="matrix(18,0,0,-18,379.6123,306.75)" fill="#64748b"/>
<use data-text="&#x30b0;" xlink:href="#font_9_175" transform="matrix(18,0,0,-18,384.61628,306.75)" fill="#64748b"/>
<use data-text="&#x30ea;" xlink:href="#font_9_233" transform="matrix(18,0,0,-18,402.61628,306.75)" fill="#64748b"/>
<use data-text="&#x30c3;" xlink:href="#font_9_194" transform="matrix(18,0,0,-18,420.61628,306.75)" fill="#64748b"/>
<use data-text="&#x30c9;" xlink:href="#font_9_200" transform="matrix(18,0,0,-18,438.61628,306.75)" fill="#64748b"/>
<use data-text="&#x4e0a;" xlink:href="#font_10_214" transform="matrix(18,0,0,-18,456.61628,306.75)" fill="#64748b"/>
<use data-text="&#x306e;" xlink:href="#font_9_122" transform="matrix(18,0,0,-18,474.61628,306.75)" fill="#64748b"/>
<use data-text="&#x30cf;" xlink:href="#font_9_206" transform="matrix(18,0,0,-18,492.61628,306.75)" fill="#64748b"/>
<use data-text="&#x30df;" xlink:href="#font_9_222" transform="matrix(18,0,0,-18,510.61628,306.75)" fill="#64748b"/>
<use data-text="&#x30eb;" xlink:href="#font_9_234" transform="matrix(18,0,0,-18,528.6163,306.75)" fill="#64748b"/>
<use data-text="&#x30c8;" xlink:href="#font_9_199" transform="matrix(18,0,0,-18,546.6163,306.75)" fill="#64748b"/>
<use data-text="&#x30f3;" xlink:href="#font_9_242" transform="matrix(18,0,0,-18,564.0763,306.75)" fill="#64748b"/>
<use data-text="&#x30d1;" xlink:href="#font_9_208" transform="matrix(18,0,0,-18,581.1763,306.75)" fill="#64748b"/>
<use data-text="&#x30b9;" xlink:href="#font_9_184" transform="matrix(18,0,0,-18,599.1763,306.75)" fill="#64748b"/>
<use data-text="3" xlink:href="#font_8_26" transform="matrix(18,0,0,-18,927.48049,515.25)" fill="#777777"/>
</g>
</svg>
