<svg xmlns="http://www.w3.org/2000/svg" xmlns:xlink="http://www.w3.org/1999/xlink" xmlns:inkscape="http://www.inkscape.org/namespaces/inkscape" version="1.1" width="960" height="540" viewBox="0 0 960 540">
<defs>
<clipPath id="clip_1">
<path transform="matrix(.24,0,0,.24,0,0)" d="M0 0H4000V2250H0Z" clip-rule="evenodd"/>
</clipPath>
<clipPath id="clip_2">
<path transform="matrix(.24,0,0,.24,0,0)" d="M0 0H4000V2250H0Z" clip-rule="evenodd"/>
</clipPath>
<clipPath id="clip_3">
<path transform="matrix(.24,0,0,.24,0,0)" d="M0 0H4000V2250H0Z" clip-rule="evenodd"/>
</clipPath>
<g id="font_4_80">
<path transform="matrix(.001,0,0,-.001,0,0)" d="M431-499H174C124-499 89-501 49-505V-380C87-384 125-386 174-386H431V-55C431-5 428 43 424 85H559C554 44 552-2 552-55V-386H824C875-386 910-384 952-380V-505C911-501 877-499 824-499H552V-717C552-770 554-805 559-843H424C429-805 431-769 431-717V-499Z"/>
</g>
<g id="font_5_10">
<path transform="matrix(.001,0,0,-.001,0,0)" d="M362-396C360-367 359-355 356-338 339-247 295-170 225-110 173-66 132-41 70-18 108 21 124 43 143 80 261 21 342-48 397-140 445-219 467-292 475-396H667C667-388 667-381 667-375 667-369 667-364 667-360V-338C667-234 651-102 636-72 627-57 616-53 579-53 550-53 506-58 458-66 476-17 483 7 488 51 555 54 571 55 591 55 680 55 716 41 738-3 763-56 780-214 780-421 780-438 780-441 780-455 824-412 849-391 904-350 930-398 938-409 980-458 855-538 769-628 703-748 681-788 671-809 664-835L553-792C560-780 570-760 574-750 617-657 669-578 739-499 715-498 701-498 677-498H309C289-498 284-498 257-500 322-575 381-664 418-743 430-770 435-779 445-794L325-837C320-807 309-780 285-736 221-617 146-535 22-449 58-415 82-385 99-351 151-391 176-413 224-462V-391C250-394 275-396 309-396H362Z"/>
</g>
<g id="font_4_227">
<path transform="matrix(.001,0,0,-.001,0,0)" d="M543-326V-367C543-395 544-412 548-433H433C437-409 438-396 438-368V-326H157C109-326 85-327 60-332V-226C93-230 133-232 181-232H369C291-152 160-79 36-46 66-8 82 19 96 59 175 25 231-5 293-47 356-90 388-119 440-177 438-147 438-126 438-104V-14C438 29 436 51 430 83H550C544 53 543 34 543-13V-105C543-123 542-138 540-179 585-128 617-100 684-54 757-3 800 19 906 65 930 9 937-3 967-45 812-90 696-152 614-232H815C865-232 903-230 937-226V-332C907-328 875-326 823-326H543ZM728-783C701-778 685-777 641-777H438C464-806 482-825 491-835L370-857C344-813 307-775 249-731 188-684 139-657 60-626 92-595 106-575 121-541 195-573 232-595 297-645 340-601 362-581 403-550 292-502 181-473 43-457 66-422 74-402 83-362 202-384 247-395 341-428 412-453 446-467 496-493 602-436 714-402 917-366 931-409 942-435 965-470 816-489 700-515 598-553 659-595 710-640 765-699 778-713 780-716 790-724L728-783ZM621-694C576-650 550-630 498-599 446-628 412-654 377-694H621Z"/>
</g>
<g id="font_6_76">
<path transform="matrix(.001,0,0,-.001,0,0)" d="M585-634H486C494-659 498-672 508-703 517-734 519-740 526-763L416-791C412-751 402-713 385-664 356-584 323-521 277-458 333-420 338-416 366-386 404-442 422-473 447-532H585V-345H414C366-345 331-347 302-351V-236C332-240 368-242 414-242H585V-34C585 17 583 45 578 81H702C696 45 695 20 695-34V-242H853C894-242 929-240 963-236V-351C931-347 899-345 851-345H695V-532H821C853-532 883-530 928-526V-640C900-636 871-634 820-634H695V-726C695-775 696-799 702-832H578C583-799 585-773 585-727V-634ZM145-34C145 14 144 42 139 83H259C256 45 254 12 254-33V-600C290-677 299-699 324-775 333-800 335-805 340-820L227-852C221-812 211-776 191-722 149-611 95-522 19-438 39-404 47-380 64-315 101-355 123-386 148-431 146-387 145-355 145-321V-34Z"/>
</g>
<g id="font_7_122">
<path transform="matrix(.001,0,0,-.001,0,0)" d="M578-641C622-637 648-629 679-611 759-563 802-485 802-389 802-282 750-187 663-139 616-112 556-96 464-84 496-42 508-20 525 33 595 21 634 11 682-9 835-71 925-209 925-382 925-607 769-753 529-753 387-753 269-705 185-613 114-535 75-432 75-322 75-161 157-45 271-45 353-45 417-104 474-233 524-346 559-484 578-641ZM456-640C444-527 411-392 373-302 337-216 303-174 270-174 226-174 191-239 191-321 191-428 243-531 327-591 368-620 404-634 456-640Z"/>
</g>
<g id="font_4_203">
<path transform="matrix(.001,0,0,-.001,0,0)" d="M656-59H567V-443C567-496 568-523 573-553H459C464-519 465-492 465-443V-59C438-59 422-60 403-63V50C432 46 464 44 515 44H854C900 44 934 46 967 50V-65C934-61 898-59 856-59H760V-353H842C887-353 912-352 940-347V-460C911-455 889-454 842-454H760V-698H841C888-698 924-696 955-692V-805C924-801 889-799 840-799H543C494-799 459-801 428-805V-692C460-696 496-698 543-698H656V-59ZM70-720C94-723 116-724 153-724H299C337-724 358-723 383-720V-816C357-813 340-812 299-812H153C113-812 96-813 70-816V-720ZM38-572C62-575 83-576 118-576H331C373-576 386-575 407-572V-675C384-672 368-671 327-671H118C81-671 62-672 38-676V-572ZM74-431C94-433 108-434 140-434H315C345-434 357-433 379-431V-524C361-522 348-521 315-521H140C107-521 94-522 74-524V-431ZM74-292C93-294 109-295 139-295H313C346-295 356-295 379-292V-385C361-383 348-382 315-382H140C107-382 94-383 74-385V-292ZM167 83V35H281V69H378C376 51 375 32 375-9V-169C375-205 376-221 378-241 361-238 350-238 311-238H144C115-238 92-239 67-242 71-217 72-195 72-163V-15C72 20 70 53 66 83H167ZM167-152H281V-53H167V-152Z"/>
</g>
<g id="font_5_218">
<path transform="matrix(.001,0,0,-.001,0,0)" d="M817-236V-64C817-38 810-33 775-33 752-33 721-36 672-44 688-7 694 21 699 69 726 70 762 71 779 71 895 71 925 48 925-41V-692C925-746 926-777 929-802 899-799 877-798 821-798H605C552-798 529-799 494-802 499-760 501-686 501-553 501-369 491-278 464-192 434-103 399-54 321 7 363 35 383 54 409 88 470 32 503-11 533-75 557-126 574-178 585-236H817ZM817-473V-334H597C602-382 605-425 606-473H817ZM817-567H608V-698H817V-567ZM80-213C80-163 78-126 74-94H184V-168H325V-131H428C427-153 426-179 426-233V-687C426-734 427-754 429-778 403-776 384-775 343-775H185C128-775 104-776 76-778 79-747 80-723 80-675V-213ZM183-677H325V-526H183V-677ZM183-433H325V-264H183V-433Z"/>
</g>
<g id="font_8_62">
<path transform="matrix(.001,0,0,-.001,0,0)" d="M155-252H140C99-252 70-254 44-258V-190C74-194 102-196 139-196H155V-31C155 13 153 41 149 75H226C222 47 220 17 220-30V-196H786V-25C786 2 777 8 733 8 686 8 645 5 593-2 602 22 605 37 608 64 641 67 676 68 709 68 826 68 850 54 850-13V-196H858C896-196 926-194 954-190V-258C928-254 900-252 858-252H850V-528C850-566 851-591 854-620 830-617 806-616 763-616H524V-733H843C882-733 917-731 948-727V-796C916-792 886-790 843-790H167C124-790 91-792 62-796V-727C93-731 126-733 167-733H462V-616H241C198-616 175-617 151-620 154-592 155-562 155-526V-252ZM220-252V-383H462V-252H220ZM220-437V-560H462V-437H220ZM524-252V-383H786V-252H524ZM524-437V-560H786V-437H524Z"/>
</g>
<g id="font_9_66">
<path transform="matrix(.001,0,0,-.001,0,0)" d="M599-226V-25C599 24 598 44 593 75H665C660 45 659 24 659-24V-226H825V-80C825-60 823-57 804-57 783-57 744-61 719-66 729-43 732-31 733-7 773-5 795-4 799-4 841-4 857-8 871-21 881-32 885-45 885-73V-208C885-229 885-238 886-265H949C946-286 945-300 945-326V-374C945-396 946-415 948-432 920-429 906-429 855-429H419C382-429 355-430 328-432 330-416 331-404 331-373V-326C331-299 330-284 327-265H387C389-235 389-227 389-207V-94C389-55 387-24 383 3H454C450-25 449-52 449-91V-226H599ZM599-279H471C437-279 414-280 389-282V-375H599V-279ZM659-279V-375H884V-282C863-280 839-279 813-279H659ZM818-670H506C461-670 438-671 409-674V-616C438-619 456-620 506-620H818V-545H482C435-545 413-546 384-550V-489C413-493 439-494 483-494H799C838-494 860-493 882-492 880-514 879-531 879-562V-724C879-755 880-774 882-798 854-795 831-794 793-794H489C448-794 418-796 386-800V-737C415-739 450-741 488-741H818V-670ZM225-832C230-804 232-751 232-646 232-594 230-503 226-429 222-340 213-267 199-215 175-125 130-56 52 13 71 26 86 42 100 63 235-73 276-179 285-414 290-549 292-645 292-735 292-787 293-810 296-832H225ZM142-321C138-347 137-372 137-408V-642C137-679 138-702 142-723H74C77-700 79-673 79-642V-408C79-370 78-346 74-321H142Z"/>
</g>
<g id="font_10_48">
<path transform="matrix(.001,0,0,-.001,0,0)" d="M175-677H146C129-677 100-678 86-680 89-655 90-632 90-585V-78C90-19 89 18 85 44H152V-44H347V20H413C410-4 408-38 408-83V-592C408-628 409-654 411-680 407-680 378-679 323-677H258C277-721 290-758 309-815L238-828C229-775 217-733 195-677H175ZM152-622H347V-399H152V-622ZM152-344H347V-100H152V-344ZM862-619C861-472 860-403 855-323 848-189 835-93 818-47 806-15 792-6 755-6 719-6 674-11 613-23 624 2 628 19 630 48 694 53 721 55 758 55 817 55 849 37 869-9 905-89 918-223 927-619 928-656 928-664 931-682 911-679 883-678 843-678H601C616-717 625-740 639-780 646-801 650-812 653-818L584-831C582-809 572-772 558-734 521-632 472-547 411-482 428-471 446-454 459-437 511-504 540-550 574-619H862ZM741-242C688-349 646-415 583-491L532-460C590-390 628-327 684-207L741-242Z"/>
</g>
<g id="font_11_119">
<path transform="matrix(.001,0,0,-.001,0,0)" d="M194-780C192-757 190-747 180-700 147-552 135-446 135-304 135-199 142-127 161-21 164-2 165 3 167 19L239 13C239 6 239 1 239-2 239-58 275-178 320-277L272-300C240-227 221-172 207-105 203-158 201-217 201-295 201-415 210-503 231-608 246-676 258-725 273-768L194-780ZM400-591C465-584 504-581 560-581 637-581 717-586 775-594 819-600 842-603 844-603L839-674C772-656 682-647 571-647 493-647 444-651 401-662L400-591ZM473-396C411-325 386-271 386-210 386-173 396-143 416-118 459-66 531-42 645-42 713-42 780-48 850-62 870-65 872-66 885-67L875-144C821-122 736-109 645-109 516-109 453-145 453-219 453-263 478-311 528-366L473-396Z"/>
</g>
<g id="font_11_208">
<path transform="matrix(.001,0,0,-.001,0,0)" d="M305-727C306-720 306-714 306-711 306-693 302-657 296-617 277-486 242-369 193-270 151-186 110-130 48-72 76-56 87-47 112-20 253-167 334-359 376-644 384-695 385-701 389-712L305-727ZM592-712C596-699 600-681 605-646 644-390 744-159 877-18 900-46 912-57 939-74 842-163 760-311 712-487 688-569 666-684 666-727L592-712ZM861-804C798-804 747-753 747-691 747-629 798-578 861-578 923-578 974-629 974-691 974-754 924-804 861-804ZM861-762C900-762 932-730 932-691 932-652 900-620 861-620 821-620 789-652 789-691 789-730 821-762 861-762Z"/>
</g>
<g id="font_11_184">
<path transform="matrix(.001,0,0,-.001,0,0)" d="M901-54C787-175 699-254 568-354 630-431 677-510 733-634 744-659 751-671 761-683L719-726C702-720 690-719 655-718L298-714C284-714 275-714 272-714 238-714 220-715 193-719L195-638C224-643 253-645 298-646L632-651C644-651 647-651 656-652 655-649 655-648 653-645 651-640 650-639 648-633 575-458 451-300 291-182 214-125 165-98 88-67 113-42 121-31 137-1 211-38 264-71 333-121 405-174 454-220 524-300 652-201 765-92 844 9L901-54Z"/>
</g>
<g id="font_11_158">
<path transform="matrix(.001,0,0,-.001,0,0)" d="M347-673C245-673 169-677 133-684L132-615C143-616 145-616 154-616 157-616 165-616 170-616 207-615 301-613 317-613 322-613 332-614 336-615 330-605 330-605 327-600 255-472 172-367 103-314L159-258C175-285 197-308 236-341 317-410 396-447 459-447 506-447 530-423 538-368 471-339 423-313 389-288 321-237 287-185 287-130 287-27 374 24 553 24 630 24 717 17 796 4 816 1 821 0 836-1L827-78C770-55 659-39 560-39 419-39 357-68 357-134 357-194 409-241 545-305 546-293 546-291 546-275 546-214 543-153 540-131L608-132C606-146 606-154 606-168 606-177 606-191 607-213 608-233 608-255 608-268 608-293 608-303 606-329 731-378 821-408 873-417L841-487C825-476 822-475 773-458 729-442 672-421 599-392 586-466 541-503 467-503 415-503 362-486 316-454 306-447 306-447 270-419 269-420 269-420 268-422V-423C268-423 269-423 269-424 270-425 275-429 282-434 286-437 306-460 316-472 351-515 376-555 406-614 527-618 632-626 736-640 754-643 760-644 776-645L770-713C715-695 615-683 455-675 446-675 446-675 434-674 439-683 452-710 465-742 482-783 482-783 491-796L411-810C408-778 396-743 363-673H347Z"/>
</g>
<g id="font_12_214">
<path transform="matrix(.001,0,0,-.001,0,0)" d="M582-459V-394H473C422-394 389-395 364-396 367-364 368-340 368-300V-140C337-140 319-141 298-145V-85C319-88 340-90 368-90V-31C368 21 367 47 363 79H430C426 50 426 33 426-31V-90H810V-15C810 9 803 13 770 13 737 13 707 11 664 5 670 23 674 43 676 62 715 64 742 65 773 65 849 65 868 50 868-12V-90H876C903-90 924-89 951-86V-146C926-141 911-140 876-140H868V-297C868-347 869-376 872-399 848-396 815-394 776-394H636V-459H848C895-459 916-458 946-453V-515C918-510 894-509 849-509H759V-580H810C848-580 871-579 894-575V-633C870-629 846-628 810-628H759V-695H839C879-695 899-694 927-690V-749C901-745 878-743 839-743H759C759-783 760-805 765-830H697C702-810 702-799 703-743H534C534-791 535-809 540-830H472C476-809 477-790 478-743H423C383-743 359-744 335-748V-691C361-694 386-695 423-695H478V-628H453C416-628 393-629 369-632V-576C394-579 416-580 453-580H478V-509H413C368-509 344-510 318-514V-454C347-458 371-459 415-459H582ZM582-140H426V-222H582V-140ZM636-140V-222H810V-140H636ZM582-269H426V-346H582V-269ZM636-269V-346H810V-269H636ZM534-509V-580H703V-509H534ZM534-628V-695H703V-628H534ZM277-580C303-580 322-579 342-576V-639C323-636 305-635 276-635H241V-730C241-780 242-808 246-833H177C181-812 182-786 182-730V-635H124C92-635 73-636 55-639V-576C72-579 94-580 124-580H173C142-441 93-325 26-234 50-212 56-205 69-184 93-222 108-249 127-291 149-339 156-361 189-473 185-421 183-365 183-317V-37C183 14 181 51 177 79H247C242 52 241 17 241-37V-339C241-386 239-447 236-494 261-429 278-394 310-348 325-372 333-381 348-397 301-450 272-500 245-580H277Z"/>
</g>
<g id="font_13_92">
<path transform="matrix(.001,0,0,-.001,0,0)" d="M805-528C794-455 742-339 682-253 645-349 623-470 616-613H827C880-613 908-612 939-608V-676C914-671 888-670 832-670H614C612-717 612-732 612-750 612-788 613-812 617-832H540C545-809 546-793 550-670H255C204-670 168-671 133-675 138-641 139-625 139-558 139-363 128-228 106-138 92-82 73-40 36 12 57 24 71 36 89 57 130-4 148-47 165-118 183-192 191-266 197-394H397C396-315 391-240 384-198 377-154 369-145 336-145 303-145 273-149 218-161 226-137 228-122 230-96 275-89 299-87 335-87 391-87 413-96 428-127 442-156 452-229 458-342 462-433 462-433 465-454 443-451 426-450 390-450H199C200-492 201-526 201-613H553C563-446 592-304 638-197 557-103 466-40 341 10 364 27 374 37 390 61 505 7 585-51 667-138 693-92 720-55 750-26 789 13 829 36 855 36 881 36 901 20 917-12 932-41 940-68 953-134 935-145 920-157 899-178 887-86 870-34 854-34 845-34 829-43 811-57 766-95 741-127 710-190 767-265 786-301 843-434 860-474 870-496 873-501L805-528ZM860-728C795-781 783-789 717-827L674-792C741-753 762-737 818-686L860-728Z"/>
</g>
<g id="font_11_101">
<path transform="matrix(.001,0,0,-.001,0,0)" d="M553-666C485-664 407-662 311-658 150-652 150-652 121-652 106-652 99-652 81-653L84-580C151-591 353-601 554-605 554-567 554-567 554-553 554-541 555-531 555-527 555-490 555-486 556-472 530-501 488-517 440-517 338-517 263-447 263-352 263-260 331-194 427-194 480-194 523-212 553-248 565-262 571-273 580-297 576-206 541-141 468-86 428-56 384-36 306-11 327 11 333 20 350 52 423 24 467 1 508-29 594-94 642-186 642-290 642-334 635-366 618-408V-606C699-608 710-608 725-608 844-608 879-607 916-603V-674C883-670 806-668 617-667V-678C617-756 618-771 622-803H547C550-782 551-771 551-745L553-666ZM550-374C550-304 502-256 433-256 372-256 330-297 330-355 330-415 378-460 441-460 468-460 489-455 508-444 537-428 550-407 550-374Z"/>
</g>
<g id="font_11_151">
<path transform="matrix(.001,0,0,-.001,0,0)" d="M241-670C263-673 273-674 295-675 447-680 567-687 599-693 605-694 605-694 608-694L610-692 606-688C604-686 602-684 602-684 594-676 594-676 588-670 519-602 361-463 254-378 186-323 150-297 114-276L159-212C275-319 433-383 580-383 715-383 795-326 795-230 795-145 740-84 635-55 621-99 610-123 589-151 549-204 491-233 424-233 341-233 279-183 279-116 279-24 360 28 501 28 723 28 868-75 868-231 868-359 761-441 594-441 506-441 425-420 349-379L347-382C417-427 538-531 676-666 708-697 713-701 727-708L685-763C672-756 663-754 637-752 547-745 414-739 331-739 283-739 265-740 237-745L241-670ZM569-37C533-31 521-30 496-30 453-30 410-39 384-53 357-69 344-88 344-114 344-152 375-176 425-176 497-176 547-128 569-37Z"/>
</g>
<path id="font_14_24" d="M.3560028 0V.7089844H.29100038C.28633119 .6823527 .27766419 .66038009 .2649994 .6430664 .2523346 .62576296 .23683167 .6121165 .2184906 .6021271 .20015972 .5921478 .17966207 .58532717 .15699768 .58166506 .1343333 .5780029 .1110026 .5761719 .087005618 .5761719V.5078125H.2709961V0H.3560028Z"/>
</defs>
<path transform="matrix(.75,0,0,.75,0,0)" d="M0 0H1280V720H0Z" fill="#ffffff"/>
<g clip-path="url(#clip_1)">
<path transform="matrix(.75,0,0,.75,0,-5400)" d="M0 7200H1280V7920H0Z" fill="#ffffff"/>
</g>
<g clip-path="url(#clip_2)">
<path transform="matrix(.75,0,0,.75,0,0)" d="M0 0H1280V720H0Z" fill="#eff6ff"/>
</g>
<g clip-path="url(#clip_3)">
<use data-text="&#x2f17;" xlink:href="#font_4_80" transform="matrix(39.6,0,0,-39.6,341.39064,261.75)" fill="#1e40af"/>
<use data-text="&#x5206;" xlink:href="#font_5_10" transform="matrix(39.6,0,0,-39.6,380.9906,261.75)" fill="#1e40af"/>
<use data-text="&#x6761;" xlink:href="#font_4_227" transform="matrix(39.6,0,0,-39.6,420.5906,261.75)" fill="#1e40af"/>
<use data-text="&#x4ef6;" xlink:href="#font_6_76" transform="matrix(39.6,0,0,-39.6,460.1906,261.75)" fill="#1e40af"/>
<use data-text="&#x306e;" xlink:href="#font_7_122" transform="matrix(39.6,0,0,-39.6,499.7906,261.75)" fill="#1e40af"/>
<use data-text="&#x8a3c;" xlink:href="#font_4_203" transform="matrix(39.6,0,0,-39.6,539.39059,261.75)" fill="#1e40af"/>
<use data-text="&#x660e;" xlink:href="#font_5_218" transform="matrix(39.6,0,0,-39.6,578.9906,261.75)" fill="#1e40af"/>
<use data-text="&#x518d;" xlink:href="#font_8_62" transform="matrix(18,0,0,-18,381,306.75)" fill="#64748b"/>
<use data-text="&#x5e30;" xlink:href="#font_9_66" transform="matrix(18,0,0,-18,399,306.75)" fill="#64748b"/>
<use data-text="&#x7684;" xlink:href="#font_10_48" transform="matrix(18,0,0,-18,417,306.75)" fill="#64748b"/>
<use data-text="&#x306b;" xlink:href="#font_11_119" transform="matrix(18,0,0,-18,435,306.75)" fill="#64748b"/>
<use data-text="&#x30d1;" xlink:href="#font_11_208" transform="matrix(18,0,0,-18,453,306.75)" fill="#64748b"/>
<use data-text="&#x30b9;" xlink:href="#font_11_184" transform="matrix(18,0,0,-18,471,306.75)" fill="#64748b"/>
<use data-text="&#x3092;" xlink:href="#font_11_158" transform="matrix(18,0,0,-18,489,306.75)" fill="#64748b"/>
<use data-text="&#x69cb;" xlink:href="#font_12_214" transform="matrix(18,0,0,-18,507,306.75)" fill="#64748b"/>
<use data-text="&#x6210;" xlink:href="#font_13_92" transform="matrix(18,0,0,-18,525,306.75)" fill="#64748b"/>
<use data-text="&#x3059;" xlink:href="#font_11_101" transform="matrix(18,0,0,-18,543,306.75)" fill="#64748b"/>
<use data-text="&#x308b;" xlink:href="#font_11_151" transform="matrix(18,0,0,-18,561,306.75)" fill="#64748b"/>
<use data-text="1" xlink:href="#font_14_24" transform="matrix(18,0,0,-18,917.47268,515.25)" fill="#777777"/>
<use data-text="1" xlink:href="#font_14_24" transform="matrix(18,0,0,-18,927.48068,515.25)" fill="#777777"/>
</g>
</svg>
