<svg xmlns="http://www.w3.org/2000/svg" xmlns:xlink="http://www.w3.org/1999/xlink" xmlns:inkscape="http://www.inkscape.org/namespaces/inkscape" version="1.1" width="960" height="540" viewBox="0 0 960 540">
<defs>
<clipPath id="clip_1">
<path transform="matrix(.24,0,0,.24,0,0)" d="M0 0H4000V2250H0Z" clip-rule="evenodd"/>
</clipPath>
<clipPath id="clip_2">
<path transform="matrix(.24,0,0,.24,0,0)" d="M0 0H4000V2250H0Z" clip-rule="evenodd"/>
</clipPath>
<clipPath id="clip_3">
<path transform="matrix(.24,0,0,.24,0,0)" d="M0 0H4000V2250H0Z" clip-rule="evenodd"/>
</clipPath>
<g id="font_4_246">
<path transform="matrix(.001,0,0,-.001,0,0)" d="M440-489C440-462 440-462 439-434H263C214-434 197-435 173-438V-343C199-346 215-347 263-347H432C429-323 427-312 423-293H161C111-293 87-294 60-298V-193C96-197 128-199 167-199H388C358-148 319-112 261-82 201-51 149-36 44-21 73 21 79 32 97 83 208 61 271 37 341-7 408-50 451-96 487-164 549-76 617-22 724 26 777 49 818 62 911 84 924 42 940 11 963-24 908-34 877-40 852-47 782-64 720-88 676-115 638-139 619-156 583-199H838C882-199 910-197 946-193V-298C918-294 893-293 843-293H531C535-314 536-322 539-347H732C779-347 795-346 821-343V-438C797-435 781-434 732-434H545C546-457 546-457 547-489H748C795-489 818-488 843-484V-537H935C932-560 931-582 931-611V-687C931-714 932-735 935-760 901-757 875-756 824-756H550V-779C550-804 551-822 555-842H432C436-820 438-804 438-779V-756H178C128-756 100-757 68-760 71-734 72-712 72-685V-611C72-578 71-560 67-537H159V-484C182-488 207-489 253-489H440ZM253-577C216-577 194-578 176-580V-662H827V-580C802-578 786-577 748-577H549C550-617 550-629 553-641H437C440-622 440-609 441-577H253Z"/>
</g>
<g id="font_5_2">
<path transform="matrix(.001,0,0,-.001,0,0)" d="M496-258C524-185 558-136 615-84 695-12 785 37 921 83 942 32 956 6 979-23 892-43 824-69 756-109 796-136 825-159 878-205L786-255C754-219 733-202 679-164 640-199 622-221 602-258H840C887-258 916-257 949-253V-359C923-356 888-354 841-354H556V-369C556-395 557-410 560-428H445C448-409 449-394 449-370V-354H163C113-354 82-355 50-359V-253C83-257 111-258 159-258H344C255-198 164-160 32-126 60-88 73-67 88-31 176-64 244-95 311-135V-29C269-24 230-21 211-21 189-21 187-21 169-21L189 85C328 69 464 44 596 10V-86C555-74 481-57 415-45V-206C444-230 456-240 475-258H496ZM263-490C263-451 261-425 257-399H371C368-422 367-434 367-490V-754C367-797 368-816 372-838H257C261-813 263-789 263-754V-603C160-561 109-545 39-532L73-429C95-438 99-439 129-450 189-473 222-487 263-507V-490ZM601-643V-544H514C472-544 446-545 422-548V-446C446-449 482-451 520-451H821C866-451 889-450 912-446V-549C886-545 864-544 818-544H709V-643H849C896-643 922-642 949-638V-741C921-737 894-736 849-736H709V-761C709-798 710-816 714-838H595C600-815 601-796 601-759V-736H500C455-736 429-737 401-741V-638C429-642 457-643 500-643H601ZM52-750C111-696 132-672 172-614L248-683C199-745 182-763 128-813L52-750Z"/>
</g>
<path id="font_6_42" d="M.58000186 .49935914H.67500308C.66967269 .5373637 .65834048 .5708669 .64100649 .5998688 .6236725 .62887069 .602005 .65304568 .576004 .6723938 .55000308 .69174197 .5203349 .7064209 .4869995 .71643069 .45366416 .7264404 .41832987 .7314453 .3809967 .7314453 .32632957 .7314453 .27782694 .72160848 .23548889 .7019348 .19316101 .6822713 .15783184 .6554362 .12950135 .62142947 .10117086 .58743289 .07967123 .5475972 .06500244 .5019226 .05033366 .45624797 .042999269 .40740968 .042999269 .3554077 .042999269 .30340577 .04983012 .25473533 .06349182 .20939636 .0771637 .16405742 .09766642 .12472025 .125 .09138489 .15233357 .05804952 .18666585 .031880697 .22799683 .012878418 .2693278-.006123861 .31766258-.015625 .3730011-.015625 .46433006-.015625 .5363261 .009389241 .58898928 .059417726 .6416626 .10945638 .67266848 .17947388 .68200686 .2694702H.5870056C.58500167 .24014282 .5789998 .21280925 .56900027 .18746948 .5590007 .1621399 .545166 .14030457 .52749636 .1219635 .50983688 .10363261 .48883567 .08929952 .4644928 .07896423 .44016014 .06863912 .4123281 .06347656 .3809967 .06347656 .33833314 .06347656 .30166627 .07147217 .2709961 .08746338 .2403361 .10346476 .21516927 .12496439 .1954956 .15196228 .17583211 .17896016 .16133118 .21062215 .1519928 .24694824 .1426646 .28327433 .13800049 .32176719 .13800049 .36242677 .13800049 .39974977 .1426646 .43574015 .1519928 .47039796 .16133118 .5050557 .17583211 .5358836 .1954956 .56288149 .21516927 .58987936 .24016826 .6113739 .27049256 .6273651 .30082704 .6433665 .33733116 .6513672 .38000489 .6513672 .43000285 .6513672 .4731649 .6386973 .50949099 .61335757 .5458272 .58802798 .5693309 .5500285 .58000186 .49935914Z"/>
<path id="font_6_18" d="M.33399964 .28710938V.5058594H.26600648V.28710938H.04800415V.21875H.26600648V0H.33399964V.21875H.55200198V.28710938H.33399964Z"/>
<path id="font_6_3" d=""/>
<g id="font_7_178">
<path transform="matrix(.001,0,0,-.001,0,0)" d="M749-72V-12H829C826-30 824-66 824-103V-615C824-651 824-668 826-693 801-692 787-691 774-691H294C229-691 214-692 179-698V-618C213-622 234-623 294-623H749V-140H273C211-140 197-141 164-147V-68C190-71 190-71 271-72H749Z"/>
</g>
<g id="font_8_150">
<path transform="matrix(.001,0,0,-.001,0,0)" d="M87-343C117-346 138-347 211-347H791C858-347 881-346 913-343V-424C882-420 866-419 792-419H211C143-419 116-420 87-425V-343Z"/>
</g>
<g id="font_7_200">
<path transform="matrix(.001,0,0,-.001,0,0)" d="M382 31C378 7 377-15 377-75V-376C377-401 376-417 373-435L375-436C384-429 392-425 406-419 547-360 704-277 779-221L822-295C658-390 520-455 377-506V-693C377-755 378-774 382-797H296C300-775 301-758 302-695V-74C301-13 300 8 296 31H382ZM630-731C660-700 708-625 733-572L783-602C753-661 725-703 680-757L630-731ZM744-785C783-739 825-675 846-627L896-656C863-719 838-756 793-812L744-785Z"/>
</g>
<g id="font_9_119">
<path transform="matrix(.001,0,0,-.001,0,0)" d="M337-585C350-607 372-645 383-669 403-707 409-718 419-732L389-765C377-763 366-762 333-762H238C239-764 245-777 255-802 262-819 263-821 267-829L204-844C199-821 194-806 184-779 148-690 106-625 39-558 63-543 70-537 86-518 99-534 103-539 112-551 113-529 113-502 113-474 113-306 111-245 105-177 96-83 82-33 48 26 74 40 75 40 104 66 141-15 153-65 164-190H401V-22C401-5 393-1 362-1 343-1 307-4 269-9 277 14 280 29 281 52 337 55 344 55 358 55 438 55 457 42 457-13V-501C457-541 458-568 461-590 432-586 406-585 369-585H337ZM211-585C176-585 165-585 139-586 171-632 192-666 214-710H342C319-661 298-622 275-585H211ZM167-242C169-288 169-288 170-366H259V-242H167ZM401-242H311V-366H401V-242ZM401-417H311V-532H401V-417ZM259-532V-417H170L171-466V-532H259ZM632-735C624-685 617-664 598-635 572-594 538-566 472-531 492-514 503-500 513-482 589-528 621-557 652-610 675-648 684-675 695-735H842C837-669 832-634 823-601 817-579 807-573 778-573 755-573 728-577 689-585 697-561 699-550 701-526 741-521 769-519 793-519 853-519 873-537 886-606 893-643 900-701 904-753 906-772 906-775 908-791 882-788 855-787 816-787H588C540-787 513-789 488-793V-729C511-733 538-735 583-735H632ZM696-334V-213H572C536-213 512-215 485-219V-152C513-156 536-157 571-157H696V-19C696 18 694 42 690 70H760C756 43 754 19 754-19V-157H860C903-157 927-156 951-153V-219C922-215 896-213 857-213H754V-334H830C873-334 900-333 924-329V-395C904-391 878-389 830-389H754V-414C754-445 756-468 759-494H690C694-469 696-444 696-414V-389H603C609-406 609-406 626-456L565-470C565-460 562-446 555-422 538-357 519-319 482-269 503-262 515-256 536-242 561-281 571-301 583-334H696Z"/>
</g>
<g id="font_10_144">
<path transform="matrix(.001,0,0,-.001,0,0)" d="M555-349C554-255 548-200 532-148 507-65 463-15 377 28 399 44 412 57 425 77 504 31 550-23 580-103 604-166 614-235 616-349H707V-13C707 51 722 60 823 60 937 60 951 43 965-123 946-128 932-134 906-151 903-71 898-31 887-14 880-2 862 2 824 2 775 2 768-2 768-27V-349H840C864-349 883-348 911-345 909-364 908-383 908-409V-566C908-592 909-614 911-638 887-635 867-634 832-634H773C804-682 827-725 861-804L796-828C770-748 750-702 709-634H532C493-634 472-635 447-638 450-620 451-592 451-560V-413C451-386 450-364 448-345 473-348 493-349 517-349H555ZM510-577H849V-405H510V-577ZM106-733C129-736 148-737 178-737H311C340-737 359-736 383-733V-796C360-792 344-791 311-791H178C145-791 128-792 106-796V-733ZM60-592C84-595 105-596 140-596H340C376-596 392-595 413-592V-657C391-653 375-652 333-652H140C102-652 83-653 60-657V-592ZM105-454C125-457 141-458 173-458H313C342-458 357-457 379-454V-516C360-513 345-512 313-512H173C141-512 123-513 105-516V-454ZM105-316C127-319 140-320 172-320H312C344-320 357-319 379-316V-378C362-375 345-374 312-374H173C140-374 124-375 105-378V-316ZM165 72V13H322C348 13 349 13 380 15 378-8 378-21 378-53V-164C378-201 379-222 381-243 364-241 354-240 320-240H167C134-240 120-241 103-244 106-219 107-192 107-162V-25C107 6 105 42 102 72H165ZM164-188H322V-40H164V-188ZM622-677C595-737 577-769 536-827L481-799C522-742 543-704 565-646L622-677Z"/>
</g>
<path id="font_6_24" d="M.3560028 0V.7089844H.29100038C.28633119 .6823527 .27766419 .66038009 .2649994 .6430664 .2523346 .62576296 .23683167 .6121165 .2184906 .6021271 .20015972 .5921478 .17966207 .58532717 .15699768 .58166506 .1343333 .5780029 .1110026 .5761719 .087005618 .5761719V.5078125H.2709961V0H.3560028Z"/>
<path id="font_6_31" d="M.15499878 .5249634C.15499878 .54292806 .15833028 .5585683 .16499329 .57188418 .17166646 .5852 .1805013 .5965169 .1914978 .60583499 .20249431 .615153 .21565755 .62214156 .23098755 .62680056 .24632772 .63145956 .2623291 .63378909 .2789917 .63378909 .31365968 .63378909 .342158 .6246338 .3644867 .60632327 .38682557 .5880229 .397995 .5609029 .397995 .5249634 .397995 .48901368 .3869934 .46105448 .36499024 .44108583 .34299723 .42111717 .31499736 .4111328 .2809906 .4111328 .26365663 .4111328 .24732463 .4134623 .23199463 .41812135 .21666463 .42278037 .20333354 .4297689 .19200135 .4390869 .18066915 .44840495 .17166646 .46022035 .16499329 .47453309 .15833028 .48884584 .15499878 .50565597 .15499878 .5249634M.06500244 .5280304C.06500244 .4960378 .07400004 .46654258 .09199524 .43954469 .11000061 .41254679 .13400269 .39305116 .16400147 .38105775 .12400309 .36706034 .093332927 .34456889 .07199097 .31358338 .05065918 .28260804 .039993287 .24612935 .039993287 .20414734 .039993287 .16816712 .046157838 .13668315 .05848694 .109695438 .07082621 .082707729 .08782959 .060216268 .10949707 .04222107 .13116455 .024236044 .15666199 .010910034 .18598938 .002243042 .21532695-.006413778 .2469991-.0107421879 .28100587-.0107421879 .31366984-.0107421879 .34433494-.0060780846 .3730011 .003250122 .40166728 .012578328 .4264984 .026402792 .4474945 .04472351 .46850077 .063054408 .48516847 .08554586 .49749757 .112197879 .50983688 .1388499 .51600649 .16949971 .51600649 .20414734 .51600649 .24812317 .5056712 .28526817 .4850006 .31558229 .4643402 .3459066 .43267314 .36773173 .3899994 .38105775 .41999818 .39438377 .4438324 .41421 .46150209 .4405365 .47917176 .46687318 .4880066 .4960378 .4880066 .5280304 .4880066 .55068466 .4840037 .5728404 .47599793 .5944977 .46800233 .61616519 .45550538 .63549807 .43850709 .65249636 .4215088 .6694946 .39934287 .6831563 .37200929 .69348147 .3446757 .7038167 .31167604 .7089844 .27301026 .7089844 .24567668 .7089844 .21950786 .7049815 .19450379 .6969757 .16949971 .6889801 .14732869 .6773173 .12799073 .6619873 .108662929 .6466675 .093332927 .6278432 .08200073 .6055145 .07066854 .58318588 .06500244 .5573578 .06500244 .5280304M.13000489 .20021057C.13000489 .22083028 .13383484 .23945618 .14149475 .25608827 .14916484 .2727305 .15983074 .28703819 .17349243 .29901124 .1871643 .31098429 .2031657 .3201294 .22149658 .32644654 .23983765 .33277384 .25933839 .3359375 .27999879 .3359375 .29999797 .3359375 .3188273 .33244325 .33648683 .3254547 .3541565 .3184662 .36965943 .30898539 .3829956 .29701234 .3963318 .28503929 .40682984 .27089945 .41448976 .2545929 .42215983 .23829651 .42599488 .22049968 .42599488 .2012024 .42599488 .1812439 .4224955 .16294861 .41549684 .14631653 .40849815 .12968445 .39849855 .11521403 .38549806 .10290527 .37249757 .09059652 .35716249 .080947879 .3394928 .07395935 .32183329 .066970828 .30233766 .06347656 .28100587 .06347656 .23699951 .06347656 .2008311 .07561747 .17250061 .09989929 .14417012 .124191287 .13000489 .15762837 .13000489 .20021057Z"/>
</defs>
<path transform="matrix(.75,0,0,.75,0,0)" d="M0 0H1280V720H0Z" fill="#ffffff"/>
<g clip-path="url(#clip_1)">
<path transform="matrix(.75,0,0,.75,0,-9180)" d="M0 12240H1280V12960H0Z" fill="#ffffff"/>
</g>
<g clip-path="url(#clip_2)">
<path transform="matrix(.75,0,0,.75,0,0)" d="M0 0H1280V720H0Z" fill="#eff6ff"/>
</g>
<g clip-path="url(#clip_3)">
<use data-text="&#x5b9f;" xlink:href="#font_4_246" transform="matrix(39.6,0,0,-39.6,440.39064,261.75)" fill="#1e40af"/>
<use data-text="&#x88c5;" xlink:href="#font_5_2" transform="matrix(39.6,0,0,-39.6,479.9906,261.75)" fill="#1e40af"/>
<use data-text="C" xlink:href="#font_6_42" transform="matrix(18,0,0,-18,415.1953,306.75)" fill="#64748b"/>
<use data-text="+" xlink:href="#font_6_18" transform="matrix(18,0,0,-18,428.1913,306.75)" fill="#64748b"/>
<use data-text="+" xlink:href="#font_6_18" transform="matrix(18,0,0,-18,438.99134,306.75)" fill="#64748b"/>
<use data-text=" " xlink:href="#font_6_3" transform="matrix(18,0,0,-18,449.79136,306.75)" fill="#64748b"/>
<use data-text="&#x30b3;" xlink:href="#font_7_178" transform="matrix(18,0,0,-18,454.7953,306.75)" fill="#64748b"/>
<use data-text="&#x30fc;" xlink:href="#font_8_150" transform="matrix(18,0,0,-18,472.7953,306.75)" fill="#64748b"/>
<use data-text="&#x30c9;" xlink:href="#font_7_200" transform="matrix(18,0,0,-18,490.7953,306.75)" fill="#64748b"/>
<use data-text="&#x89e3;" xlink:href="#font_9_119" transform="matrix(18,0,0,-18,508.7953,306.75)" fill="#64748b"/>
<use data-text="&#x8aac;" xlink:href="#font_10_144" transform="matrix(18,0,0,-18,526.7953,306.75)" fill="#64748b"/>
<use data-text="1" xlink:href="#font_6_24" transform="matrix(18,0,0,-18,917.47268,515.25)" fill="#777777"/>
<use data-text="8" xlink:href="#font_6_31" transform="matrix(18,0,0,-18,927.48068,515.25)" fill="#777777"/>
</g>
</svg>
