<svg xmlns="http://www.w3.org/2000/svg" xmlns:xlink="http://www.w3.org/1999/xlink" xmlns:inkscape="http://www.inkscape.org/namespaces/inkscape" version="1.1" width="960" height="540" viewBox="0 0 960 540">
<defs>
<clipPath id="clip_1">
<path transform="matrix(.24,0,0,.24,0,0)" d="M0 0H4000V2250H0Z" clip-rule="evenodd"/>
</clipPath>
<clipPath id="clip_2">
<path transform="matrix(.24,0,0,.24,0,0)" d="M0 0H4000V2250H0Z" clip-rule="evenodd"/>
</clipPath>
<clipPath id="clip_3">
<path transform="matrix(.24,0,0,.24,0,0)" d="M0 0H4000V2250H0Z" clip-rule="evenodd"/>
</clipPath>
<g id="font_4_171">
<path transform="matrix(.001,0,0,-.001,0,0)" d="M286-41C286 46 327 66 510 66 743 66 759 50 781-213 740-222 718-230 675-251 673-150 665-87 651-62 639-41 605-34 516-34 421-34 395-41 395-66V-136C459-188 500-227 546-280 647-396 726-515 797-660 824-716 824-716 836-737L721-783C707-721 662-624 609-540 548-444 470-349 395-278V-525C395-561 397-593 401-624H280C285-580 286-561 286-522V-186C202-124 127-80 30-37 65-4 81 16 105 58 183 18 214-2 286-52V-41ZM276-762C409-710 493-666 569-609L635-705C529-770 477-795 343-848L276-762ZM124-534C102-382 82-310 28-187L132-135C186-274 205-347 230-514L124-534ZM721-475C793-339 820-267 867-90L973-147C923-305 885-397 819-523L721-475Z"/>
</g>
<g id="font_5_80">
<path transform="matrix(.001,0,0,-.001,0,0)" d="M173-322C118-322 86-324 58-328V-224C91-227 124-229 173-229H280C245-188 226-170 181-131 282-107 299-103 415-72 326-39 217-23 79-23 74-23 67-23 57-23 83 21 90 38 102 79 301 69 436 36 553-30 706 25 706 25 791 64 804 70 824 79 849 90L919-2C808-47 772-60 645-99 683-138 710-177 736-229H826C875-229 909-227 942-224V-328C914-323 884-322 826-322H473C485-342 488-348 509-385H762C819-385 850-384 875-381 873-406 872-429 872-479V-547C872-596 873-621 876-649 847-645 815-644 764-644H648V-707H827C875-707 911-705 943-702V-808C916-804 877-802 819-802H183C127-802 90-804 60-808V-702C91-705 128-707 175-707H341V-644H232C185-644 153-645 121-649 124-619 125-593 125-547V-478C125-433 124-410 121-381 152-384 185-385 237-385H389C375-358 368-346 352-322H173ZM617-229C594-189 566-159 530-133 495-143 481-147 470-149 392-167 392-167 357-177 382-202 390-211 405-229H617ZM440-707H549V-644H440V-707ZM341-563V-468H231V-563H341ZM440-563H549V-468H440V-563ZM648-563H765V-468H648V-563Z"/>
</g>
<g id="font_6_227">
<path transform="matrix(.001,0,0,-.001,0,0)" d="M543-326V-367C543-395 544-412 548-433H433C437-409 438-396 438-368V-326H157C109-326 85-327 60-332V-226C93-230 133-232 181-232H369C291-152 160-79 36-46 66-8 82 19 96 59 175 25 231-5 293-47 356-90 388-119 440-177 438-147 438-126 438-104V-14C438 29 436 51 430 83H550C544 53 543 34 543-13V-105C543-123 542-138 540-179 585-128 617-100 684-54 757-3 800 19 906 65 930 9 937-3 967-45 812-90 696-152 614-232H815C865-232 903-230 937-226V-332C907-328 875-326 823-326H543ZM728-783C701-778 685-777 641-777H438C464-806 482-825 491-835L370-857C344-813 307-775 249-731 188-684 139-657 60-626 92-595 106-575 121-541 195-573 232-595 297-645 340-601 362-581 403-550 292-502 181-473 43-457 66-422 74-402 83-362 202-384 247-395 341-428 412-453 446-467 496-493 602-436 714-402 917-366 931-409 942-435 965-470 816-489 700-515 598-553 659-595 710-640 765-699 778-713 780-716 790-724L728-783ZM621-694C576-650 550-630 498-599 446-628 412-654 377-694H621Z"/>
</g>
<g id="font_7_76">
<path transform="matrix(.001,0,0,-.001,0,0)" d="M585-634H486C494-659 498-672 508-703 517-734 519-740 526-763L416-791C412-751 402-713 385-664 356-584 323-521 277-458 333-420 338-416 366-386 404-442 422-473 447-532H585V-345H414C366-345 331-347 302-351V-236C332-240 368-242 414-242H585V-34C585 17 583 45 578 81H702C696 45 695 20 695-34V-242H853C894-242 929-240 963-236V-351C931-347 899-345 851-345H695V-532H821C853-532 883-530 928-526V-640C900-636 871-634 820-634H695V-726C695-775 696-799 702-832H578C583-799 585-773 585-727V-634ZM145-34C145 14 144 42 139 83H259C256 45 254 12 254-33V-600C290-677 299-699 324-775 333-800 335-805 340-820L227-852C221-812 211-776 191-722 149-611 95-522 19-438 39-404 47-380 64-315 101-355 123-386 148-431 146-387 145-355 145-321V-34Z"/>
</g>
<g id="font_8_122">
<path transform="matrix(.001,0,0,-.001,0,0)" d="M578-641C622-637 648-629 679-611 759-563 802-485 802-389 802-282 750-187 663-139 616-112 556-96 464-84 496-42 508-20 525 33 595 21 634 11 682-9 835-71 925-209 925-382 925-607 769-753 529-753 387-753 269-705 185-613 114-535 75-432 75-322 75-161 157-45 271-45 353-45 417-104 474-233 524-346 559-484 578-641ZM456-640C444-527 411-392 373-302 337-216 303-174 270-174 226-174 191-239 191-321 191-428 243-531 327-591 368-620 404-634 456-640Z"/>
</g>
<g id="font_4_80">
<path transform="matrix(.001,0,0,-.001,0,0)" d="M328-338C328-327 328-320 327-307H184C135-307 110-308 79-313V-206C112-211 138-212 184-212H312C297-164 276-132 241-101 197-61 149-38 56-12 88 20 108 49 127 86 250 38 310-2 360-68 390-108 409-152 422-212H551V-18C551 52 583 69 719 69 911 69 929 54 951-115 911-121 882-131 843-150 840-95 834-62 825-50 814-36 790-31 735-31 701-31 684-32 671-36 656-40 655-42 655-63V-212H814C859-212 888-210 919-206V-313C889-308 863-307 814-307H655V-415C703-415 721-414 751-411V-454C805-418 834-402 916-364 943-422 949-433 972-463 899-491 866-507 812-539 847-570 876-599 902-631 922-653 924-656 930-662L838-714C814-675 777-632 734-593 713-609 702-618 675-641 700-664 731-695 749-716 772-743 785-758 788-762L696-813C693-808 693-808 688-800 684-792 681-789 667-771 647-745 640-739 608-707 570-753 556-776 546-816 523-813 507-812 460-812H275C240-812 211-814 192-817V-713C176-726 176-726 160-739L78-678C128-643 162-612 218-547 151-503 104-479 27-450 54-418 69-394 86-358 166-394 203-415 262-455V-411C287-413 298-414 329-415L328-338ZM435-415H551V-307H434C434-317 434-321 434-330L435-415ZM399-717C369-676 343-648 301-610 268-647 245-669 192-713 213-716 235-717 253-717H399ZM361-509C350-509 345-509 334-509 405-567 447-612 503-690 558-613 602-567 673-509 665-509 665-509 652-509H361Z"/>
</g>
<g id="font_7_102">
<path transform="matrix(.001,0,0,-.001,0,0)" d="M331-212C319-149 290-106 236-71 188-40 135-22 41-5 70 30 82 51 99 93 214 67 290 32 353-27 404-74 436-135 448-212H538V-17C538 58 568 72 734 72 847 72 890 64 918 38 943 14 953-23 963-134 925-144 901-154 860-176 857-100 852-62 842-48 830-31 810-27 733-27 655-27 646-30 646-58V-212H732C773-212 812-211 838-209 834-237 833-267 833-315V-680C833-735 835-781 838-805 809-801 778-800 732-800H271C225-800 196-801 166-805 169-779 171-735 171-680V-315C171-269 170-238 166-209 192-211 226-212 274-212H331ZM276-700H727V-635H276V-700ZM276-541H727V-474H276V-541ZM276-380H727V-309H276V-380Z"/>
</g>
<g id="font_9_170">
<path transform="matrix(.001,0,0,-.001,0,0)" d="M455-686H169C123-686 90-688 57-693V-621C86-625 119-627 168-627H836C894-627 923-625 949-621V-693C919-688 884-686 835-686H521V-747C521-781 523-807 528-832H448C452-811 455-779 455-747V-686ZM455-489H243C202-489 176-490 147-493 150-467 151-442 151-411V-131C151-86 149-55 145-23H224C220-52 218-85 218-131V-432H455V-34C455 5 453 37 448 75H527C522 41 520 7 520-34V-432H782V-131C782-109 774-103 742-103 710-103 671-106 625-113 635-89 639-72 642-46 688-43 705-42 746-42 828-42 848-59 848-124V-412C848-445 849-468 852-493 822-490 797-489 757-489H520V-521C520-557 522-583 525-601H450C454-576 455-553 455-522V-489Z"/>
</g>
<g id="font_10_175">
<path transform="matrix(.001,0,0,-.001,0,0)" d="M330-571C355-571 376-570 396-568V-630C377-627 359-626 330-626H273V-722C273-772 274-800 278-825H207C211-802 212-779 212-721V-626H139C106-626 83-627 67-630V-567C86-570 108-571 139-571H203C194-532 173-470 153-419 121-341 85-280 37-221 53-203 66-183 76-161 106-202 124-232 148-281 178-344 193-387 217-475 214-406 212-357 212-314V-36C212 16 210 51 206 80H279C275 53 273 18 273-36V-332C273-378 271-439 269-497 299-414 322-369 368-304 379-326 389-343 404-359 345-428 318-473 277-571H330ZM384 31C401 27 412 25 442 22 616 3 663-4 844-40 859-7 863 5 881 50L942 18C886-109 854-169 766-311L711-284C767-194 792-150 819-94 694-70 694-70 532-51 587-186 626-306 682-504L611-523C588-397 536-228 464-44 442-43 421-42 398-42 386-42 381-42 370-43L384 31ZM707-774C767-609 827-499 911-397 928-417 945-434 963-447 916-496 888-535 853-597 812-670 789-726 768-799L707-774ZM535-796C508-654 453-530 376-438 399-425 411-415 431-395 501-493 558-620 601-774L535-796Z"/>
</g>
<g id="font_11_233">
<path transform="matrix(.001,0,0,-.001,0,0)" d="M424-204C378-204 347-205 323-208V-146C353-149 385-151 423-151H564C543-106 518-76 475-47 430-16 374 4 285 24 303 45 310 58 319 79 477 37 567-25 616-124 679-22 775 40 929 80 937 56 946 40 961 19 812-7 721-58 662-151H855C897-151 922-149 952-145V-209C923-205 895-204 854-204H642C646-230 647-239 650-281H796C835-281 862-280 889-277 885-302 885-320 885-360V-520C885-557 886-577 889-601 865-598 838-597 797-597H475C433-597 405-598 383-601 385-578 386-555 386-521V-360C386-327 385-304 383-277 414-280 444-281 474-281H590C588-238 586-228 581-204H424ZM444-545H827V-466H444V-545ZM444-415H827V-332H444V-415ZM274-577C297-577 317-576 339-574V-635C319-632 304-631 274-631H233V-729C233-779 234-807 238-832H168C172-808 173-786 173-729V-631H120C88-631 66-632 50-635V-573C69-576 92-577 120-577H165C137-445 88-330 25-248 39-232 48-218 61-189 115-269 144-340 178-475 176-418 174-356 174-318V-34C174 18 172 54 168 82H239C234 55 233 20 233-34V-337C233-378 231-426 229-499 252-428 273-382 311-318 322-338 330-350 346-369 296-435 270-483 236-577H274ZM708-686V-680C708-656 707-642 705-624H770C767-641 767-652 767-686H847C890-686 920-685 950-681V-746C922-741 895-740 846-740H767V-759C767-790 768-807 771-826H703C707-807 708-788 708-759V-740H551V-759C551-790 553-807 556-826H488C492-806 493-789 493-759V-740H432C383-740 361-741 337-745V-682C364-685 386-686 432-686H493V-680C493-655 492-643 489-624H555C552-643 551-653 551-686H708Z"/>
</g>
<g id="font_12_70">
<path transform="matrix(.001,0,0,-.001,0,0)" d="M590-639V-553H477C436-553 417-554 392-558V-493C419-497 435-498 479-498H590V-408H435C396-408 372-409 348-412V-350C371-354 396-355 434-355H590V-211C478-133 379-80 304-59L333 7C345-2 363-12 378-20 494-82 498-84 590-149V-8C590 10 584 14 555 14 526 14 493 11 456 5 467 26 471 42 474 68 502 71 529 72 556 72 631 72 650 58 650 4V-184C650-203 649-221 642-283 688-183 718-137 774-79 817-35 859-2 921 36 935 11 946-4 963-22 882-61 829-100 773-162 821-204 851-236 898-298L847-334C810-276 783-245 738-205 700-256 683-287 656-355H847C881-355 911-353 937-349V-414C910-410 883-408 846-408H650V-498H802C843-498 865-497 892-493V-559C867-555 842-553 801-553H650V-639H832C870-639 896-637 923-633V-698C896-694 869-692 832-692H744C759-716 792-774 808-806L749-827C731-778 713-742 681-692H565C546-740 526-776 493-825L440-802C472-759 489-730 505-692H452C412-692 388-693 364-697V-634C390-638 409-639 451-639H590ZM190-633H128C95-633 75-634 58-637V-575C76-578 97-579 128-579H180C169-528 149-466 124-407 96-341 68-294 30-249 49-225 58-210 68-187 98-232 113-257 134-300 164-365 176-400 198-493 197-476 196-464 196-456 195-431 194-413 193-407 190-359 190-359 190-319V-36C190 16 188 51 184 80H256C252 53 250 18 250-36V-339C250-374 249-418 246-502 266-446 281-412 311-362 323-383 333-399 346-416 305-466 270-528 253-579H289C313-579 333-578 352-576V-637C333-634 318-633 289-633H250V-731C250-781 251-809 255-834H185C189-811 190-788 190-730V-633ZM369-301C411-257 432-229 463-178L509-211C477-259 453-289 414-332L369-301Z"/>
</g>
<g id="font_13_164">
<path transform="matrix(.001,0,0,-.001,0,0)" d="M962 81C878-4 845-49 810-126 774-206 756-289 756-380 756-471 774-554 810-634 845-711 878-756 962-841H873C798-755 767-707 734-626 701-546 686-467 686-380 686-293 701-214 734-134 767-53 798-5 873 81H962Z"/>
</g>
<g id="font_14_192">
<path transform="matrix(.001,0,0,-.001,0,0)" d="M764-790C732-770 706-759 650-742 522-704 358-679 230-679 215-679 200-679 172-681 187-649 190-640 196-614 343-620 429-629 492-642 492-554 491-498 489-454H202C145-454 130-455 97-461V-385C133-389 151-390 202-390H483C476-304 459-249 422-194 373-120 297-64 188-22 215 0 224 10 242 40 364-19 439-82 491-169 529-232 548-296 556-390H801C852-390 870-389 906-385V-461C873-455 858-454 801-454H561C562-493 563-558 564-654 643-670 711-690 784-716 803-723 803-723 815-726L764-790Z"/>
</g>
<g id="font_14_166">
<path transform="matrix(.001,0,0,-.001,0,0)" d="M529-407H683C736-407 744-407 771-403V-473C747-469 723-467 682-467H317C277-467 253-469 228-473V-403C251-406 273-407 317-407H460V-61H257C209-61 193-62 167-67V4C191 1 215 0 258 0H742C783 0 809 1 833 4V-66C808-62 790-61 743-61H529V-407Z"/>
</g>
<g id="font_14_194">
<path transform="matrix(.001,0,0,-.001,0,0)" d="M187-528C229-459 257-392 281-304L349-327C312-433 290-480 250-549L187-528ZM393-570C436-495 467-422 485-351L551-374C525-454 507-494 454-589L393-570ZM740-571C740-568 740-568 740-565V-561C740-549 736-526 729-493 711-416 682-341 644-278 575-163 481-86 327-17 350 4 358 14 373 39 528-36 633-128 704-250 740-312 776-404 792-474 808-539 808-539 814-555L740-571Z"/>
</g>
<g id="font_14_170">
<path transform="matrix(.001,0,0,-.001,0,0)" d="M242-603C192-603 168-604 134-610L135-534C171-539 182-539 241-539L423-540C410-428 395-372 361-302 306-190 220-102 101-39 126-17 134-9 152 20 265-48 358-142 414-245 458-329 481-412 494-540L774-541C773-393 764-265 749-186 730-87 714-63 665-63 632-63 590-71 536-89 545-63 547-49 547-26 547-23 547-20 547-14 600-2 639 3 671 3 761 3 791-33 816-170 829-239 841-390 844-520 845-556 846-565 852-580L815-612C795-606 794-605 749-605L499-604C502-632 502-644 504-675 508-781 508-781 512-804L431-806C434-788 435-777 435-754 435-710 433-655 429-604L242-603Z"/>
</g>
<g id="font_13_150">
<path transform="matrix(.001,0,0,-.001,0,0)" d="M87-343C117-346 138-347 211-347H791C858-347 881-346 913-343V-424C882-420 866-419 792-419H211C143-419 116-420 87-425V-343Z"/>
</g>
<g id="font_14_219">
<path transform="matrix(.001,0,0,-.001,0,0)" d="M457-623H213C148-623 129-624 97-629V-553C128-557 148-558 212-558H457V-59C457 2 455 23 451 46H533C529 23 528 1 528-60V-558H782C846-558 866-557 897-553V-629C865-624 845-623 780-623H528V-688C528-750 529-768 533-792H451C456-769 457-751 457-690V-623ZM241-466C239-433 227-386 206-330 163-216 118-141 59-84 90-69 102-62 125-41 203-132 264-253 300-386L305-408 311-428C313-435 313-435 317-445L241-466ZM668-446C675-430 684-408 693-381 744-235 797-129 867-37 891-61 902-69 930-84 868-155 822-235 775-352 752-412 743-440 738-465L668-446ZM717-810C744-781 788-715 818-656L869-685C836-746 809-786 767-836L717-810ZM842-845C881-800 922-736 944-688L994-717C961-780 936-817 891-873L842-845Z"/>
</g>
<g id="font_14_200">
<path transform="matrix(.001,0,0,-.001,0,0)" d="M382 31C378 7 377-15 377-75V-376C377-401 376-417 373-435L375-436C384-429 392-425 406-419 547-360 704-277 779-221L822-295C658-390 520-455 377-506V-693C377-755 378-774 382-797H296C300-775 301-758 302-695V-74C301-13 300 8 296 31H382ZM630-731C660-700 708-625 733-572L783-602C753-661 725-703 680-757L630-731ZM744-785C783-739 825-675 846-627L896-656C863-719 838-756 793-812L744-785Z"/>
</g>
<g id="font_13_165">
<path transform="matrix(.001,0,0,-.001,0,0)" d="M127 81C202-5 233-53 266-134 299-214 314-293 314-380 314-467 299-546 266-626 233-707 202-755 127-841H38C122-757 155-711 190-634 226-554 244-471 244-380 244-289 226-206 190-126 155-49 122-3 38 81H127Z"/>
</g>
<g id="font_14_115">
<path transform="matrix(.001,0,0,-.001,0,0)" d="M95-583C131-592 241-602 440-616 545-623 603-628 660-638 622-620 596-606 565-585 446-504 378-394 378-278 378-195 418-122 489-74 546-35 606-14 705 3 723 6 725 7 736 9L749-72C745-72 741-72 739-72 701-72 638-86 589-104 500-138 449-205 449-289 449-372 492-453 572-520 627-567 697-603 764-620 802-630 836-634 876-634L870-708C856-704 837-702 751-697L694-695C661-694 648-693 525-686L368-676C245-669 239-668 183-664 152-662 140-661 126-661 119-661 109-661 90-662L95-583ZM709-487C739-456 787-381 811-328L862-358C832-417 804-459 759-513L709-487ZM823-541C862-495 903-431 925-384L975-412C942-475 917-513 872-568L823-541Z"/>
</g>
<g id="font_15_230">
<path transform="matrix(.001,0,0,-.001,0,0)" d="M486-495C364-419 206-349 40-298 59-275 67-261 75-239 172-275 261-312 344-354 322-279 291-210 240-118L309-107C328-144 334-158 343-177H739C732-110 726-72 715-36 704 2 691 12 654 12 610 12 536 4 473-8 482 21 484 31 486 59 565 67 612 70 653 70 720 70 749 57 765 21 781-13 796-92 805-181 809-214 810-229 813-238 790-235 765-234 700-234H366C378-265 383-278 392-305 596-327 737-348 856-376L815-435C765-410 624-384 409-360 412-373 413-377 417-391 482-426 532-457 586-495H831C874-495 910-493 941-489V-558C916-554 884-552 831-552H662C740-613 824-692 870-746 879-757 881-759 887-766L829-808C818-786 803-766 774-732 714-664 662-618 571-552H489V-666H589C643-666 669-665 695-661V-728C670-724 639-722 585-722H489V-740C489-784 490-810 495-834H421C425-804 427-782 427-740V-722H272C218-722 187-724 163-728V-661C194-665 221-666 272-666H427V-552H173C117-552 84-554 60-558V-489C93-493 127-495 174-495H486Z"/>
</g>
<g id="font_14_84">
<path transform="matrix(.001,0,0,-.001,0,0)" d="M292-732C412-693 485-680 665-664L679-731C547-735 423-756 317-793L292-732ZM206-474C232-477 253-479 301-482 471-493 537-500 599-514 527-445 476-395 447-366 366-286 283-206 211-139 151-82 138-71 103-47L159 15C194-25 260-93 309-138 392-215 441-243 493-243 514-243 532-234 539-219 545-207 547-196 550-150 555-84 560-62 572-40 593-1 637 17 712 17 756 17 794 13 849 4 920-7 920-7 930-8L919-85C866-62 790-48 717-48 671-48 648-56 634-75 623-91 620-106 616-169 612-226 605-249 585-269 568-286 545-295 517-295 490-295 473-289 417-262 466-300 531-358 615-442 673-499 683-509 704-525L660-580C647-575 635-572 612-569 526-557 349-545 261-545 239-545 226-545 201-547L206-474Z"/>
</g>
<g id="font_14_151">
<path transform="matrix(.001,0,0,-.001,0,0)" d="M241-670C263-673 273-674 295-675 447-680 567-687 599-693 605-694 605-694 608-694L610-692 606-688C604-686 602-684 602-684 594-676 594-676 588-670 519-602 361-463 254-378 186-323 150-297 114-276L159-212C275-319 433-383 580-383 715-383 795-326 795-230 795-145 740-84 635-55 621-99 610-123 589-151 549-204 491-233 424-233 341-233 279-183 279-116 279-24 360 28 501 28 723 28 868-75 868-231 868-359 761-441 594-441 506-441 425-420 349-379L347-382C417-427 538-531 676-666 708-697 713-701 727-708L685-763C672-756 663-754 637-752 547-745 414-739 331-739 283-739 265-740 237-745L241-670ZM569-37C533-31 521-30 496-30 453-30 410-39 384-53 357-69 344-88 344-114 344-152 375-176 425-176 497-176 547-128 569-37Z"/>
</g>
<path id="font_16_29" d="M.41400147 .5283203H.49899293C.4936625 .58687338 .47366334 .6316223 .43899537 .66256716 .4043274 .69351199 .35766093 .7089844 .29899598 .7089844 .24833679 .7089844 .20633953 .6983185 .17300415 .6769867 .13966878 .6556651 .1130015 .6273448 .09300232 .59202578 .073003139 .5567067 .058832807 .5162201 .050491334 .4705658 .042160036 .42492167 .037994386 .3777771 .037994386 .32913209 .037994386 .29180909 .040827436 .25315348 .04649353 .21316529 .052159627 .17318726 .06365967 .13653565 .08099365 .10321045 .09832764 .069895427 .12299601 .04257202 .15499878 .021240235 .18700154-.00008138021 .22933452-.0107421879 .28199769-.0107421879 .32666526-.0107421879 .36416627-.003245036 .39450074 .011749268 .4248352 .02674357 .44916789 .045735677 .46749879 .068725589 .48582969 .09171549 .49899293 .11720276 .5069885 .14518738 .5149943 .173172 .5189972 .20015972 .5189972 .22615052 .5189972 .25880433 .5139974 .28912355 .5039978 .31710816 .4939982 .34510295 .47982789 .36942546 .46148683 .39007569 .4431559 .41073609 .42049156 .42689515 .39349366 .43855287 .36649577 .45022074 .33599855 .4560547 .30200196 .4560547 .26333619 .4560547 .22916667 .4487203 .19949341 .4340515 .16983032 .4193929 .14499919 .3957316 .125 .36306764L.1230011 .36506654C.123662319 .39240013 .12632752 .42171733 .1309967 .4530182 .1356659 .48432923 .14416504 .5134633 .15649414 .54042056 .16883342 .5673879 .18599956 .58969119 .20799256 .6073303 .22999573 .6249695 .2589976 .63378909 .29499818 .63378909 .32899476 .63378909 .35632835 .62417098 .3769989 .6049347 .39766947 .5856984 .41000367 .56016036 .41400147 .5283203M.28601075 .38085938C.31000773 .38085938 .33100382 .37653099 .34899903 .36787416 .3670044 .3592275 .38200379 .3477529 .3939972 .33345033 .40600077 .31914775 .4148356 .30217997 .4205017 .282547 .42616783 .2629242 .42900086 .24213155 .42900086 .22016907 .42900086 .19954936 .42583213 .17975362 .41949464 .16078186 .41316734 .14182027 .40400187 .12502034 .3919983 .11038208 .38000489 .09574381 .36517335 .08426412 .34750367 .07594299 .32983399 .06763204 .30933634 .06347656 .28601075 .06347656 .26267497 .06347656 .24183655 .06763204 .22349549 .07594299 .2051646 .08426412 .1898346 .09540812 .1775055 .109375 .16517639 .12335205 .15567525 .13998921 .14900208 .1592865 .14233907 .17858379 .13900757 .19921367 .13900757 .22117615 .13900757 .24312847 .14217122 .26391603 .14849854 .28353883 .15483602 .30317179 .16433716 .32013957 .17700196 .33444215 .18966675 .34875489 .20499675 .36006675 .22299195 .3683777 .24099732 .37669883 .26200358 .38085938 .28601075 .38085938Z"/>
</defs>
<path transform="matrix(.75,0,0,.75,0,0)" d="M0 0H1280V720H0Z" fill="#ffffff"/>
<g clip-path="url(#clip_1)">
<path transform="matrix(.75,0,0,.75,0,-2700)" d="M0 3600H1280V4320H0Z" fill="#ffffff"/>
</g>
<g clip-path="url(#clip_2)">
<path transform="matrix(.75,0,0,.75,0,0)" d="M0 0H1280V720H0Z" fill="#eff6ff"/>
</g>
<g clip-path="url(#clip_3)">
<use data-text="&#x5fc5;" xlink:href="#font_4_171" transform="matrix(39.6,0,0,-39.6,341.39064,261.75)" fill="#1e40af"/>
<use data-text="&#x8981;" xlink:href="#font_5_80" transform="matrix(39.6,0,0,-39.6,380.9906,261.75)" fill="#1e40af"/>
<use data-text="&#x6761;" xlink:href="#font_6_227" transform="matrix(39.6,0,0,-39.6,420.5906,261.75)" fill="#1e40af"/>
<use data-text="&#x4ef6;" xlink:href="#font_7_76" transform="matrix(39.6,0,0,-39.6,460.1906,261.75)" fill="#1e40af"/>
<use data-text="&#x306e;" xlink:href="#font_8_122" transform="matrix(39.6,0,0,-39.6,499.7906,261.75)" fill="#1e40af"/>
<use data-text="&#x767a;" xlink:href="#font_4_80" transform="matrix(39.6,0,0,-39.6,539.39059,261.75)" fill="#1e40af"/>
<use data-text="&#x2f92;" xlink:href="#font_7_102" transform="matrix(39.6,0,0,-39.6,578.9906,261.75)" fill="#1e40af"/>
<use data-text="&#x5e02;" xlink:href="#font_9_170" transform="matrix(18,0,0,-18,318.53907,306.75)" fill="#64748b"/>
<use data-text="&#x677e;" xlink:href="#font_10_175" transform="matrix(18,0,0,-18,336.53907,306.75)" fill="#64748b"/>
<use data-text="&#x6a21;" xlink:href="#font_11_233" transform="matrix(18,0,0,-18,354.53907,306.75)" fill="#64748b"/>
<use data-text="&#x69d8;" xlink:href="#font_12_70" transform="matrix(18,0,0,-18,372.53907,306.75)" fill="#64748b"/>
<use data-text="&#xff08;" xlink:href="#font_13_164" transform="matrix(18,0,0,-18,390.53907,306.75)" fill="#64748b"/>
<use data-text="&#x30c1;" xlink:href="#font_14_192" transform="matrix(18,0,0,-18,408.53907,306.75)" fill="#64748b"/>
<use data-text="&#x30a7;" xlink:href="#font_14_166" transform="matrix(18,0,0,-18,426.53907,306.75)" fill="#64748b"/>
<use data-text="&#x30c3;" xlink:href="#font_14_194" transform="matrix(18,0,0,-18,444.53907,306.75)" fill="#64748b"/>
<use data-text="&#x30ab;" xlink:href="#font_14_170" transform="matrix(18,0,0,-18,462.53907,306.75)" fill="#64748b"/>
<use data-text="&#x30fc;" xlink:href="#font_13_150" transform="matrix(18,0,0,-18,480.53907,306.75)" fill="#64748b"/>
<use data-text="&#x30dc;" xlink:href="#font_14_219" transform="matrix(18,0,0,-18,498.53907,306.75)" fill="#64748b"/>
<use data-text="&#x30fc;" xlink:href="#font_13_150" transform="matrix(18,0,0,-18,515.9991,306.75)" fill="#64748b"/>
<use data-text="&#x30c9;" xlink:href="#font_14_200" transform="matrix(18,0,0,-18,533.9991,306.75)" fill="#64748b"/>
<use data-text="&#xff09;" xlink:href="#font_13_165" transform="matrix(18,0,0,-18,551.9991,306.75)" fill="#64748b"/>
<use data-text="&#x3067;" xlink:href="#font_14_115" transform="matrix(18,0,0,-18,569.9991,306.75)" fill="#64748b"/>
<use data-text="&#x8003;" xlink:href="#font_15_230" transform="matrix(18,0,0,-18,587.9991,306.75)" fill="#64748b"/>
<use data-text="&#x3048;" xlink:href="#font_14_84" transform="matrix(18,0,0,-18,605.9991,306.75)" fill="#64748b"/>
<use data-text="&#x308b;" xlink:href="#font_14_151" transform="matrix(18,0,0,-18,623.4591,306.75)" fill="#64748b"/>
<use data-text="6" xlink:href="#font_16_29" transform="matrix(18,0,0,-18,927.48049,515.25)" fill="#777777"/>
</g>
</svg>
