<svg xmlns="http://www.w3.org/2000/svg" xmlns:xlink="http://www.w3.org/1999/xlink" xmlns:inkscape="http://www.inkscape.org/namespaces/inkscape" version="1.1" width="960" height="540" viewBox="0 0 960 540">
<defs>
<clipPath id="clip_1">
<path transform="matrix(.24,0,0,.24,0,0)" d="M0 0H4000V2250H0Z" clip-rule="evenodd"/>
</clipPath>
<clipPath id="clip_2">
<path transform="matrix(.24,0,0,.24,0,0)" d="M0 0H4000V2250H0Z" clip-rule="evenodd"/>
</clipPath>
<clipPath id="clip_3">
<path transform="matrix(.24,0,0,.24,0,0)" d="M0 0H4000V2250H0Z" clip-rule="evenodd"/>
</clipPath>
<path id="font_4_40" d="M.24899292 .2763672 .34199525 .53790286H.34399415L.43400575 .2763672H.24899292M.26400758 .7138672-.005996704 0H.1519928L.20799256 .15917969H.4750061L.52900698 0H.69200137L.42500306 .7138672H.26400758Z"/>
<path id="font_4_41" d="M.22599793 .4248047V.5917969H.3730011C.3869985 .5917969 .40049745 .590627 .41349793 .58828738 .4264984 .5859578 .43799845 .5817922 .44799806 .5757904 .45799766 .56979879 .46599833 .56146749 .47200013 .5507965 .47800193 .5401357 .4810028 .52646896 .4810028 .50979617 .4810028 .47979737 .47200013 .45812989 .45399476 .4447937 .43599955 .43146769 .41299949 .4248047 .3849945 .4248047H.22599793M.069000247 .7138672V0H.41500855C.44700114 0 .47816468 .0039978029 .50849917 .011993408 .5388336 .019989014 .5658315 .03230794 .5894928 .048950197 .61316427 .06560262 .6319987 .08708191 .6459961 .11338806 .66000369 .13970439 .66700747 .17084758 .66700747 .20681763 .66700747 .2514445 .6561737 .2895762 .6345062 .32121278 .61283877 .3528595 .58000186 .37501017 .5359955 .3876648 .56799826 .40300498 .5921631 .42268373 .60849 .44670106 .6248271 .47071839 .6329956 .5007375 .6329956 .5367584 .6329956 .57011416 .62749227 .5981293 .6164856 .62080386 .6054891 .6434886 .5899913 .66166689 .56999209 .67533877 .54999288 .6890208 .5259908 .69886276 .49798585 .7048645 .46999107 .7108663 .43899537 .7138672 .40499879 .7138672H.069000247M.22599793 .12207031V.3173828H.39700318C.43099977 .3173828 .45832826 .3095754 .47898866 .29396058 .4996592 .27835594 .5099945 .25228373 .5099945 .21574402 .5099945 .19713848 .50682577 .18185425 .5004883 .16989136 .49416099 .15793865 .48566184 .1484731 .47499085 .14149475 .46433006 .13452657 .45199586 .12954712 .43798829 .1265564 .42399089 .123565677 .40932719 .12207031 .3939972 .12207031H.22599793Z"/>
<path id="font_4_42" d="M.54499819 .4736328H.6970062C.69233706 .5149638 .68099978 .5516205 .6629944 .5836029 .6449992 .6155955 .62216696 .6424103 .5944977 .66404727 .5668284 .6856944 .53549197 .7021739 .5004883 .7134857 .46549479 .72480776 .42833457 .73046877 .38900758 .73046877 .33434043 .73046877 .2851715 .720815 .24150086 .70150759 .19784038 .68220016 .16100566 .65556338 .1309967 .6215973 .100997928 .5876414 .07799784 .5478566 .06199646 .50224307 .045995077 .45662944 .037994386 .40719096 .037994386 .3539276 .037994386 .3019867 .045995077 .25354515 .06199646 .2086029 .07799784 .16366069 .100997928 .12454224 .1309967 .09124756 .16100566 .05795288 .19784038 .031814577 .24150086 .012832642 .2851715-.0061391198 .33434043-.015625 .38900758-.015625 .43300376-.015625 .47333274-.008967082 .5099945 .004348755 .54666647 .017674765 .57866927 .036987306 .6060028 .062286378 .63333639 .08759562 .6553345 .118245448 .6719971 .15423584 .68866989 .19022624 .6990051 .23055522 .7030029 .27522279H.5509949C.54500326 .2272288 .5285034 .18856304 .50149539 .15922547 .47449748 .12989807 .43700157 .115234378 .38900758 .115234378 .3536682 .115234378 .32366435 .12206014 .29899598 .13571167 .2743276 .1493632 .2543284 .1675059 .23899842 .19013977 .22366841 .21278382 .21250408 .23825073 .20550537 .26654054 .19850667 .29484049 .19500733 .3239746 .19500733 .35394288 .19500733 .38523356 .19850667 .41552735 .20550537 .44482423 .21250408 .4741211 .22366841 .50025436 .23899842 .5232239 .2543284 .5461934 .2743276 .56450399 .29899598 .5781555 .32366435 .59180709 .3536682 .5986328 .38900758 .5986328 .40833537 .5986328 .426829 .59546408 .44448854 .5891266 .4621582 .58279928 .47799174 .57396957 .49198915 .5626373 .5059967 .5513051 .5176646 .5381368 .5269928 .5231323 .5363312 .508138 .54233297 .49163819 .54499819 .4736328Z"/>
<path id="font_4_27" d="M.31199647 .5222931V.27929688H.12800598L.30900575 .5222931H.31199647M.31199647 .16210938V0H.44700624V.16210938H.5399933V.27929688H.44700624V.7001953H.31999208L.01600647 .29212953V.16210938H.31199647Z"/>
<path id="font_4_28" d="M.5 .5830078V.7001953H.10899353L.039993287 .31314088H.16799927C.18199666 .33246867 .19699605 .3466339 .21299744 .3556366 .22899883 .36463929 .2496643 .36914063 .2749939 .36914063 .29433189 .36914063 .31133525 .3658091 .32600404 .35914613 .34067283 .3524933 .35333763 .34317527 .3639984 .33119203 .3746694 .31920878 .38267008 .30522666 .3880005 .2892456 .3933309 .27327476 .3959961 .25630189 .3959961 .23832703 .3959961 .22101338 .39316307 .2042033 .38749696 .18789673 .38183085 .17159017 .37383018 .15727742 .36349488 .1449585 .35316978 .13263957 .34050498 .12265015 .3255005 .114990238 .310496 .10734049 .2936605 .103515628 .2749939 .103515628 .2430013 .103515628 .21666973 .11301676 .19599915 .13201905 .17532857 .15102132 .16333008 .17651876 .16000366 .20851135H.018005372C.018666586 .17184957 .026163737 .13967388 .040496828 .11198425 .054829915 .08429464 .07399496 .061101278 .09799194 .042404176 .12199911 .023707072 .14950054 .009847005 .18049622 .0008239746 .21150208-.008188884 .2440033-.0126953129 .27799989-.0126953129 .31332908-.013366699 .34665934-.0075327556 .37799073 .0048065187 .40933229 .017155966 .4368337 .03466797 .460495 .05734253 .48416648 .08001709 .5030009 .10686239 .5169983 .13787842 .53099569 .16889446 .5379944 .20241292 .5379944 .23843384 .5379944 .27111817 .53315737 .30196635 .5234833 .3309784 .5138194 .3600006 .499822 .3851827 .4814911 .40652467 .4631602 .4278666 .44065858 .4448751 .4139862 .45755006 .387324 .470225 .35666404 .4765625 .32200624 .4765625 .29400126 .4765625 .2689972 .4723765 .24699402 .46400453 .22500102 .4556427 .20433553 .4417623 .18499756 .42236329L.18299866 .42436219 .21099854 .5830078H.5Z"/>
<path id="font_4_3" d=""/>
<path id="font_4_44" d="M.069000247 .7138672V0H.61099246V.13183594H.22599793V.30664063H.5720062V.42871095H.22599793V.58203127H.6029968V.7138672H.069000247Z"/>
<path id="font_4_183" d="M.13000489 .33398438V.21191406H.8699951V.33398438H.13000489Z"/>
<path id="font_4_51" d="M.069000247 .7138672V0H.5740051V.13183594H.22599793V.7138672H.069000247Z"/>
<path id="font_4_57" d="M.22599793 .39160157V.5917969H.397995C.43399558 .5917969 .46099345 .58399459 .47898866 .5683899 .49699403 .5527852 .5059967 .52772018 .5059967 .49319459 .5059967 .45733644 .49699403 .43143717 .47898866 .41549684 .46099345 .39956666 .43399558 .39160157 .397995 .39160157H.22599793M.069000247 .7138672V0H.22599793V.27929688H.3829956C.42233277 .27929688 .45066834 .27061973 .46800233 .25326539 .4853363 .23592122 .4966685 .20856221 .5019989 .17118836 .5059967 .14249166 .5089976 .112457279 .5110016 .081085208 .51300558 .04972331 .51834109 .022694907 .52700808 0H.68400576C.6766713 .010009766 .671168 .022191367 .6674957 .0365448 .6638336 .050898237 .6611684 .066085819 .6595001 .082107547 .65783187 .09812927 .656662 .11381531 .6559906 .12916565 .6553294 .14452617 .65466818 .15788269 .65400698 .16923523 .6526642 .18725078 .65016177 .20527141 .64649966 .22329712 .6428375 .24132283 .6370036 .25784303 .6289978 .27285768 .6210022 .28788249 .61066696 .30090333 .59799197 .31192018 .58532717 .322937 .5693309 .33111573 .55000308 .3364563V.3384552C.5900014 .35442607 .6188304 .37772117 .63648989 .40834046 .65415957 .43895976 .6629944 .47524009 .6629944 .5171814 .6629944 .5444641 .65815737 .56992086 .6484833 .59355166 .6388194 .61718246 .62482199 .6379852 .6064911 .6559601 .5881602 .67393496 .5661621 .68807986 .5404968 .6983948 .51483157 .7087097 .48599754 .7138672 .45399476 .7138672H.069000247Z"/>
<path id="font_4_60" d="M.67500308 .27017213V.7138672H.5180054V.2701416C.5180054 .21683757 .5073395 .17769368 .4860077 .15270996 .4646759 .12772624 .42601014 .115234378 .37001039 .115234378 .3380076 .115234378 .3125051 .11973063 .2935028 .12872315 .27450053 .13771566 .2596639 .14937337 .24899292 .16369629 .23833211 .17802938 .23133342 .19451905 .22799683 .21316529 .22467041 .2318217 .2230072 .2508138 .2230072 .2701416V.7138672H.06599426V.27017213C.06599426 .1729126 .09249369 .10096232 .14549256 .05432129 .19849141 .0076904299 .2733256-.015625 .36999513-.015625 .46533204-.015625 .53999838 .007858276 .59399417 .05482483 .64800009 .10179138 .67500308 .1735738 .67500308 .27017213Z"/>
<path id="font_4_43" d="M.22599793 .13183594V.58203127H.33799745C.3766632 .58203127 .40916444 .5765279 .4355011 .56552127 .46183778 .5545146 .4830068 .53867086 .49900819 .5179901 .5150096 .49731956 .5265096 .47247825 .5335083 .4434662 .540507 .41445414 .54400637 .38194276 .54400637 .345932 .54400637 .3065745 .53900656 .27322389 .52900698 .24588013 .5190074 .21853638 .5056712 .19636028 .4889984 .1793518 .47233583 .16234334 .45333863 .15017192 .43200685 .14283753 .41067506 .13550313 .38867188 .13183594 .3659973 .13183594H.22599793M.069000247 .7138672V0H.3769989C.43166606 0 .47916667 .009165446 .51950076 .027496338 .5598348 .04582723 .5935008 .070988979 .62049868 .10298157 .6475067 .13497417 .66767379 .17296346 .68099978 .21694947 .69433596 .26094566 .701004 .3089396 .701004 .3609314 .701004 .42025758 .6928355 .47191368 .6764984 .51589968 .6601715 .5598958 .63750717 .5965576 .60850527 .625885 .57950338 .6552124 .545166 .6772054 .50549319 .691864 .46583048 .7065328 .42299906 .7138672 .3769989 .7138672H.069000247Z"/>
<path id="font_4_52" d="M.069000247 .7138672V0H.21600342V.50090029H.21800232L.39300538 0H.5139923L.68899539 .50590518H.69099429V0H.83799746V.7138672H.6170044L.45899964 .22296143H.45700074L.2899933 .7138672H.069000247Z"/>
<path id="font_4_86" d="M.17999268 .25779725C.17999268 .2784678 .18199158 .2988027 .18598938 .31880189 .18998719 .33881126 .19681804 .35648094 .20648194 .3718109 .216156 .3871511 .22899373 .3996531 .24499512 .40931703 .2609965 .4189911 .2809957 .42382813 .30499269 .42382813 .32899986 .42382813 .34916688 .4189911 .36549378 .40931703 .38183085 .3996531 .39483134 .3871511 .40449525 .3718109 .4141693 .35648094 .42100526 .33881126 .42500306 .31880189 .42900086 .2988027 .43099977 .2784678 .43099977 .25779725 .43099977 .23712667 .42900086 .21695455 .42500306 .19728089 .42100526 .17761739 .4141693 .15994771 .40449525 .14427185 .39483134 .12860616 .38183085 .116104129 .36549378 .10676575 .34916688 .09743754 .32899986 .09277344 .30499269 .09277344 .2809957 .09277344 .2609965 .09743754 .24499512 .10676575 .22899373 .116104129 .216156 .12860616 .20648194 .14427185 .19681804 .15994771 .18998719 .17761739 .18598938 .19728089 .18199158 .21695455 .17999268 .23712667 .17999268 .25779725M.037994386 .25778199C.037994386 .2163798 .044326784 .1789856 .056991579 .14559937 .06965637 .112213138 .087656658 .08366394 .11099243 .059951784 .1343282 .036249799 .16232808 .018051148 .19499207 .005355835 .22766622-.007329305 .2643331-.013671875 .30499269-.013671875 .34566245-.013671875 .38249717-.007329305 .41549684 .005355835 .4484965 .018051148 .47666423 .036249799 .5 .059951784 .52333578 .08366394 .54133608 .112213138 .55400088 .14559937 .56666567 .1789856 .57299807 .2163798 .57299807 .25778199 .57299807 .29918418 .56666567 .33674623 .55400088 .37046815 .54133608 .40420024 .52333578 .43291728 .5 .45661927 .47666423 .48033143 .4484965 .4986979 .41549684 .51171877 .38249717 .52473959 .34566245 .53125 .30499269 .53125 .2643331 .53125 .22766622 .52473959 .19499207 .51171877 .16232808 .4986979 .1343282 .48033143 .11099243 .45661927 .087656658 .43291728 .06965637 .40420024 .056991579 .37046815 .044326784 .33674623 .037994386 .29918418 .037994386 .25778199Z"/>
<path id="font_4_93" d="M.33999635 0 .5149994 .51660159H.37399293L.2649994 .1638794H.2630005L.15400696 .51660159H.005004883L.18200684 0H.33999635Z"/>
<path id="font_4_80" d="M.19999695 .5966797V.7138672H.057998659V.5966797H.19999695M.057998659 .5169983V0H.19999695V.5169983H.057998659Z"/>
<path id="font_4_85" d="M.054000856 .51701357V0H.19599915V.27096559C.19599915 .32362876 .20466614 .3614553 .22200012 .3844452 .2393341 .40744529 .26733399 .4189453 .30599977 .4189453 .3400065 .4189453 .36367289 .40844728 .3769989 .38745118 .39033509 .36645509 .39700318 .33462525 .39700318 .29196168V0H.53900149V.31814576C.53900149 .3501587 .5361684 .3793386 .5305023 .40568543 .52483627 .43203227 .5149994 .45437623 .5009918 .4727173 .48699443 .49105836 .46782939 .50539657 .4434967 .5157318 .41916404 .5260773 .3879954 .53125 .34999085 .53125 .31999208 .53125 .29065959 .5243988 .2619934 .5106964 .23332723 .49699403 .20999654 .47510276 .19200135 .44502259H.18899536V.51701357H.054000856Z"/>
<path id="font_4_78" d="M.29499818 .12207031C.272995 .12207031 .25465904 .12673442 .23999024 .13606262 .22532146 .14539083 .21348572 .15737915 .20448303 .17202759 .19549053 .1866862 .18915813 .20317078 .18548584 .22148133 .18182373 .23980205 .17999268 .25829063 .17999268 .27694703 .17999268 .29626466 .18215943 .31474815 .18649292 .33239747 .19082642 .35005699 .19782512 .3657125 .20748902 .379364 .21716309 .39301554 .22916667 .4038391 .24349976 .41183473 .25783286 .41983033 .274999 .42382813 .29499818 .42382813 .31833396 .42382813 .33766685 .41949464 .35299684 .41082765 .3683268 .4021708 .380661 .3905131 .3899994 .3758545 .39933778 .36120606 .40600587 .34439088 .41000367 .32540895 .41400147 .306427 .41600038 .28627525 .41600038 .2649536 .41600038 .24630738 .41349793 .22849019 .40849305 .21150208 .40349833 .19451396 .3960012 .17935689 .3860016 .16603089 .37600199 .15271504 .36333213 .14205933 .34799195 .13406372 .33266197 .12606812 .31499736 .12207031 .29499818 .12207031M.5509949 .03277588V.516922H.41600038V.44792176H.41400147C.39666749 .4780426 .37516786 .49946086 .34950257 .5121765 .32383729 .52489218 .29400126 .53125 .2599945 .53125 .22399394 .53125 .19215901 .52424117 .16448975 .5102234 .13683065 .49620567 .11366781 .47735087 .09500122 .45365907 .07633463 .42996726 .062164308 .40260316 .052490236 .37156678 .042826337 .3405304 .037994386 .3083242 .037994386 .27494813 .037994386 .23957825 .042160036 .20603943 .050491334 .17433167 .05882263 .14263408 .07198588 .11493429 .08998108 .0912323 .10798645 .06754049 .13099163 .048853559 .15899658 .03517151 .18700154 .021489462 .22033692 .0146484379 .2590027 .0146484379 .29033409 .0146484379 .320165 .021174113 .34849549 .034225465 .37683616 .047276815 .39867149 .06752523 .41400147 .0949707H.41600038V.026779175C.41667176-.009994507 .4078369-.040415449 .38949586-.06448364 .37116496-.08855184 .34200035-.10058594 .30200196-.10058594 .27667237-.10058594 .2543386-.09539795 .23500061-.08502197 .21566265-.074645999 .20266216-.056070966 .19599915-.029296875H.054992677C.056996664-.05863444 .0651652-.08380127 .07949829-.10479736 .09383138-.12580364 .111831668-.14297486 .13349915-.15631104 .15516663-.16964722 .17916362-.17947896 .20549011-.18580628 .23182678-.19214376 .257665-.1953125 .28300477-.1953125 .34233094-.1953125 .3896586-.18730672 .4249878-.17129517 .46032716-.15529378 .4873301-.13578797 .5059967-.11277771 .52466329-.089767459 .53682968-.06492615 .5424957-.038253786 .5481618-.011581421 .5509949 .012095134 .5509949 .03277588Z"/>
<g id="font_5_170">
<path transform="matrix(.001,0,0,-.001,0,0)" d="M455-686H169C123-686 90-688 57-693V-621C86-625 119-627 168-627H836C894-627 923-625 949-621V-693C919-688 884-686 835-686H521V-747C521-781 523-807 528-832H448C452-811 455-779 455-747V-686ZM455-489H243C202-489 176-490 147-493 150-467 151-442 151-411V-131C151-86 149-55 145-23H224C220-52 218-85 218-131V-432H455V-34C455 5 453 37 448 75H527C522 41 520 7 520-34V-432H782V-131C782-109 774-103 742-103 710-103 671-106 625-113 635-89 639-72 642-46 688-43 705-42 746-42 828-42 848-59 848-124V-412C848-445 849-468 852-493 822-490 797-489 757-489H520V-521C520-557 522-583 525-601H450C454-576 455-553 455-522V-489Z"/>
</g>
<g id="font_6_175">
<path transform="matrix(.001,0,0,-.001,0,0)" d="M330-571C355-571 376-570 396-568V-630C377-627 359-626 330-626H273V-722C273-772 274-800 278-825H207C211-802 212-779 212-721V-626H139C106-626 83-627 67-630V-567C86-570 108-571 139-571H203C194-532 173-470 153-419 121-341 85-280 37-221 53-203 66-183 76-161 106-202 124-232 148-281 178-344 193-387 217-475 214-406 212-357 212-314V-36C212 16 210 51 206 80H279C275 53 273 18 273-36V-332C273-378 271-439 269-497 299-414 322-369 368-304 379-326 389-343 404-359 345-428 318-473 277-571H330ZM384 31C401 27 412 25 442 22 616 3 663-4 844-40 859-7 863 5 881 50L942 18C886-109 854-169 766-311L711-284C767-194 792-150 819-94 694-70 694-70 532-51 587-186 626-306 682-504L611-523C588-397 536-228 464-44 442-43 421-42 398-42 386-42 381-42 370-43L384 31ZM707-774C767-609 827-499 911-397 928-417 945-434 963-447 916-496 888-535 853-597 812-670 789-726 768-799L707-774ZM535-796C508-654 453-530 376-438 399-425 411-415 431-395 501-493 558-620 601-774L535-796Z"/>
</g>
<g id="font_7_233">
<path transform="matrix(.001,0,0,-.001,0,0)" d="M424-204C378-204 347-205 323-208V-146C353-149 385-151 423-151H564C543-106 518-76 475-47 430-16 374 4 285 24 303 45 310 58 319 79 477 37 567-25 616-124 679-22 775 40 929 80 937 56 946 40 961 19 812-7 721-58 662-151H855C897-151 922-149 952-145V-209C923-205 895-204 854-204H642C646-230 647-239 650-281H796C835-281 862-280 889-277 885-302 885-320 885-360V-520C885-557 886-577 889-601 865-598 838-597 797-597H475C433-597 405-598 383-601 385-578 386-555 386-521V-360C386-327 385-304 383-277 414-280 444-281 474-281H590C588-238 586-228 581-204H424ZM444-545H827V-466H444V-545ZM444-415H827V-332H444V-415ZM274-577C297-577 317-576 339-574V-635C319-632 304-631 274-631H233V-729C233-779 234-807 238-832H168C172-808 173-786 173-729V-631H120C88-631 66-632 50-635V-573C69-576 92-577 120-577H165C137-445 88-330 25-248 39-232 48-218 61-189 115-269 144-340 178-475 176-418 174-356 174-318V-34C174 18 172 54 168 82H239C234 55 233 20 233-34V-337C233-378 231-426 229-499 252-428 273-382 311-318 322-338 330-350 346-369 296-435 270-483 236-577H274ZM708-686V-680C708-656 707-642 705-624H770C767-641 767-652 767-686H847C890-686 920-685 950-681V-746C922-741 895-740 846-740H767V-759C767-790 768-807 771-826H703C707-807 708-788 708-759V-740H551V-759C551-790 553-807 556-826H488C492-806 493-789 493-759V-740H432C383-740 361-741 337-745V-682C364-685 386-686 432-686H493V-680C493-655 492-643 489-624H555C552-643 551-653 551-686H708Z"/>
</g>
<g id="font_8_70">
<path transform="matrix(.001,0,0,-.001,0,0)" d="M590-639V-553H477C436-553 417-554 392-558V-493C419-497 435-498 479-498H590V-408H435C396-408 372-409 348-412V-350C371-354 396-355 434-355H590V-211C478-133 379-80 304-59L333 7C345-2 363-12 378-20 494-82 498-84 590-149V-8C590 10 584 14 555 14 526 14 493 11 456 5 467 26 471 42 474 68 502 71 529 72 556 72 631 72 650 58 650 4V-184C650-203 649-221 642-283 688-183 718-137 774-79 817-35 859-2 921 36 935 11 946-4 963-22 882-61 829-100 773-162 821-204 851-236 898-298L847-334C810-276 783-245 738-205 700-256 683-287 656-355H847C881-355 911-353 937-349V-414C910-410 883-408 846-408H650V-498H802C843-498 865-497 892-493V-559C867-555 842-553 801-553H650V-639H832C870-639 896-637 923-633V-698C896-694 869-692 832-692H744C759-716 792-774 808-806L749-827C731-778 713-742 681-692H565C546-740 526-776 493-825L440-802C472-759 489-730 505-692H452C412-692 388-693 364-697V-634C390-638 409-639 451-639H590ZM190-633H128C95-633 75-634 58-637V-575C76-578 97-579 128-579H180C169-528 149-466 124-407 96-341 68-294 30-249 49-225 58-210 68-187 98-232 113-257 134-300 164-365 176-400 198-493 197-476 196-464 196-456 195-431 194-413 193-407 190-359 190-359 190-319V-36C190 16 188 51 184 80H256C252 53 250 18 250-36V-339C250-374 249-418 246-502 266-446 281-412 311-362 323-383 333-399 346-416 305-466 270-528 253-579H289C313-579 333-578 352-576V-637C333-634 318-633 289-633H250V-731C250-781 251-809 255-834H185C189-811 190-788 190-730V-633ZM369-301C411-257 432-229 463-178L509-211C477-259 453-289 414-332L369-301Z"/>
</g>
<g id="font_9_122">
<path transform="matrix(.001,0,0,-.001,0,0)" d="M554-663C604-661 633-654 670-638 771-593 829-501 829-387 829-264 762-157 652-107 605-85 558-72 485-60 504-36 510-26 520 7 589-8 627-20 672-39 817-101 901-229 901-384 901-480 867-567 804-628 739-692 641-727 529-727 395-727 286-682 206-594 139-519 101-420 101-318 101-178 172-74 267-74 339-74 398-134 456-266 501-371 539-524 554-663ZM482-662C469-534 432-386 391-292 348-194 308-147 266-147 212-147 170-221 170-317 170-441 232-554 333-615 379-643 422-657 482-662Z"/>
</g>
<g id="font_10_100">
<path transform="matrix(.001,0,0,-.001,0,0)" d="M866-235C847-197 830-174 790-134 771-176 761-205 751-250L853-251C857-251 862-251 866-251 901-251 922-250 943-246V-308C915-303 898-302 853-301L743-300C737-340 734-382 734-403 734-418 735-428 737-439H674C676-427 677-422 679-402 682-355 685-330 689-300L539-299V-373C576-383 586-387 650-411L612-452C567-422 459-394 365-388 374-375 381-361 387-343 406-345 419-347 484-361V-298H426C392-298 370-299 351-303V-242C377-246 398-248 438-248H484V-149C427-136 379-129 346-128L362-71C371-73 412-82 484-97V-8C484 11 476 17 454 17 428 17 406 14 375 8 382 27 386 42 388 66 410 69 434 70 455 70 519 70 539 53 539-2V-111C586-123 630-137 668-151L666-201C622-186 599-178 596-178 577-172 567-169 539-162V-249L699-250C715-184 727-147 750-97 699-55 652-27 577 4 586 13 592 19 597 26 612 45 612 45 616 51 677 20 717-6 774-51 820 21 868 61 910 61 947 61 969 24 988-69 970-78 958-87 940-104 933-57 928-36 920-18 916-9 907-2 900-2 895-2 879-11 868-20 849-37 830-60 815-85 844-113 854-124 884-163 899-181 906-190 917-202L866-235ZM469-745C426-745 407-746 381-751V-693C404-697 431-698 469-698H614V-632H496C458-632 438-633 413-637V-581C436-585 458-586 496-586H614V-517H452C406-517 387-518 361-523V-464C387-468 402-469 452-469H849C899-469 916-468 940-464V-523C913-518 896-517 849-517H668V-586H797C832-586 856-585 880-581V-637C855-633 835-632 797-632H668V-698H830C869-698 891-697 917-693V-751C892-746 874-745 830-745H764C779-766 794-792 811-828L752-845C735-802 724-778 702-745H588C568-788 557-807 531-846L476-827C501-796 515-774 528-745H469ZM83-732C106-735 123-736 152-736H260C290-736 307-735 330-732V-795C308-791 291-790 260-790H152C122-790 105-791 83-795V-732ZM346-656C324-652 310-651 270-651H127C91-651 73-652 51-656V-592C73-595 93-596 127-596H277C309-596 323-595 346-592V-656ZM87-455C109-458 125-459 158-459H251C283-459 296-458 322-455V-517C303-514 285-513 251-513H158C123-513 105-514 87-517V-455ZM87-315C109-318 124-319 158-319H251C285-319 298-318 322-315V-377C299-374 286-373 251-373H158C123-373 107-374 87-377V-315ZM140 79V21H269V57H326C323 33 322 12 322-27V-153C322-204 322-217 325-240 304-237 289-236 258-236H148C119-236 104-237 80-240 84-216 85-188 85-149V-20C85 24 83 53 79 79H140ZM140-186H269V-30H140V-186ZM761-415C806-383 831-362 866-323L907-357C867-395 844-413 800-443L761-415Z"/>
</g>
<g id="font_8_245">
<path transform="matrix(.001,0,0,-.001,0,0)" d="M544-198V-55C544-4 542 27 539 51H603C599 24 598-2 598-55V-198H699V-57C699-10 697 23 694 49H757C754 22 753-12 753-57V-198H869V-17C869-1 864 3 846 3 821 3 804 2 777-2 785 18 787 27 790 58 808 59 813 59 837 59 867 59 887 57 898 52 918 42 926 23 926-14V-346C926-391 927-414 931-447 910-443 884-442 827-442H480C429-442 402-443 378-447 381-416 382-395 382-340V-31C382 18 380 49 376 74H445C441 50 439 18 439-31V-198H544ZM544-250H439V-390H544V-250ZM598-250V-390H699V-250H598ZM753-250V-390H869V-250H753ZM76-740C96-743 119-744 149-744H252C284-744 302-743 325-740V-802C301-798 285-797 252-797H149C116-797 99-798 76-802V-740ZM44-601C67-604 86-605 121-605H269C303-605 318-604 338-601V-664C317-660 302-659 262-659H121C84-659 67-660 44-664V-601ZM81-463C102-466 118-467 150-467H248C279-467 292-466 316-463V-524C296-521 281-520 248-520H150C116-520 100-521 81-524V-463ZM81-323C100-326 118-327 149-327H248C280-327 292-326 316-323V-385C296-382 282-381 248-381H150C116-381 99-382 81-385V-323ZM137 16H262V52H320C317 31 316 8 316-29V-162C316-211 316-222 319-247 303-244 285-243 254-243H144C115-243 102-244 75-247 79-220 80-196 80-157V-26C80 18 78 49 74 73H137V16ZM136-193H262V-35H136V-193ZM465-526C492-529 515-530 555-530H737C777-530 800-529 826-526V-588C803-585 777-584 737-584H555C514-584 488-585 465-588V-526ZM595-831C574-787 546-752 499-708 444-656 400-625 324-587 341-572 352-558 364-534 406-557 435-576 476-609 553-668 589-708 636-782 692-710 730-674 803-622 848-590 883-570 953-534 963-558 974-576 991-595 916-624 867-650 809-693 749-737 706-782 674-831H595Z"/>
</g>
<g id="font_9_116">
<path transform="matrix(.001,0,0,-.001,0,0)" d="M310-785C316-769 318-764 327-722 353-594 372-524 400-442 338-411 307-392 269-361 210-313 180-255 180-191 180-112 222-57 304-27 352-9 427 0 526 0 596 0 644-3 747-13 802-19 802-19 821-19L813-102C754-81 642-68 527-68 331-68 254-103 254-194 254-277 328-343 499-411 587-447 730-493 800-508L770-584C750-574 741-571 706-558 551-504 523-493 464-469 430-569 393-733 389-800L310-785Z"/>
</g>
<g id="font_5_62">
<path transform="matrix(.001,0,0,-.001,0,0)" d="M155-252H140C99-252 70-254 44-258V-190C74-194 102-196 139-196H155V-31C155 13 153 41 149 75H226C222 47 220 17 220-30V-196H786V-25C786 2 777 8 733 8 686 8 645 5 593-2 602 22 605 37 608 64 641 67 676 68 709 68 826 68 850 54 850-13V-196H858C896-196 926-194 954-190V-258C928-254 900-252 858-252H850V-528C850-566 851-591 854-620 830-617 806-616 763-616H524V-733H843C882-733 917-731 948-727V-796C916-792 886-790 843-790H167C124-790 91-792 62-796V-727C93-731 126-733 167-733H462V-616H241C198-616 175-617 151-620 154-592 155-562 155-526V-252ZM220-252V-383H462V-252H220ZM220-437V-560H462V-437H220ZM524-252V-383H786V-252H524ZM524-437V-560H786V-437H524Z"/>
</g>
<g id="font_10_66">
<path transform="matrix(.001,0,0,-.001,0,0)" d="M599-226V-25C599 24 598 44 593 75H665C660 45 659 24 659-24V-226H825V-80C825-60 823-57 804-57 783-57 744-61 719-66 729-43 732-31 733-7 773-5 795-4 799-4 841-4 857-8 871-21 881-32 885-45 885-73V-208C885-229 885-238 886-265H949C946-286 945-300 945-326V-374C945-396 946-415 948-432 920-429 906-429 855-429H419C382-429 355-430 328-432 330-416 331-404 331-373V-326C331-299 330-284 327-265H387C389-235 389-227 389-207V-94C389-55 387-24 383 3H454C450-25 449-52 449-91V-226H599ZM599-279H471C437-279 414-280 389-282V-375H599V-279ZM659-279V-375H884V-282C863-280 839-279 813-279H659ZM818-670H506C461-670 438-671 409-674V-616C438-619 456-620 506-620H818V-545H482C435-545 413-546 384-550V-489C413-493 439-494 483-494H799C838-494 860-493 882-492 880-514 879-531 879-562V-724C879-755 880-774 882-798 854-795 831-794 793-794H489C448-794 418-796 386-800V-737C415-739 450-741 488-741H818V-670ZM225-832C230-804 232-751 232-646 232-594 230-503 226-429 222-340 213-267 199-215 175-125 130-56 52 13 71 26 86 42 100 63 235-73 276-179 285-414 290-549 292-645 292-735 292-787 293-810 296-832H225ZM142-321C138-347 137-372 137-408V-642C137-679 138-702 142-723H74C77-700 79-673 79-642V-408C79-370 78-346 74-321H142Z"/>
</g>
<g id="font_11_48">
<path transform="matrix(.001,0,0,-.001,0,0)" d="M175-677H146C129-677 100-678 86-680 89-655 90-632 90-585V-78C90-19 89 18 85 44H152V-44H347V20H413C410-4 408-38 408-83V-592C408-628 409-654 411-680 407-680 378-679 323-677H258C277-721 290-758 309-815L238-828C229-775 217-733 195-677H175ZM152-622H347V-399H152V-622ZM152-344H347V-100H152V-344ZM862-619C861-472 860-403 855-323 848-189 835-93 818-47 806-15 792-6 755-6 719-6 674-11 613-23 624 2 628 19 630 48 694 53 721 55 758 55 817 55 849 37 869-9 905-89 918-223 927-619 928-656 928-664 931-682 911-679 883-678 843-678H601C616-717 625-740 639-780 646-801 650-812 653-818L584-831C582-809 572-772 558-734 521-632 472-547 411-482 428-471 446-454 459-437 511-504 540-550 574-619H862ZM741-242C688-349 646-415 583-491L532-460C590-390 628-327 684-207L741-242Z"/>
</g>
<g id="font_12_214">
<path transform="matrix(.001,0,0,-.001,0,0)" d="M582-459V-394H473C422-394 389-395 364-396 367-364 368-340 368-300V-140C337-140 319-141 298-145V-85C319-88 340-90 368-90V-31C368 21 367 47 363 79H430C426 50 426 33 426-31V-90H810V-15C810 9 803 13 770 13 737 13 707 11 664 5 670 23 674 43 676 62 715 64 742 65 773 65 849 65 868 50 868-12V-90H876C903-90 924-89 951-86V-146C926-141 911-140 876-140H868V-297C868-347 869-376 872-399 848-396 815-394 776-394H636V-459H848C895-459 916-458 946-453V-515C918-510 894-509 849-509H759V-580H810C848-580 871-579 894-575V-633C870-629 846-628 810-628H759V-695H839C879-695 899-694 927-690V-749C901-745 878-743 839-743H759C759-783 760-805 765-830H697C702-810 702-799 703-743H534C534-791 535-809 540-830H472C476-809 477-790 478-743H423C383-743 359-744 335-748V-691C361-694 386-695 423-695H478V-628H453C416-628 393-629 369-632V-576C394-579 416-580 453-580H478V-509H413C368-509 344-510 318-514V-454C347-458 371-459 415-459H582ZM582-140H426V-222H582V-140ZM636-140V-222H810V-140H636ZM582-269H426V-346H582V-269ZM636-269V-346H810V-269H636ZM534-509V-580H703V-509H534ZM534-628V-695H703V-628H534ZM277-580C303-580 322-579 342-576V-639C323-636 305-635 276-635H241V-730C241-780 242-808 246-833H177C181-812 182-786 182-730V-635H124C92-635 73-636 55-639V-576C72-579 94-580 124-580H173C142-441 93-325 26-234 50-212 56-205 69-184 93-222 108-249 127-291 149-339 156-361 189-473 185-421 183-365 183-317V-37C183 14 181 51 177 79H247C242 52 241 17 241-37V-339C241-386 239-447 236-494 261-429 278-394 310-348 325-372 333-381 348-397 301-450 272-500 245-580H277Z"/>
</g>
<g id="font_13_92">
<path transform="matrix(.001,0,0,-.001,0,0)" d="M805-528C794-455 742-339 682-253 645-349 623-470 616-613H827C880-613 908-612 939-608V-676C914-671 888-670 832-670H614C612-717 612-732 612-750 612-788 613-812 617-832H540C545-809 546-793 550-670H255C204-670 168-671 133-675 138-641 139-625 139-558 139-363 128-228 106-138 92-82 73-40 36 12 57 24 71 36 89 57 130-4 148-47 165-118 183-192 191-266 197-394H397C396-315 391-240 384-198 377-154 369-145 336-145 303-145 273-149 218-161 226-137 228-122 230-96 275-89 299-87 335-87 391-87 413-96 428-127 442-156 452-229 458-342 462-433 462-433 465-454 443-451 426-450 390-450H199C200-492 201-526 201-613H553C563-446 592-304 638-197 557-103 466-40 341 10 364 27 374 37 390 61 505 7 585-51 667-138 693-92 720-55 750-26 789 13 829 36 855 36 881 36 901 20 917-12 932-41 940-68 953-134 935-145 920-157 899-178 887-86 870-34 854-34 845-34 829-43 811-57 766-95 741-127 710-190 767-265 786-301 843-434 860-474 870-496 873-501L805-528ZM860-728C795-781 783-789 717-827L674-792C741-753 762-737 818-686L860-728Z"/>
</g>
<g id="font_9_119">
<path transform="matrix(.001,0,0,-.001,0,0)" d="M194-780C192-757 190-747 180-700 147-552 135-446 135-304 135-199 142-127 161-21 164-2 165 3 167 19L239 13C239 6 239 1 239-2 239-58 275-178 320-277L272-300C240-227 221-172 207-105 203-158 201-217 201-295 201-415 210-503 231-608 246-676 258-725 273-768L194-780ZM400-591C465-584 504-581 560-581 637-581 717-586 775-594 819-600 842-603 844-603L839-674C772-656 682-647 571-647 493-647 444-651 401-662L400-591ZM473-396C411-325 386-271 386-210 386-173 396-143 416-118 459-66 531-42 645-42 713-42 780-48 850-62 870-65 872-66 885-67L875-144C821-122 736-109 645-109 516-109 453-145 453-219 453-263 478-311 528-366L473-396Z"/>
</g>
<g id="font_9_148">
<path transform="matrix(.001,0,0,-.001,0,0)" d="M448-806C452-782 452-774 453-725 454-582 461-389 469-274 469-271 469-269 469-268 470-264 470-263 470-259 467-261 467-261 465-261 461-261 461-262 456-263 435-268 399-272 369-272 227-272 134-210 134-114 134-22 213 34 342 34 425 34 489 9 520-35 536-57 545-94 545-136 545-149 543-168 541-179 550-174 551-174 565-168 599-153 654-122 700-91 754-55 783-30 804-4L851-74C826-89 826-90 805-105 701-180 619-224 538-247 533-311 528-408 525-505 608-507 676-513 766-527 809-533 809-533 826-534L817-608C762-586 634-570 524-570 522-641 522-652 522-674 522-752 523-781 528-806H448ZM471-195C472-195 474-155 474-140 474-102 467-81 450-65 426-44 387-32 339-32 286-32 240-47 219-72 210-82 204-99 204-115 204-173 266-209 368-209 407-209 430-206 471-195Z"/>
</g>
<g id="font_9_151">
<path transform="matrix(.001,0,0,-.001,0,0)" d="M241-670C263-673 273-674 295-675 447-680 567-687 599-693 605-694 605-694 608-694L610-692 606-688C604-686 602-684 602-684 594-676 594-676 588-670 519-602 361-463 254-378 186-323 150-297 114-276L159-212C275-319 433-383 580-383 715-383 795-326 795-230 795-145 740-84 635-55 621-99 610-123 589-151 549-204 491-233 424-233 341-233 279-183 279-116 279-24 360 28 501 28 723 28 868-75 868-231 868-359 761-441 594-441 506-441 425-420 349-379L347-382C417-427 538-531 676-666 708-697 713-701 727-708L685-763C672-756 663-754 637-752 547-745 414-739 331-739 283-739 265-740 237-745L241-670ZM569-37C533-31 521-30 496-30 453-30 410-39 384-53 357-69 344-88 344-114 344-152 375-176 425-176 497-176 547-128 569-37Z"/>
</g>
<g id="font_9_206">
<path transform="matrix(.001,0,0,-.001,0,0)" d="M313-727C314-720 314-714 314-711 314-693 310-657 304-617 285-486 250-369 201-270 159-186 118-130 56-72 85-55 94-48 120-20 263-171 342-359 384-644 391-691 393-699 397-712L313-727ZM600-712C605-696 607-683 613-646 634-511 670-386 718-278 768-169 818-90 885-18 909-47 919-55 947-74 845-171 769-308 720-487 695-576 676-675 674-727L600-712Z"/>
</g>
<g id="font_9_222">
<path transform="matrix(.001,0,0,-.001,0,0)" d="M248-711C414-691 624-643 755-595L781-668C596-723 443-756 277-778L248-711ZM230-438C409-413 585-370 726-316L752-388C574-444 427-479 259-505L230-438ZM151-157C251-142 332-126 453-96 616-55 698-28 792 16L820-57C608-137 434-183 181-224L151-157Z"/>
</g>
<g id="font_9_234">
<path transform="matrix(.001,0,0,-.001,0,0)" d="M269-762C272-739 273-727 273-691 273-480 259-349 228-262 195-169 141-97 59-32 89-13 99-4 119 22 210-65 258-132 292-225 330-326 338-400 346-671 348-732 348-732 352-757L269-762ZM518-769C522-745 522-745 522-680L516-95C516-52 515-44 509-27L549 19C558 14 560 13 572 8 586 3 586 3 604-4 663-27 703-47 747-77 833-136 899-219 948-334 921-356 913-365 892-392 868-315 829-249 774-192 722-139 671-107 588-76L594-680C594-726 595-744 600-768L518-769Z"/>
</g>
<g id="font_9_199">
<path transform="matrix(.001,0,0,-.001,0,0)" d="M382 31C378 3 377-19 377-75V-376C377-401 376-415 373-435L375-436C384-429 391-425 406-419 547-361 685-287 779-221L822-295C647-396 531-451 377-506V-693C377-750 378-771 382-797H296C300-772 302-748 302-695V-74C302-20 300 4 296 31H382Z"/>
</g>
<g id="font_9_242">
<path transform="matrix(.001,0,0,-.001,0,0)" d="M156-653C243-600 322-535 394-457L446-519C374-590 312-639 205-707L156-653ZM163-3C188-11 196-13 223-19 390-57 493-98 596-168 728-259 821-376 901-550 873-569 863-578 840-609 759-397 625-250 432-164 339-121 219-90 141-87L163-3Z"/>
</g>
<g id="font_9_208">
<path transform="matrix(.001,0,0,-.001,0,0)" d="M305-727C306-720 306-714 306-711 306-693 302-657 296-617 277-486 242-369 193-270 151-186 110-130 48-72 76-56 87-47 112-20 253-167 334-359 376-644 384-695 385-701 389-712L305-727ZM592-712C596-699 600-681 605-646 644-390 744-159 877-18 900-46 912-57 939-74 842-163 760-311 712-487 688-569 666-684 666-727L592-712ZM861-804C798-804 747-753 747-691 747-629 798-578 861-578 923-578 974-629 974-691 974-754 924-804 861-804ZM861-762C900-762 932-730 932-691 932-652 900-620 861-620 821-620 789-652 789-691 789-730 821-762 861-762Z"/>
</g>
<g id="font_9_184">
<path transform="matrix(.001,0,0,-.001,0,0)" d="M901-54C787-175 699-254 568-354 630-431 677-510 733-634 744-659 751-671 761-683L719-726C702-720 690-719 655-718L298-714C284-714 275-714 272-714 238-714 220-715 193-719L195-638C224-643 253-645 298-646L632-651C644-651 647-651 656-652 655-649 655-648 653-645 651-640 650-639 648-633 575-458 451-300 291-182 214-125 165-98 88-67 113-42 121-31 137-1 211-38 264-71 333-121 405-174 454-220 524-300 652-201 765-92 844 9L901-54Z"/>
</g>
<path id="font_14_25" d="M.044006349 .45777894H.1289978C.1283366 .47912089 .13050334 .5002899 .13549805 .521286 .14050293 .5422821 .14867147 .56111147 .16000366 .57777407 .17133586 .59444686 .18583171 .60795089 .20349121 .61828616 .22116089 .6286214 .24232991 .63378909 .2669983 .63378909 .2856649 .63378909 .30332948 .63078817 .31999208 .6247864 .33666484 .61879476 .35116578 .6101329 .36349488 .59880068 .37583415 .58746847 .385671 .57396957 .39300538 .55830386 .40033976 .5426483 .40400697 .5251567 .40400697 .50582888 .40400697 .48117066 .4001719 .45950828 .39250184 .44084168 .38483177 .42218528 .37349449 .40486146 .35849 .38887025 .3434957 .37287904 .32466636 .35705058 .30200196 .3413849 .27933757 .32572938 .25300599 .30856834 .2230072 .28990174 .19833882 .27524314 .17466736 .25958253 .1519928 .24291992 .12932842 .22625733 .10899353 .20692952 .09098816 .18493653 .07299296 .16294353 .05816142 .13711548 .04649353 .10745239 .034835817 .07779948 .027338664 .041982015 .024002076 0H.4869995V.07519531H.1230011C.1269989 .09718832 .13549805 .11667887 .14849854 .13366699 .16149903 .15066529 .17716472 .16649373 .1954956 .18115235 .21383667 .19582112 .23400371 .20965068 .2559967 .22264099 .27799989 .23564148 .30000306 .24880474 .32200624 .26213075 .34399925 .27612815 .36533103 .29079185 .3860016 .30612184 .40667216 .3214518 .42500306 .33861289 .44099427 .35760499 .45699565 .37659709 .46982829 .39808656 .4794922 .42207337 .48916627 .44607035 .4940033 .47372947 .4940033 .50505068 .4940033 .53837588 .48816935 .5676982 .47650147 .5930176 .4648336 .61834719 .44900004 .63950607 .42900086 .65649417 .40900169 .67349246 .38550315 .68648788 .35850526 .69548037 .33150736 .70448306 .30267335 .7089844 .27200318 .7089844 .23467 .7089844 .20133464 .70263168 .17199707 .68992617 .14266968 .67723086 .11816915 .6596985 .09849548 .6373291 .07883199 .6149699 .064331058 .5884552 .054992677 .55778506 .04566447 .52711489 .04200236 .4937795 .044006349 .45777894Z"/>
<path id="font_14_23" d="M.13200379 .34913636C.13200379 .36644999 .13217163 .3855896 .13250733 .40655519 .13284302 .4275309 .13450623 .44850669 .13749695 .46948243 .14049785 .49045817 .14483135 .5109355 .15049744 .5309143 .15616353 .5508931 .16449483 .56836959 .17549134 .5833435 .186498 .59832766 .20033264 .6104787 .21699524 .61979678 .23366802 .62912496 .2540029 .63378909 .27799989 .63378909 .30199687 .63378909 .32232667 .62912496 .33898927 .61979678 .35566203 .6104787 .36949668 .59832766 .38049317 .5833435 .39149986 .56836959 .3998362 .5508931 .40550233 .5309143 .41116844 .5109355 .41549684 .49045817 .41848756 .46948243 .42148844 .44850669 .42315675 .4275309 .42349244 .40655519 .42382813 .3855896 .42399598 .36644999 .42399598 .34913636 .42399598 .3224945 .42316184 .2926941 .42149354 .2597351 .41982524 .22677613 .41448976 .19581096 .40548707 .1668396 .39649455 .13787842 .3819987 .11340841 .3619995 .093429569 .34200035 .0734609 .31400047 .06347656 .27799989 .06347656 .24199932 .06347656 .21399944 .0734609 .19400025 .093429569 .17400106 .11340841 .15950012 .13787842 .15049744 .1668396 .14150493 .19581096 .13617452 .22677613 .13450623 .2597351 .13283794 .2926941 .13200379 .3224945 .13200379 .34913636M.042007448 .348114C.042007448 .3221334 .042673749 .29514567 .044006349 .26715089 .045338949 .23916626 .048670453 .21184285 .054000856 .18518067 .05934143 .15852864 .06701151 .133372 .07701111 .10971069 .087010707 .0860494 .10067749 .06522115 .118011478 .047225954 .13534546 .029240927 .1571757 .01508077 .1835022 .0047454836 .20983887-.0055796306 .24133809-.0107421879 .27799989-.0107421879 .31534324-.0107421879 .34701029-.0055796306 .3730011 .0047454836 .39900209 .01508077 .42066957 .029240927 .43800355 .047225954 .45533753 .06522115 .4690043 .0860494 .4790039 .10971069 .4890035 .133372 .4966685 .15852864 .5019989 .18518067 .5073395 .21184285 .5106761 .23916626 .51200869 .26715089 .51334127 .29514567 .51400759 .3221334 .51400759 .348114 .51400759 .37410484 .51334127 .40109254 .51200869 .42907716 .5106761 .45707194 .5073395 .48439536 .5019989 .51104739 .4966685 .53770956 .4890035 .56303408 .4790039 .5870209 .4690043 .6110179 .45533753 .632014 .43800355 .65000918 .42066957 .66800436 .39883424 .68233236 .37249757 .69299319 .34617106 .703654 .31467185 .7089844 .27799989 .7089844 .24133809 .7089844 .20983887 .703654 .1835022 .69299319 .1571757 .68233236 .13534546 .66800436 .118011478 .65000918 .10067749 .632014 .087010707 .6110179 .07701111 .5870209 .06701151 .56303408 .05934143 .53770956 .054000856 .51104739 .048670453 .48439536 .045338949 .45707194 .044006349 .42907716 .042673749 .40109254 .042007448 .37410484 .042007448 .348114Z"/>
<path id="font_14_29" d="M.41400147 .5283203H.49899293C.4936625 .58687338 .47366334 .6316223 .43899537 .66256716 .4043274 .69351199 .35766093 .7089844 .29899598 .7089844 .24833679 .7089844 .20633953 .6983185 .17300415 .6769867 .13966878 .6556651 .1130015 .6273448 .09300232 .59202578 .073003139 .5567067 .058832807 .5162201 .050491334 .4705658 .042160036 .42492167 .037994386 .3777771 .037994386 .32913209 .037994386 .29180909 .040827436 .25315348 .04649353 .21316529 .052159627 .17318726 .06365967 .13653565 .08099365 .10321045 .09832764 .069895427 .12299601 .04257202 .15499878 .021240235 .18700154-.00008138021 .22933452-.0107421879 .28199769-.0107421879 .32666526-.0107421879 .36416627-.003245036 .39450074 .011749268 .4248352 .02674357 .44916789 .045735677 .46749879 .068725589 .48582969 .09171549 .49899293 .11720276 .5069885 .14518738 .5149943 .173172 .5189972 .20015972 .5189972 .22615052 .5189972 .25880433 .5139974 .28912355 .5039978 .31710816 .4939982 .34510295 .47982789 .36942546 .46148683 .39007569 .4431559 .41073609 .42049156 .42689515 .39349366 .43855287 .36649577 .45022074 .33599855 .4560547 .30200196 .4560547 .26333619 .4560547 .22916667 .4487203 .19949341 .4340515 .16983032 .4193929 .14499919 .3957316 .125 .36306764L.1230011 .36506654C.123662319 .39240013 .12632752 .42171733 .1309967 .4530182 .1356659 .48432923 .14416504 .5134633 .15649414 .54042056 .16883342 .5673879 .18599956 .58969119 .20799256 .6073303 .22999573 .6249695 .2589976 .63378909 .29499818 .63378909 .32899476 .63378909 .35632835 .62417098 .3769989 .6049347 .39766947 .5856984 .41000367 .56016036 .41400147 .5283203M.28601075 .38085938C.31000773 .38085938 .33100382 .37653099 .34899903 .36787416 .3670044 .3592275 .38200379 .3477529 .3939972 .33345033 .40600077 .31914775 .4148356 .30217997 .4205017 .282547 .42616783 .2629242 .42900086 .24213155 .42900086 .22016907 .42900086 .19954936 .42583213 .17975362 .41949464 .16078186 .41316734 .14182027 .40400187 .12502034 .3919983 .11038208 .38000489 .09574381 .36517335 .08426412 .34750367 .07594299 .32983399 .06763204 .30933634 .06347656 .28601075 .06347656 .26267497 .06347656 .24183655 .06763204 .22349549 .07594299 .2051646 .08426412 .1898346 .09540812 .1775055 .109375 .16517639 .12335205 .15567525 .13998921 .14900208 .1592865 .14233907 .17858379 .13900757 .19921367 .13900757 .22117615 .13900757 .24312847 .14217122 .26391603 .14849854 .28353883 .15483602 .30317179 .16433716 .32013957 .17700196 .33444215 .18966675 .34875489 .20499675 .36006675 .22299195 .3683777 .24099732 .37669883 .26200358 .38085938 .28601075 .38085938Z"/>
<path id="font_14_20" d="M.05000305 .31835938V.23828125H.33900453V.31835938H.05000305Z"/>
<path id="font_14_27" d="M.33900453 .24121094H.100997928L.33700563 .5879822H.33900453V.24121094M.41900636 .24121094V.7089844H.35099793L.027999878 .24801636V.16601563H.33900453V0H.41900636V.16601563H.5149994V.24121094H.41900636Z"/>
<path id="font_14_24" d="M.3560028 0V.7089844H.29100038C.28633119 .6823527 .27766419 .66038009 .2649994 .6430664 .2523346 .62576296 .23683167 .6121165 .2184906 .6021271 .20015972 .5921478 .17966207 .58532717 .15699768 .58166506 .1343333 .5780029 .1110026 .5761719 .087005618 .5761719V.5078125H.2709961V0H.3560028Z"/>
<path id="font_14_31" d="M.15499878 .5249634C.15499878 .54292806 .15833028 .5585683 .16499329 .57188418 .17166646 .5852 .1805013 .5965169 .1914978 .60583499 .20249431 .615153 .21565755 .62214156 .23098755 .62680056 .24632772 .63145956 .2623291 .63378909 .2789917 .63378909 .31365968 .63378909 .342158 .6246338 .3644867 .60632327 .38682557 .5880229 .397995 .5609029 .397995 .5249634 .397995 .48901368 .3869934 .46105448 .36499024 .44108583 .34299723 .42111717 .31499736 .4111328 .2809906 .4111328 .26365663 .4111328 .24732463 .4134623 .23199463 .41812135 .21666463 .42278037 .20333354 .4297689 .19200135 .4390869 .18066915 .44840495 .17166646 .46022035 .16499329 .47453309 .15833028 .48884584 .15499878 .50565597 .15499878 .5249634M.06500244 .5280304C.06500244 .4960378 .07400004 .46654258 .09199524 .43954469 .11000061 .41254679 .13400269 .39305116 .16400147 .38105775 .12400309 .36706034 .093332927 .34456889 .07199097 .31358338 .05065918 .28260804 .039993287 .24612935 .039993287 .20414734 .039993287 .16816712 .046157838 .13668315 .05848694 .109695438 .07082621 .082707729 .08782959 .060216268 .10949707 .04222107 .13116455 .024236044 .15666199 .010910034 .18598938 .002243042 .21532695-.006413778 .2469991-.0107421879 .28100587-.0107421879 .31366984-.0107421879 .34433494-.0060780846 .3730011 .003250122 .40166728 .012578328 .4264984 .026402792 .4474945 .04472351 .46850077 .063054408 .48516847 .08554586 .49749757 .112197879 .50983688 .1388499 .51600649 .16949971 .51600649 .20414734 .51600649 .24812317 .5056712 .28526817 .4850006 .31558229 .4643402 .3459066 .43267314 .36773173 .3899994 .38105775 .41999818 .39438377 .4438324 .41421 .46150209 .4405365 .47917176 .46687318 .4880066 .4960378 .4880066 .5280304 .4880066 .55068466 .4840037 .5728404 .47599793 .5944977 .46800233 .61616519 .45550538 .63549807 .43850709 .65249636 .4215088 .6694946 .39934287 .6831563 .37200929 .69348147 .3446757 .7038167 .31167604 .7089844 .27301026 .7089844 .24567668 .7089844 .21950786 .7049815 .19450379 .6969757 .16949971 .6889801 .14732869 .6773173 .12799073 .6619873 .108662929 .6466675 .093332927 .6278432 .08200073 .6055145 .07066854 .58318588 .06500244 .5573578 .06500244 .5280304M.13000489 .20021057C.13000489 .22083028 .13383484 .23945618 .14149475 .25608827 .14916484 .2727305 .15983074 .28703819 .17349243 .29901124 .1871643 .31098429 .2031657 .3201294 .22149658 .32644654 .23983765 .33277384 .25933839 .3359375 .27999879 .3359375 .29999797 .3359375 .3188273 .33244325 .33648683 .3254547 .3541565 .3184662 .36965943 .30898539 .3829956 .29701234 .3963318 .28503929 .40682984 .27089945 .41448976 .2545929 .42215983 .23829651 .42599488 .22049968 .42599488 .2012024 .42599488 .1812439 .4224955 .16294861 .41549684 .14631653 .40849815 .12968445 .39849855 .11521403 .38549806 .10290527 .37249757 .09059652 .35716249 .080947879 .3394928 .07395935 .32183329 .066970828 .30233766 .06347656 .28100587 .06347656 .23699951 .06347656 .2008311 .07561747 .17250061 .09989929 .14417012 .124191287 .13000489 .15762837 .13000489 .20021057Z"/>
<g id="font_15_123">
</g>
<path id="font_14_57" d="M.07800293 .7138672V0H.17300415V.3046875H.40499879C.42833457 .3046875 .44700114 .30118815 .46099855 .29418946 .4750061 .28720094 .4863383 .2778778 .49499513 .2662201 .5036621 .25457255 .5099945 .24092102 .5139923 .2252655 .5180003 .20962017 .52133688 .19314067 .5240021 .17582703 .5273387 .15850322 .5293376 .1408488 .5299988 .12286377 .53067019 .104888919 .5313365 .08807373 .5319977 .07241821 .53266909 .05677287 .5341695 .042622884 .536499 .029968262 .53882858 .017313639 .5433299 .0073242189 .55000308 0H.65600588C.6460063 .011993408 .638504 .025817872 .63349917 .04147339 .62850448 .057128908 .6246694 .07361349 .621994 .090927127 .6193288 .10825094 .6176605 .12590535 .61698916 .14389038 .61632797 .16187541 .615331 .17952983 .6139984 .19685364 .61199447 .21416728 .6091614 .2308197 .60549929 .24681092 .60183718 .26280213 .5961711 .27729289 .588501 .2902832 .5808309 .30327354 .5704956 .3144277 .5574951 .32374574 .5444946 .33307395 .5276642 .33973695 .5070038 .34373475V.34573365C.55033877 .3577372 .58183798 .38007609 .60150149 .41275025 .621165 .44543458 .6309967 .4834493 .6309967 .52679446 .6309967 .58481857 .6118266 .63050338 .5734863 .6638489 .53515627 .6971944 .48199464 .7138672 .41400147 .7138672H.07800293M.3710022 .38476563H.17300415V.63378909H.40899659C.45366416 .63378909 .48599754 .6224518 .5059967 .5997772 .5259959 .57711288 .5359955 .54778036 .5359955 .5117798 .5359955 .4857788 .53149417 .46460978 .52249148 .4482727 .51349899 .43193565 .5015004 .41893006 .48649598 .40925599 .47150169 .39959208 .45399986 .39309184 .43399049 .38975526 .4139913 .38642884 .3929952 .38476563 .3710022 .38476563Z"/>
<path id="font_14_76" d="M.42300416 .3076172H.12600708C.12733968 .3276876 .13167317 .34658305 .13900757 .3643036 .14634197 .3820343 .15634156 .3975881 .16900635 .41096498 .18167115 .42434184 .19683838 .4348755 .21450806 .44256593 .23217774 .45025636 .25200907 .45410157 .27400209 .45410157 .29533387 .45410157 .3148346 .45025636 .33250428 .44256593 .35017396 .4348755 .36550904 .4245046 .37850953 .41145326 .39151 .39841209 .4018402 .38286338 .40950013 .36480714 .4171702 .3467509 .42167155 .3276876 .42300416 .3076172M.5050049 .1640625H.42100526C.41367088 .13019817 .39850364 .10496521 .37550355 .08836365 .35250346 .071772258 .32300315 .06347656 .28700257 .06347656 .25900779 .06347656 .2346751 .068115238 .21400452 .07739258 .19334412 .08666992 .17634583 .099090579 .16300965 .11465454 .14967346 .13022869 .14000447 .14811707 .13400269 .1683197 .1280009 .18853252 .1253357 .2098999 .12600708 .23242188H.5130005C.51433309 .26384483 .51150009 .29694114 .50450137 .33171083 .49750266 .3664805 .48483277 .39857484 .4664917 .42799378 .4481608 .45741273 .42382813 .48164878 .39349366 .5007019 .36315919 .5197652 .32499186 .5292969 .2789917 .5292969 .24366252 .5292969 .2111613 .5226288 .18148804 .5092926 .15182495 .49595643 .12615967 .47728477 .10449219 .4532776 .08282471 .4292806 .065989177 .40094505 .053985597 .36827088 .041992189 .3356069 .035995485 .29961143 .035995485 .26028443 .037328084 .22094727 .04316203 .18461101 .053497316 .15127564 .0638326 .11794027 .079330448 .089269008 .099990848 .06526184 .120661418 .04126485 .14616394 .022598267 .17649842 .009262085 .20683289-.0040740969 .2426656-.0107421879 .28399659-.0107421879 .34267173-.0107421879 .39134217 .00390625 .43000794 .033203126 .4686737 .06251017 .4936727 .10612997 .5050049 .1640625Z"/>
<path id="font_14_86" d="M.12600708 .25828553C.12600708 .28959657 .13017273 .31740318 .13850403 .34170533 .14683533 .36601768 .15833538 .38650004 .17300415 .40315248 .18767293 .4198049 .20483907 .4324595 .22450257 .44111634 .24416606 .44977317 .2649994 .45410157 .28700257 .45410157 .30900575 .45410157 .32983909 .44977317 .34950257 .44111634 .36916606 .4324595 .38633219 .4198049 .40100099 .40315248 .41566978 .38650004 .4271698 .36601768 .4355011 .34170533 .4438324 .31740318 .44799806 .28959657 .44799806 .25828553 .44799806 .22698467 .4438324 .19917806 .4355011 .17486573 .4271698 .15055339 .41566978 .13023885 .40100099 .11392212 .38633219 .097605388 .36916606 .085118617 .34950257 .07646179 .32983909 .06780497 .30900575 .06347656 .28700257 .06347656 .2649994 .06347656 .24416606 .06780497 .22450257 .07646179 .20483907 .085118617 .18767293 .097605388 .17300415 .11392212 .15833538 .13023885 .14683533 .15055339 .13850403 .17486573 .13017273 .19917806 .12600708 .22698467 .12600708 .25828553M.035995485 .25827027C.035995485 .22027588 .041325887 .1849416 .051986696 .15226746 .06265768 .11960348 .07865906 .09110006 .099990848 .0667572 .12132263 .04242452 .14765422 .023422242 .1789856 .009750366 .21032715-.0039113366 .24633281-.0107421879 .28700257-.0107421879 .32833354-.0107421879 .36449687-.0039113366 .39549256 .009750366 .4264984 .023422242 .45266725 .04242452 .47399903 .0667572 .4953308 .09110006 .5113271 .11960348 .5219879 .15226746 .5326589 .1849416 .5379944 .22027588 .5379944 .25827027 .5379944 .2962748 .5326589 .33177696 .5219879 .3647766 .5113271 .39778648 .4953308 .42645774 .47399903 .4507904 .45266725 .47512309 .4264984 .49428813 .39549256 .5082855 .36449687 .5222931 .32833354 .5292969 .28700257 .5292969 .24633281 .5292969 .21032715 .5222931 .1789856 .5082855 .14765422 .49428813 .12132263 .47512309 .099990848 .4507904 .07865906 .42645774 .06265768 .39778648 .051986696 .3647766 .041325887 .33177696 .035995485 .2962748 .035995485 .25827027Z"/>
<path id="font_14_3" d=""/>
<path id="font_14_50" d="M.07800293 .7138672V0H.17300415V.25L.29200746 .36099244 .55000308 0H.66999819L.35699464 .42591859 .65800479 .7138672H.53500369L.17300415 .35794068V.7138672H.07800293Z"/>
<path id="font_14_72" d="M.5220032 .0022583008C.5073344-.0064086916 .4869995-.0107421879 .46099855-.0107421879 .43900553-.0107421879 .4215088-.0045776369 .4085083 .007751465 .3955078 .020090739 .38900758 .04026286 .38900758 .06826782 .36567179 .04026286 .33850099 .020090739 .30749513 .007751465 .27649943-.0045776369 .2430013-.0107421879 .20700073-.0107421879 .18366497-.0107421879 .16149394-.008076985 .14048767-.002746582 .11949158 .0025838216 .10132853 .01091512 .085998538 .022247315 .07066854 .03357951 .058502199 .048405965 .04949951 .066726688 .040496828 .08505758 .035995485 .10721842 .035995485 .13320923 .035995485 .16253662 .04099528 .18652852 .050994874 .20518494 .060994466 .22384136 .074157718 .23899842 .09048462 .25065614 .10682169 .262324 .12548828 .27115885 .14648438 .27716065 .16749065 .28316245 .18899536 .28816224 .21099854 .29216004 .2343343 .29681907 .25650025 .30031333 .27749635 .30264283 .29849244 .3049825 .31699119 .3083191 .33299256 .3126526 .34899394 .31698609 .36165873 .3233134 .37098695 .33163453 .38032533 .33996583 .3849945 .35213218 .3849945 .36813355 .3849945 .38678996 .38149516 .40178428 .37449647 .41311646 .36749778 .42444865 .3584951 .43311057 .3474884 .43910218 .3364919 .44510398 .3241577 .44910179 .31048585 .45109559 .29682414 .45309959 .2833303 .45410157 .27000428 .45410157 .23400371 .45410157 .20400493 .44729106 .18000794 .43367005 .15601094 .42004905 .14301045 .39430747 .14100647 .3564453H.055999757C.057332357 .38841758 .06399536 .4153951 .07598877 .43737794 .08799235 .45936076 .103993739 .47717796 .12399292 .49082948 .14399211 .504481 .16682434 .51430258 .19248963 .5202942 .21816509 .52629598 .2456665 .5292969 .2749939 .5292969 .29832969 .5292969 .3214976 .5276286 .34449769 .524292 .36749778 .5209656 .3883311 .5141347 .40699769 .50379946 .42566429 .49347434 .44066368 .47897849 .45199586 .4603119 .46332804 .4416555 .46899415 .41733299 .46899415 .38734437V.12145996C.46899415 .10146078 .4701589 .08679708 .4724884 .07746887 .4748281 .06814066 .48266603 .06347656 .4960022 .06347656 .5033366 .06347656 .5120036 .06507365 .5220032 .06826782V.0022583008M.3840027 .26727296C.3733317 .25927735 .35932923 .2534485 .34199525 .24978638 .32467143 .24612427 .3065084 .24312847 .2875061 .24079895 .26850382 .23846944 .2493337 .23580425 .22999573 .23280335 .21066793 .22981262 .19333904 .22498577 .17800904 .21832276 .16267903 .21165975 .150177 .20216878 .14050293 .18984986 .13083904 .17753093 .12600708 .16071575 .12600708 .1394043 .12600708 .12541707 .12884014 .113591518 .13450623 .10392761 .14017232 .09427389 .14750672 .08645121 .1565094 .080459598 .16551209 .07446798 .17601013 .070139568 .18800354 .067474368 .20000713 .064809169 .21267192 .06347656 .22599793 .06347656 .2540029 .06347656 .27800498 .06730652 .29800416 .07496643 .31800334 .08262634 .33433534 .09228007 .34700013 .10392761 .35966493 .11558533 .3689982 .12823995 .375 .14189148 .3810018 .15555318 .3840027 .16837566 .3840027 .18035889V.26727296Z"/>
<path id="font_14_84" d="M.06399536 .5172882V0H.14900208V.32206727C.14900208 .33207704 .15149944 .34457908 .15649414 .35957337 .16149903 .37457786 .16949971 .38907878 .18049622 .40307618 .19150289 .41708375 .20583599 .4290873 .22349549 .4390869 .24116516 .44909669 .2623342 .45410157 .28700257 .45410157 .30634056 .45410157 .32217408 .45126853 .33450318 .44560243 .34683229 .4399363 .35666404 .43193565 .3639984 .42160035 .3713328 .41126506 .37650047 .39909364 .37950135 .38508607 .38250224 .3710785 .3840027 .3557434 .3840027 .3390808V0H.46899415V.32206727C.46899415 .3620758 .48099265 .39408366 .5049896 .41809083 .52899679 .442098 .56199648 .45410157 .60398867 .45410157 .62465927 .45410157 .64149478 .45110069 .65449526 .44509889 .6674957 .43909709 .67766317 .43092857 .68499758 .42059327 .69233199 .41025798 .6973317 .39808656 .69999697 .38407899 .70266219 .37008158 .70399478 .35508219 .70399478 .3390808V0H.78900149V.37921144C.78900149 .40589396 .7848358 .42874146 .7765045 .4477539 .7681732 .46676637 .7565053 .48227439 .74150088 .49427796 .7264964 .50628158 .7084961 .5151164 .6875 .5207825 .6665039 .52645877 .6430054 .5292969 .6170044 .5292969 .5829976 .5292969 .55182906 .5216268 .52349856 .5062866 .49516807 .49095664 .47233583 .46928916 .45500184 .44128419 .44433085 .47328697 .42599488 .49595643 .3999939 .5092926 .37400309 .5226288 .34500633 .5292969 .31300355 .5292969 .24033101 .5292969 .18466187 .49994914 .1459961 .44125367H.14399719V.5172882H.06399536Z"/>
<path id="font_14_73" d="M.06700134 .7138672V.0002593994H.1519928V.06921387H.15400696C.16334534 .053894044 .17484539 .041066488 .18850708 .030731202 .20216878 .020406088 .21666463 .012242635 .23199463 .0062408449 .2473348 .0002492269 .26283775-.004079183 .27850343-.0067443849 .2941691-.009409587 .30833946-.0107421879 .3210144-.0107421879 .3603414-.0107421879 .39483644-.0037434896 .4244995 .010253906 .45417277 .024261475 .47884117 .0434316 .49850465 .06776428 .51816818 .09209696 .53283187 .1205953 .5424957 .15325928 .5521698 .18593343 .55700686 .22060649 .55700686 .25727845 .55700686 .2939504 .552007 .32861839 .54200747 .36128236 .5320079 .3939565 .5171712 .42279054 .49749757 .44778443 .47783409 .47278849 .45317079 .4926249 .4235077 .5072937 .3938446 .52196249 .3590088 .5292969 .31900025 .5292969 .28299967 .5292969 .25 .52279666 .22000122 .50979617 .19000244 .49679566 .16800435 .4759623 .15400696 .44729615H.1519928V.7138672H.06700134M.46699525 .2632904C.46699525 .23798116 .46432496 .21333821 .45898438 .18936157 .45365397 .16538494 .44498698 .1440684 .4329834 .12541199 .42099 .10676575 .40516154 .091781619 .38549806 .080459598 .36583457 .06913757 .34133403 .06347656 .31199647 .06347656 .28266908 .06347656 .25767008 .06896973 .23699951 .079956058 .21632894 .09095255 .19949341 .10543823 .18649292 .123413089 .17350261 .14139812 .16400655 .1622111 .15800476 .18585205 .15200298 .20950318 .14900208 .23398336 .14900208 .2592926 .14900208 .28326927 .15183513 .3069102 .15750122 .33021546 .16316732 .35353089 .17233277 .37434388 .18499756 .39265443 .19766236 .41097514 .21399434 .4257965 .23399353 .43711854 .2539927 .44844056 .2783254 .45410157 .30699159 .45410157 .33432517 .45410157 .3581594 .44877116 .37849427 .43811036 .39882914 .42745973 .41549684 .41314189 .4284973 .39515687 .4414978 .37717185 .4511617 .35668946 .457489 .33370973 .4638265 .31074015 .46699525 .28726707 .46699525 .2632904Z"/>
<path id="font_14_96" d="M.2669983-.069107059C.2569987-.094426479 .24716695-.115748088 .23750305-.1330719 .22783916-.1503957 .21717327-.16455078 .20550537-.17553711 .19383748-.18653362 .18083699-.19452922 .1665039-.19952393 .15217082-.20452881 .13567098-.20703125 .117004398-.20703125 .1070048-.20703125 .09700521-.20636495 .087005618-.20503235 .07700602-.20369976 .067337039-.20136516 .057998659-.19802857V-.12007141C.065333049-.12333679 .07383219-.12611389 .083496097-.12840271 .093170169-.13069153 .10133871-.13183594 .10800171-.13183594 .1253357-.13183594 .13983663-.12767029 .15150452-.11933899 .16317241-.11101786 .17200215-.09919739 .17799378-.08387756L.21299744 .0030517579 .0079956059 .51660159H.104003909L.25500489 .093811038H.25700379L.4019928 .51660159H.4920044L.2669983-.069107059Z"/>
<path id="font_14_90" d="M.115997318 .16308594H.03100586C.03233846 .1311137 .039001466 .10397339 .050994874 .08166504 .06299845 .05935669 .07899984 .041371664 .09899902 .027709961 .11899821 .014058431 .14199829 .004236857 .16799927-.0017547608 .19400025-.0077463786 .22133382-.0107421879 .25-.0107421879 .27600099-.0107421879 .3021647-.008239746 .3284912-.0032348633 .35482789 .001759847 .37849427 .010584514 .39949037 .023239136 .4204966 .03590393 .4375 .05256653 .4505005 .07322693 .46350099 .09388733 .47000123 .119878139 .47000123 .15119934 .47000123 .17585755 .46516419 .19651795 .4554901 .21318054 .4458262 .22984314 .4331614 .24367269 .41749574 .2546692 .40183006 .26566569 .38382975 .27449546 .36349488 .28115846 .34317018 .28782145 .32234193 .29348756 .30101014 .29815675 .28100077 .30281578 .2609965 .307312 .24099732 .3116455 .22099813 .315979 .20299785 .32130943 .18699646 .32763673 .17100525 .3339742 .157842 .34197489 .14750672 .3516388 .13717143 .3613027 .13200379 .37346397 .13200379 .38812257 .13200379 .40144859 .13533528 .41227723 .14199829 .42060853 .14867147 .42893983 .15733846 .4356028 .16799927 .44059754 .17867024 .44560243 .19050598 .44910179 .20350647 .45109559 .21650696 .45309959 .2293396 .45410157 .2420044 .45410157 .2560018 .45410157 .26983134 .4526011 .28349305 .44960023 .29716493 .4466095 .30966697 .44178263 .32099916 .43511964 .33233134 .42845664 .34166465 .41963197 .34899903 .40864564 .3563334 .3976593 .3606669 .38383994 .3619995 .3671875H.44700624C.44500224 .39853923 .43833415 .4247233 .42700196 .44573976 .41566978 .4667562 .40050254 .48343406 .38150025 .49577333 .36250816 .5081126 .3406779 .51678469 .31600953 .52178958 .29134117 .52679446 .26433818 .5292969 .23500061 .5292969 .21233623 .5292969 .18950399 .5264638 .1665039 .5207977 .14350383 .51513168 .12283834 .50646468 .10450745 .49479676 .08617655 .48313905 .07117716 .46798197 .059509279 .44932557 .04784139 .43066917 .042007448 .40834556 .042007448 .38235475 .042007448 .34902955 .050338746 .32303874 .06700134 .30438233 .08367411 .28572593 .10450745 .27123008 .12950135 .26089479 .15450542 .25056968 .18167115 .24257405 .21099854 .23690796 .2403361 .23124187 .26750184 .22490947 .29249574 .21791077 .3174998 .21092224 .33833314 .20176189 .35499574 .19042969 .3716685 .17909749 .38000489 .16243489 .38000489 .1404419 .38000489 .12445068 .37600199 .11128744 .36799623 .10095215 .3600006 .09062704 .34983317 .08279928 .3374939 .07746887 .3251648 .072138469 .31166587 .068471278 .29699708 .066467288 .28233848 .06447347 .26834107 .06347656 .25500489 .06347656 .2376709 .06347656 .22083538 .06513468 .20449829 .06845093 .18816121 .071777347 .17349243 .07725525 .16049195 .08488464 .14749146 .09252421 .13699341 .10281881 .1289978 .11576843 .1210022 .12871807 .1166687 .14449056 .115997318 .16308594Z"/>
<path id="font_14_79" d="M.06399536 .7138672V0H.14900208V.29206849C.14900208 .31540428 .15216573 .33690898 .15849304 .35658265 .16483052 .37625633 .17433167 .39342753 .18699646 .4080963 .19966126 .4227651 .2154948 .4340973 .23449707 .4420929 .25349937 .45009867 .27600099 .45410157 .30200196 .45410157 .33466593 .45410157 .3603312 .44476319 .3789978 .42608644 .3976644 .40741984 .40699769 .38208518 .40699769 .3500824V0H.4920044V.3401947C.4920044 .36820985 .48917137 .39372254 .48350526 .4167328 .47783915 .43974305 .46800233 .45958457 .45399476 .47625733 .43999736 .49294029 .42166648 .5059509 .39900209 .5152893 .37633769 .5246277 .3480021 .5292969 .31399537 .5292969 .29866538 .5292969 .28283183 .5276235 .26649476 .52427676 .25016786 .52093 .23450215 .515742 .21949768 .50871279 .20450337 .50168356 .19100444 .49264527 .17900086 .4815979 .16699727 .47055055 .15766399 .45699058 .15100098 .44091798H.14900208V.7138672H.06399536Z"/>
<path id="font_14_80" d="M.15400696 .609375V.7138672H.069000247V.609375H.15400696M.069000247 .5169983V0H.15400696V.5169983H.069000247Z"/>
<path id="font_16_24" d="M.3560028 0V.7089844H.29100038C.28633119 .6823527 .27766419 .66038009 .2649994 .6430664 .2523346 .62576296 .23683167 .6121165 .2184906 .6021271 .20015972 .5921478 .17966207 .58532717 .15699768 .58166506 .1343333 .5780029 .1110026 .5761719 .087005618 .5761719V.5078125H.2709961V0H.3560028Z"/>
</defs>
<path transform="matrix(.75,0,0,.75,0,0)" d="M0 0H1280V720H0Z" fill="#ffffff"/>
<g clip-path="url(#clip_1)">
<path transform="matrix(.75,0,0,.75,0,0)" d="M0 0H1280V720H0Z" fill="#ffffff"/>
</g>
<g clip-path="url(#clip_2)">
<path transform="matrix(.75,0,0,.75,0,0)" d="M0 0H1280V720H0Z" fill="#1e3a8a"/>
</g>
<g clip-path="url(#clip_3)">
<path transform="matrix(.75,0,0,.75,0,0)" d="M60 332H1220V334H60Z" fill="#ffffff" fill-opacity=".251"/>
<use data-text="A" xlink:href="#font_4_40" transform="matrix(34.199998,0,0,-34.199998,260.16798,229.5)" fill="#ffffff"/>
<use data-text="B" xlink:href="#font_4_41" transform="matrix(34.199998,0,0,-34.199998,283.59498,229.5)" fill="#ffffff"/>
<use data-text="C" xlink:href="#font_4_42" transform="matrix(34.199998,0,0,-34.199998,307.67176,229.5)" fill="#ffffff"/>
<use data-text="4" xlink:href="#font_4_27" transform="matrix(34.199998,0,0,-34.199998,333.01399,229.5)" fill="#ffffff"/>
<use data-text="5" xlink:href="#font_4_28" transform="matrix(34.199998,0,0,-34.199998,352.02915,229.5)" fill="#ffffff"/>
<use data-text="4" xlink:href="#font_4_27" transform="matrix(34.199998,0,0,-34.199998,371.0443,229.5)" fill="#ffffff"/>
<use data-text=" " xlink:href="#font_4_3" transform="matrix(34.199998,0,0,-34.199998,390.0595,229.5)" fill="#ffffff"/>
<use data-text="E" xlink:href="#font_4_44" transform="matrix(34.199998,0,0,-34.199998,399.56709,229.5)" fill="#ffffff"/>
<use data-text=" " xlink:href="#font_4_3" transform="matrix(34.199998,0,0,-34.199998,421.7287,229.5)" fill="#ffffff"/>
<use data-text="&#x2014;" xlink:href="#font_4_183" transform="matrix(34.199998,0,0,-34.199998,431.23628,229.5)" fill="#ffffff"/>
<use data-text=" " xlink:href="#font_4_3" transform="matrix(34.199998,0,0,-34.199998,465.43626,229.5)" fill="#ffffff"/>
<use data-text="L" xlink:href="#font_4_51" transform="matrix(34.199998,0,0,-34.199998,474.94386,229.5)" fill="#ffffff"/>
<use data-text="R" xlink:href="#font_4_57" transform="matrix(34.199998,0,0,-34.199998,495.22444,229.5)" fill="#ffffff"/>
<use data-text="U" xlink:href="#font_4_60" transform="matrix(34.199998,0,0,-34.199998,519.9168,229.5)" fill="#ffffff"/>
<use data-text="D" xlink:href="#font_4_43" transform="matrix(34.199998,0,0,-34.199998,545.259,229.5)" fill="#ffffff"/>
<use data-text=" " xlink:href="#font_4_3" transform="matrix(34.199998,0,0,-34.199998,570.6012,229.5)" fill="#ffffff"/>
<use data-text="M" xlink:href="#font_4_52" transform="matrix(34.199998,0,0,-34.199998,580.10879,229.5)" fill="#ffffff"/>
<use data-text="o" xlink:href="#font_4_86" transform="matrix(34.199998,0,0,-34.199998,611.1282,229.5)" fill="#ffffff"/>
<use data-text="v" xlink:href="#font_4_93" transform="matrix(34.199998,0,0,-34.199998,632.0244,229.5)" fill="#ffffff"/>
<use data-text="i" xlink:href="#font_4_80" transform="matrix(34.199998,0,0,-34.199998,649.8084,229.5)" fill="#ffffff"/>
<use data-text="n" xlink:href="#font_4_85" transform="matrix(34.199998,0,0,-34.199998,658.63198,229.5)" fill="#ffffff"/>
<use data-text="g" xlink:href="#font_4_78" transform="matrix(34.199998,0,0,-34.199998,678.91256,229.5)" fill="#ffffff"/>
<use data-text="&#x5e02;" xlink:href="#font_5_170" transform="matrix(18,0,0,-18,273.98439,279)" fill="#ffffff" fill-opacity=".851"/>
<use data-text="&#x677e;" xlink:href="#font_6_175" transform="matrix(18,0,0,-18,291.98439,279)" fill="#ffffff" fill-opacity=".851"/>
<use data-text="&#x6a21;" xlink:href="#font_7_233" transform="matrix(18,0,0,-18,309.98439,279)" fill="#ffffff" fill-opacity=".851"/>
<use data-text="&#x69d8;" xlink:href="#font_8_70" transform="matrix(18,0,0,-18,327.98439,279)" fill="#ffffff" fill-opacity=".851"/>
<use data-text="&#x306e;" xlink:href="#font_9_122" transform="matrix(18,0,0,-18,345.98439,279)" fill="#ffffff" fill-opacity=".851"/>
<use data-text="&#x8b70;" xlink:href="#font_10_100" transform="matrix(18,0,0,-18,363.98439,279)" fill="#ffffff" fill-opacity=".851"/>
<use data-text="&#x8ad6;" xlink:href="#font_8_245" transform="matrix(18,0,0,-18,381.98439,279)" fill="#ffffff" fill-opacity=".851"/>
<use data-text="&#x3068;" xlink:href="#font_9_116" transform="matrix(18,0,0,-18,399.98439,279)" fill="#ffffff" fill-opacity=".851"/>
<use data-text="&#x518d;" xlink:href="#font_5_62" transform="matrix(18,0,0,-18,417.98439,279)" fill="#ffffff" fill-opacity=".851"/>
<use data-text="&#x5e30;" xlink:href="#font_10_66" transform="matrix(18,0,0,-18,435.98439,279)" fill="#ffffff" fill-opacity=".851"/>
<use data-text="&#x7684;" xlink:href="#font_11_48" transform="matrix(18,0,0,-18,453.98439,279)" fill="#ffffff" fill-opacity=".851"/>
<use data-text="&#x69cb;" xlink:href="#font_12_214" transform="matrix(18,0,0,-18,471.98439,279)" fill="#ffffff" fill-opacity=".851"/>
<use data-text="&#x6210;" xlink:href="#font_13_92" transform="matrix(18,0,0,-18,489.98439,279)" fill="#ffffff" fill-opacity=".851"/>
<use data-text="&#x306b;" xlink:href="#font_9_119" transform="matrix(18,0,0,-18,507.98439,279)" fill="#ffffff" fill-opacity=".851"/>
<use data-text="&#x3088;" xlink:href="#font_9_148" transform="matrix(18,0,0,-18,525.9844,279)" fill="#ffffff" fill-opacity=".851"/>
<use data-text="&#x308b;" xlink:href="#font_9_151" transform="matrix(18,0,0,-18,543.4444,279)" fill="#ffffff" fill-opacity=".851"/>
<use data-text="&#x30cf;" xlink:href="#font_9_206" transform="matrix(18,0,0,-18,561.4444,279)" fill="#ffffff" fill-opacity=".851"/>
<use data-text="&#x30df;" xlink:href="#font_9_222" transform="matrix(18,0,0,-18,579.4444,279)" fill="#ffffff" fill-opacity=".851"/>
<use data-text="&#x30eb;" xlink:href="#font_9_234" transform="matrix(18,0,0,-18,597.4444,279)" fill="#ffffff" fill-opacity=".851"/>
<use data-text="&#x30c8;" xlink:href="#font_9_199" transform="matrix(18,0,0,-18,615.4444,279)" fill="#ffffff" fill-opacity=".851"/>
<use data-text="&#x30f3;" xlink:href="#font_9_242" transform="matrix(18,0,0,-18,632.9044,279)" fill="#ffffff" fill-opacity=".851"/>
<use data-text="&#x30d1;" xlink:href="#font_9_208" transform="matrix(18,0,0,-18,650.0044,279)" fill="#ffffff" fill-opacity=".851"/>
<use data-text="&#x30b9;" xlink:href="#font_9_184" transform="matrix(18,0,0,-18,668.0044,279)" fill="#ffffff" fill-opacity=".851"/>
<use data-text="2" xlink:href="#font_14_25" transform="matrix(15.299999,0,0,-15.299999,374.41407,336)" fill="#ffffff" fill-opacity=".702"/>
<use data-text="0" xlink:href="#font_14_23" transform="matrix(15.299999,0,0,-15.299999,382.92088,336)" fill="#ffffff" fill-opacity=".702"/>
<use data-text="2" xlink:href="#font_14_25" transform="matrix(15.299999,0,0,-15.299999,391.42768,336)" fill="#ffffff" fill-opacity=".702"/>
<use data-text="6" xlink:href="#font_14_29" transform="matrix(15.299999,0,0,-15.299999,399.93449,336)" fill="#ffffff" fill-opacity=".702"/>
<use data-text="-" xlink:href="#font_14_20" transform="matrix(15.299999,0,0,-15.299999,408.44129,336)" fill="#ffffff" fill-opacity=".702"/>
<use data-text="0" xlink:href="#font_14_23" transform="matrix(15.299999,0,0,-15.299999,414.393,336)" fill="#ffffff" fill-opacity=".702"/>
<use data-text="4" xlink:href="#font_14_27" transform="matrix(15.299999,0,0,-15.299999,422.89979,336)" fill="#ffffff" fill-opacity=".702"/>
<use data-text="-" xlink:href="#font_14_20" transform="matrix(15.299999,0,0,-15.299999,431.40663,336)" fill="#ffffff" fill-opacity=".702"/>
<use data-text="1" xlink:href="#font_14_24" transform="matrix(15.299999,0,0,-15.299999,437.3583,336)" fill="#ffffff" fill-opacity=".702"/>
<use data-text="8" xlink:href="#font_14_31" transform="matrix(15.299999,0,0,-15.299999,445.8651,336)" fill="#ffffff" fill-opacity=".702"/>
<use data-text="&#x2003;" xlink:href="#font_15_123" transform="matrix(15.299999,0,0,-15.299999,454.37184,336)" fill="#ffffff" fill-opacity=".702"/>
<use data-text="R" xlink:href="#font_14_57" transform="matrix(15.299999,0,0,-15.299999,469.6718,336)" fill="#ffffff" fill-opacity=".702"/>
<use data-text="e" xlink:href="#font_14_76" transform="matrix(15.299999,0,0,-15.299999,480.15229,336)" fill="#ffffff" fill-opacity=".702"/>
<use data-text="o" xlink:href="#font_14_86" transform="matrix(15.299999,0,0,-15.299999,488.36839,336)" fill="#ffffff" fill-opacity=".702"/>
<use data-text=" " xlink:href="#font_14_3" transform="matrix(15.299999,0,0,-15.299999,497.15058,336)" fill="#ffffff" fill-opacity=".702"/>
<use data-text="K" xlink:href="#font_14_50" transform="matrix(15.299999,0,0,-15.299999,501.404,336)" fill="#ffffff" fill-opacity=".702"/>
<use data-text="a" xlink:href="#font_14_72" transform="matrix(15.299999,0,0,-15.299999,511.60908,336)" fill="#ffffff" fill-opacity=".702"/>
<use data-text="m" xlink:href="#font_14_84" transform="matrix(15.299999,0,0,-15.299999,519.8252,336)" fill="#ffffff" fill-opacity=".702"/>
<use data-text="b" xlink:href="#font_14_73" transform="matrix(15.299999,0,0,-15.299999,532.87606,336)" fill="#ffffff" fill-opacity=".702"/>
<use data-text="a" xlink:href="#font_14_72" transform="matrix(15.299999,0,0,-15.299999,541.949,336)" fill="#ffffff" fill-opacity=".702"/>
<use data-text="y" xlink:href="#font_14_96" transform="matrix(15.299999,0,0,-15.299999,550.16506,336)" fill="#ffffff" fill-opacity=".702"/>
<use data-text="a" xlink:href="#font_14_72" transform="matrix(15.299999,0,0,-15.299999,557.81509,336)" fill="#ffffff" fill-opacity=".702"/>
<use data-text="s" xlink:href="#font_14_90" transform="matrix(15.299999,0,0,-15.299999,566.0311,336)" fill="#ffffff" fill-opacity=".702"/>
<use data-text="h" xlink:href="#font_14_79" transform="matrix(15.299999,0,0,-15.299999,573.68118,336)" fill="#ffffff" fill-opacity=".702"/>
<use data-text="i" xlink:href="#font_14_80" transform="matrix(15.299999,0,0,-15.299999,582.188,336)" fill="#ffffff" fill-opacity=".702"/>
<use data-text="1" xlink:href="#font_16_24" transform="matrix(18,0,0,-18,927.48049,515.25)" fill="#777777"/>
</g>
</svg>
