<svg xmlns="http://www.w3.org/2000/svg" xmlns:xlink="http://www.w3.org/1999/xlink" xmlns:inkscape="http://www.inkscape.org/namespaces/inkscape" version="1.1" width="960" height="540" viewBox="0 0 960 540">
<defs>
<clipPath id="clip_1">
<path transform="matrix(.24,0,0,.24,0,0)" d="M0 0H4000V2250H0Z" clip-rule="evenodd"/>
</clipPath>
<clipPath id="clip_2">
<path transform="matrix(.24,0,0,.24,0,0)" d="M0 0H4000V2250H0Z" clip-rule="evenodd"/>
</clipPath>
<clipPath id="clip_3">
<path transform="matrix(.24,0,0,.24,0,0)" d="M0 0H4000V2250H0Z" clip-rule="evenodd"/>
</clipPath>
<path id="font_4_40" d="M.24899292 .2763672 .34199525 .53790286H.34399415L.43400575 .2763672H.24899292M.26400758 .7138672-.005996704 0H.1519928L.20799256 .15917969H.4750061L.52900698 0H.69200137L.42500306 .7138672H.26400758Z"/>
<path id="font_4_78" d="M.29499818 .12207031C.272995 .12207031 .25465904 .12673442 .23999024 .13606262 .22532146 .14539083 .21348572 .15737915 .20448303 .17202759 .19549053 .1866862 .18915813 .20317078 .18548584 .22148133 .18182373 .23980205 .17999268 .25829063 .17999268 .27694703 .17999268 .29626466 .18215943 .31474815 .18649292 .33239747 .19082642 .35005699 .19782512 .3657125 .20748902 .379364 .21716309 .39301554 .22916667 .4038391 .24349976 .41183473 .25783286 .41983033 .274999 .42382813 .29499818 .42382813 .31833396 .42382813 .33766685 .41949464 .35299684 .41082765 .3683268 .4021708 .380661 .3905131 .3899994 .3758545 .39933778 .36120606 .40600587 .34439088 .41000367 .32540895 .41400147 .306427 .41600038 .28627525 .41600038 .2649536 .41600038 .24630738 .41349793 .22849019 .40849305 .21150208 .40349833 .19451396 .3960012 .17935689 .3860016 .16603089 .37600199 .15271504 .36333213 .14205933 .34799195 .13406372 .33266197 .12606812 .31499736 .12207031 .29499818 .12207031M.5509949 .03277588V.516922H.41600038V.44792176H.41400147C.39666749 .4780426 .37516786 .49946086 .34950257 .5121765 .32383729 .52489218 .29400126 .53125 .2599945 .53125 .22399394 .53125 .19215901 .52424117 .16448975 .5102234 .13683065 .49620567 .11366781 .47735087 .09500122 .45365907 .07633463 .42996726 .062164308 .40260316 .052490236 .37156678 .042826337 .3405304 .037994386 .3083242 .037994386 .27494813 .037994386 .23957825 .042160036 .20603943 .050491334 .17433167 .05882263 .14263408 .07198588 .11493429 .08998108 .0912323 .10798645 .06754049 .13099163 .048853559 .15899658 .03517151 .18700154 .021489462 .22033692 .0146484379 .2590027 .0146484379 .29033409 .0146484379 .320165 .021174113 .34849549 .034225465 .37683616 .047276815 .39867149 .06752523 .41400147 .0949707H.41600038V.026779175C.41667176-.009994507 .4078369-.040415449 .38949586-.06448364 .37116496-.08855184 .34200035-.10058594 .30200196-.10058594 .27667237-.10058594 .2543386-.09539795 .23500061-.08502197 .21566265-.074645999 .20266216-.056070966 .19599915-.029296875H.054992677C.056996664-.05863444 .0651652-.08380127 .07949829-.10479736 .09383138-.12580364 .111831668-.14297486 .13349915-.15631104 .15516663-.16964722 .17916362-.17947896 .20549011-.18580628 .23182678-.19214376 .257665-.1953125 .28300477-.1953125 .34233094-.1953125 .3896586-.18730672 .4249878-.17129517 .46032716-.15529378 .4873301-.13578797 .5059967-.11277771 .52466329-.089767459 .53682968-.06492615 .5424957-.038253786 .5481618-.011581421 .5509949 .012095134 .5509949 .03277588Z"/>
<path id="font_4_76" d="M.4019928 .31347657H.17100525C.17166646 .32350669 .17382813 .33487449 .17749024 .34757997 .18116252 .36029563 .1875 .3723348 .19650269 .3836975 .20550537 .3950704 .21750386 .40460206 .23249817 .41229249 .24750264 .4199829 .26633708 .42382813 .28900147 .42382813 .32366944 .42382813 .34950257 .41446433 .36650086 .3957367 .38349916 .37700907 .3953298 .34958903 .4019928 .31347657M.17100525 .22363281H.54400637C.54667159 .26371257 .54333499 .30212403 .5339966 .3388672 .5246684 .37561036 .50950118 .40834046 .48849488 .4370575 .46749879 .4657847 .44066368 .48866273 .4079895 .5056915 .37532554 .5227305 .33699546 .53125 .29299928 .53125 .2536621 .53125 .21782939 .524236 .1855011 .51020815 .1531728 .4961904 .12534078 .47699485 .102005008 .45262147 .07866923 .42824809 .060668947 .3993632 .04800415 .3659668 .035339357 .33258058 .029006958 .29651896 .029006958 .25778199 .029006958 .21772258 .03517151 .18099468 .04750061 .14759827 .059839887 .114212039 .07734171 .085494998 .1000061 .061447145 .122670497 .037409467 .15033467 .018880209 .18299866 .005859375 .21566265-.0071614587 .2523295-.013671875 .29299928-.013671875 .35166423-.013671875 .4016622-.00035095216 .44299317 .026290894 .48433433 .05293274 .51500448 .097229007 .53500369 .15917969H.41000367C.40533448 .14332073 .39266459 .12828572 .37199403 .11407471 .35133363 .09987386 .32667033 .09277344 .29800416 .09277344 .25800578 .09277344 .22733562 .10309347 .20599365 .12373352 .18466187 .14438375 .17299907 .17768352 .17100525 .22363281Z"/>
<path id="font_4_85" d="M.054000856 .51701357V0H.19599915V.27096559C.19599915 .32362876 .20466614 .3614553 .22200012 .3844452 .2393341 .40744529 .26733399 .4189453 .30599977 .4189453 .3400065 .4189453 .36367289 .40844728 .3769989 .38745118 .39033509 .36645509 .39700318 .33462525 .39700318 .29196168V0H.53900149V.31814576C.53900149 .3501587 .5361684 .3793386 .5305023 .40568543 .52483627 .43203227 .5149994 .45437623 .5009918 .4727173 .48699443 .49105836 .46782939 .50539657 .4434967 .5157318 .41916404 .5260773 .3879954 .53125 .34999085 .53125 .31999208 .53125 .29065959 .5243988 .2619934 .5106964 .23332723 .49699403 .20999654 .47510276 .19200135 .44502259H.18899536V.51701357H.054000856Z"/>
<path id="font_4_75" d="M.42100526 .25979615C.42100526 .23846436 .41900636 .21779378 .41500855 .19778443 .41101075 .17778524 .40434266 .15994771 .39500428 .14427185 .3856659 .12860616 .37316386 .116104129 .35749818 .10676575 .3418325 .09743754 .32233177 .09277344 .29899598 .09277344 .27700297 .09277344 .25816856 .097605388 .24249268 .10726929 .22682698 .11694336 .21382649 .12961324 .20349121 .14527893 .19316609 .16095479 .18566895 .17879232 .18099976 .1987915 .17633057 .2187907 .17399597 .23879497 .17399597 .25880433 .17399597 .2801361 .17616272 .30063883 .18049622 .3203125 .18482971 .33998619 .19182842 .357488 .20149231 .372818 .21116638 .38815818 .22399903 .40049235 .23999024 .40982057 .2559916 .41915895 .2756602 .42382813 .29899598 .42382813 .32233177 .42382813 .34166465 .41915895 .35699464 .40982057 .3723348 .40049235 .38483683 .38832603 .39450074 .37332154 .4041748 .35831706 .41101075 .340978 .41500855 .32130433 .41900636 .30164085 .42100526 .2811381 .42100526 .25979615M.42300416 .06538391V-.00065612795H.55799868V.7138672H.41600038V.45394898H.41400147C.3980001 .47938029 .37616477 .4986216 .34849549 .511673 .3208364 .5247243 .29167176 .53125 .2610016 .53125 .22299703 .53125 .18966167 .5237376 .16099549 .50871279 .1323293 .49368797 .10849508 .473821 .0894928 .44911195 .070500697 .42440287 .056167604 .39585368 .04649353 .36346437 .03682963 .33107505 .03199768 .29752098 .03199768 .26280213 .03199768 .22674053 .03682963 .19201152 .04649353 .15861511 .056167604 .12522888 .070500697 .095677699 .0894928 .06996155 .10849508 .044255575 .13265991 .023890177 .1619873 .008865356 .19132488-.0061594645 .22533162-.013671875 .26400758-.013671875 .29800416-.013671875 .32850138-.007502238 .35549928 .004837036 .38250733 .017186484 .40434266 .037368776 .42100526 .06538391H.42300416Z"/>
<path id="font_4_72" d="M.04800415 .3580017C.049997968 .39133708 .058329267 .41900126 .07299805 .44099427 .08766683 .46299745 .10633341 .4806671 .1289978 .4940033 .15166219 .5073395 .17715962 .51684066 .20549011 .5225067 .23383077 .5281728 .2623342 .53100588 .29100038 .53100588 .31700135 .53100588 .34333293 .52916976 .36999513 .52549746 .39666749 .5218353 .42100016 .51466879 .44299317 .5039978 .46499635 .493337 .4829966 .47850547 .49699403 .45950318 .5110016 .4405009 .5180054 .41533409 .5180054 .3840027V.11500549C.5180054 .091669719 .51933798 .06933594 .5220032 .04800415 .5246684 .026672364 .52933248 .0106709799 .5359955 0H.3919983C.3893331 .0079956059 .38716636 .016159058 .38549806 .024490357 .38382975 .03283183 .382665 .04133606 .38200379 .05000305 .3593394 .026667277 .33267213 .0103302 .30200196 .0009918213 .2713318-.008336385 .23999532-.013000488 .20799256-.013000488 .18333435-.013000488 .16033428-.009999593 .13899231-.0039978029 .11766052 .0020039876 .098993938 .01133728 .08299255 .024002076 .06700134 .03666687 .054504396 .052663167 .04550171 .07199097 .036499025 .09132894 .03199768 .11433411 .03199768 .14100647 .03199768 .17033386 .037165326 .1944987 .04750061 .21350098 .057835897 .23250325 .07116699 .24767049 .0874939 .2590027 .10383097 .27033488 .12249756 .27883403 .14349365 .28450013 .16449993 .29016624 .18566895 .29466249 .20700073 .2979889 .22833252 .30132548 .24932862 .30399577 .269989 .30599977 .29065959 .30800376 .30899558 .31100465 .32499696 .31500245 .34099833 .31900025 .35366313 .3248291 .36299134 .332489 .3723297 .3401591 .3766683 .35132853 .37600709 .3659973 .37600709 .3813375 .37350465 .39350382 .36849977 .40249635 .36349488 .41149903 .35682679 .4184977 .34849549 .42349244 .34016419 .4284973 .3304952 .4318339 .31948854 .4335022 .30849204 .4351705 .29666139 .43600465 .28399659 .43600465 .2560018 .43600465 .23400371 .43000285 .21800232 .41799928 .20200093 .4059957 .19266765 .3859965 .19000244 .3580017H.04800415M.37600709 .25300599C.37000529 .2476654 .36250306 .24349468 .35350038 .24049378 .34449769 .23749288 .3348287 .23499044 .3244934 .23298645 .3141683 .23099263 .30333457 .22932942 .2919922 .22799683 .28066 .22666423 .2693278 .22500102 .2579956 .2230072 .2473348 .22100322 .23683675 .21833293 .22650147 .21499634 .21616619 .21166992 .2071635 .20716858 .19949341 .20149231 .1918335 .19582622 .18566895 .18865967 .18099976 .17999268 .17633057 .17133586 .17399597 .16033936 .17399597 .14700318 .17399597 .13433838 .17633057 .123672489 .18099976 .11500549 .18566895 .1063385 .19200135 .09950256 .19999695 .09449768 .20800273 .08950297 .21733602 .086003627 .22799683 .083999637 .2386678 .08199564 .24966939 .08099365 .2610016 .08099365 .28899638 .08099365 .31065879 .08565775 .32598878 .09498596 .34132896 .10432434 .35266624 .115493778 .3600006 .12849427 .367335 .14149475 .37183634 .15466309 .37350465 .16799927 .37517295 .18133545 .37600709 .19200135 .37600709 .19999695V.25300599Z"/>
<path id="font_5_24" d="M.3560028 0V.7089844H.29100038C.28633119 .6823527 .27766419 .66038009 .2649994 .6430664 .2523346 .62576296 .23683167 .6121165 .2184906 .6021271 .20015972 .5921478 .17966207 .58532717 .15699768 .58166506 .1343333 .5780029 .1110026 .5761719 .087005618 .5761719V.5078125H.2709961V0H.3560028Z"/>
<path id="font_5_21" d="M.08299255 .111328128V0H.19400025V.111328128H.08299255Z"/>
<path id="font_5_3" d=""/>
<g id="font_6_254">
<path transform="matrix(.001,0,0,-.001,0,0)" d="M189-468H369C402-468 437-467 461-465 459-487 458-510 458-555V-720C458-759 459-782 461-814 434-811 411-810 359-810H182C134-810 111-811 80-814 83-782 84-754 84-701V-46C84 16 82 48 78 78H195C191 52 189 15 189-45V-468ZM189-728H360V-676H189V-728ZM189-599H360V-546H189V-599ZM920-702C920-751 921-781 925-814 894-811 870-810 822-810H632C582-810 560-811 530-814 532-785 533-758 533-720V-555C533-512 532-492 531-465 553-467 589-468 622-468H815V-59C815-37 810-33 782-33 749-33 701-37 659-42 675-5 680 16 687 64 753 68 764 68 780 68 838 68 865 64 885 52 911 36 920 10 920-45V-702ZM632-728H815V-676H632V-728ZM632-599H815V-546H632V-599ZM695-330C695-359 696-379 698-399 677-397 652-396 621-396H374C345-396 322-397 300-399 302-378 303-356 303-329V-115C303-77 301-46 298-18H404V-85H627C656-85 677-84 698-82 696-101 695-121 695-150V-330ZM404-307H594V-176H404V-307Z"/>
</g>
<g id="font_7_85">
<path transform="matrix(.001,0,0,-.001,0,0)" d="M248-118C221-143 206-159 191-180 196-217 198-240 199-260 199-278 200-280 202-295L101-312C102-299 103-292 103-283 103-243 96-177 88-143 74-86 52-36 22 6 71 36 78 42 107 75 135 31 154-14 171-75 211-24 268 15 333 35 399 55 511 65 685 65 772 65 886 63 954 60 962 11 969-16 985-51 959-48 948-47 930-46 945-70 956-84 976-106 916-129 874-154 823-198H840C877-198 897-197 922-195 919-223 918-252 918-290V-568C918-607 919-629 922-653 898-651 880-650 838-650H752C763-674 768-687 778-716H865C899-716 937-714 961-712V-809C937-805 908-803 856-803H604C558-803 525-805 496-808V-711C522-714 556-716 595-716H677C670-695 662-673 652-650H612C569-650 552-651 529-653 531-626 532-602 532-569V-277C532-243 531-217 529-195 551-197 569-198 607-198 567-151 522-123 453-97 475-79 490-63 508-40 427-44 389-50 347-62V-174H398C434-174 456-173 479-169V-266C455-263 431-262 399-262H347V-343H409C454-343 471-342 501-339V-440C475-436 454-435 418-435H140C91-435 71-436 44-440V-338C70-342 88-343 140-343H248V-118ZM625-198H800L739-153C793-100 833-70 884-42 819-39 726-36 656-36 626-36 591-37 556-38 599-62 653-108 693-154L625-198ZM628-568H822V-521H628V-568ZM628-447H822V-401H628V-447ZM628-328H822V-281H628V-328ZM96-554C96-511 95-493 92-467 120-470 144-471 180-471H376C411-471 436-470 464-467 461-491 460-508 460-553V-723C460-768 461-786 464-811 441-808 424-807 374-807H180C136-807 112-808 92-811 95-786 96-760 96-724V-554ZM194-725H362V-676H194V-725ZM194-602H362V-550H194V-602Z"/>
</g>
<g id="font_8_152">
<path transform="matrix(.001,0,0,-.001,0,0)" d="M623-146C577-86 521-36 457 4 489 27 509 47 537 80 622 15 695-75 757-191V-18C757 52 772 65 851 65 910 65 932 58 948 34 964 8 971-37 976-153 948-161 928-170 898-190 898-174 898-160 898-152 898-93 895-54 889-42 885-34 876-30 862-30 845-30 841-36 841-57V-226C841-251 842-267 845-288H803C815-316 819-326 831-357H869C913-357 937-356 965-352V-457C937-453 915-452 873-452H862C888-550 896-592 906-707 927-706 937-705 960-703V-806C932-802 906-801 871-801H711C671-801 652-802 624-806V-704C637-706 642-706 660-707V-452C642-453 635-453 618-455V-353C643-356 671-357 708-357H738C704-273 672-213 633-158 594-246 594-246 549-323L476-292C497-255 503-242 518-212 486-192 462-179 428-161V-348H536C570-348 585-347 601-345 598-363 598-383 598-428V-714C598-756 599-785 601-806 580-804 556-803 522-803H414C381-803 354-804 334-806 337-781 338-752 338-710V-406C293-464 265-514 251-565H260C283-565 300-564 318-561V-661C298-658 284-657 258-657H249V-739C249-784 250-812 254-842H147C151-813 152-786 152-738V-657H114C83-657 66-658 48-662V-561C65-564 84-565 114-565H147C129-469 75-336 17-250 41-220 51-201 71-152 107-214 127-266 159-369 158-354 158-348 157-337 156-326 155-314 155-302L153-249V-37C153 9 151 51 147 85H254C251 52 249 11 249-37V-291C249-321 248-356 248-367 247-394 247-394 246-414 264-369 274-348 294-313 300-322 300-322 320-354 323-358 328-366 338-378V-122C311-111 302-108 272-99L306 6C334-10 339-13 391-41 465-81 496-100 549-138 552-129 553-125 556-114L623-146ZM750-452V-707H810C805-600 796-540 771-452H750ZM428-617V-709H512V-617H428ZM428-532H512V-439H428V-532Z"/>
</g>
<g id="font_9_80">
<path transform="matrix(.001,0,0,-.001,0,0)" d="M173-322C118-322 86-324 58-328V-224C91-227 124-229 173-229H280C245-188 226-170 181-131 282-107 299-103 415-72 326-39 217-23 79-23 74-23 67-23 57-23 83 21 90 38 102 79 301 69 436 36 553-30 706 25 706 25 791 64 804 70 824 79 849 90L919-2C808-47 772-60 645-99 683-138 710-177 736-229H826C875-229 909-227 942-224V-328C914-323 884-322 826-322H473C485-342 488-348 509-385H762C819-385 850-384 875-381 873-406 872-429 872-479V-547C872-596 873-621 876-649 847-645 815-644 764-644H648V-707H827C875-707 911-705 943-702V-808C916-804 877-802 819-802H183C127-802 90-804 60-808V-702C91-705 128-707 175-707H341V-644H232C185-644 153-645 121-649 124-619 125-593 125-547V-478C125-433 124-410 121-381 152-384 185-385 237-385H389C375-358 368-346 352-322H173ZM617-229C594-189 566-159 530-133 495-143 481-147 470-149 392-167 392-167 357-177 382-202 390-211 405-229H617ZM440-707H549V-644H440V-707ZM341-563V-468H231V-563H341ZM440-563H549V-468H440V-563ZM648-563H765V-468H648V-563Z"/>
</g>
<path id="font_5_183" d="M.13000489 .31835938V.23828125H.8699951V.31835938H.13000489Z"/>
<g id="font_10_68">
<path transform="matrix(.001,0,0,-.001,0,0)" d="M865-700C900-700 911-699 948-696V-764C916-760 880-758 845-758H435C392-758 358-760 330-764V-694C356-698 392-700 435-700H800V-42C800-19 790-14 748-14 715-14 671-18 622-26 631-3 635 15 638 42 692 45 718 46 751 46 841 46 865 30 865-32V-700ZM243 75C240 39 238 4 238-46V-589C270-660 285-696 296-729 316-785 317-789 330-820L260-844C253-798 234-739 211-682 166-577 110-488 29-399 53-375 53-375 65-356L73-345C121-403 147-441 177-498 174-452 173-423 173-378V-49C173 4 171 38 167 75H243ZM434-123V-205H603C637-205 655-204 678-202 675-223 674-241 674-275V-489C674-527 675-546 678-570 653-567 635-566 594-566H454C415-566 392-567 369-570 372-546 373-524 373-487V-199C373-171 371-146 368-123H434ZM434-510H615V-261H434V-510Z"/>
</g>
<g id="font_11_158">
<path transform="matrix(.001,0,0,-.001,0,0)" d="M347-673C245-673 169-677 133-684L132-615C143-616 145-616 154-616 157-616 165-616 170-616 207-615 301-613 317-613 322-613 332-614 336-615 330-605 330-605 327-600 255-472 172-367 103-314L159-258C175-285 197-308 236-341 317-410 396-447 459-447 506-447 530-423 538-368 471-339 423-313 389-288 321-237 287-185 287-130 287-27 374 24 553 24 630 24 717 17 796 4 816 1 821 0 836-1L827-78C770-55 659-39 560-39 419-39 357-68 357-134 357-194 409-241 545-305 546-293 546-291 546-275 546-214 543-153 540-131L608-132C606-146 606-154 606-168 606-177 606-191 607-213 608-233 608-255 608-268 608-293 608-303 606-329 731-378 821-408 873-417L841-487C825-476 822-475 773-458 729-442 672-421 599-392 586-466 541-503 467-503 415-503 362-486 316-454 306-447 306-447 270-419 269-420 269-420 268-422V-423C268-423 269-423 269-424 270-425 275-429 282-434 286-437 306-460 316-472 351-515 376-555 406-614 527-618 632-626 736-640 754-643 760-644 776-645L770-713C715-695 615-683 455-675 446-675 446-675 434-674 439-683 452-710 465-742 482-783 482-783 491-796L411-810C408-778 396-743 363-673H347Z"/>
</g>
<g id="font_12_254">
<path transform="matrix(.001,0,0,-.001,0,0)" d="M163-484H345C386-484 424-483 446-481 444-505 443-533 443-573V-707C443-746 444-772 446-802 418-799 394-798 344-798H201C152-798 124-799 97-802 100-770 101-741 101-692V-43C101 11 99 41 95 69H169C165 45 163 13 163-43V-484ZM163-749H386V-667H163V-749ZM163-618H386V-534H163V-618ZM903-692C903-735 904-766 908-802 880-799 853-798 803-798H641C592-798 566-799 539-802 541-772 542-742 542-707V-573C542-536 541-510 539-481 561-483 599-484 641-484H841V-32C841-9 834-3 805-3 772-3 727-7 678-13 689 11 692 23 696 51 740 54 776 55 815 55 884 55 903 37 903-28V-692ZM600-749H841V-667H600V-749ZM600-618H841V-534H600V-618ZM677-331C677-354 678-373 680-392 662-390 636-389 607-389H383C356-389 334-390 314-392 316-372 317-352 317-329V-129C317-89 316-64 312-36H377V-115H617C643-115 660-114 680-112 678-129 677-148 677-172V-331ZM377-336H618V-168H377V-336Z"/>
</g>
<g id="font_11_155">
<path transform="matrix(.001,0,0,-.001,0,0)" d="M116-151C128-168 168-211 206-246 242-280 251-289 258-301H260C258-277 258-269 257-147 257 11 257 11 252 42H331C326-4 325-54 325-355 456-473 546-520 644-520 758-520 835-441 835-324 835-279 826-241 807-204 770-134 693-91 607-91 547-91 486-105 430-130 436-102 438-90 438-72 438-69 438-63 437-55 499-34 550-25 607-25 789-25 909-145 909-326 909-479 799-586 640-586 551-586 474-556 387-487 357-463 339-447 329-436L326-433H324C324-435 326-469 329-534 368-587 368-587 382-599L356-632C348-628 346-628 333-626 334-649 334-649 335-683 338-755 339-770 345-799H266C269-782 269-775 269-760 269-721 268-683 265-621 183-615 141-613 126-613 118-613 112-613 98-614L103-545C128-550 148-552 213-557 250-559 250-559 264-560 261-475 261-466 259-383 246-372 246-372 230-357 196-326 196-326 162-294 114-249 95-233 76-220L116-151Z"/>
</g>
<g id="font_11_152">
<path transform="matrix(.001,0,0,-.001,0,0)" d="M110-124C117-135 120-138 136-156 153-175 167-191 178-203 212-241 212-241 227-258 238-271 241-274 245-282H247C244-237 244-237 244-120 243 8 243 8 237 45H315C312 15 312 7 312-121V-337C417-438 445-463 505-507 569-553 617-575 656-575 690-575 711-554 711-521 711-494 706-462 686-371 650-200 648-189 648-138 648-82 662-47 695-24 713-11 739-3 765-3 818-3 863-26 903-75 926-103 937-121 965-174 946-196 940-205 919-242 907-203 887-162 862-127 838-94 804-72 777-72 738-72 717-97 717-143 717-184 723-219 760-380 777-455 783-492 783-526 783-598 738-643 666-643 606-643 531-606 440-533 362-470 328-438 313-416L311-417C311-423 312-425 312-433 313-438 313-442 313-442 314-489 314-489 315-509 316-515 316-523 316-534 342-570 354-585 367-596L341-627C333-624 330-623 321-622 325-744 328-776 333-800L254-801C256-781 257-772 257-751 257-738 256-693 253-617 169-612 125-609 122-609 113-609 107-609 91-611L95-542C118-547 118-547 252-556 249-468 247-405 246-365 170-284 98-214 70-196L110-124Z"/>
</g>
<g id="font_11_114">
<path transform="matrix(.001,0,0,-.001,0,0)" d="M103-581C152-592 241-600 448-614 559-621 609-626 668-636 630-618 604-604 573-583 454-503 386-392 386-276 386-194 426-120 497-72 554-33 614-12 713 5 729 8 733 9 744 11L757-70C753-70 749-70 747-70 709-70 646-84 597-102 508-136 457-203 457-287 457-370 500-451 580-518 635-565 705-601 772-619 810-628 844-632 884-632L878-707C862-702 815-698 759-696 630-690 310-672 191-663 160-661 148-660 134-660 127-660 117-660 98-660L103-581Z"/>
</g>
<g id="font_11_80">
<path transform="matrix(.001,0,0,-.001,0,0)" d="M136-709C138-691 138-688 139-650 144-404 158-276 193-181 227-85 279-29 335-29 406-29 452-96 501-271 473-293 464-302 442-328 429-260 413-207 390-157 375-124 358-107 340-107 302-107 261-176 239-278 224-342 213-479 213-589 213-644 215-677 220-708L136-709ZM642-624C759-488 832-317 850-131L921-160C903-272 884-343 846-427 809-512 768-578 703-655L642-624Z"/>
</g>
<g id="font_11_151">
<path transform="matrix(.001,0,0,-.001,0,0)" d="M241-670C263-673 273-674 295-675 447-680 567-687 599-693 605-694 605-694 608-694L610-692 606-688C604-686 602-684 602-684 594-676 594-676 588-670 519-602 361-463 254-378 186-323 150-297 114-276L159-212C275-319 433-383 580-383 715-383 795-326 795-230 795-145 740-84 635-55 621-99 610-123 589-151 549-204 491-233 424-233 341-233 279-183 279-116 279-24 360 28 501 28 723 28 868-75 868-231 868-359 761-441 594-441 506-441 425-420 349-379L347-382C417-427 538-531 676-666 708-697 713-701 727-708L685-763C672-756 663-754 637-752 547-745 414-739 331-739 283-739 265-740 237-745L241-670ZM569-37C533-31 521-30 496-30 453-30 410-39 384-53 357-69 344-88 344-114 344-152 375-176 425-176 497-176 547-128 569-37Z"/>
</g>
<g id="font_11_87">
<path transform="matrix(.001,0,0,-.001,0,0)" d="M97-481C124-488 132-490 155-494 164-496 212-504 298-517 265-388 235-300 188-200 153-124 115-58 84-19L152 21C183-35 204-75 217-99 285-237 331-365 368-523 405-527 418-528 440-528 533-528 563-494 563-388 563-276 548-174 521-110 508-78 489-62 464-62 428-62 372-79 315-108 318-90 318-83 318-68 318-55 318-48 316-33 382-5 424 6 467 6 514 6 541-7 565-41 606-99 632-232 632-385 632-467 618-513 583-546 552-576 510-588 439-588 416-588 403-587 380-585 389-633 396-670 401-699 410-756 413-773 420-795L340-804C340-798 340-793 340-791 340-749 327-653 310-579 229-566 125-554 89-553L97-481ZM687-613C784-514 853-392 891-254L955-291C908-432 848-535 746-645L687-613Z"/>
</g>
<g id="font_13_128">
<path transform="matrix(.001,0,0,-.001,0,0)" d="M500-462C455-462 418-425 418-380 418-335 455-298 500-298 545-298 582-335 582-380 582-425 545-462 500-462Z"/>
</g>
<g id="font_14_87">
<path transform="matrix(.001,0,0,-.001,0,0)" d="M295-632V-514H151C110-514 86-515 59-520V-452C86-456 112-458 154-458H295V-349H189C153-349 125-350 94-354 97-327 98-299 98-261V-103C98-43 97-26 93 0H162C159-28 158-56 158-104V-293H295V-38C295 9 293 42 289 75H361C357 45 356 18 356-38V-293H492V-78C492-64 486-61 456-61 427-61 408-62 386-66 392-47 395-30 396-6 432-4 437-4 451-4 531-4 551-16 551-64V-262C551-303 552-327 555-354 526-350 498-349 462-349H356V-458H495C543-458 567-457 590-453V-519C564-515 536-514 496-514H356V-632H458C506-632 531-631 556-627V-693C533-689 508-688 458-688H356V-728C356-781 357-802 362-829H289C294-802 295-778 295-727V-688H189C197-710 201-723 208-746 213-767 219-784 225-798L160-814C159-799 156-782 149-758 129-682 104-631 58-566 80-558 95-550 114-537 139-577 148-592 166-632H295ZM636-770C641-742 642-715 642-660V-269C642-204 641-184 637-157H710C706-183 705-203 705-269V-661C705-717 706-743 711-770H636ZM840-826C845-795 847-763 847-704V-28C847-3 840 2 799 2 766 2 724-1 673-8 684 14 688 29 692 56 740 60 772 61 798 61 889 61 910 44 910-29V-705C910-763 912-797 917-826H840Z"/>
</g>
<g id="font_15_14">
<path transform="matrix(.001,0,0,-.001,0,0)" d="M59-332C79-336 80-336 120-339 158-342 158-342 232-349V-27C232 15 230 47 226 76H299C295 46 293 17 293-26V-355C331-359 354-362 362-363 367-363 376-364 387-366 397-340 400-331 410-299L461-322C434-396 407-455 373-512L327-494C347-458 352-448 367-415 298-406 280-405 205-400 257-458 310-532 390-653 404-673 410-682 419-694L360-729C347-693 313-638 245-540 224-565 208-583 178-613 219-671 248-717 277-770 288-790 293-798 300-808L238-836C228-797 194-734 139-651 123-667 118-671 96-692L59-645C134-581 160-554 211-492 182-453 172-440 135-396 119-395 89-394 84-394 70-394 63-395 48-397L59-332ZM858-606C856-391 841-197 815-83 801-19 790-7 743-7 703-7 665-11 610-20 620 6 624 22 627 49 667 53 704 55 733 55 829 55 854 34 877-62 900-161 919-358 920-515 922-640 922-640 925-669 904-666 884-665 844-665H594C607-697 615-717 623-739 641-789 641-789 649-808L581-825C573-777 558-732 525-660 494-593 458-538 413-489 434-478 449-467 465-450 505-498 537-546 567-606H858ZM116-284C104-163 87-95 50-16L105 10C142-80 153-126 171-273L116-284ZM348-274C372-197 386-132 399-33L457-52C440-146 427-200 398-290L348-274ZM730-239C682-343 653-394 588-483L536-453C601-364 627-317 673-205L730-239Z"/>
</g>
<path id="font_5_25" d="M.044006349 .45777894H.1289978C.1283366 .47912089 .13050334 .5002899 .13549805 .521286 .14050293 .5422821 .14867147 .56111147 .16000366 .57777407 .17133586 .59444686 .18583171 .60795089 .20349121 .61828616 .22116089 .6286214 .24232991 .63378909 .2669983 .63378909 .2856649 .63378909 .30332948 .63078817 .31999208 .6247864 .33666484 .61879476 .35116578 .6101329 .36349488 .59880068 .37583415 .58746847 .385671 .57396957 .39300538 .55830386 .40033976 .5426483 .40400697 .5251567 .40400697 .50582888 .40400697 .48117066 .4001719 .45950828 .39250184 .44084168 .38483177 .42218528 .37349449 .40486146 .35849 .38887025 .3434957 .37287904 .32466636 .35705058 .30200196 .3413849 .27933757 .32572938 .25300599 .30856834 .2230072 .28990174 .19833882 .27524314 .17466736 .25958253 .1519928 .24291992 .12932842 .22625733 .10899353 .20692952 .09098816 .18493653 .07299296 .16294353 .05816142 .13711548 .04649353 .10745239 .034835817 .07779948 .027338664 .041982015 .024002076 0H.4869995V.07519531H.1230011C.1269989 .09718832 .13549805 .11667887 .14849854 .13366699 .16149903 .15066529 .17716472 .16649373 .1954956 .18115235 .21383667 .19582112 .23400371 .20965068 .2559967 .22264099 .27799989 .23564148 .30000306 .24880474 .32200624 .26213075 .34399925 .27612815 .36533103 .29079185 .3860016 .30612184 .40667216 .3214518 .42500306 .33861289 .44099427 .35760499 .45699565 .37659709 .46982829 .39808656 .4794922 .42207337 .48916627 .44607035 .4940033 .47372947 .4940033 .50505068 .4940033 .53837588 .48816935 .5676982 .47650147 .5930176 .4648336 .61834719 .44900004 .63950607 .42900086 .65649417 .40900169 .67349246 .38550315 .68648788 .35850526 .69548037 .33150736 .70448306 .30267335 .7089844 .27200318 .7089844 .23467 .7089844 .20133464 .70263168 .17199707 .68992617 .14266968 .67723086 .11816915 .6596985 .09849548 .6373291 .07883199 .6149699 .064331058 .5884552 .054992677 .55778506 .04566447 .52711489 .04200236 .4937795 .044006349 .45777894Z"/>
<g id="font_16_171">
<path transform="matrix(.001,0,0,-.001,0,0)" d="M286-41C286 46 327 66 510 66 743 66 759 50 781-213 740-222 718-230 675-251 673-150 665-87 651-62 639-41 605-34 516-34 421-34 395-41 395-66V-136C459-188 500-227 546-280 647-396 726-515 797-660 824-716 824-716 836-737L721-783C707-721 662-624 609-540 548-444 470-349 395-278V-525C395-561 397-593 401-624H280C285-580 286-561 286-522V-186C202-124 127-80 30-37 65-4 81 16 105 58 183 18 214-2 286-52V-41ZM276-762C409-710 493-666 569-609L635-705C529-770 477-795 343-848L276-762ZM124-534C102-382 82-310 28-187L132-135C186-274 205-347 230-514L124-534ZM721-475C793-339 820-267 867-90L973-147C923-305 885-397 819-523L721-475Z"/>
</g>
<g id="font_17_227">
<path transform="matrix(.001,0,0,-.001,0,0)" d="M543-326V-367C543-395 544-412 548-433H433C437-409 438-396 438-368V-326H157C109-326 85-327 60-332V-226C93-230 133-232 181-232H369C291-152 160-79 36-46 66-8 82 19 96 59 175 25 231-5 293-47 356-90 388-119 440-177 438-147 438-126 438-104V-14C438 29 436 51 430 83H550C544 53 543 34 543-13V-105C543-123 542-138 540-179 585-128 617-100 684-54 757-3 800 19 906 65 930 9 937-3 967-45 812-90 696-152 614-232H815C865-232 903-230 937-226V-332C907-328 875-326 823-326H543ZM728-783C701-778 685-777 641-777H438C464-806 482-825 491-835L370-857C344-813 307-775 249-731 188-684 139-657 60-626 92-595 106-575 121-541 195-573 232-595 297-645 340-601 362-581 403-550 292-502 181-473 43-457 66-422 74-402 83-362 202-384 247-395 341-428 412-453 446-467 496-493 602-436 714-402 917-366 931-409 942-435 965-470 816-489 700-515 598-553 659-595 710-640 765-699 778-713 780-716 790-724L728-783ZM621-694C576-650 550-630 498-599 446-628 412-654 377-694H621Z"/>
</g>
<g id="font_18_76">
<path transform="matrix(.001,0,0,-.001,0,0)" d="M585-634H486C494-659 498-672 508-703 517-734 519-740 526-763L416-791C412-751 402-713 385-664 356-584 323-521 277-458 333-420 338-416 366-386 404-442 422-473 447-532H585V-345H414C366-345 331-347 302-351V-236C332-240 368-242 414-242H585V-34C585 17 583 45 578 81H702C696 45 695 20 695-34V-242H853C894-242 929-240 963-236V-351C931-347 899-345 851-345H695V-532H821C853-532 883-530 928-526V-640C900-636 871-634 820-634H695V-726C695-775 696-799 702-832H578C583-799 585-773 585-727V-634ZM145-34C145 14 144 42 139 83H259C256 45 254 12 254-33V-600C290-677 299-699 324-775 333-800 335-805 340-820L227-852C221-812 211-776 191-722 149-611 95-522 19-438 39-404 47-380 64-315 101-355 123-386 148-431 146-387 145-355 145-321V-34Z"/>
</g>
<g id="font_19_122">
<path transform="matrix(.001,0,0,-.001,0,0)" d="M578-641C622-637 648-629 679-611 759-563 802-485 802-389 802-282 750-187 663-139 616-112 556-96 464-84 496-42 508-20 525 33 595 21 634 11 682-9 835-71 925-209 925-382 925-607 769-753 529-753 387-753 269-705 185-613 114-535 75-432 75-322 75-161 157-45 271-45 353-45 417-104 474-233 524-346 559-484 578-641ZM456-640C444-527 411-392 373-302 337-216 303-174 270-174 226-174 191-239 191-321 191-428 243-531 327-591 368-620 404-634 456-640Z"/>
</g>
<g id="font_16_80">
<path transform="matrix(.001,0,0,-.001,0,0)" d="M328-338C328-327 328-320 327-307H184C135-307 110-308 79-313V-206C112-211 138-212 184-212H312C297-164 276-132 241-101 197-61 149-38 56-12 88 20 108 49 127 86 250 38 310-2 360-68 390-108 409-152 422-212H551V-18C551 52 583 69 719 69 911 69 929 54 951-115 911-121 882-131 843-150 840-95 834-62 825-50 814-36 790-31 735-31 701-31 684-32 671-36 656-40 655-42 655-63V-212H814C859-212 888-210 919-206V-313C889-308 863-307 814-307H655V-415C703-415 721-414 751-411V-454C805-418 834-402 916-364 943-422 949-433 972-463 899-491 866-507 812-539 847-570 876-599 902-631 922-653 924-656 930-662L838-714C814-675 777-632 734-593 713-609 702-618 675-641 700-664 731-695 749-716 772-743 785-758 788-762L696-813C693-808 693-808 688-800 684-792 681-789 667-771 647-745 640-739 608-707 570-753 556-776 546-816 523-813 507-812 460-812H275C240-812 211-814 192-817V-713C176-726 176-726 160-739L78-678C128-643 162-612 218-547 151-503 104-479 27-450 54-418 69-394 86-358 166-394 203-415 262-455V-411C287-413 298-414 329-415L328-338ZM435-415H551V-307H434C434-317 434-321 434-330L435-415ZM399-717C369-676 343-648 301-610 268-647 245-669 192-713 213-716 235-717 253-717H399ZM361-509C350-509 345-509 334-509 405-567 447-612 503-690 558-613 602-567 673-509 665-509 665-509 652-509H361Z"/>
</g>
<g id="font_18_102">
<path transform="matrix(.001,0,0,-.001,0,0)" d="M331-212C319-149 290-106 236-71 188-40 135-22 41-5 70 30 82 51 99 93 214 67 290 32 353-27 404-74 436-135 448-212H538V-17C538 58 568 72 734 72 847 72 890 64 918 38 943 14 953-23 963-134 925-144 901-154 860-176 857-100 852-62 842-48 830-31 810-27 733-27 655-27 646-30 646-58V-212H732C773-212 812-211 838-209 834-237 833-267 833-315V-680C833-735 835-781 838-805 809-801 778-800 732-800H271C225-800 196-801 166-805 169-779 171-735 171-680V-315C171-269 170-238 166-209 192-211 226-212 274-212H331ZM276-700H727V-635H276V-700ZM276-541H727V-474H276V-541ZM276-380H727V-309H276V-380Z"/>
</g>
<g id="font_20_170">
<path transform="matrix(.001,0,0,-.001,0,0)" d="M455-686H169C123-686 90-688 57-693V-621C86-625 119-627 168-627H836C894-627 923-625 949-621V-693C919-688 884-686 835-686H521V-747C521-781 523-807 528-832H448C452-811 455-779 455-747V-686ZM455-489H243C202-489 176-490 147-493 150-467 151-442 151-411V-131C151-86 149-55 145-23H224C220-52 218-85 218-131V-432H455V-34C455 5 453 37 448 75H527C522 41 520 7 520-34V-432H782V-131C782-109 774-103 742-103 710-103 671-106 625-113 635-89 639-72 642-46 688-43 705-42 746-42 828-42 848-59 848-124V-412C848-445 849-468 852-493 822-490 797-489 757-489H520V-521C520-557 522-583 525-601H450C454-576 455-553 455-522V-489Z"/>
</g>
<g id="font_21_175">
<path transform="matrix(.001,0,0,-.001,0,0)" d="M330-571C355-571 376-570 396-568V-630C377-627 359-626 330-626H273V-722C273-772 274-800 278-825H207C211-802 212-779 212-721V-626H139C106-626 83-627 67-630V-567C86-570 108-571 139-571H203C194-532 173-470 153-419 121-341 85-280 37-221 53-203 66-183 76-161 106-202 124-232 148-281 178-344 193-387 217-475 214-406 212-357 212-314V-36C212 16 210 51 206 80H279C275 53 273 18 273-36V-332C273-378 271-439 269-497 299-414 322-369 368-304 379-326 389-343 404-359 345-428 318-473 277-571H330ZM384 31C401 27 412 25 442 22 616 3 663-4 844-40 859-7 863 5 881 50L942 18C886-109 854-169 766-311L711-284C767-194 792-150 819-94 694-70 694-70 532-51 587-186 626-306 682-504L611-523C588-397 536-228 464-44 442-43 421-42 398-42 386-42 381-42 370-43L384 31ZM707-774C767-609 827-499 911-397 928-417 945-434 963-447 916-496 888-535 853-597 812-670 789-726 768-799L707-774ZM535-796C508-654 453-530 376-438 399-425 411-415 431-395 501-493 558-620 601-774L535-796Z"/>
</g>
<g id="font_12_233">
<path transform="matrix(.001,0,0,-.001,0,0)" d="M424-204C378-204 347-205 323-208V-146C353-149 385-151 423-151H564C543-106 518-76 475-47 430-16 374 4 285 24 303 45 310 58 319 79 477 37 567-25 616-124 679-22 775 40 929 80 937 56 946 40 961 19 812-7 721-58 662-151H855C897-151 922-149 952-145V-209C923-205 895-204 854-204H642C646-230 647-239 650-281H796C835-281 862-280 889-277 885-302 885-320 885-360V-520C885-557 886-577 889-601 865-598 838-597 797-597H475C433-597 405-598 383-601 385-578 386-555 386-521V-360C386-327 385-304 383-277 414-280 444-281 474-281H590C588-238 586-228 581-204H424ZM444-545H827V-466H444V-545ZM444-415H827V-332H444V-415ZM274-577C297-577 317-576 339-574V-635C319-632 304-631 274-631H233V-729C233-779 234-807 238-832H168C172-808 173-786 173-729V-631H120C88-631 66-632 50-635V-573C69-576 92-577 120-577H165C137-445 88-330 25-248 39-232 48-218 61-189 115-269 144-340 178-475 176-418 174-356 174-318V-34C174 18 172 54 168 82H239C234 55 233 20 233-34V-337C233-378 231-426 229-499 252-428 273-382 311-318 322-338 330-350 346-369 296-435 270-483 236-577H274ZM708-686V-680C708-656 707-642 705-624H770C767-641 767-652 767-686H847C890-686 920-685 950-681V-746C922-741 895-740 846-740H767V-759C767-790 768-807 771-826H703C707-807 708-788 708-759V-740H551V-759C551-790 553-807 556-826H488C492-806 493-789 493-759V-740H432C383-740 361-741 337-745V-682C364-685 386-686 432-686H493V-680C493-655 492-643 489-624H555C552-643 551-653 551-686H708Z"/>
</g>
<g id="font_15_70">
<path transform="matrix(.001,0,0,-.001,0,0)" d="M590-639V-553H477C436-553 417-554 392-558V-493C419-497 435-498 479-498H590V-408H435C396-408 372-409 348-412V-350C371-354 396-355 434-355H590V-211C478-133 379-80 304-59L333 7C345-2 363-12 378-20 494-82 498-84 590-149V-8C590 10 584 14 555 14 526 14 493 11 456 5 467 26 471 42 474 68 502 71 529 72 556 72 631 72 650 58 650 4V-184C650-203 649-221 642-283 688-183 718-137 774-79 817-35 859-2 921 36 935 11 946-4 963-22 882-61 829-100 773-162 821-204 851-236 898-298L847-334C810-276 783-245 738-205 700-256 683-287 656-355H847C881-355 911-353 937-349V-414C910-410 883-408 846-408H650V-498H802C843-498 865-497 892-493V-559C867-555 842-553 801-553H650V-639H832C870-639 896-637 923-633V-698C896-694 869-692 832-692H744C759-716 792-774 808-806L749-827C731-778 713-742 681-692H565C546-740 526-776 493-825L440-802C472-759 489-730 505-692H452C412-692 388-693 364-697V-634C390-638 409-639 451-639H590ZM190-633H128C95-633 75-634 58-637V-575C76-578 97-579 128-579H180C169-528 149-466 124-407 96-341 68-294 30-249 49-225 58-210 68-187 98-232 113-257 134-300 164-365 176-400 198-493 197-476 196-464 196-456 195-431 194-413 193-407 190-359 190-359 190-319V-36C190 16 188 51 184 80H256C252 53 250 18 250-36V-339C250-374 249-418 246-502 266-446 281-412 311-362 323-383 333-399 346-416 305-466 270-528 253-579H289C313-579 333-578 352-576V-637C333-634 318-633 289-633H250V-731C250-781 251-809 255-834H185C189-811 190-788 190-730V-633ZM369-301C411-257 432-229 463-178L509-211C477-259 453-289 414-332L369-301Z"/>
</g>
<g id="font_13_164">
<path transform="matrix(.001,0,0,-.001,0,0)" d="M962 81C878-4 845-49 810-126 774-206 756-289 756-380 756-471 774-554 810-634 845-711 878-756 962-841H873C798-755 767-707 734-626 701-546 686-467 686-380 686-293 701-214 734-134 767-53 798-5 873 81H962Z"/>
</g>
<g id="font_11_192">
<path transform="matrix(.001,0,0,-.001,0,0)" d="M764-790C732-770 706-759 650-742 522-704 358-679 230-679 215-679 200-679 172-681 187-649 190-640 196-614 343-620 429-629 492-642 492-554 491-498 489-454H202C145-454 130-455 97-461V-385C133-389 151-390 202-390H483C476-304 459-249 422-194 373-120 297-64 188-22 215 0 224 10 242 40 364-19 439-82 491-169 529-232 548-296 556-390H801C852-390 870-389 906-385V-461C873-455 858-454 801-454H561C562-493 563-558 564-654 643-670 711-690 784-716 803-723 803-723 815-726L764-790Z"/>
</g>
<g id="font_11_166">
<path transform="matrix(.001,0,0,-.001,0,0)" d="M529-407H683C736-407 744-407 771-403V-473C747-469 723-467 682-467H317C277-467 253-469 228-473V-403C251-406 273-407 317-407H460V-61H257C209-61 193-62 167-67V4C191 1 215 0 258 0H742C783 0 809 1 833 4V-66C808-62 790-61 743-61H529V-407Z"/>
</g>
<g id="font_11_194">
<path transform="matrix(.001,0,0,-.001,0,0)" d="M187-528C229-459 257-392 281-304L349-327C312-433 290-480 250-549L187-528ZM393-570C436-495 467-422 485-351L551-374C525-454 507-494 454-589L393-570ZM740-571C740-568 740-568 740-565V-561C740-549 736-526 729-493 711-416 682-341 644-278 575-163 481-86 327-17 350 4 358 14 373 39 528-36 633-128 704-250 740-312 776-404 792-474 808-539 808-539 814-555L740-571Z"/>
</g>
<g id="font_11_170">
<path transform="matrix(.001,0,0,-.001,0,0)" d="M242-603C192-603 168-604 134-610L135-534C171-539 182-539 241-539L423-540C410-428 395-372 361-302 306-190 220-102 101-39 126-17 134-9 152 20 265-48 358-142 414-245 458-329 481-412 494-540L774-541C773-393 764-265 749-186 730-87 714-63 665-63 632-63 590-71 536-89 545-63 547-49 547-26 547-23 547-20 547-14 600-2 639 3 671 3 761 3 791-33 816-170 829-239 841-390 844-520 845-556 846-565 852-580L815-612C795-606 794-605 749-605L499-604C502-632 502-644 504-675 508-781 508-781 512-804L431-806C434-788 435-777 435-754 435-710 433-655 429-604L242-603Z"/>
</g>
<g id="font_13_150">
<path transform="matrix(.001,0,0,-.001,0,0)" d="M87-343C117-346 138-347 211-347H791C858-347 881-346 913-343V-424C882-420 866-419 792-419H211C143-419 116-420 87-425V-343Z"/>
</g>
<g id="font_11_219">
<path transform="matrix(.001,0,0,-.001,0,0)" d="M457-623H213C148-623 129-624 97-629V-553C128-557 148-558 212-558H457V-59C457 2 455 23 451 46H533C529 23 528 1 528-60V-558H782C846-558 866-557 897-553V-629C865-624 845-623 780-623H528V-688C528-750 529-768 533-792H451C456-769 457-751 457-690V-623ZM241-466C239-433 227-386 206-330 163-216 118-141 59-84 90-69 102-62 125-41 203-132 264-253 300-386L305-408 311-428C313-435 313-435 317-445L241-466ZM668-446C675-430 684-408 693-381 744-235 797-129 867-37 891-61 902-69 930-84 868-155 822-235 775-352 752-412 743-440 738-465L668-446ZM717-810C744-781 788-715 818-656L869-685C836-746 809-786 767-836L717-810ZM842-845C881-800 922-736 944-688L994-717C961-780 936-817 891-873L842-845Z"/>
</g>
<g id="font_11_200">
<path transform="matrix(.001,0,0,-.001,0,0)" d="M382 31C378 7 377-15 377-75V-376C377-401 376-417 373-435L375-436C384-429 392-425 406-419 547-360 704-277 779-221L822-295C658-390 520-455 377-506V-693C377-755 378-774 382-797H296C300-775 301-758 302-695V-74C301-13 300 8 296 31H382ZM630-731C660-700 708-625 733-572L783-602C753-661 725-703 680-757L630-731ZM744-785C783-739 825-675 846-627L896-656C863-719 838-756 793-812L744-785Z"/>
</g>
<g id="font_13_165">
<path transform="matrix(.001,0,0,-.001,0,0)" d="M127 81C202-5 233-53 266-134 299-214 314-293 314-380 314-467 299-546 266-626 233-707 202-755 127-841H38C122-757 155-711 190-634 226-554 244-471 244-380 244-289 226-206 190-126 155-49 122-3 38 81H127Z"/>
</g>
<g id="font_11_115">
<path transform="matrix(.001,0,0,-.001,0,0)" d="M95-583C131-592 241-602 440-616 545-623 603-628 660-638 622-620 596-606 565-585 446-504 378-394 378-278 378-195 418-122 489-74 546-35 606-14 705 3 723 6 725 7 736 9L749-72C745-72 741-72 739-72 701-72 638-86 589-104 500-138 449-205 449-289 449-372 492-453 572-520 627-567 697-603 764-620 802-630 836-634 876-634L870-708C856-704 837-702 751-697L694-695C661-694 648-693 525-686L368-676C245-669 239-668 183-664 152-662 140-661 126-661 119-661 109-661 90-662L95-583ZM709-487C739-456 787-381 811-328L862-358C832-417 804-459 759-513L709-487ZM823-541C862-495 903-431 925-384L975-412C942-475 917-513 872-568L823-541Z"/>
</g>
<g id="font_22_230">
<path transform="matrix(.001,0,0,-.001,0,0)" d="M486-495C364-419 206-349 40-298 59-275 67-261 75-239 172-275 261-312 344-354 322-279 291-210 240-118L309-107C328-144 334-158 343-177H739C732-110 726-72 715-36 704 2 691 12 654 12 610 12 536 4 473-8 482 21 484 31 486 59 565 67 612 70 653 70 720 70 749 57 765 21 781-13 796-92 805-181 809-214 810-229 813-238 790-235 765-234 700-234H366C378-265 383-278 392-305 596-327 737-348 856-376L815-435C765-410 624-384 409-360 412-373 413-377 417-391 482-426 532-457 586-495H831C874-495 910-493 941-489V-558C916-554 884-552 831-552H662C740-613 824-692 870-746 879-757 881-759 887-766L829-808C818-786 803-766 774-732 714-664 662-618 571-552H489V-666H589C643-666 669-665 695-661V-728C670-724 639-722 585-722H489V-740C489-784 490-810 495-834H421C425-804 427-782 427-740V-722H272C218-722 187-724 163-728V-661C194-665 221-666 272-666H427V-552H173C117-552 84-554 60-558V-489C93-493 127-495 174-495H486Z"/>
</g>
<g id="font_11_84">
<path transform="matrix(.001,0,0,-.001,0,0)" d="M292-732C412-693 485-680 665-664L679-731C547-735 423-756 317-793L292-732ZM206-474C232-477 253-479 301-482 471-493 537-500 599-514 527-445 476-395 447-366 366-286 283-206 211-139 151-82 138-71 103-47L159 15C194-25 260-93 309-138 392-215 441-243 493-243 514-243 532-234 539-219 545-207 547-196 550-150 555-84 560-62 572-40 593-1 637 17 712 17 756 17 794 13 849 4 920-7 920-7 930-8L919-85C866-62 790-48 717-48 671-48 648-56 634-75 623-91 620-106 616-169 612-226 605-249 585-269 568-286 545-295 517-295 490-295 473-289 417-262 466-300 531-358 615-442 673-499 683-509 704-525L660-580C647-575 635-572 612-569 526-557 349-545 261-545 239-545 226-545 201-547L206-474Z"/>
</g>
<path id="font_5_26" d="M.21800232 .4052887V.3330078C.23400371 .33496095 .25100199 .3359375 .2689972 .3359375 .29032899 .3359375 .3101603 .33310954 .3284912 .3274536 .34683229 .3217977 .3626658 .31314598 .37599183 .3014984 .389328 .28986106 .3999939 .27555848 .4079895 .2585907 .41599528 .24162293 .41999818 .22216289 .41999818 .20021057 .41999818 .17891948 .41583253 .15979004 .40750123 .14282227 .39916993 .12585449 .3880005 .11154684 .37399293 .09989929 .3599955 .088261928 .34366355 .07927958 .32499696 .07295227 .30633036 .06663513 .28666688 .06347656 .26600648 .06347656 .21734111 .06347656 .18033855 .07797241 .15499878 .10696411 .12966919 .13596599 .1163381 .173467 .11500549 .21946717H.02999878C.029337565 .18280538 .034505208 .1501414 .04550171 .12147522 .05649821 .092809047 .07232666 .068618778 .09298706 .04890442 .11365763 .029200236 .13865662 .014333089 .16798401 .0043029787 .19732158-.0057271325 .22999065-.0107421879 .2659912-.0107421879 .29932658-.0107421879 .3308258-.006245931 .3604889 .002746582 .39016215 .011749268 .41599528 .025248209 .43798829 .04324341 .45999146 .061238607 .4774933 .083730068 .49049378 .11071777 .50349429 .13771566 .5099945 .1688792 .5099945 .20420838 .5099945 .24686177 .49949647 .2838491 .47850038 .3151703 .45750428 .34650169 .42533876 .36683146 .38200379 .37615968V.37815858C.40999858 .39082337 .43332926 .40947978 .45199586 .4341278 .47066245 .458786 .47999574 .48710633 .47999574 .51908877 .47999574 .55173239 .4744924 .5800476 .46348573 .6040344 .45248924 .62802127 .437322 .64767459 .417984 .6629944 .39865623 .6783244 .37582398 .68981936 .3494873 .69747927 .3231608 .70514938 .29466249 .7089844 .2639923 .7089844 .22866313 .7089844 .19749959 .70330306 .17050171 .6919403 .14350383 .6805776 .1210022 .6648763 .102996829 .6448364 .085001628 .6248067 .07116699 .60078939 .06149292 .5727844 .05182902 .5447896 .04633077 .5137889 .04499817 .4797821H.13000489C.13000489 .5004527 .13267009 .5201213 .13800049 .53878787 .14334107 .5574544 .1515096 .57378646 .1625061 .5877838 .17350261 .6017812 .1875 .61294558 .20449829 .62127688 .22149658 .62961837 .24133301 .63378909 .26400758 .63378909 .30000816 .63378909 .33000694 .6243083 .3540039 .6053467 .3780009 .58639529 .3899994 .55795797 .3899994 .5200348 .3899994 .5014089 .38633219 .48477683 .3789978 .47013856 .37166343 .45551048 .36182658 .44337464 .3494873 .43373109 .3371582 .42408753 .3228251 .4167684 .30648805 .41177369 .29016114 .40678916 .2730001 .40429688 .25500489 .40429688H.23699951C.23366292 .40429688 .23033142 .40429688 .227005 .40429688 .2243398 .40429688 .22133892 .40462748 .21800232 .4052887Z"/>
<g id="font_17_80">
<path transform="matrix(.001,0,0,-.001,0,0)" d="M431-499H174C124-499 89-501 49-505V-380C87-384 125-386 174-386H431V-55C431-5 428 43 424 85H559C554 44 552-2 552-55V-386H824C875-386 910-384 952-380V-505C911-501 877-499 824-499H552V-717C552-770 554-805 559-843H424C429-805 431-769 431-717V-499Z"/>
</g>
<g id="font_6_10">
<path transform="matrix(.001,0,0,-.001,0,0)" d="M362-396C360-367 359-355 356-338 339-247 295-170 225-110 173-66 132-41 70-18 108 21 124 43 143 80 261 21 342-48 397-140 445-219 467-292 475-396H667C667-388 667-381 667-375 667-369 667-364 667-360V-338C667-234 651-102 636-72 627-57 616-53 579-53 550-53 506-58 458-66 476-17 483 7 488 51 555 54 571 55 591 55 680 55 716 41 738-3 763-56 780-214 780-421 780-438 780-441 780-455 824-412 849-391 904-350 930-398 938-409 980-458 855-538 769-628 703-748 681-788 671-809 664-835L553-792C560-780 570-760 574-750 617-657 669-578 739-499 715-498 701-498 677-498H309C289-498 284-498 257-500 322-575 381-664 418-743 430-770 435-779 445-794L325-837C320-807 309-780 285-736 221-617 146-535 22-449 58-415 82-385 99-351 151-391 176-413 224-462V-391C250-394 275-396 309-396H362Z"/>
</g>
<g id="font_17_203">
<path transform="matrix(.001,0,0,-.001,0,0)" d="M656-59H567V-443C567-496 568-523 573-553H459C464-519 465-492 465-443V-59C438-59 422-60 403-63V50C432 46 464 44 515 44H854C900 44 934 46 967 50V-65C934-61 898-59 856-59H760V-353H842C887-353 912-352 940-347V-460C911-455 889-454 842-454H760V-698H841C888-698 924-696 955-692V-805C924-801 889-799 840-799H543C494-799 459-801 428-805V-692C460-696 496-698 543-698H656V-59ZM70-720C94-723 116-724 153-724H299C337-724 358-723 383-720V-816C357-813 340-812 299-812H153C113-812 96-813 70-816V-720ZM38-572C62-575 83-576 118-576H331C373-576 386-575 407-572V-675C384-672 368-671 327-671H118C81-671 62-672 38-676V-572ZM74-431C94-433 108-434 140-434H315C345-434 357-433 379-431V-524C361-522 348-521 315-521H140C107-521 94-522 74-524V-431ZM74-292C93-294 109-295 139-295H313C346-295 356-295 379-292V-385C361-383 348-382 315-382H140C107-382 94-383 74-385V-292ZM167 83V35H281V69H378C376 51 375 32 375-9V-169C375-205 376-221 378-241 361-238 350-238 311-238H144C115-238 92-239 67-242 71-217 72-195 72-163V-15C72 20 70 53 66 83H167ZM167-152H281V-53H167V-152Z"/>
</g>
<g id="font_6_218">
<path transform="matrix(.001,0,0,-.001,0,0)" d="M817-236V-64C817-38 810-33 775-33 752-33 721-36 672-44 688-7 694 21 699 69 726 70 762 71 779 71 895 71 925 48 925-41V-692C925-746 926-777 929-802 899-799 877-798 821-798H605C552-798 529-799 494-802 499-760 501-686 501-553 501-369 491-278 464-192 434-103 399-54 321 7 363 35 383 54 409 88 470 32 503-11 533-75 557-126 574-178 585-236H817ZM817-473V-334H597C602-382 605-425 606-473H817ZM817-567H608V-698H817V-567ZM80-213C80-163 78-126 74-94H184V-168H325V-131H428C427-153 426-179 426-233V-687C426-734 427-754 429-778 403-776 384-775 343-775H185C128-775 104-776 76-778 79-747 80-723 80-675V-213ZM183-677H325V-526H183V-677ZM183-433H325V-264H183V-433Z"/>
</g>
<g id="font_20_62">
<path transform="matrix(.001,0,0,-.001,0,0)" d="M155-252H140C99-252 70-254 44-258V-190C74-194 102-196 139-196H155V-31C155 13 153 41 149 75H226C222 47 220 17 220-30V-196H786V-25C786 2 777 8 733 8 686 8 645 5 593-2 602 22 605 37 608 64 641 67 676 68 709 68 826 68 850 54 850-13V-196H858C896-196 926-194 954-190V-258C928-254 900-252 858-252H850V-528C850-566 851-591 854-620 830-617 806-616 763-616H524V-733H843C882-733 917-731 948-727V-796C916-792 886-790 843-790H167C124-790 91-792 62-796V-727C93-731 126-733 167-733H462V-616H241C198-616 175-617 151-620 154-592 155-562 155-526V-252ZM220-252V-383H462V-252H220ZM220-437V-560H462V-437H220ZM524-252V-383H786V-252H524ZM524-437V-560H786V-437H524Z"/>
</g>
<g id="font_23_66">
<path transform="matrix(.001,0,0,-.001,0,0)" d="M599-226V-25C599 24 598 44 593 75H665C660 45 659 24 659-24V-226H825V-80C825-60 823-57 804-57 783-57 744-61 719-66 729-43 732-31 733-7 773-5 795-4 799-4 841-4 857-8 871-21 881-32 885-45 885-73V-208C885-229 885-238 886-265H949C946-286 945-300 945-326V-374C945-396 946-415 948-432 920-429 906-429 855-429H419C382-429 355-430 328-432 330-416 331-404 331-373V-326C331-299 330-284 327-265H387C389-235 389-227 389-207V-94C389-55 387-24 383 3H454C450-25 449-52 449-91V-226H599ZM599-279H471C437-279 414-280 389-282V-375H599V-279ZM659-279V-375H884V-282C863-280 839-279 813-279H659ZM818-670H506C461-670 438-671 409-674V-616C438-619 456-620 506-620H818V-545H482C435-545 413-546 384-550V-489C413-493 439-494 483-494H799C838-494 860-493 882-492 880-514 879-531 879-562V-724C879-755 880-774 882-798 854-795 831-794 793-794H489C448-794 418-796 386-800V-737C415-739 450-741 488-741H818V-670ZM225-832C230-804 232-751 232-646 232-594 230-503 226-429 222-340 213-267 199-215 175-125 130-56 52 13 71 26 86 42 100 63 235-73 276-179 285-414 290-549 292-645 292-735 292-787 293-810 296-832H225ZM142-321C138-347 137-372 137-408V-642C137-679 138-702 142-723H74C77-700 79-673 79-642V-408C79-370 78-346 74-321H142Z"/>
</g>
<g id="font_24_48">
<path transform="matrix(.001,0,0,-.001,0,0)" d="M175-677H146C129-677 100-678 86-680 89-655 90-632 90-585V-78C90-19 89 18 85 44H152V-44H347V20H413C410-4 408-38 408-83V-592C408-628 409-654 411-680 407-680 378-679 323-677H258C277-721 290-758 309-815L238-828C229-775 217-733 195-677H175ZM152-622H347V-399H152V-622ZM152-344H347V-100H152V-344ZM862-619C861-472 860-403 855-323 848-189 835-93 818-47 806-15 792-6 755-6 719-6 674-11 613-23 624 2 628 19 630 48 694 53 721 55 758 55 817 55 849 37 869-9 905-89 918-223 927-619 928-656 928-664 931-682 911-679 883-678 843-678H601C616-717 625-740 639-780 646-801 650-812 653-818L584-831C582-809 572-772 558-734 521-632 472-547 411-482 428-471 446-454 459-437 511-504 540-550 574-619H862ZM741-242C688-349 646-415 583-491L532-460C590-390 628-327 684-207L741-242Z"/>
</g>
<g id="font_11_119">
<path transform="matrix(.001,0,0,-.001,0,0)" d="M194-780C192-757 190-747 180-700 147-552 135-446 135-304 135-199 142-127 161-21 164-2 165 3 167 19L239 13C239 6 239 1 239-2 239-58 275-178 320-277L272-300C240-227 221-172 207-105 203-158 201-217 201-295 201-415 210-503 231-608 246-676 258-725 273-768L194-780ZM400-591C465-584 504-581 560-581 637-581 717-586 775-594 819-600 842-603 844-603L839-674C772-656 682-647 571-647 493-647 444-651 401-662L400-591ZM473-396C411-325 386-271 386-210 386-173 396-143 416-118 459-66 531-42 645-42 713-42 780-48 850-62 870-65 872-66 885-67L875-144C821-122 736-109 645-109 516-109 453-145 453-219 453-263 478-311 528-366L473-396Z"/>
</g>
<g id="font_11_208">
<path transform="matrix(.001,0,0,-.001,0,0)" d="M305-727C306-720 306-714 306-711 306-693 302-657 296-617 277-486 242-369 193-270 151-186 110-130 48-72 76-56 87-47 112-20 253-167 334-359 376-644 384-695 385-701 389-712L305-727ZM592-712C596-699 600-681 605-646 644-390 744-159 877-18 900-46 912-57 939-74 842-163 760-311 712-487 688-569 666-684 666-727L592-712ZM861-804C798-804 747-753 747-691 747-629 798-578 861-578 923-578 974-629 974-691 974-754 924-804 861-804ZM861-762C900-762 932-730 932-691 932-652 900-620 861-620 821-620 789-652 789-691 789-730 821-762 861-762Z"/>
</g>
<g id="font_11_184">
<path transform="matrix(.001,0,0,-.001,0,0)" d="M901-54C787-175 699-254 568-354 630-431 677-510 733-634 744-659 751-671 761-683L719-726C702-720 690-719 655-718L298-714C284-714 275-714 272-714 238-714 220-715 193-719L195-638C224-643 253-645 298-646L632-651C644-651 647-651 656-652 655-649 655-648 653-645 651-640 650-639 648-633 575-458 451-300 291-182 214-125 165-98 88-67 113-42 121-31 137-1 211-38 264-71 333-121 405-174 454-220 524-300 652-201 765-92 844 9L901-54Z"/>
</g>
<g id="font_22_214">
<path transform="matrix(.001,0,0,-.001,0,0)" d="M582-459V-394H473C422-394 389-395 364-396 367-364 368-340 368-300V-140C337-140 319-141 298-145V-85C319-88 340-90 368-90V-31C368 21 367 47 363 79H430C426 50 426 33 426-31V-90H810V-15C810 9 803 13 770 13 737 13 707 11 664 5 670 23 674 43 676 62 715 64 742 65 773 65 849 65 868 50 868-12V-90H876C903-90 924-89 951-86V-146C926-141 911-140 876-140H868V-297C868-347 869-376 872-399 848-396 815-394 776-394H636V-459H848C895-459 916-458 946-453V-515C918-510 894-509 849-509H759V-580H810C848-580 871-579 894-575V-633C870-629 846-628 810-628H759V-695H839C879-695 899-694 927-690V-749C901-745 878-743 839-743H759C759-783 760-805 765-830H697C702-810 702-799 703-743H534C534-791 535-809 540-830H472C476-809 477-790 478-743H423C383-743 359-744 335-748V-691C361-694 386-695 423-695H478V-628H453C416-628 393-629 369-632V-576C394-579 416-580 453-580H478V-509H413C368-509 344-510 318-514V-454C347-458 371-459 415-459H582ZM582-140H426V-222H582V-140ZM636-140V-222H810V-140H636ZM582-269H426V-346H582V-269ZM636-269V-346H810V-269H636ZM534-509V-580H703V-509H534ZM534-628V-695H703V-628H534ZM277-580C303-580 322-579 342-576V-639C323-636 305-635 276-635H241V-730C241-780 242-808 246-833H177C181-812 182-786 182-730V-635H124C92-635 73-636 55-639V-576C72-579 94-580 124-580H173C142-441 93-325 26-234 50-212 56-205 69-184 93-222 108-249 127-291 149-339 156-361 189-473 185-421 183-365 183-317V-37C183 14 181 51 177 79H247C242 52 241 17 241-37V-339C241-386 239-447 236-494 261-429 278-394 310-348 325-372 333-381 348-397 301-450 272-500 245-580H277Z"/>
</g>
<g id="font_14_92">
<path transform="matrix(.001,0,0,-.001,0,0)" d="M805-528C794-455 742-339 682-253 645-349 623-470 616-613H827C880-613 908-612 939-608V-676C914-671 888-670 832-670H614C612-717 612-732 612-750 612-788 613-812 617-832H540C545-809 546-793 550-670H255C204-670 168-671 133-675 138-641 139-625 139-558 139-363 128-228 106-138 92-82 73-40 36 12 57 24 71 36 89 57 130-4 148-47 165-118 183-192 191-266 197-394H397C396-315 391-240 384-198 377-154 369-145 336-145 303-145 273-149 218-161 226-137 228-122 230-96 275-89 299-87 335-87 391-87 413-96 428-127 442-156 452-229 458-342 462-433 462-433 465-454 443-451 426-450 390-450H199C200-492 201-526 201-613H553C563-446 592-304 638-197 557-103 466-40 341 10 364 27 374 37 390 61 505 7 585-51 667-138 693-92 720-55 750-26 789 13 829 36 855 36 881 36 901 20 917-12 932-41 940-68 953-134 935-145 920-157 899-178 887-86 870-34 854-34 845-34 829-43 811-57 766-95 741-127 710-190 767-265 786-301 843-434 860-474 870-496 873-501L805-528ZM860-728C795-781 783-789 717-827L674-792C741-753 762-737 818-686L860-728Z"/>
</g>
<g id="font_11_101">
<path transform="matrix(.001,0,0,-.001,0,0)" d="M553-666C485-664 407-662 311-658 150-652 150-652 121-652 106-652 99-652 81-653L84-580C151-591 353-601 554-605 554-567 554-567 554-553 554-541 555-531 555-527 555-490 555-486 556-472 530-501 488-517 440-517 338-517 263-447 263-352 263-260 331-194 427-194 480-194 523-212 553-248 565-262 571-273 580-297 576-206 541-141 468-86 428-56 384-36 306-11 327 11 333 20 350 52 423 24 467 1 508-29 594-94 642-186 642-290 642-334 635-366 618-408V-606C699-608 710-608 725-608 844-608 879-607 916-603V-674C883-670 806-668 617-667V-678C617-756 618-771 622-803H547C550-782 551-771 551-745L553-666ZM550-374C550-304 502-256 433-256 372-256 330-297 330-355 330-415 378-460 441-460 468-460 489-455 508-444 537-428 550-407 550-374Z"/>
</g>
<path id="font_5_27" d="M.33900453 .24121094H.100997928L.33700563 .5879822H.33900453V.24121094M.41900636 .24121094V.7089844H.35099793L.027999878 .24801636V.16601563H.33900453V0H.41900636V.16601563H.5149994V.24121094H.41900636Z"/>
<g id="font_18_214">
<path transform="matrix(.001,0,0,-.001,0,0)" d="M371-162C344-162 328-163 311-166V-73C330-76 345-77 371-77V-37C371 24 370 49 366 86H474C471 52 470 31 470-37V-77H799V-31C799-12 792-8 758-8 737-8 710-10 672-15 683 14 688 36 691 74 720 75 749 76 768 76 876 76 897 61 897-18V-77C927-77 942-76 964-73V-167C943-163 930-162 897-162V-311C897-358 898-384 901-410 878-407 850-406 808-406H678V-447H867C909-447 930-446 960-442V-536C931-531 907-530 868-530H797V-572H841C879-572 896-571 917-568V-650C896-648 868-646 841-646H797V-689H862C901-689 921-688 945-684V-770C917-766 895-765 862-765H797C797-799 798-816 803-837H693C698-819 699-809 699-765H570C570-805 571-819 576-837H467C471-817 472-805 472-765H430C395-765 373-766 347-770V-685C373-688 397-689 431-689H472V-646H448C416-646 395-647 371-650V-569C391-571 413-572 448-572H472V-530H418C378-530 354-531 331-535V-450C305-489 287-523 273-559H289C312-559 328-558 346-555V-661C327-658 313-657 287-657H264V-739C264-787 265-814 269-842H158C162-817 164-790 164-738V-657H119C87-657 70-658 52-661V-555C69-558 88-559 119-559H152C126-446 79-337 20-250 55-214 68-198 85-165 122-227 137-261 173-367 168-319 165-267 165-229V-36C165 13 163 55 158 86H270C266 54 264 16 264-36V-283C264-349 262-393 259-427 278-379 292-352 317-319 339-356 345-364 369-388 370-365 371-346 371-317V-162ZM470-162V-208H583V-162H470ZM470-281V-327H583V-281H470ZM678-162V-208H799V-162H678ZM678-281V-327H799V-281H678ZM367-409C350-425 346-429 335-443 360-446 387-447 423-447H583V-406H462C418-406 396-407 367-409ZM570-530V-572H699V-530H570ZM570-646V-689H699V-646H570Z"/>
</g>
<g id="font_25_92">
<path transform="matrix(.001,0,0,-.001,0,0)" d="M792-533C780-463 746-380 696-299 673-375 659-467 650-598H830C881-598 919-596 952-593V-703C926-698 899-697 846-697H816L868-733C830-782 813-799 767-838L690-789C731-755 750-734 778-697H646C646-707 646-734 646-743 646-776 648-817 651-838H532C536-816 536-812 537-775 539-731 539-705 540-697H250C198-697 157-699 121-702 126-662 127-637 127-560 127-382 117-249 97-165 84-108 63-61 28-7 64 19 84 38 115 78 159 8 179-37 197-117 212-185 221-254 228-368H374C372-287 367-222 359-187 354-162 345-156 314-156 285-156 270-157 217-164 232-125 238-101 243-58 275-56 291-55 319-55 396-55 432-70 448-110 465-152 471-205 481-385 483-424 485-452 487-470 466-467 451-466 416-466H232C233-502 233-502 234-598H544C555-422 577-302 619-199 543-118 455-58 350-15 384 14 395 26 426 72 515 28 593-29 668-103 726-9 805 58 856 58 911 58 946-1 969-136 926-159 913-169 879-203 867-109 867-109 860-86 855-73 851-67 847-67 841-67 819-85 802-103 781-126 761-154 742-189 793-258 833-331 877-439 893-477 893-477 899-492L792-533Z"/>
</g>
<g id="font_6_93">
<path transform="matrix(.001,0,0,-.001,0,0)" d="M297 51C329 45 350 42 459 31 638 12 674 7 821-21 837 10 844 25 867 71L965 12C871-150 847-187 763-296L674-250C722-187 741-160 772-108 707-95 641-87 506-75L515-94C555-173 583-235 603-288 617-325 617-325 623-343H858C897-343 933-341 962-337V-449C931-445 899-443 857-443H665V-593H826C872-593 899-592 927-588V-698C897-694 868-692 825-692H665V-736C665-788 666-811 671-841H550C555-815 556-790 556-736V-692H437C391-692 357-694 331-698V-588C363-591 397-593 436-593H556V-443H400C353-443 320-445 291-449V-337C323-341 358-343 399-343H507C475-247 434-156 383-67 349-65 325-64 309-64 299-64 291-64 275-65L297 51ZM80-758C148-714 197-674 252-620L320-707C257-763 218-792 148-835L80-758ZM37-511C106-469 150-437 215-378L278-469C205-526 168-552 99-591L37-511ZM188-312C137-174 76-50 41-12L137 72C142 63 142 63 149 47 162 16 162 16 180-21 220-104 242-157 277-249L188-312Z"/>
</g>
<g id="font_17_205">
<path transform="matrix(.001,0,0,-.001,0,0)" d="M514-646C471-646 453-647 428-651V-543C453-547 478-548 524-548H618V-448H542C500-448 477-449 451-453V-349C477-353 497-354 542-354H618V-242H526C478-242 450-243 421-247V-138C450-142 479-143 525-143H618V-37C618 9 616 49 612 82H733C729 45 727 9 727-38V-143H859C901-143 930-141 961-137V-247C929-243 898-242 857-242H727V-354H826C871-354 897-353 920-349V-453C898-449 872-448 825-448H727V-548H846C894-548 921-547 945-543V-651C920-647 900-646 855-646H811C837-689 848-708 895-802L787-841C764-771 734-705 700-646H514ZM78-714C103-717 125-718 162-718H303C340-718 363-717 387-714V-814C360-810 344-809 303-809H162C121-809 105-810 78-814V-714ZM46-569C71-572 90-573 126-573H331C374-573 386-572 407-570V-672C386-669 367-668 327-668H126C89-668 70-669 46-673V-569ZM82-427C105-430 115-430 148-430H324C356-430 365-430 388-427V-518C367-515 358-515 324-515H148C115-515 103-516 82-518V-427ZM82-288C104-291 115-291 147-291H322C354-291 367-290 388-288V-379C368-376 357-376 324-376H148C115-376 103-377 82-379V-288ZM177 86V39H292V73H391C388 48 387 25 387-5V-166C387-202 388-218 390-238 372-235 361-235 322-235H150C121-235 98-236 73-239 77-211 78-191 78-160V-11C78 23 76 56 72 86H177ZM174-149H292V-49H174V-149ZM637-692C607-761 592-789 558-840L466-797C498-748 518-708 541-648L637-692Z"/>
</g>
<g id="font_26_81">
<path transform="matrix(.001,0,0,-.001,0,0)" d="M50-316C64-319 76-321 101-322 130-323 143-324 194-327V-23C194 28 192 49 188 83H297C292 53 291 29 291-22V-334C317-336 328-338 363-342 367-325 368-319 371-299L444-330V-43C444 6 442 40 438 76H543V19H824V75H935C930 42 929 12 929-49V-670C929-729 930-762 933-796 904-793 878-792 810-792H556C501-792 474-793 440-796 442-763 444-728 444-680V-372C427-432 417-458 387-532L310-499C325-463 330-450 338-428 279-423 279-423 226-420 268-474 334-568 372-626 392-657 401-671 412-684L318-732C308-701 283-657 227-569 207-594 207-594 188-617 216-660 242-706 269-757 286-790 289-797 298-812L200-848C191-808 166-753 127-686L92-725 40-637C83-596 133-539 172-487 149-455 145-449 119-415 98-415 90-415 84-415 65-415 56-416 39-418L50-316ZM540-693H635V-444H540V-693ZM731-692H827V-443H731V-692ZM540-346H635V-78H540V-346ZM731-345H827V-78H731V-345ZM73-279V-259C73-224 71-196 65-148 58-84 52-58 36-7L127 31C149-66 160-160 161-269L73-279ZM313-264C329-183 338-111 342-22L423-44C415-147 407-206 389-283L313-264Z"/>
</g>
<g id="font_22_237">
<path transform="matrix(.001,0,0,-.001,0,0)" d="M715-462V-29C715-9 707-5 673-5 632-5 589-9 532-17 541 6 545 24 548 52 591 55 638 57 670 57 758 57 782 40 782-24V-462H839C885-462 922-460 948-456V-526C925-522 889-520 838-520H487C439-520 400-522 376-526V-456C400-460 440-462 487-462H715ZM280-832C264-795 239-760 189-710 149-669 113-640 57-604 76-589 87-577 102-555 192-620 264-690 324-772 333-784 335-787 342-794L280-832ZM417-707C447-711 481-713 521-713H801C841-713 874-711 904-707V-777C876-773 846-771 801-771H521C476-771 444-773 417-777V-707ZM204-49C204 4 202 45 197 73H276C271 45 269 5 269-49V-453C297-486 315-509 336-543 351-566 354-571 366-586L304-621C294-594 279-566 256-535 196-454 132-391 54-338 70-322 81-306 93-281 142-319 171-347 207-393 205-345 204-316 204-273V-49Z"/>
</g>
<g id="font_15_202">
<path transform="matrix(.001,0,0,-.001,0,0)" d="M204-376C265-337 298-309 348-255 293-143 220-68 88 15 110 33 119 43 133 67 255-16 323-85 384-189 438-281 469-377 492-525 500-574 501-582 503-590 484-587 462-586 420-586H268C283-635 289-661 299-723H454C493-723 524-721 553-718V-783C527-780 495-778 453-778H169C127-778 101-779 75-783V-718C101-721 128-723 165-723H236C227-657 215-608 192-553 156-465 112-402 41-334 60-319 67-311 85-283 163-365 209-435 249-533H430C415-438 402-385 374-313 335-352 295-384 236-426L204-376ZM604-752C608-723 610-693 610-638V-273C610-207 609-184 605-157H679C674-184 674-204 674-273V-638C674-697 675-725 679-752H604ZM827-815C832-781 834-743 834-689V-33C834-9 828-5 791-5 741-5 704-8 654-16 664 9 668 27 670 53 733 56 760 57 781 57 875 57 897 41 897-32V-689C897-744 899-784 904-815H827Z"/>
</g>
<g id="font_11_122">
<path transform="matrix(.001,0,0,-.001,0,0)" d="M554-663C604-661 633-654 670-638 771-593 829-501 829-387 829-264 762-157 652-107 605-85 558-72 485-60 504-36 510-26 520 7 589-8 627-20 672-39 817-101 901-229 901-384 901-480 867-567 804-628 739-692 641-727 529-727 395-727 286-682 206-594 139-519 101-420 101-318 101-178 172-74 267-74 339-74 398-134 456-266 501-371 539-524 554-663ZM482-662C469-534 432-386 391-292 348-194 308-147 266-147 212-147 170-221 170-317 170-441 232-554 333-615 379-643 422-657 482-662Z"/>
</g>
<g id="font_27_48">
<path transform="matrix(.001,0,0,-.001,0,0)" d="M456-645H228C183-645 161-646 136-650V-587C164-591 184-592 229-592H451L441-499H140C101-499 74-501 49-505V-438C77-442 102-444 140-444H316V-19C316-1 306 4 266 4 243 4 216 0 176-9 185 17 187 31 189 57 233 61 259 62 285 62 357 62 378 45 378-13V-444H535C574-444 594-443 618-439V-504C595-500 574-499 536-499H501L524-730C527-756 529-777 531-790 508-787 487-786 445-786H215C174-786 146-788 117-792V-726C142-730 167-731 215-731H464L456-645ZM551-403C516-353 487-323 420-271L462-230C523-279 549-305 600-366L551-403ZM631-61C571-110 513-151 436-197L400-152C480-104 521-73 596-8L631-61ZM652-763C657-736 658-707 658-653V-270C658-206 657-185 653-158H725C721-184 720-205 720-270V-654C720-709 722-738 726-763H652ZM88-363C133-329 176-286 221-230L267-270C217-328 179-365 133-402L88-363ZM268-205C206-163 197-158 92-106 72-96 60-91 42-86L70-23C78-28 81-30 87-34 101-42 101-42 107-46 117-52 117-52 157-73 190-90 236-119 283-150L268-205ZM837-824C842-795 844-765 844-705V-33C844-7 836-2 799-2 767-2 728-6 689-13 700 11 704 27 708 53 745 56 774 57 798 57 885 57 907 39 907-32V-703C907-759 909-795 914-824H837Z"/>
</g>
<g id="font_11_88">
<path transform="matrix(.001,0,0,-.001,0,0)" d="M728-785C758-753 806-679 831-626L881-656C851-715 823-757 778-811L728-785ZM84-477C129-490 157-495 285-513 240-324 154-124 71-15L139 25C243-158 313-332 355-519 392-523 405-524 427-524 520-524 550-490 550-384 550-272 535-170 508-106 495-74 476-58 451-58 415-58 359-75 302-104 305-86 305-80 305-65 305-51 305-44 303-29 369-1 411 10 454 10 501 10 528-3 552-37 593-95 619-228 619-381 619-463 605-509 570-542 539-572 497-584 426-584 403-584 390-583 367-581 375-624 384-670 388-695 396-749 401-772 407-791L327-800C327-794 327-789 327-787 327-745 314-650 297-575 150-554 112-550 76-549L84-477ZM842-838C881-793 923-728 944-681L994-710C961-773 936-810 891-865L842-838ZM674-610C764-521 845-378 878-251L942-287C900-419 832-535 733-641L674-610Z"/>
</g>
<g id="font_11_99">
<path transform="matrix(.001,0,0,-.001,0,0)" d="M232-780C235-760 236-748 236-727 236-711 236-692 235-662 227-347 226-322 226-255 226-150 240-97 281-50 321-4 384 20 469 20 586 20 680-21 751-105 795-156 824-215 862-332 830-348 818-356 790-380 776-310 764-271 741-223 684-109 592-49 473-49 421-49 376-63 348-88 318-115 305-148 301-208 300-231 299-256 299-268 299-313 302-449 306-569 309-695 313-746 319-780H232Z"/>
</g>
<g id="font_12_91">
<path transform="matrix(.001,0,0,-.001,0,0)" d="M458-664H173C124-664 94-666 62-671V-596C89-600 123-602 174-602H384C376-392 337-256 255-150 200-78 145-34 52 12 77 34 87 44 101 68 156 37 178 22 210-5 260-47 302-94 334-143 380-215 407-285 429-399H743C737-266 729-180 712-96 697-22 687-10 644-10 600-10 551-15 493-26 503 0 506 13 509 45 563 51 616 54 648 54 728 54 752 33 773-53 790-121 807-275 811-394 813-433 814-444 816-464 791-460 766-459 713-459H440C448-513 450-538 454-602H833C891-602 918-601 946-596V-671C915-666 882-664 831-664H525V-739C525-778 527-806 531-827H451C455-801 458-774 458-739V-664Z"/>
</g>
<g id="font_11_116">
<path transform="matrix(.001,0,0,-.001,0,0)" d="M310-785C316-769 318-764 327-722 353-594 372-524 400-442 338-411 307-392 269-361 210-313 180-255 180-191 180-112 222-57 304-27 352-9 427 0 526 0 596 0 644-3 747-13 802-19 802-19 821-19L813-102C754-81 642-68 527-68 331-68 254-103 254-194 254-277 328-343 499-411 587-447 730-493 800-508L770-584C750-574 741-571 706-558 551-504 523-493 464-469 430-569 393-733 389-800L310-785Z"/>
</g>
<g id="font_11_216">
<path transform="matrix(.001,0,0,-.001,0,0)" d="M106-241C118-257 127-268 134-276 181-329 271-440 315-498 359-557 364-562 384-562 404-562 408-559 474-488 608-344 721-234 813-157 852-123 878-102 883-97 885-95 893-88 902-80L940-162C863-203 655-393 515-549 443-629 426-641 386-641 341-641 315-622 259-546 145-400 80-327 55-316L106-241ZM645-681C674-649 723-575 747-522L798-552C768-611 740-653 695-707L645-681ZM759-734C797-689 839-624 861-577L911-606C878-669 853-706 807-761L759-734Z"/>
</g>
<g id="font_11_176">
<path transform="matrix(.001,0,0,-.001,0,0)" d="M793-549C890-548 890-548 917-546V-619C876-614 857-613 794-613 345-613 345-613 329-612 341-631 358-668 381-721 394-753 397-758 406-776L330-800C322-759 309-724 279-660 223-542 157-457 65-384 97-367 106-360 124-337 196-403 241-458 298-549H574C565-363 523-251 431-163 370-104 307-66 220-33 246-12 255 0 269 31 342-5 381-27 423-58 501-116 558-186 594-268 626-342 637-402 648-549H793Z"/>
</g>
<path id="font_5_28" d="M.47000123 .6220703V.6972656H.11999512L.054000856 .32859803 .1269989 .32460023C.1436615 .3445994 .16282654 .36076356 .18449402 .37309266 .2061615 .38543193 .23099773 .39160157 .2590027 .39160157 .28299967 .39160157 .30482994 .38760887 .3244934 .3796234 .34416709 .37164817 .3610026 .3605143 .375 .34622193 .38900758 .33192954 .3998413 .31497193 .40750123 .29534913 .4151713 .27573649 .41900636 .25429789 .41900636 .23103333 .41900636 .20310974 .41500346 .17867534 .40699769 .1577301 .39900209 .13678487 .38816834 .11932882 .37449647 .10536194 .36083476 .091405238 .34483338 .08093262 .3264923 .07394409 .3081614 .06696574 .28899638 .06347656 .2689972 .06347656 .2476654 .06347656 .22816468 .06664022 .210495 .07296753 .19282532 .079305019 .17749024 .0883077 .16448975 .099975589 .15148926 .11164347 .14115398 .12531026 .13348389 .14097595 .12582398 .15664165 .12132772 .17347209 .11999512 .19146729H.035003663C.03567505 .15947469 .042007448 .13080852 .054000856 .10546875 .06600443 .08013916 .082336429 .058949789 .102996829 .041900636 .1236674 .024861655 .14750164 .0118255619 .17449951 .0027923585 .20149739-.0062306725 .23033142-.0107421879 .2610016-.0107421879 .30233256-.0107421879 .33849589-.0042521159 .36949159 .008728027 .40049745 .021718344 .42633058 .039204915 .44699098 .061187746 .46766154 .08317057 .48316447 .10831197 .49349977 .13661194 .503835 .16492208 .5090027 .19406128 .5090027 .22402954 .5090027 .2646586 .5030009 .30012513 .4909973 .33042909 .4790039 .36073304 .4626719 .38604228 .44200135 .4063568 .42133079 .42667137 .396993 .44182334 .36898805 .45181275 .34099327 .46180216 .31133018 .46679688 .27999879 .46679688 .2560018 .46679688 .23183187 .46261598 .20748902 .45425416 .18315633 .4459025 .163325 .43303935 .147995 .41566468L.1459961 .41766358 .18400574 .6220703H.47000123Z"/>
<g id="font_26_246">
<path transform="matrix(.001,0,0,-.001,0,0)" d="M440-489C440-462 440-462 439-434H263C214-434 197-435 173-438V-343C199-346 215-347 263-347H432C429-323 427-312 423-293H161C111-293 87-294 60-298V-193C96-197 128-199 167-199H388C358-148 319-112 261-82 201-51 149-36 44-21 73 21 79 32 97 83 208 61 271 37 341-7 408-50 451-96 487-164 549-76 617-22 724 26 777 49 818 62 911 84 924 42 940 11 963-24 908-34 877-40 852-47 782-64 720-88 676-115 638-139 619-156 583-199H838C882-199 910-197 946-193V-298C918-294 893-293 843-293H531C535-314 536-322 539-347H732C779-347 795-346 821-343V-438C797-435 781-434 732-434H545C546-457 546-457 547-489H748C795-489 818-488 843-484V-537H935C932-560 931-582 931-611V-687C931-714 932-735 935-760 901-757 875-756 824-756H550V-779C550-804 551-822 555-842H432C436-820 438-804 438-779V-756H178C128-756 100-757 68-760 71-734 72-712 72-685V-611C72-578 71-560 67-537H159V-484C182-488 207-489 253-489H440ZM253-577C216-577 194-578 176-580V-662H827V-580C802-578 786-577 748-577H549C550-617 550-629 553-641H437C440-622 440-609 441-577H253Z"/>
</g>
<g id="font_7_2">
<path transform="matrix(.001,0,0,-.001,0,0)" d="M496-258C524-185 558-136 615-84 695-12 785 37 921 83 942 32 956 6 979-23 892-43 824-69 756-109 796-136 825-159 878-205L786-255C754-219 733-202 679-164 640-199 622-221 602-258H840C887-258 916-257 949-253V-359C923-356 888-354 841-354H556V-369C556-395 557-410 560-428H445C448-409 449-394 449-370V-354H163C113-354 82-355 50-359V-253C83-257 111-258 159-258H344C255-198 164-160 32-126 60-88 73-67 88-31 176-64 244-95 311-135V-29C269-24 230-21 211-21 189-21 187-21 169-21L189 85C328 69 464 44 596 10V-86C555-74 481-57 415-45V-206C444-230 456-240 475-258H496ZM263-490C263-451 261-425 257-399H371C368-422 367-434 367-490V-754C367-797 368-816 372-838H257C261-813 263-789 263-754V-603C160-561 109-545 39-532L73-429C95-438 99-439 129-450 189-473 222-487 263-507V-490ZM601-643V-544H514C472-544 446-545 422-548V-446C446-449 482-451 520-451H821C866-451 889-450 912-446V-549C886-545 864-544 818-544H709V-643H849C896-643 922-642 949-638V-741C921-737 894-736 849-736H709V-761C709-798 710-816 714-838H595C600-815 601-796 601-759V-736H500C455-736 429-737 401-741V-638C429-642 457-643 500-643H601ZM52-750C111-696 132-672 172-614L248-683C199-745 182-763 128-813L52-750Z"/>
</g>
<path id="font_5_42" d="M.58000186 .49935914H.67500308C.66967269 .5373637 .65834048 .5708669 .64100649 .5998688 .6236725 .62887069 .602005 .65304568 .576004 .6723938 .55000308 .69174197 .5203349 .7064209 .4869995 .71643069 .45366416 .7264404 .41832987 .7314453 .3809967 .7314453 .32632957 .7314453 .27782694 .72160848 .23548889 .7019348 .19316101 .6822713 .15783184 .6554362 .12950135 .62142947 .10117086 .58743289 .07967123 .5475972 .06500244 .5019226 .05033366 .45624797 .042999269 .40740968 .042999269 .3554077 .042999269 .30340577 .04983012 .25473533 .06349182 .20939636 .0771637 .16405742 .09766642 .12472025 .125 .09138489 .15233357 .05804952 .18666585 .031880697 .22799683 .012878418 .2693278-.006123861 .31766258-.015625 .3730011-.015625 .46433006-.015625 .5363261 .009389241 .58898928 .059417726 .6416626 .10945638 .67266848 .17947388 .68200686 .2694702H.5870056C.58500167 .24014282 .5789998 .21280925 .56900027 .18746948 .5590007 .1621399 .545166 .14030457 .52749636 .1219635 .50983688 .10363261 .48883567 .08929952 .4644928 .07896423 .44016014 .06863912 .4123281 .06347656 .3809967 .06347656 .33833314 .06347656 .30166627 .07147217 .2709961 .08746338 .2403361 .10346476 .21516927 .12496439 .1954956 .15196228 .17583211 .17896016 .16133118 .21062215 .1519928 .24694824 .1426646 .28327433 .13800049 .32176719 .13800049 .36242677 .13800049 .39974977 .1426646 .43574015 .1519928 .47039796 .16133118 .5050557 .17583211 .5358836 .1954956 .56288149 .21516927 .58987936 .24016826 .6113739 .27049256 .6273651 .30082704 .6433665 .33733116 .6513672 .38000489 .6513672 .43000285 .6513672 .4731649 .6386973 .50949099 .61335757 .5458272 .58802798 .5693309 .5500285 .58000186 .49935914Z"/>
<path id="font_5_18" d="M.33399964 .28710938V.5058594H.26600648V.28710938H.04800415V.21875H.26600648V0H.33399964V.21875H.55200198V.28710938H.33399964Z"/>
<g id="font_11_178">
<path transform="matrix(.001,0,0,-.001,0,0)" d="M749-72V-12H829C826-30 824-66 824-103V-615C824-651 824-668 826-693 801-692 787-691 774-691H294C229-691 214-692 179-698V-618C213-622 234-623 294-623H749V-140H273C211-140 197-141 164-147V-68C190-71 190-71 271-72H749Z"/>
</g>
<g id="font_10_119">
<path transform="matrix(.001,0,0,-.001,0,0)" d="M337-585C350-607 372-645 383-669 403-707 409-718 419-732L389-765C377-763 366-762 333-762H238C239-764 245-777 255-802 262-819 263-821 267-829L204-844C199-821 194-806 184-779 148-690 106-625 39-558 63-543 70-537 86-518 99-534 103-539 112-551 113-529 113-502 113-474 113-306 111-245 105-177 96-83 82-33 48 26 74 40 75 40 104 66 141-15 153-65 164-190H401V-22C401-5 393-1 362-1 343-1 307-4 269-9 277 14 280 29 281 52 337 55 344 55 358 55 438 55 457 42 457-13V-501C457-541 458-568 461-590 432-586 406-585 369-585H337ZM211-585C176-585 165-585 139-586 171-632 192-666 214-710H342C319-661 298-622 275-585H211ZM167-242C169-288 169-288 170-366H259V-242H167ZM401-242H311V-366H401V-242ZM401-417H311V-532H401V-417ZM259-532V-417H170L171-466V-532H259ZM632-735C624-685 617-664 598-635 572-594 538-566 472-531 492-514 503-500 513-482 589-528 621-557 652-610 675-648 684-675 695-735H842C837-669 832-634 823-601 817-579 807-573 778-573 755-573 728-577 689-585 697-561 699-550 701-526 741-521 769-519 793-519 853-519 873-537 886-606 893-643 900-701 904-753 906-772 906-775 908-791 882-788 855-787 816-787H588C540-787 513-789 488-793V-729C511-733 538-735 583-735H632ZM696-334V-213H572C536-213 512-215 485-219V-152C513-156 536-157 571-157H696V-19C696 18 694 42 690 70H760C756 43 754 19 754-19V-157H860C903-157 927-156 951-153V-219C922-215 896-213 857-213H754V-334H830C873-334 900-333 924-329V-395C904-391 878-389 830-389H754V-414C754-445 756-468 759-494H690C694-469 696-444 696-414V-389H603C609-406 609-406 626-456L565-470C565-460 562-446 555-422 538-357 519-319 482-269 503-262 515-256 536-242 561-281 571-301 583-334H696Z"/>
</g>
<g id="font_14_144">
<path transform="matrix(.001,0,0,-.001,0,0)" d="M555-349C554-255 548-200 532-148 507-65 463-15 377 28 399 44 412 57 425 77 504 31 550-23 580-103 604-166 614-235 616-349H707V-13C707 51 722 60 823 60 937 60 951 43 965-123 946-128 932-134 906-151 903-71 898-31 887-14 880-2 862 2 824 2 775 2 768-2 768-27V-349H840C864-349 883-348 911-345 909-364 908-383 908-409V-566C908-592 909-614 911-638 887-635 867-634 832-634H773C804-682 827-725 861-804L796-828C770-748 750-702 709-634H532C493-634 472-635 447-638 450-620 451-592 451-560V-413C451-386 450-364 448-345 473-348 493-349 517-349H555ZM510-577H849V-405H510V-577ZM106-733C129-736 148-737 178-737H311C340-737 359-736 383-733V-796C360-792 344-791 311-791H178C145-791 128-792 106-796V-733ZM60-592C84-595 105-596 140-596H340C376-596 392-595 413-592V-657C391-653 375-652 333-652H140C102-652 83-653 60-657V-592ZM105-454C125-457 141-458 173-458H313C342-458 357-457 379-454V-516C360-513 345-512 313-512H173C141-512 123-513 105-516V-454ZM105-316C127-319 140-320 172-320H312C344-320 357-319 379-316V-378C362-375 345-374 312-374H173C140-374 124-375 105-378V-316ZM165 72V13H322C348 13 349 13 380 15 378-8 378-21 378-53V-164C378-201 379-222 381-243 364-241 354-240 320-240H167C134-240 120-241 103-244 106-219 107-192 107-162V-25C107 6 105 42 102 72H165ZM164-188H322V-40H164V-188ZM622-677C595-737 577-769 536-827L481-799C522-742 543-704 565-646L622-677Z"/>
</g>
<path id="font_5_29" d="M.41400147 .5283203H.49899293C.4936625 .58687338 .47366334 .6316223 .43899537 .66256716 .4043274 .69351199 .35766093 .7089844 .29899598 .7089844 .24833679 .7089844 .20633953 .6983185 .17300415 .6769867 .13966878 .6556651 .1130015 .6273448 .09300232 .59202578 .073003139 .5567067 .058832807 .5162201 .050491334 .4705658 .042160036 .42492167 .037994386 .3777771 .037994386 .32913209 .037994386 .29180909 .040827436 .25315348 .04649353 .21316529 .052159627 .17318726 .06365967 .13653565 .08099365 .10321045 .09832764 .069895427 .12299601 .04257202 .15499878 .021240235 .18700154-.00008138021 .22933452-.0107421879 .28199769-.0107421879 .32666526-.0107421879 .36416627-.003245036 .39450074 .011749268 .4248352 .02674357 .44916789 .045735677 .46749879 .068725589 .48582969 .09171549 .49899293 .11720276 .5069885 .14518738 .5149943 .173172 .5189972 .20015972 .5189972 .22615052 .5189972 .25880433 .5139974 .28912355 .5039978 .31710816 .4939982 .34510295 .47982789 .36942546 .46148683 .39007569 .4431559 .41073609 .42049156 .42689515 .39349366 .43855287 .36649577 .45022074 .33599855 .4560547 .30200196 .4560547 .26333619 .4560547 .22916667 .4487203 .19949341 .4340515 .16983032 .4193929 .14499919 .3957316 .125 .36306764L.1230011 .36506654C.123662319 .39240013 .12632752 .42171733 .1309967 .4530182 .1356659 .48432923 .14416504 .5134633 .15649414 .54042056 .16883342 .5673879 .18599956 .58969119 .20799256 .6073303 .22999573 .6249695 .2589976 .63378909 .29499818 .63378909 .32899476 .63378909 .35632835 .62417098 .3769989 .6049347 .39766947 .5856984 .41000367 .56016036 .41400147 .5283203M.28601075 .38085938C.31000773 .38085938 .33100382 .37653099 .34899903 .36787416 .3670044 .3592275 .38200379 .3477529 .3939972 .33345033 .40600077 .31914775 .4148356 .30217997 .4205017 .282547 .42616783 .2629242 .42900086 .24213155 .42900086 .22016907 .42900086 .19954936 .42583213 .17975362 .41949464 .16078186 .41316734 .14182027 .40400187 .12502034 .3919983 .11038208 .38000489 .09574381 .36517335 .08426412 .34750367 .07594299 .32983399 .06763204 .30933634 .06347656 .28601075 .06347656 .26267497 .06347656 .24183655 .06763204 .22349549 .07594299 .2051646 .08426412 .1898346 .09540812 .1775055 .109375 .16517639 .12335205 .15567525 .13998921 .14900208 .1592865 .14233907 .17858379 .13900757 .19921367 .13900757 .22117615 .13900757 .24312847 .14217122 .26391603 .14849854 .28353883 .15483602 .30317179 .16433716 .32013957 .17700196 .33444215 .18966675 .34875489 .20499675 .36006675 .22299195 .3683777 .24099732 .37669883 .26200358 .38085938 .28601075 .38085938Z"/>
<g id="font_19_138">
<path transform="matrix(.001,0,0,-.001,0,0)" d="M899-106C885-114 880-118 863-129 755-205 677-244 589-270 588-294 588-294 585-391 624-393 639-394 653-395 728-402 773-407 788-409 811-412 836-415 853-416L850-526C805-514 789-512 726-504 634-494 634-494 584-491 583-553 583-565 582-590 670-595 709-598 797-610 854-618 854-618 876-619L871-730C806-711 719-700 583-692 584-774 585-787 590-814H463C467-789 467-788 468-688 443-687 409-686 393-686 278-686 175-694 124-707L123-596C130-596 135-596 139-596 142-596 150-596 161-595 228-590 357-585 406-585 421-585 437-585 469-586 470-529 470-495 470-486 442-485 408-484 388-484 293-484 198-491 155-501L153-393C168-393 178-393 191-392 274-386 311-385 372-385 393-385 424-386 472-387 473-347 473-347 474-333 474-323 474-316 474-311 475-299 475-299 475-287 449-290 432-291 408-291 240-291 141-227 141-118 141-19 225 38 371 38 444 38 498 24 536-5 574-34 592-77 592-140 592-142 592-146 592-151 616-141 624-138 646-126 718-89 787-38 831 11L899-106ZM477-183C477-183 477-163 477-159 477-129 473-108 465-95 451-75 420-63 378-63 307-63 264-86 264-123 264-166 313-192 394-192 424-192 444-190 477-183Z"/>
</g>
<g id="font_19_116">
<path transform="matrix(.001,0,0,-.001,0,0)" d="M298-801C303-786 304-784 314-736 339-613 356-546 381-465 316-432 284-412 245-379 188-331 156-267 156-200 156-128 188-66 243-33 307 5 394 22 533 22 603 22 659 18 767 7 821 1 826 0 848 0L837-137C762-111 639-96 514-96 353-96 285-127 285-200 285-272 358-336 504-390 616-431 747-469 834-486L791-612C776-605 771-603 753-597 559-533 559-533 494-509 462-611 432-755 428-822L298-801Z"/>
</g>
<g id="font_19_141">
<path transform="matrix(.001,0,0,-.001,0,0)" d="M191-763C197-748 199-742 201-729 212-673 230-586 235-571 131-493 75-387 75-264 75-129 144-39 247-39 281-39 309-47 340-66 380-89 423-130 459-176 532-271 601-412 641-549 682-537 704-527 731-506 781-467 804-417 804-351 804-307 792-265 770-228 743-185 698-150 630-121 575-97 536-88 467-82 505-32 514-15 529 35 606 19 644 8 692-13 841-76 926-195 926-342 926-446 884-531 804-590 765-619 729-635 670-650 674-664 687-713 701-767 703-776 705-783 711-795L585-820C584-787 577-750 556-665 544-665 535-665 529-665 463-665 404-653 336-625 324-676 313-748 312-786L191-763ZM265-452C285-369 301-323 347-222 313-179 281-157 253-157 213-157 185-202 185-267 185-337 209-393 265-452ZM422-320C421-325 420-327 417-335 386-414 373-455 357-524 410-553 460-564 529-564 496-464 469-401 429-333 426-328 426-327 423-320H422Z"/>
</g>
</defs>
<path transform="matrix(.75,0,0,.75,0,0)" d="M0 0H1280V720H0Z" fill="#ffffff"/>
<g clip-path="url(#clip_1)">
<path transform="matrix(.75,0,0,.75,0,-540)" d="M0 720H1280V1440H0Z" fill="#ffffff"/>
</g>
<g clip-path="url(#clip_2)">
<path transform="matrix(.75,0,0,.75,0,0)" d="M0 0H1280V720H0Z" fill="#ffffff"/>
</g>
<g clip-path="url(#clip_3)">
<path transform="matrix(.75,0,0,.75,0,0)" d="M60 232H1220V235H60Z" fill="#bfdbfe"/>
<use data-text="A" xlink:href="#font_4_40" transform="matrix(28.800002,0,0,-28.800002,45,159)" fill="#1e40af"/>
<use data-text="g" xlink:href="#font_4_78" transform="matrix(28.800002,0,0,-28.800002,64.728,159)" fill="#1e40af"/>
<use data-text="e" xlink:href="#font_4_76" transform="matrix(28.800002,0,0,-28.800002,82.32479,159)" fill="#1e40af"/>
<use data-text="n" xlink:href="#font_4_85" transform="matrix(28.800002,0,0,-28.800002,98.85599,159)" fill="#1e40af"/>
<use data-text="d" xlink:href="#font_4_75" transform="matrix(28.800002,0,0,-28.800002,115.93439,159)" fill="#1e40af"/>
<use data-text="a" xlink:href="#font_4_72" transform="matrix(28.800002,0,0,-28.800002,133.53118,159)" fill="#1e40af"/>
<use data-text="1" xlink:href="#font_5_24" transform="matrix(18,0,0,-18,60.972658,212.25)" fill="#1e293b"/>
<use data-text="." xlink:href="#font_5_21" transform="matrix(18,0,0,-18,70.98065,212.25)" fill="#1e293b"/>
<use data-text=" " xlink:href="#font_5_3" transform="matrix(18,0,0,-18,75.98465,212.25)" fill="#1e293b"/>
<use data-text="&#x554f;" xlink:href="#font_6_254" transform="matrix(18,0,0,-18,81,212.25)" fill="#b45309"/>
<use data-text="&#x984c;" xlink:href="#font_7_85" transform="matrix(18,0,0,-18,99,212.25)" fill="#b45309"/>
<use data-text="&#x6982;" xlink:href="#font_8_152" transform="matrix(18,0,0,-18,117,212.25)" fill="#b45309"/>
<use data-text="&#x8981;" xlink:href="#font_9_80" transform="matrix(18,0,0,-18,135,212.25)" fill="#b45309"/>
<use data-text=" " xlink:href="#font_5_3" transform="matrix(18,0,0,-18,153,212.25)" fill="#1e293b"/>
<use data-text="&#x2014;" xlink:href="#font_5_183" transform="matrix(18,0,0,-18,158.004,212.25)" fill="#1e293b"/>
<use data-text=" " xlink:href="#font_5_3" transform="matrix(18,0,0,-18,176.004,212.25)" fill="#1e293b"/>
<use data-text="&#x4f55;" xlink:href="#font_10_68" transform="matrix(18,0,0,-18,181.008,212.25)" fill="#1e293b"/>
<use data-text="&#x3092;" xlink:href="#font_11_158" transform="matrix(18,0,0,-18,199.008,212.25)" fill="#1e293b"/>
<use data-text="&#x554f;" xlink:href="#font_12_254" transform="matrix(18,0,0,-18,217.008,212.25)" fill="#1e293b"/>
<use data-text="&#x308f;" xlink:href="#font_11_155" transform="matrix(18,0,0,-18,235.008,212.25)" fill="#1e293b"/>
<use data-text="&#x308c;" xlink:href="#font_11_152" transform="matrix(18,0,0,-18,253.008,212.25)" fill="#1e293b"/>
<use data-text="&#x3066;" xlink:href="#font_11_114" transform="matrix(18,0,0,-18,270.10798,212.25)" fill="#1e293b"/>
<use data-text="&#x3044;" xlink:href="#font_11_80" transform="matrix(18,0,0,-18,288.10798,212.25)" fill="#1e293b"/>
<use data-text="&#x308b;" xlink:href="#font_11_151" transform="matrix(18,0,0,-18,306.10798,212.25)" fill="#1e293b"/>
<use data-text="&#x304b;" xlink:href="#font_11_87" transform="matrix(18,0,0,-18,324.10798,212.25)" fill="#1e293b"/>
<use data-text="&#x30fb;" xlink:href="#font_13_128" transform="matrix(18,0,0,-18,342.10798,212.25)" fill="#1e293b"/>
<use data-text="&#x5236;" xlink:href="#font_14_87" transform="matrix(18,0,0,-18,360.10798,212.25)" fill="#1e293b"/>
<use data-text="&#x7d04;" xlink:href="#font_15_14" transform="matrix(18,0,0,-18,378.10798,212.25)" fill="#1e293b"/>
<use data-text="2" xlink:href="#font_5_25" transform="matrix(18,0,0,-18,60.972658,249.75)" fill="#1e293b"/>
<use data-text="." xlink:href="#font_5_21" transform="matrix(18,0,0,-18,70.98065,249.75)" fill="#1e293b"/>
<use data-text=" " xlink:href="#font_5_3" transform="matrix(18,0,0,-18,75.98465,249.75)" fill="#1e293b"/>
<use data-text="&#x5fc5;" xlink:href="#font_16_171" transform="matrix(18,0,0,-18,81,249.75)" fill="#b45309"/>
<use data-text="&#x8981;" xlink:href="#font_9_80" transform="matrix(18,0,0,-18,99,249.75)" fill="#b45309"/>
<use data-text="&#x6761;" xlink:href="#font_17_227" transform="matrix(18,0,0,-18,117,249.75)" fill="#b45309"/>
<use data-text="&#x4ef6;" xlink:href="#font_18_76" transform="matrix(18,0,0,-18,135,249.75)" fill="#b45309"/>
<use data-text="&#x306e;" xlink:href="#font_19_122" transform="matrix(18,0,0,-18,153,249.75)" fill="#b45309"/>
<use data-text="&#x767a;" xlink:href="#font_16_80" transform="matrix(18,0,0,-18,171,249.75)" fill="#b45309"/>
<use data-text="&#x2f92;" xlink:href="#font_18_102" transform="matrix(18,0,0,-18,189,249.75)" fill="#b45309"/>
<use data-text=" " xlink:href="#font_5_3" transform="matrix(18,0,0,-18,207,249.75)" fill="#1e293b"/>
<use data-text="&#x2014;" xlink:href="#font_5_183" transform="matrix(18,0,0,-18,212.004,249.75)" fill="#1e293b"/>
<use data-text=" " xlink:href="#font_5_3" transform="matrix(18,0,0,-18,230.004,249.75)" fill="#1e293b"/>
<use data-text="&#x5e02;" xlink:href="#font_20_170" transform="matrix(18,0,0,-18,235.008,249.75)" fill="#1e293b"/>
<use data-text="&#x677e;" xlink:href="#font_21_175" transform="matrix(18,0,0,-18,253.008,249.75)" fill="#1e293b"/>
<use data-text="&#x6a21;" xlink:href="#font_12_233" transform="matrix(18,0,0,-18,271.008,249.75)" fill="#1e293b"/>
<use data-text="&#x69d8;" xlink:href="#font_15_70" transform="matrix(18,0,0,-18,289.008,249.75)" fill="#1e293b"/>
<use data-text="&#xff08;" xlink:href="#font_13_164" transform="matrix(18,0,0,-18,307.008,249.75)" fill="#1e293b"/>
<use data-text="&#x30c1;" xlink:href="#font_11_192" transform="matrix(18,0,0,-18,325.008,249.75)" fill="#1e293b"/>
<use data-text="&#x30a7;" xlink:href="#font_11_166" transform="matrix(18,0,0,-18,343.008,249.75)" fill="#1e293b"/>
<use data-text="&#x30c3;" xlink:href="#font_11_194" transform="matrix(18,0,0,-18,361.008,249.75)" fill="#1e293b"/>
<use data-text="&#x30ab;" xlink:href="#font_11_170" transform="matrix(18,0,0,-18,379.008,249.75)" fill="#1e293b"/>
<use data-text="&#x30fc;" xlink:href="#font_13_150" transform="matrix(18,0,0,-18,397.008,249.75)" fill="#1e293b"/>
<use data-text="&#x30dc;" xlink:href="#font_11_219" transform="matrix(18,0,0,-18,415.008,249.75)" fill="#1e293b"/>
<use data-text="&#x30fc;" xlink:href="#font_13_150" transform="matrix(18,0,0,-18,432.46803,249.75)" fill="#1e293b"/>
<use data-text="&#x30c9;" xlink:href="#font_11_200" transform="matrix(18,0,0,-18,450.46803,249.75)" fill="#1e293b"/>
<use data-text="&#xff09;" xlink:href="#font_13_165" transform="matrix(18,0,0,-18,468.46803,249.75)" fill="#1e293b"/>
<use data-text="&#x3067;" xlink:href="#font_11_115" transform="matrix(18,0,0,-18,486.46803,249.75)" fill="#1e293b"/>
<use data-text="&#x8003;" xlink:href="#font_22_230" transform="matrix(18,0,0,-18,504.46803,249.75)" fill="#1e293b"/>
<use data-text="&#x3048;" xlink:href="#font_11_84" transform="matrix(18,0,0,-18,522.468,249.75)" fill="#1e293b"/>
<use data-text="&#x308b;" xlink:href="#font_11_151" transform="matrix(18,0,0,-18,539.92807,249.75)" fill="#1e293b"/>
<use data-text="3" xlink:href="#font_5_26" transform="matrix(18,0,0,-18,60.972658,286.5)" fill="#1e293b"/>
<use data-text="." xlink:href="#font_5_21" transform="matrix(18,0,0,-18,70.98065,286.5)" fill="#1e293b"/>
<use data-text=" " xlink:href="#font_5_3" transform="matrix(18,0,0,-18,75.98465,286.5)" fill="#1e293b"/>
<use data-text="&#x2f17;" xlink:href="#font_17_80" transform="matrix(18,0,0,-18,81,286.5)" fill="#b45309"/>
<use data-text="&#x5206;" xlink:href="#font_6_10" transform="matrix(18,0,0,-18,99,286.5)" fill="#b45309"/>
<use data-text="&#x6761;" xlink:href="#font_17_227" transform="matrix(18,0,0,-18,117,286.5)" fill="#b45309"/>
<use data-text="&#x4ef6;" xlink:href="#font_18_76" transform="matrix(18,0,0,-18,135,286.5)" fill="#b45309"/>
<use data-text="&#x306e;" xlink:href="#font_19_122" transform="matrix(18,0,0,-18,153,286.5)" fill="#b45309"/>
<use data-text="&#x8a3c;" xlink:href="#font_17_203" transform="matrix(18,0,0,-18,171,286.5)" fill="#b45309"/>
<use data-text="&#x660e;" xlink:href="#font_6_218" transform="matrix(18,0,0,-18,189,286.5)" fill="#b45309"/>
<use data-text=" " xlink:href="#font_5_3" transform="matrix(18,0,0,-18,207,286.5)" fill="#1e293b"/>
<use data-text="&#x2014;" xlink:href="#font_5_183" transform="matrix(18,0,0,-18,212.004,286.5)" fill="#1e293b"/>
<use data-text=" " xlink:href="#font_5_3" transform="matrix(18,0,0,-18,230.004,286.5)" fill="#1e293b"/>
<use data-text="&#x518d;" xlink:href="#font_20_62" transform="matrix(18,0,0,-18,235.008,286.5)" fill="#1e293b"/>
<use data-text="&#x5e30;" xlink:href="#font_23_66" transform="matrix(18,0,0,-18,253.008,286.5)" fill="#1e293b"/>
<use data-text="&#x7684;" xlink:href="#font_24_48" transform="matrix(18,0,0,-18,271.008,286.5)" fill="#1e293b"/>
<use data-text="&#x306b;" xlink:href="#font_11_119" transform="matrix(18,0,0,-18,289.008,286.5)" fill="#1e293b"/>
<use data-text="&#x30d1;" xlink:href="#font_11_208" transform="matrix(18,0,0,-18,307.008,286.5)" fill="#1e293b"/>
<use data-text="&#x30b9;" xlink:href="#font_11_184" transform="matrix(18,0,0,-18,325.008,286.5)" fill="#1e293b"/>
<use data-text="&#x3092;" xlink:href="#font_11_158" transform="matrix(18,0,0,-18,343.008,286.5)" fill="#1e293b"/>
<use data-text="&#x69cb;" xlink:href="#font_22_214" transform="matrix(18,0,0,-18,361.008,286.5)" fill="#1e293b"/>
<use data-text="&#x6210;" xlink:href="#font_14_92" transform="matrix(18,0,0,-18,379.008,286.5)" fill="#1e293b"/>
<use data-text="&#x3059;" xlink:href="#font_11_101" transform="matrix(18,0,0,-18,397.008,286.5)" fill="#1e293b"/>
<use data-text="&#x308b;" xlink:href="#font_11_151" transform="matrix(18,0,0,-18,415.008,286.5)" fill="#1e293b"/>
<use data-text="4" xlink:href="#font_5_27" transform="matrix(18,0,0,-18,60.972658,323.25)" fill="#1e293b"/>
<use data-text="." xlink:href="#font_5_21" transform="matrix(18,0,0,-18,70.98065,323.25)" fill="#1e293b"/>
<use data-text=" " xlink:href="#font_5_3" transform="matrix(18,0,0,-18,75.98465,323.25)" fill="#1e293b"/>
<use data-text="&#x69cb;" xlink:href="#font_18_214" transform="matrix(18,0,0,-18,81,323.25)" fill="#b45309"/>
<use data-text="&#x6210;" xlink:href="#font_25_92" transform="matrix(18,0,0,-18,99,323.25)" fill="#b45309"/>
<use data-text="&#x6cd5;" xlink:href="#font_6_93" transform="matrix(18,0,0,-18,117,323.25)" fill="#b45309"/>
<use data-text="&#x306e;" xlink:href="#font_19_122" transform="matrix(18,0,0,-18,135,323.25)" fill="#b45309"/>
<use data-text="&#x8a73;" xlink:href="#font_17_205" transform="matrix(18,0,0,-18,153,323.25)" fill="#b45309"/>
<use data-text="&#x7d30;" xlink:href="#font_26_81" transform="matrix(18,0,0,-18,171,323.25)" fill="#b45309"/>
<use data-text=" " xlink:href="#font_5_3" transform="matrix(18,0,0,-18,189,323.25)" fill="#1e293b"/>
<use data-text="&#x2014;" xlink:href="#font_5_183" transform="matrix(18,0,0,-18,194.004,323.25)" fill="#1e293b"/>
<use data-text=" " xlink:href="#font_5_3" transform="matrix(18,0,0,-18,212.004,323.25)" fill="#1e293b"/>
<use data-text="&#x2f8f;" xlink:href="#font_22_237" transform="matrix(18,0,0,-18,217.008,323.25)" fill="#1e293b"/>
<use data-text="&#x30fb;" xlink:href="#font_13_128" transform="matrix(18,0,0,-18,235.008,323.25)" fill="#1e293b"/>
<use data-text="&#x5217;" xlink:href="#font_15_202" transform="matrix(18,0,0,-18,253.008,323.25)" fill="#1e293b"/>
<use data-text="&#x306e;" xlink:href="#font_11_122" transform="matrix(18,0,0,-18,271.008,323.25)" fill="#1e293b"/>
<use data-text="&#x5265;" xlink:href="#font_27_48" transform="matrix(18,0,0,-18,289.008,323.25)" fill="#1e293b"/>
<use data-text="&#x304c;" xlink:href="#font_11_88" transform="matrix(18,0,0,-18,307.008,323.25)" fill="#1e293b"/>
<use data-text="&#x3057;" xlink:href="#font_11_99" transform="matrix(18,0,0,-18,325.008,323.25)" fill="#1e293b"/>
<use data-text="&#x2f45;" xlink:href="#font_12_91" transform="matrix(18,0,0,-18,343.008,323.25)" fill="#1e293b"/>
<use data-text="&#x3068;" xlink:href="#font_11_116" transform="matrix(18,0,0,-18,361.008,323.25)" fill="#1e293b"/>
<use data-text="&#x30d9;" xlink:href="#font_11_216" transform="matrix(18,0,0,-18,379.008,323.25)" fill="#1e293b"/>
<use data-text="&#x30fc;" xlink:href="#font_13_150" transform="matrix(18,0,0,-18,396.28797,323.25)" fill="#1e293b"/>
<use data-text="&#x30b9;" xlink:href="#font_11_184" transform="matrix(18,0,0,-18,412.308,323.25)" fill="#1e293b"/>
<use data-text="&#x30b1;" xlink:href="#font_11_176" transform="matrix(18,0,0,-18,429.58805,323.25)" fill="#1e293b"/>
<use data-text="&#x30fc;" xlink:href="#font_13_150" transform="matrix(18,0,0,-18,447.58805,323.25)" fill="#1e293b"/>
<use data-text="&#x30b9;" xlink:href="#font_11_184" transform="matrix(18,0,0,-18,463.60804,323.25)" fill="#1e293b"/>
<use data-text="5" xlink:href="#font_5_28" transform="matrix(18,0,0,-18,60.972658,360)" fill="#1e293b"/>
<use data-text="." xlink:href="#font_5_21" transform="matrix(18,0,0,-18,70.98065,360)" fill="#1e293b"/>
<use data-text=" " xlink:href="#font_5_3" transform="matrix(18,0,0,-18,75.98465,360)" fill="#1e293b"/>
<use data-text="&#x5b9f;" xlink:href="#font_26_246" transform="matrix(18,0,0,-18,81,360)" fill="#b45309"/>
<use data-text="&#x88c5;" xlink:href="#font_7_2" transform="matrix(18,0,0,-18,99,360)" fill="#b45309"/>
<use data-text=" " xlink:href="#font_5_3" transform="matrix(18,0,0,-18,117,360)" fill="#1e293b"/>
<use data-text="&#x2014;" xlink:href="#font_5_183" transform="matrix(18,0,0,-18,122.004,360)" fill="#1e293b"/>
<use data-text=" " xlink:href="#font_5_3" transform="matrix(18,0,0,-18,140.004,360)" fill="#1e293b"/>
<use data-text="C" xlink:href="#font_5_42" transform="matrix(18,0,0,-18,145.008,360)" fill="#1e293b"/>
<use data-text="+" xlink:href="#font_5_18" transform="matrix(18,0,0,-18,158.00399,360)" fill="#1e293b"/>
<use data-text="+" xlink:href="#font_5_18" transform="matrix(18,0,0,-18,168.80399,360)" fill="#1e293b"/>
<use data-text=" " xlink:href="#font_5_3" transform="matrix(18,0,0,-18,179.60398,360)" fill="#1e293b"/>
<use data-text="&#x30b3;" xlink:href="#font_11_178" transform="matrix(18,0,0,-18,184.60797,360)" fill="#1e293b"/>
<use data-text="&#x30fc;" xlink:href="#font_13_150" transform="matrix(18,0,0,-18,202.60799,360)" fill="#1e293b"/>
<use data-text="&#x30c9;" xlink:href="#font_11_200" transform="matrix(18,0,0,-18,220.60799,360)" fill="#1e293b"/>
<use data-text="&#x89e3;" xlink:href="#font_10_119" transform="matrix(18,0,0,-18,238.60799,360)" fill="#1e293b"/>
<use data-text="&#x8aac;" xlink:href="#font_14_144" transform="matrix(18,0,0,-18,256.60798,360)" fill="#1e293b"/>
<use data-text="6" xlink:href="#font_5_29" transform="matrix(18,0,0,-18,60.972658,396.75)" fill="#1e293b"/>
<use data-text="." xlink:href="#font_5_21" transform="matrix(18,0,0,-18,70.98065,396.75)" fill="#1e293b"/>
<use data-text=" " xlink:href="#font_5_3" transform="matrix(18,0,0,-18,75.98465,396.75)" fill="#1e293b"/>
<use data-text="&#x307e;" xlink:href="#font_19_138" transform="matrix(18,0,0,-18,81,396.75)" fill="#b45309"/>
<use data-text="&#x3068;" xlink:href="#font_19_116" transform="matrix(18,0,0,-18,99,396.75)" fill="#b45309"/>
<use data-text="&#x3081;" xlink:href="#font_19_141" transform="matrix(18,0,0,-18,117,396.75)" fill="#b45309"/>
<use data-text="2" xlink:href="#font_5_25" transform="matrix(18,0,0,-18,927.48049,515.25)" fill="#777777"/>
</g>
</svg>
